<?xml version="1.0" encoding="utf-8"?>
<!-- Generator: Adobe Illustrator 16.0.0, SVG Export Plug-In . SVG Version: 6.00 Build 0)  -->
<!DOCTYPE svg PUBLIC "-//W3C//DTD SVG 1.1//EN" "http://www.w3.org/Graphics/SVG/1.1/DTD/svg11.dtd">
<svg version="1.1" id="圖層_1" xmlns="http://www.w3.org/2000/svg" xmlns:xlink="http://www.w3.org/1999/xlink" x="0px" y="0px"
	 width="90.708px" height="90.709px" viewBox="0 0 90.708 90.709" enable-background="new 0 0 90.708 90.709" xml:space="preserve">
<linearGradient id="SVGID_1_" gradientUnits="userSpaceOnUse" x1="699.166" y1="-132.7383" x2="1010.9766" y2="-132.7383">
	<stop  offset="0.0635" style="stop-color:#B5B5B6"/>
	<stop  offset="0.254" style="stop-color:#F7F8F8"/>
	<stop  offset="0.6508" style="stop-color:#898989"/>
	<stop  offset="0.9206" style="stop-color:#B5B5B6"/>
</linearGradient>
<path fill="url(#SVGID_1_)" d="M1010.977,136.553c0,23.482-19.037,42.52-42.52,42.52H741.686c-23.483,0-42.52-19.037-42.52-42.52
	v-538.582c0-23.483,19.037-42.52,42.52-42.52h226.771c23.482,0,42.52,19.037,42.52,42.52V136.553z"/>
<path stroke="#000000" stroke-miterlimit="10" d="M1006.725,132.88c0,23.163-18.518,41.941-41.359,41.941H744.778
	c-22.843,0-41.36-18.778-41.36-41.941v-531.237c0-23.163,18.517-41.939,41.36-41.939h220.587c22.842,0,41.359,18.777,41.359,41.939
	V132.88z"/>
<linearGradient id="SVGID_2_" gradientUnits="userSpaceOnUse" x1="855.3877" y1="192.5479" x2="854.7158" y2="-393.4061">
	<stop  offset="0.2222" style="stop-color:#CBE4C1"/>
	<stop  offset="0.9312" style="stop-color:#F8C8C9"/>
</linearGradient>
<path fill="url(#SVGID_2_)" stroke="#000000" stroke-miterlimit="10" d="M1001.189,127.083c0,22.595-17.85,40.911-39.865,40.911
	H748.708c-22.017,0-39.866-18.316-39.866-40.911v-518.18c0-22.594,17.849-40.909,39.866-40.909h212.616
	c22.016,0,39.865,18.315,39.865,40.909V127.083z"/>
<path stroke="#000000" stroke-miterlimit="10" d="M925.217-419.915c-0.633,3.563-4.02,6.404-7.576,6.404H792.736
	c-3.556,0-6.942-2.841-7.576-6.404l-2.143-12.075c-0.684-3.854,1.824-7.033,5.613-7.033h133.116c3.791,0,6.297,3.179,5.613,7.033
	L925.217-419.915z"/>
<path fill="#595757" d="M868.877-426.267c0,0.869-0.992,1.574-2.215,1.574h-22.946c-1.223,0-2.216-0.705-2.216-1.574l0,0
	c0-0.869,0.993-1.574,2.216-1.574h22.946C867.885-427.841,868.877-427.136,868.877-426.267L868.877-426.267z"/>
<g>
	<linearGradient id="SVGID_3_" gradientUnits="userSpaceOnUse" x1="874.9121" y1="-426.2666" x2="879.1016" y2="-426.2666">
		<stop  offset="0.0159" style="stop-color:#433F3E"/>
		<stop  offset="0.3386" style="stop-color:#4D4A49"/>
		<stop  offset="0.5397" style="stop-color:#595757"/>
		<stop  offset="0.9735" style="stop-color:#000000"/>
	</linearGradient>
	<circle fill="url(#SVGID_3_)" cx="877.007" cy="-426.267" r="2.095"/>
	
		<linearGradient id="SVGID_4_" gradientUnits="userSpaceOnUse" x1="622.668" y1="-483.6025" x2="626.0049" y2="-483.6025" gradientTransform="matrix(-0.95 -0.3123 0.3123 -0.95 1621.1543 -690.7101)">
		<stop  offset="0.0159" style="stop-color:#433F3E"/>
		<stop  offset="0.3386" style="stop-color:#4D4A49"/>
		<stop  offset="0.5397" style="stop-color:#595757"/>
		<stop  offset="0.9735" style="stop-color:#000000"/>
	</linearGradient>
	<circle fill="url(#SVGID_4_)" cx="877.007" cy="-426.267" r="1.668"/>
	
		<radialGradient id="SVGID_5_" cx="624.9834" cy="-483.0947" r="1.8292" gradientTransform="matrix(-0.95 -0.3123 0.3123 -0.95 1621.1543 -690.7101)" gradientUnits="userSpaceOnUse">
		<stop  offset="0.0265" style="stop-color:#A9A9A9"/>
		<stop  offset="0.0899" style="stop-color:#686968"/>
		<stop  offset="0.2222" style="stop-color:#172A4F"/>
		<stop  offset="0.5079" style="stop-color:#1A2D76"/>
		<stop  offset="0.7196" style="stop-color:#1E2C5C"/>
		<stop  offset="0.9735" style="stop-color:#080815"/>
	</radialGradient>
	<circle fill="url(#SVGID_5_)" cx="877.007" cy="-426.267" r="1.309"/>
</g>
<g>
	<linearGradient id="SVGID_6_" gradientUnits="userSpaceOnUse" x1="698.0303" y1="-342.9536" x2="698.3298" y2="-266.868">
		<stop  offset="0.0265" style="stop-color:#EFEFEF"/>
		<stop  offset="0.0587" style="stop-color:#F4F4F4"/>
		<stop  offset="0.1005" style="stop-color:#FFFFFF"/>
		<stop  offset="0.3342" style="stop-color:#FFFFFF;stop-opacity:0.1"/>
		<stop  offset="0.7778" style="stop-color:#595757"/>
		<stop  offset="0.9683" style="stop-color:#A48B78"/>
	</linearGradient>
	<path fill="url(#SVGID_6_)" d="M701.666-288.535c0,1.847-1.567,3.343-3.5,3.343l0,0c-1.933,0-3.5-1.497-3.5-3.343v-39.813
		c0-1.847,1.567-3.343,3.5-3.343l0,0c1.933,0,3.5,1.497,3.5,3.343V-288.535z"/>
	<path fill="#B5B5B6" d="M699.166-288.535c0,1.847-1.007,3.343-2.25,3.343l0,0c-1.243,0-2.25-1.497-2.25-3.343v-39.813
		c0-1.847,1.007-3.343,2.25-3.343l0,0c1.243,0,2.25,1.497,2.25,3.343V-288.535z"/>
</g>
<g>
	
		<linearGradient id="SVGID_7_" gradientUnits="userSpaceOnUse" x1="427.1289" y1="-328.9526" x2="427.5519" y2="-221.517" gradientTransform="matrix(-1 0 0 1 1439.8037 0)">
		<stop  offset="0.0265" style="stop-color:#EFEFEF"/>
		<stop  offset="0.0587" style="stop-color:#F4F4F4"/>
		<stop  offset="0.1005" style="stop-color:#FFFFFF"/>
		<stop  offset="0.3342" style="stop-color:#FFFFFF;stop-opacity:0.1"/>
		<stop  offset="0.7778" style="stop-color:#595757"/>
		<stop  offset="0.9683" style="stop-color:#A48B78"/>
	</linearGradient>
	<path fill="url(#SVGID_7_)" d="M1008.977-249.716c0,2.688,1.566,4.868,3.5,4.868l0,0c1.934,0,3.5-2.179,3.5-4.868v-57.97
		c0-2.688-1.566-4.868-3.5-4.868l0,0c-1.934,0-3.5,2.179-3.5,4.868V-249.716z"/>
	<path fill="#B5B5B6" d="M1011.477-249.716c0,2.688,1.008,4.868,2.25,4.868l0,0c1.242,0,2.25-2.179,2.25-4.868v-57.97
		c0-2.688-1.008-4.868-2.25-4.868l0,0c-1.242,0-2.25,2.179-2.25,4.868V-249.716z"/>
</g>
<g>
	<linearGradient id="SVGID_8_" gradientUnits="userSpaceOnUse" x1="698.0303" y1="-282.6118" x2="698.3049" y2="-212.8673">
		<stop  offset="0.0265" style="stop-color:#EFEFEF"/>
		<stop  offset="0.0587" style="stop-color:#F4F4F4"/>
		<stop  offset="0.1005" style="stop-color:#FFFFFF"/>
		<stop  offset="0.3342" style="stop-color:#FFFFFF;stop-opacity:0.1"/>
		<stop  offset="0.7778" style="stop-color:#595757"/>
		<stop  offset="0.9683" style="stop-color:#A48B78"/>
	</linearGradient>
	<path fill="url(#SVGID_8_)" d="M701.666-228.193c0,1.847-1.567,3.343-3.5,3.343l0,0c-1.933,0-3.5-1.497-3.5-3.343v-39.813
		c0-1.847,1.567-3.343,3.5-3.343l0,0c1.933,0,3.5,1.497,3.5,3.343V-228.193z"/>
	<path fill="#B5B5B6" d="M699.166-228.193c0,1.847-1.007,3.343-2.25,3.343l0,0c-1.243,0-2.25-1.497-2.25-3.343v-39.813
		c0-1.847,1.007-3.343,2.25-3.343l0,0c1.243,0,2.25,1.497,2.25,3.343V-228.193z"/>
</g>
<text transform="matrix(1 0 0 1 742.855 -414.1553)"><tspan x="0" y="0" fill="#FFFFFF" font-family="'ArialMT'" font-size="12">9:3</tspan><tspan x="19.382" y="0" fill="#FFFFFF" font-family="'ArialMT'" font-size="12">0</tspan></text>
<path fill="#FFFFFF" d="M930.271-413.935c0,0.234-0.447,0.424-1,0.424h-0.5c-0.553,0-1-0.19-1-0.424v-1.749
	c0-0.234,0.447-0.424,1-0.424h0.5c0.553,0,1,0.19,1,0.424V-413.935z"/>
<path fill="#FFFFFF" d="M933.771-414.223c0,0.393-0.447,0.712-1,0.712h-0.5c-0.553,0-1-0.319-1-0.712v-2.937
	c0-0.393,0.447-0.712,1-0.712h0.5c0.553,0,1,0.319,1,0.712V-414.223z"/>
<path fill="#FFFFFF" d="M937.271-414.522c0,0.559-0.447,1.012-1,1.012h-0.5c-0.553,0-1-0.453-1-1.012v-4.171
	c0-0.559,0.447-1.012,1-1.012h0.5c0.553,0,1,0.453,1,1.012V-414.522z"/>
<path fill="#FFFFFF" d="M940.771-414.876c0,0.754-0.447,1.365-1,1.365h-0.5c-0.553,0-1-0.611-1-1.365v-5.63
	c0-0.754,0.447-1.365,1-1.365h0.5c0.553,0,1,0.611,1,1.365V-414.876z"/>
<text transform="matrix(1 0 0 1 942.1797 -413.5107)" fill="#FFFFFF" font-family="'ArialMT'" font-size="12">4</text>
<text transform="matrix(0.95 0 0 1 948.2539 -413.5107)" fill="#FFFFFF" font-family="'ArialMT'" font-size="12">G</text>
<g>
	<path opacity="0.6" fill="none" stroke="#FFFFFF" stroke-width="0.5" stroke-miterlimit="10" d="M978.938-414.087
		c0,0.365-0.213,0.662-0.479,0.662h-18.711c-0.264,0-0.477-0.297-0.477-0.662v-7.122c0-0.366,0.213-0.663,0.477-0.663h18.711
		c0.266,0,0.479,0.297,0.479,0.663V-414.087z"/>
	<path fill="#8FC31F" d="M976.162-414.703c0,0.302-0.176,0.548-0.396,0.548h-15.475c-0.219,0-0.395-0.246-0.395-0.548v-5.891
		c0-0.302,0.176-0.548,0.395-0.548h15.475c0.221,0,0.396,0.246,0.396,0.548V-414.703z"/>
	<path opacity="0.6" fill="#FFFFFF" d="M979.492-419.239c0.93,0,1.684,0.712,1.684,1.59c0,0.879-0.754,1.591-1.684,1.591"/>
</g>
<linearGradient id="SVGID_9_" gradientUnits="userSpaceOnUse" x1="691.5679" y1="-131.8936" x2="755.7635" y2="-131.8936">
	<stop  offset="0" style="stop-color:#FFFFFF"/>
	<stop  offset="0.313" style="stop-color:#FFFFFF;stop-opacity:0.1"/>
</linearGradient>
<path fill="url(#SVGID_9_)" d="M724.851,132.83v-529.449c0-23.084,14.51-41.797,32.41-41.797h-20.896
	c-17.901,0-32.411,18.713-32.411,41.797V132.83c0,23.085,14.51,41.8,32.411,41.8h20.896
	C739.361,174.63,724.851,155.915,724.851,132.83z"/>
<linearGradient id="SVGID_10_" gradientUnits="userSpaceOnUse" x1="503.2539" y1="-131.8535" x2="566.6622" y2="-131.8535" gradientTransform="matrix(-1 0 0 1 1523.1846 0)">
	<stop  offset="0" style="stop-color:#FFFFFF"/>
	<stop  offset="0.3183" style="stop-color:#FFFFFF;stop-opacity:0.1"/>
</linearGradient>
<path fill="url(#SVGID_10_)" d="M985.57,132.525v-528.759c0-23.054-14.357-41.743-32.068-41.743h20.676
	c17.711,0,32.066,18.689,32.066,41.743v528.759c0,23.054-14.355,41.745-32.066,41.745h-20.676
	C971.213,174.271,985.57,155.579,985.57,132.525z"/>
<path opacity="0.5" fill="#FFFFFF" d="M988.738,137.188c0,9.357-8.461,16.941-18.895,16.941H740.3
	c-10.436,0-18.896-7.584-18.896-16.941V96.404c0-9.357,8.46-16.941,18.896-16.941h229.544c10.434,0,18.895,7.584,18.895,16.941
	V137.188z"/>
<g>
	<path fill="#00AA3A" d="M781.075,130.137c0,5.939-4.814,10.754-10.753,10.754h-26.684c-5.938,0-10.752-4.814-10.752-10.754v-26.682
		c0-5.939,4.814-10.754,10.752-10.754h26.684c5.939,0,10.753,4.814,10.753,10.754V130.137z"/>
	<path fill="#FFFFFF" d="M756.834,100.844c-9.709,0-17.581,6.256-17.581,13.973c0,0.146,0.022,0.286,0.027,0.43
		c-0.006,0.153-0.027,0.303-0.027,0.457c0,7.525,7.225,13.625,16.136,13.625c0.533,0,1.058-0.024,1.577-0.067l-1.88,4.791
		c4.288,1.681,12.394-6.073,15.93-10.411c2.688-3.25,3.397-5.606,3.397-8.824C774.415,107.1,766.543,100.844,756.834,100.844z"/>
	<g>
		<path fill="#00AA3A" d="M744.714,118.774v-7.73h1.574v6.417h3.913v1.313H744.714z"/>
		<path fill="#00AA3A" d="M751.547,118.774v-7.794h1.574v7.794H751.547z"/>
		<path fill="#00AA3A" d="M754.908,118.774v-7.794h1.531l3.19,5.205v-5.205h1.462v7.794h-1.579l-3.142-5.082v5.082H754.908z"/>
		<path fill="#00AA3A" d="M763.027,118.774v-7.794h5.779v1.318h-4.206v1.729h3.913v1.313h-3.913v2.121h4.354v1.313H763.027z"/>
	</g>
</g>
<line fill="#FFFFFF" x1="831" y1="121.421" x2="829.491" y2="121.421"/>
<linearGradient id="SVGID_11_" gradientUnits="userSpaceOnUse" x1="821.8999" y1="82.4014" x2="822.8293" y2="149.7912">
	<stop  offset="0.1376" style="stop-color:#2EA7E0"/>
	<stop  offset="0.709" style="stop-color:#036EB8"/>
</linearGradient>
<path fill="url(#SVGID_11_)" d="M846.469,130.137c0,5.939-4.815,10.754-10.753,10.754h-26.684c-5.938,0-10.753-4.814-10.753-10.754
	v-26.682c0-5.939,4.814-10.754,10.753-10.754h26.684c5.938,0,10.753,4.814,10.753,10.754V130.137z"/>
<path fill="#FFFFFF" d="M826.345,109.931c0.54-0.471,2.01-0.581,5.287-0.605l0.001-6.519c-12.069,0.219-12.802,2.092-13.036,12.769
	h-6.078v6.533h6.452v18.782h6.806v-18.782h4.74l1.711-6.533h-6.452v-2.303C825.85,111.553,826.006,110.227,826.345,109.931z"/>
<polygon fill="#EFEFEF" points="960.365,133.004 960.654,132.917 961.096,134.284 960.814,134.377 "/>
<g>
	<path fill="#FFFFFF" d="M977.256,130.137c0,5.939-4.814,10.754-10.752,10.754h-26.686c-5.938,0-10.752-4.814-10.752-10.754v-26.682
		c0-5.939,4.814-10.754,10.752-10.754h26.686c5.938,0,10.752,4.814,10.752,10.754V130.137z"/>
	<linearGradient id="SVGID_12_" gradientUnits="userSpaceOnUse" x1="925.0713" y1="129.5889" x2="983.0514" y2="103.1847">
		<stop  offset="0.4339" style="stop-color:#036EB8"/>
		<stop  offset="0.8624" style="stop-color:#00A0E9"/>
	</linearGradient>
	<circle fill="url(#SVGID_12_)" cx="953.161" cy="116.796" r="21.3"/>
	<rect x="953.162" y="97.026" fill="#EFEFEF" width="0.324" height="3.13"/>
	<rect x="953.928" y="97.026" fill="#EFEFEF" width="0.324" height="1.565"/>
	
		<rect x="951.257" y="97.109" transform="matrix(0.9944 -0.1055 0.1055 0.9944 -5.1006 100.8956)" fill="#EFEFEF" width="0.324" height="3.131"/>
	
		<rect x="951.938" y="97.033" transform="matrix(0.9945 -0.1048 0.1048 0.9945 -5.0081 100.358)" fill="#EFEFEF" width="0.326" height="1.564"/>
	
		<rect x="949.372" y="97.39" transform="matrix(0.9783 -0.2071 0.2071 0.9783 0.0894 198.7641)" fill="#EFEFEF" width="0.325" height="3.13"/>
	
		<rect x="949.959" y="97.247" transform="matrix(0.9777 -0.2099 0.2099 0.9777 0.5936 201.652)" fill="#EFEFEF" width="0.326" height="1.566"/>
	
		<rect x="947.528" y="97.866" transform="matrix(0.9493 -0.3144 0.3144 0.9493 16.7985 303.0087)" fill="#EFEFEF" width="0.323" height="3.131"/>
	
		<rect x="948.015" y="97.667" transform="matrix(0.9513 -0.3081 0.3081 0.9513 15.8008 296.9608)" fill="#EFEFEF" width="0.326" height="1.565"/>
	
		<rect x="945.742" y="98.533" transform="matrix(0.9118 -0.4106 0.4106 0.9118 42.319 397.2306)" fill="#EFEFEF" width="0.323" height="3.13"/>
	
		<rect x="946.124" y="98.29" transform="matrix(0.916 -0.4011 0.4011 0.916 39.7283 387.907)" fill="#EFEFEF" width="0.326" height="1.563"/>
	
		<rect x="944.037" y="99.381" transform="matrix(0.8636 -0.5042 0.5042 0.8636 77.9243 489.8819)" fill="#EFEFEF" width="0.323" height="3.132"/>
	
		<rect x="944.308" y="99.106" transform="matrix(0.869 -0.4948 0.4948 0.869 74.3115 480.4469)" fill="#EFEFEF" width="0.324" height="1.564"/>
	
		<rect x="942.429" y="100.404" transform="matrix(0.8051 -0.5932 0.5932 0.8051 123.264 579.0219)" fill="#EFEFEF" width="0.323" height="3.132"/>
	
		<rect x="942.589" y="100.107" transform="matrix(0.8121 -0.5835 0.5835 0.8121 118.2692 569.063)" fill="#EFEFEF" width="0.325" height="1.563"/>
	
		<rect x="940.938" y="101.59" transform="matrix(0.7397 -0.673 0.673 0.7397 175.5793 660.1902)" fill="#EFEFEF" width="0.322" height="3.131"/>
	
		<rect x="940.982" y="101.281" transform="matrix(0.7466 -0.6653 0.6653 0.7466 170.6042 652.0062)" fill="#EFEFEF" width="0.324" height="1.564"/>
	
		<rect x="939.577" y="102.924" transform="matrix(0.6651 -0.7467 0.7467 0.6651 236.6779 736.7341)" fill="#EFEFEF" width="0.323" height="3.132"/>
	
		<rect x="939.509" y="102.618" transform="matrix(0.6748 -0.738 0.738 0.6748 229.2985 727.1328)" fill="#EFEFEF" width="0.324" height="1.563"/>
	
		<rect x="938.365" y="104.395" transform="matrix(0.5838 -0.8119 0.8119 0.5838 304.5646 806.0684)" fill="#EFEFEF" width="0.321" height="3.131"/>
	
		<rect x="938.181" y="104.1" transform="matrix(0.5928 -0.8054 0.8054 0.5928 297.6353 798.4103)" fill="#EFEFEF" width="0.326" height="1.564"/>
	
		<rect x="937.313" y="105.984" transform="matrix(0.4955 -0.8686 0.8686 0.4955 379.5543 868.5677)" fill="#EFEFEF" width="0.319" height="3.131"/>
	
		<rect x="937.017" y="105.713" transform="matrix(0.5039 -0.8638 0.8638 0.5039 372.9733 862.3516)" fill="#EFEFEF" width="0.326" height="1.565"/>
	
		<rect x="936.432" y="107.673" transform="matrix(0.4027 -0.9153 0.9153 0.4027 459.4018 922.5209)" fill="#EFEFEF" width="0.32" height="3.133"/>
	
		<rect x="936.029" y="107.441" transform="matrix(0.4168 -0.909 0.909 0.4168 447.6483 914.1334)" fill="#EFEFEF" width="0.323" height="1.564"/>
	
		<rect x="935.732" y="109.446" transform="matrix(0.3098 -0.9508 0.9508 0.3098 540.3655 966.4513)" fill="#EFEFEF" width="0.321" height="3.131"/>
	
		<rect x="935.225" y="109.261" transform="matrix(0.318 -0.9481 0.9481 0.318 533.5791 961.8701)" fill="#EFEFEF" width="0.325" height="1.565"/>
	<polygon fill="#EFEFEF" points="936.947,113.016 936.883,113.329 933.816,112.68 933.887,112.363 	"/>
	<polygon fill="#EFEFEF" points="935.58,111.941 935.508,112.259 933.979,111.934 934.045,111.617 	"/>
	
		<rect x="934.908" y="113.161" transform="matrix(0.1034 -0.9946 0.9946 0.1034 724.2536 1032.9167)" fill="#EFEFEF" width="0.321" height="3.132"/>
	<polygon fill="#EFEFEF" points="935.168,113.805 935.131,114.128 933.576,113.964 933.607,113.644 	"/>
	<rect x="933.383" y="116.467" fill="#EFEFEF" width="3.133" height="0.323"/>
	<rect x="933.387" y="115.702" fill="#EFEFEF" width="1.566" height="0.325"/>
	
		<rect x="934.872" y="116.968" transform="matrix(-0.1034 -0.9946 0.9946 -0.1034 913.8338 1060.8103)" fill="#EFEFEF" width="0.321" height="3.131"/>
	
		<rect x="934.014" y="117.071" transform="matrix(-0.0962 -0.9954 0.9954 -0.0962 906.7637 1059.0364)" fill="#EFEFEF" width="0.325" height="1.565"/>
	
		<rect x="935.152" y="118.851" transform="matrix(-0.2072 -0.9783 0.9783 -0.2072 1011.3416 1060.3811)" fill="#EFEFEF" width="0.32" height="3.135"/>
	
		<rect x="934.229" y="119.05" transform="matrix(-0.1984 -0.9801 0.9801 -0.1984 1002.3516 1059.4222)" fill="#EFEFEF" width="0.325" height="1.565"/>
	
		<rect x="935.627" y="120.697" transform="matrix(-0.3089 -0.9511 0.9511 -0.3089 1108.6162 1050.0455)" fill="#EFEFEF" width="0.322" height="3.134"/>
	
		<rect x="934.65" y="120.994" transform="matrix(-0.3017 -0.9534 0.9534 -0.3017 1100.7495 1049.7687)" fill="#EFEFEF" width="0.324" height="1.567"/>
	
		<rect x="936.296" y="122.482" transform="matrix(-0.409 -0.9125 0.9125 -0.409 1206.2358 1029.3433)" fill="#EFEFEF" width="0.32" height="3.134"/>
	
		<rect x="935.272" y="122.885" transform="matrix(-0.3983 -0.9173 0.9173 -0.3983 1194.5665 1030.9606)" fill="#EFEFEF" width="0.324" height="1.565"/>
	
		<rect x="937.144" y="124.189" transform="matrix(-0.506 -0.8626 0.8626 -0.506 1303.0662 997.8637)" fill="#EFEFEF" width="0.32" height="3.133"/>
	
		<rect x="936.086" y="124.699" transform="matrix(-0.4994 -0.8664 0.8664 -0.4994 1295.0704 999.298)" fill="#EFEFEF" width="0.325" height="1.568"/>
	
		<rect x="938.168" y="125.796" transform="matrix(-0.5867 -0.8098 0.8098 -0.5867 1385.7239 961.9393)" fill="#EFEFEF" width="0.32" height="3.134"/>
	
		<rect x="937.086" y="126.419" transform="matrix(-0.5849 -0.8111 0.8111 -0.5849 1382.3108 961.7885)" fill="#EFEFEF" width="0.324" height="1.567"/>
	
		<rect x="939.353" y="127.289" transform="matrix(-0.673 -0.7397 0.7397 -0.673 1476.4725 910.4979)" fill="#EFEFEF" width="0.322" height="3.134"/>
	<polygon fill="#EFEFEF" points="938.898,128.163 939.111,128.406 937.949,129.453 937.732,129.216 	"/>
	
		<rect x="940.69" y="128.65" transform="matrix(-0.7457 -0.6663 0.6663 -0.7457 1555.7029 854.1706)" fill="#EFEFEF" width="0.32" height="3.133"/>
	
		<rect x="939.598" y="129.5" transform="matrix(-0.7367 -0.6763 0.6763 -0.7367 1543.9299 861.7883)" fill="#EFEFEF" width="0.323" height="1.565"/>
	
		<rect x="942.16" y="129.862" transform="matrix(-0.8137 -0.5812 0.5812 -0.8137 1632.7245 786.0895)" fill="#EFEFEF" width="0.319" height="3.134"/>
	
		<rect x="941.081" y="130.827" transform="matrix(-0.8036 -0.5952 0.5952 -0.8036 1619.3066 797.5565)" fill="#EFEFEF" width="0.323" height="1.565"/>
	
		<rect x="943.748" y="130.915" transform="matrix(-0.8701 -0.4929 0.4929 -0.8701 1699.9169 712.9677)" fill="#EFEFEF" width="0.321" height="3.133"/>
	<polygon fill="#EFEFEF" points="943.107,132.013 943.387,132.179 942.604,133.533 942.326,133.374 	"/>
	
		<rect x="945.44" y="131.796" transform="matrix(-0.9153 -0.4027 0.4027 -0.9153 1757.4111 636.2593)" fill="#EFEFEF" width="0.32" height="3.133"/>
	<polygon fill="#EFEFEF" points="944.754,132.979 945.049,133.116 944.412,134.545 944.117,134.415 	"/>
	
		<rect x="947.212" y="132.495" transform="matrix(-0.9523 -0.3052 0.3052 -0.9523 1808.6196 550.8817)" fill="#EFEFEF" width="0.32" height="3.133"/>
	<polygon fill="#EFEFEF" points="946.492,133.769 946.801,133.874 946.314,135.362 946.01,135.263 	"/>
	
		<rect x="949.049" y="133.005" transform="matrix(-0.9788 -0.2049 0.2049 -0.9788 1850.6943 460.8092)" fill="#EFEFEF" width="0.319" height="3.132"/>
	<polygon fill="#EFEFEF" points="948.303,134.371 948.619,134.444 948.293,135.976 947.979,135.91 	"/>
	
		<rect x="950.928" y="133.319" transform="matrix(-0.9946 -0.1037 0.1037 -0.9946 1883.053 367.7018)" fill="#EFEFEF" width="0.32" height="3.133"/>
	<polygon fill="#EFEFEF" points="950.164,134.781 950.49,134.822 950.324,136.378 950.006,136.346 	"/>
	<rect x="952.83" y="133.438" fill="#EFEFEF" width="0.32" height="3.132"/>
	<polygon fill="#EFEFEF" points="952.063,134.996 952.389,135.002 952.387,136.567 952.066,136.567 	"/>
	
		<rect x="954.736" y="133.354" transform="matrix(-0.9942 0.1074 -0.1074 -0.9942 1918.7583 166.5057)" fill="#EFEFEF" width="0.318" height="3.133"/>
	<polygon fill="#EFEFEF" points="953.971,135.012 954.297,134.983 954.457,136.54 954.139,136.574 	"/>
	
		<rect x="956.621" y="133.073" transform="matrix(-0.9782 0.2079 -0.2079 -0.9782 1920.6497 67.4655)" fill="#EFEFEF" width="0.319" height="3.135"/>
	<polygon fill="#EFEFEF" points="955.869,134.825 956.193,134.765 956.514,136.296 956.201,136.363 	"/>
	
		<rect x="958.467" y="132.597" transform="matrix(-0.9499 0.3125 -0.3125 -0.9499 1911.1592 -38.0111)" fill="#EFEFEF" width="0.319" height="3.134"/>
	
		<rect x="960.25" y="131.93" transform="matrix(-0.9119 0.4104 -0.4104 -0.9119 1891.0134 -138.8819)" fill="#EFEFEF" width="0.321" height="3.135"/>
	<polygon fill="#EFEFEF" points="959.559,133.868 959.861,133.74 960.494,135.17 960.201,135.302 	"/>
	
		<rect x="961.956" y="131.08" transform="matrix(-0.8633 0.5046 -0.5046 -0.8633 1859.6848 -238.3427)" fill="#EFEFEF" width="0.321" height="3.135"/>
	<polygon fill="#EFEFEF" points="961.309,133.105 961.596,132.947 962.375,134.303 962.098,134.465 	"/>
	<polygon fill="#EFEFEF" points="962.676,130.451 962.934,130.261 964.775,132.799 964.514,132.983 	"/>
	<polygon fill="#EFEFEF" points="962.969,132.164 963.238,131.977 964.154,133.244 963.896,133.433 	"/>
	
		<rect x="965.056" y="128.872" transform="matrix(-0.7369 0.676 -0.676 -0.7369 1764.6633 -425.9264)" fill="#EFEFEF" width="0.321" height="3.135"/>
	<polygon fill="#EFEFEF" points="964.521,131.056 964.768,130.84 965.814,132.004 965.576,132.219 	"/>
	<polygon fill="#EFEFEF" points="965.307,128.175 965.521,127.934 967.848,130.034 967.631,130.269 	"/>
	<polygon fill="#EFEFEF" points="965.951,129.789 966.172,129.551 967.334,130.599 967.119,130.837 	"/>
	<polygon fill="#EFEFEF" points="966.43,126.842 966.617,126.581 969.15,128.427 968.961,128.682 	"/>
	<polygon fill="#EFEFEF" points="967.238,128.38 967.436,128.118 968.699,129.042 968.512,129.301 	"/>
	
		<rect x="968.681" y="124.478" transform="matrix(-0.4988 0.8667 -0.8667 -0.4988 1561.3062 -650.8259)" fill="#EFEFEF" width="0.321" height="3.133"/>
	<polygon fill="#EFEFEF" points="968.373,126.846 968.541,126.564 969.895,127.35 969.732,127.628 	"/>
	
		<rect x="969.563" y="122.788" transform="matrix(-0.4005 0.9163 -0.9163 -0.4005 1472.0444 -714.3952)" fill="#EFEFEF" width="0.322" height="3.134"/>
	
		<rect x="969.962" y="124.587" transform="matrix(-0.4168 0.909 -0.909 -0.4168 1488.3953 -704.2402)" fill="#EFEFEF" width="0.323" height="1.565"/>
	<polygon fill="#EFEFEF" points="968.885,122.25 968.982,121.942 971.961,122.915 971.861,123.217 	"/>
	<polygon fill="#EFEFEF" points="970.131,123.462 970.236,123.153 971.723,123.64 971.623,123.943 	"/>
	<polygon fill="#EFEFEF" points="969.371,120.576 969.434,120.26 972.498,120.916 972.43,121.227 	"/>
	<polygon fill="#EFEFEF" points="970.734,121.652 970.807,121.333 972.338,121.662 972.268,121.974 	"/>
	<polygon fill="#EFEFEF" points="969.676,118.859 969.705,118.539 972.822,118.872 972.787,119.188 	"/>
	<polygon fill="#EFEFEF" points="971.146,119.788 971.184,119.463 972.742,119.632 972.705,119.948 	"/>
	<polygon fill="#EFEFEF" points="969.803,117.123 969.797,116.799 972.932,116.806 972.93,117.123 	"/>
	<polygon fill="#EFEFEF" points="971.359,117.891 971.363,117.563 972.932,117.569 972.928,117.888 	"/>
	<polygon fill="#EFEFEF" points="969.744,115.381 969.705,115.06 972.824,114.738 972.855,115.054 	"/>
	<polygon fill="#EFEFEF" points="971.373,115.982 971.344,115.657 972.902,115.498 972.934,115.814 	"/>
	<polygon fill="#EFEFEF" points="969.506,113.654 969.434,113.34 972.502,112.694 972.564,113.005 	"/>
	<polygon fill="#EFEFEF" points="971.189,114.084 971.125,113.762 972.658,113.441 972.723,113.753 	"/>
	<polygon fill="#EFEFEF" points="969.088,111.963 968.982,111.656 971.967,110.693 972.063,110.996 	"/>
	<polygon fill="#EFEFEF" points="970.807,112.214 970.709,111.9 972.201,111.421 972.297,111.725 	"/>
	<polygon fill="#EFEFEF" points="968.496,110.324 968.359,110.03 971.225,108.761 971.354,109.052 	"/>
	<polygon fill="#EFEFEF" points="970.23,110.394 970.102,110.093 971.535,109.46 971.662,109.753 	"/>
	<polygon fill="#EFEFEF" points="967.734,108.757 967.57,108.479 970.287,106.916 970.443,107.193 	"/>
	<polygon fill="#EFEFEF" points="969.467,108.645 969.307,108.359 970.668,107.581 970.822,107.856 	"/>
	<polygon fill="#EFEFEF" points="966.814,107.276 966.621,107.018 969.16,105.18 969.344,105.439 	"/>
	<polygon fill="#EFEFEF" points="968.525,106.985 968.336,106.718 969.607,105.801 969.791,106.06 	"/>
	<polygon fill="#EFEFEF" points="965.744,105.901 965.525,105.662 967.857,103.57 968.068,103.809 	"/>
	<polygon fill="#EFEFEF" points="967.414,105.433 967.199,105.186 968.367,104.143 968.578,104.38 	"/>
	<polygon fill="#EFEFEF" points="964.535,104.645 964.293,104.431 966.395,102.106 966.629,102.321 	"/>
	<polygon fill="#EFEFEF" points="966.15,104.003 965.908,103.782 966.963,102.621 967.195,102.836 	"/>
	<polygon fill="#EFEFEF" points="963.203,103.521 962.939,103.336 964.787,100.804 965.043,100.992 	"/>
	<polygon fill="#EFEFEF" points="964.74,102.717 964.479,102.521 965.404,101.257 965.658,101.445 	"/>
	<polygon fill="#EFEFEF" points="961.76,102.542 961.479,102.388 963.051,99.676 963.324,99.837 	"/>
	<polygon fill="#EFEFEF" points="963.205,101.581 962.922,101.415 963.713,100.062 963.986,100.222 	"/>
	<polygon fill="#EFEFEF" points="960.225,101.722 959.928,101.596 961.207,98.736 961.496,98.866 	"/>
	<polygon fill="#EFEFEF" points="961.561,100.614 961.262,100.479 961.906,99.049 962.193,99.181 	"/>
	<polygon fill="#EFEFEF" points="958.609,101.066 958.301,100.971 959.275,97.994 959.574,98.092 	"/>
	<polygon fill="#EFEFEF" points="959.822,99.823 959.512,99.721 960.002,98.23 960.303,98.334 	"/>
	<polygon fill="#EFEFEF" points="956.936,100.583 956.617,100.52 957.277,97.458 957.584,97.523 	"/>
	<polygon fill="#EFEFEF" points="958.012,99.22 957.691,99.151 958.025,97.617 958.334,97.688 	"/>
	<polygon fill="#EFEFEF" points="955.221,100.277 954.896,100.248 955.232,97.133 955.547,97.165 	"/>
	<polygon fill="#EFEFEF" points="956.148,98.809 955.822,98.774 955.994,97.214 956.309,97.251 	"/>
	<g>
		<polygon fill="#E60012" points="954.107,118.052 952.215,115.857 968.41,104.364 		"/>
		<polygon fill="#FFFFFF" points="952.188,115.862 954.082,118.052 937.891,129.558 		"/>
	</g>
</g>
<g>
	<path fill="#FFFFFF" d="M911.863,130.137c0,5.939-4.814,10.754-10.754,10.754h-26.684c-5.938,0-10.752-4.814-10.752-10.754v-26.682
		c0-5.939,4.814-10.754,10.752-10.754h26.684c5.939,0,10.754,4.814,10.754,10.754V130.137z"/>
	<path fill="#E60012" d="M905.68,122.939c0,4.235-2.572,7.668-5.744,7.668h-24.334c-3.174,0-5.746-3.433-5.746-7.668v-11.958
		c0-4.234,2.572-7.669,5.746-7.669h24.334c3.172,0,5.744,3.435,5.744,7.669V122.939z"/>
	<polygon fill="#FFFFFF" points="893.537,116.74 884.293,122.077 884.293,111.401 	"/>
</g>
<g>
	<circle opacity="0.4" fill="#FFFFFF" cx="841.188" cy="66.118" r="3.344"/>
	<circle fill="#FFFFFF" cx="855.522" cy="66.118" r="3.344"/>
	<circle opacity="0.4" fill="#FFFFFF" cx="869.855" cy="66.118" r="3.344"/>
</g>
<g>
	<linearGradient id="SVGID_13_" gradientUnits="userSpaceOnUse" x1="763.7241" y1="-399.3936" x2="751.0219" y2="-324.6304">
		<stop  offset="0.0317" style="stop-color:#CBE4C1"/>
		<stop  offset="0.5661" style="stop-color:#7DBE27"/>
		<stop  offset="0.9788" style="stop-color:#00913A"/>
	</linearGradient>
	<path fill="url(#SVGID_13_)" d="M781.075-346.364c0,5.939-4.814,10.754-10.753,10.754h-26.684c-5.938,0-10.752-4.814-10.752-10.754
		v-26.682c0-5.939,4.814-10.754,10.752-10.754h26.684c5.939,0,10.753,4.814,10.753,10.754V-346.364z"/>
</g>
<g>
	<linearGradient id="SVGID_14_" gradientUnits="userSpaceOnUse" x1="826.0928" y1="-400.3101" x2="821.3745" y2="-348.7743">
		<stop  offset="0.2011" style="stop-color:#3155A5"/>
		<stop  offset="0.9418" style="stop-color:#63C5E3"/>
	</linearGradient>
	<path fill="url(#SVGID_14_)" d="M846.469-346.364c0,5.939-4.815,10.754-10.753,10.754h-26.684c-5.938,0-10.753-4.814-10.753-10.754
		v-26.682c0-5.939,4.814-10.754,10.753-10.754h26.684c5.938,0,10.753,4.814,10.753,10.754V-346.364z"/>
	<g>
		<linearGradient id="SVGID_15_" gradientUnits="userSpaceOnUse" x1="799.0156" y1="-373.3262" x2="838.8491" y2="-350.8262">
			<stop  offset="0.1693" style="stop-color:#F8B62D"/>
			<stop  offset="0.2622" style="stop-color:#F9BC28"/>
			<stop  offset="0.4051" style="stop-color:#FCCB11"/>
			<stop  offset="0.5767" style="stop-color:#FFE200"/>
		</linearGradient>
		<circle fill="url(#SVGID_15_)" cx="813.907" cy="-364.915" r="8.903"/>
		<path opacity="0.5" fill="#FFFFFF" d="M839.745-353.577c0-4.41-3.916-7.985-8.746-7.985c-0.611,0-1.206,0.058-1.781,0.166
			c-1.607-3.458-4.832-5.819-8.55-5.819c-4.616,0-8.474,3.642-9.417,8.503c-2.339,1.302-3.87,3.464-3.87,5.913
			c0,3.641,3.386,6.65,7.781,7.137v0.07h17.168v-0.103C836.526-346.282,839.745-349.582,839.745-353.577z"/>
	</g>
</g>
<g>
	<path fill="#FFFFFF" d="M911.863-346.364c0,5.939-4.814,10.754-10.754,10.754h-26.684c-5.938,0-10.752-4.814-10.752-10.754v-26.682
		c0-5.939,4.814-10.754,10.752-10.754h26.684c5.939,0,10.754,4.814,10.754,10.754V-346.364z"/>
	<g>
		<path fill="none" stroke="#000000" stroke-width="5" stroke-miterlimit="10" d="M875.697-365.54"/>
		<polygon fill="none" points="877.904,-360.917 877.904,-360.916 887.803,-367.44 887.768,-367.463 		"/>
		<polygon fill="none" points="877.904,-350.996 897.631,-350.996 897.631,-360.917 887.803,-367.44 877.904,-360.916 		"/>
		<polygon fill="#E60012" points="877.904,-360.917 887.768,-367.463 887.803,-367.44 891.568,-369.923 887.768,-372.444 
			873.492,-362.97 873.492,-358.8 873.492,-358.007 877.904,-360.916 		"/>
		<polygon fill="#F8B62D" points="877.904,-351.216 877.904,-360.916 873.492,-358.007 873.492,-346.966 877.904,-346.966 
			877.904,-350.996 		"/>
		<rect x="877.904" y="-350.996" fill="#009944" width="19.727" height="4.029"/>
		<polygon fill="#036EB8" points="891.568,-369.923 887.803,-367.44 897.631,-360.917 897.631,-351.262 897.631,-350.996 
			897.631,-346.966 902.045,-346.966 902.045,-362.97 		"/>
	</g>
</g>
<g>
	<path fill="#3E3A39" d="M977.256-346.364c0,5.939-4.814,10.754-10.752,10.754h-26.686c-5.938,0-10.752-4.814-10.752-10.754v-26.682
		c0-5.939,4.814-10.754,10.752-10.754h26.686c5.938,0,10.752,4.814,10.752,10.754V-346.364z"/>
	<g>
		<path fill="#C9CACA" d="M972.896-346.436c0,1.341-0.975,2.428-2.178,2.428h-35.115c-1.201,0-2.178-1.087-2.178-2.428v-23.603
			c0-1.34,0.977-2.427,2.178-2.427h35.115c1.203,0,2.178,1.087,2.178,2.427V-346.436z"/>
		<path fill="#0F5493" d="M971.174-349.018c0,1.133-0.889,2.052-1.988,2.052h-32.049c-1.098,0-1.986-0.918-1.986-2.052v-19.941
			c0-1.133,0.889-2.051,1.986-2.051h32.049c1.1,0,1.988,0.918,1.988,2.051V-349.018z"/>
		<path fill="#F8B62D" d="M971.174-350.211c0,0.962-0.889,1.742-1.988,1.742h-32.049c-1.098,0-1.986-0.78-1.986-1.742v-16.944
			c0-0.961,0.889-1.742,1.986-1.742h32.049c1.1,0,1.988,0.781,1.988,1.742V-350.211z"/>
		<path fill="#22AC38" d="M971.174-348.622c0,0.914-0.889,1.655-1.988,1.655h-32.049c-1.098,0-1.986-0.741-1.986-1.655v-16.085
			c0-0.914,0.889-1.655,1.986-1.655h32.049c1.1,0,1.988,0.741,1.988,1.655V-348.622z"/>
		<path fill="#D71E24" d="M971.174-346.702c0,0.891-0.889,1.614-1.988,1.614h-32.049c-1.098,0-1.986-0.723-1.986-1.614v-15.696
			c0-0.892,0.889-1.614,1.986-1.614h32.049c1.1,0,1.988,0.723,1.988,1.614V-346.702z"/>
		<g>
			<defs>
				<path id="SVGID_16_" d="M972.896-346.972c0,1.636-0.975,2.964-2.178,2.964h-35.115c-1.201,0-2.178-1.328-2.178-2.964v-28.822
					c0-1.637,0.977-2.964,2.178-2.964h35.115c1.203,0,2.178,1.327,2.178,2.964V-346.972z"/>
			</defs>
			<clipPath id="SVGID_17_">
				<use xlink:href="#SVGID_16_"  overflow="visible"/>
			</clipPath>
			<path clip-path="url(#SVGID_17_)" fill="#B3B3B3" d="M972.469-360.616h-1.486h-12.105h-0.281c0,0.013-0.004,0.022-0.004,0.033
				c-1.156,0.147-2.068,1.167-2.209,2.461h-0.029c0,2.173-1.621,3.934-3.627,3.934c-2.004,0-3.629-1.761-3.629-3.934h-0.002
				c-0.135-1.26-1.004-2.263-2.117-2.451c-0.002-0.015-0.006-0.029-0.008-0.044H946.6h-12.105H933.4
				c-1.34,0-2.424,1.269-2.424,2.834v10.94c0,1.565,1.084,2.833,2.424,2.833h39.068c1.34,0,2.424-1.268,2.424-2.833v-10.94
				C974.893-359.347,973.809-360.616,972.469-360.616z"/>
		</g>
	</g>
</g>
<rect x="933.426" y="-361.383" fill="#9FA0A0" width="1.725" height="0.768"/>
<rect x="971.174" y="-361.324" fill="#9FA0A0" width="1.723" height="0.705"/>
<g>
	<path fill="#FFFFFF" d="M846.573-274.108c0,5.939-4.813,10.753-10.754,10.753h-26.683c-5.938,0-10.752-4.814-10.752-10.753v-26.682
		c0-5.939,4.814-10.754,10.752-10.754h26.683c5.94,0,10.754,4.814,10.754,10.754V-274.108z"/>
	<g opacity="0.9">
		<path opacity="0.8" fill="#F39800" d="M828.598-294.975c0,3.333-2.74,6.037-6.12,6.037l0,0c-3.379,0-6.119-2.703-6.119-6.037
			v-7.163c0-3.333,2.74-6.036,6.119-6.036l0,0c3.38,0,6.12,2.703,6.12,6.036V-294.975z"/>
		<path opacity="0.8" fill="#E60012" d="M821.484-297.097c2.357,2.356,2.331,6.205-0.06,8.595l0,0
			c-2.389,2.389-6.238,2.415-8.594,0.059l-5.066-5.065c-2.355-2.357-2.33-6.206,0.059-8.595l0,0c2.39-2.39,6.238-2.417,8.595-0.059
			L821.484-297.097z"/>
		<path opacity="0.8" fill="#E61673" d="M814.952-293.568c3.333,0,6.037,2.74,6.037,6.12l0,0c0,3.379-2.704,6.118-6.037,6.118
			h-7.164c-3.333,0-6.036-2.74-6.036-6.118l0,0c0-3.38,2.703-6.12,6.036-6.12H814.952z"/>
		<path opacity="0.8" fill="#601986" d="M812.83-286.455c2.356-2.356,6.205-2.331,8.595,0.06l0,0
			c2.389,2.39,2.414,6.239,0.058,8.595l-5.065,5.065c-2.356,2.356-6.206,2.331-8.593-0.058l0,0c-2.39-2.39-2.417-6.238-0.06-8.596
			L812.83-286.455z"/>
		<path opacity="0.8" fill="#036EB8" d="M816.359-279.923c-0.001-3.333,2.74-6.037,6.119-6.037l0,0c3.379,0,6.118,2.704,6.118,6.037
			v7.164c0,3.331-2.739,6.035-6.117,6.035l0,0c-3.38,0-6.121-2.703-6.12-6.036V-279.923z"/>
		<path opacity="0.8" fill="#00913A" d="M823.473-277.801c-2.358-2.356-2.331-6.206,0.058-8.595l0,0
			c2.39-2.389,6.239-2.415,8.595-0.059l5.065,5.066c2.356,2.355,2.332,6.205-0.057,8.593l0,0c-2.391,2.39-6.24,2.417-8.597,0.059
			L823.473-277.801z"/>
		<path opacity="0.8" fill="#FAEE00" d="M832.126-288.443c-2.356,2.357-6.205,2.33-8.594-0.059l0,0
			c-2.389-2.39-2.415-6.239-0.059-8.595l5.065-5.065c2.356-2.356,6.205-2.331,8.594,0.058l0,0c2.391,2.39,2.417,6.24,0.058,8.597
			L832.126-288.443z"/>
		<path opacity="0.8" fill="#8FC31F" d="M830.003-281.33c-3.333,0.002-6.035-2.74-6.036-6.118l0,0
			c0.001-3.38,2.704-6.119,6.036-6.119h7.165c3.33,0,6.035,2.739,6.035,6.117l0,0c0,3.38-2.704,6.121-6.037,6.12H830.003z"/>
	</g>
</g>
<g>
	<g>
		<g>
			<defs>
				<path id="SVGID_18_" d="M781.427-274.107c0,5.938-4.815,10.752-10.752,10.752H743.99c-5.937,0-10.752-4.814-10.752-10.752
					v-26.677c0-5.938,4.815-10.752,10.752-10.752h26.685c5.937,0,10.752,4.813,10.752,10.752V-274.107z"/>
			</defs>
			<clipPath id="SVGID_19_">
				<use xlink:href="#SVGID_18_"  overflow="visible"/>
			</clipPath>
			<g clip-path="url(#SVGID_19_)">
				<polygon fill="#0093D6" points="758.836,-284.768 738.629,-264.566 737.513,-263.351 780.695,-263.351 779.549,-264.599 
					779.279,-264.329 				"/>
				<polygon fill="#999999" points="781.904,-269.401 782.277,-308.205 762.685,-288.617 				"/>
				<polygon fill="#999999" points="781.879,-266.764 781.88,-266.93 781.797,-266.847 				"/>
				<polygon fill="#009F53" points="732.185,-312.701 732.964,-266.599 779.488,-313.113 				"/>
				<polygon fill="#E6E6E6" points="781.904,-269.401 781.88,-266.93 783.128,-268.177 				"/>
				<polygon fill="#E6E6E6" points="759.977,-285.909 779.549,-264.599 781.797,-266.847 761.514,-287.446 				"/>
				<polygon fill="#E6E6E6" points="758.836,-284.768 779.279,-264.329 779.549,-264.599 759.977,-285.909 				"/>
				<polygon fill="#E6E6E6" points="762.685,-288.617 761.514,-287.446 781.797,-266.847 781.88,-266.93 781.904,-269.401 				"/>
				<polygon fill="#FFF100" points="757.18,-286.425 761.028,-290.272 761.594,-289.707 782.293,-309.935 782.277,-308.205 
					788.93,-314.857 785.081,-318.706 779.488,-313.113 781.7,-313.132 733.022,-263.197 732.964,-266.599 729.279,-262.914 
					733.128,-259.065 738.629,-264.566 757.975,-285.629 				"/>
				<polygon fill="#FFF100" points="757.975,-285.629 738.629,-264.566 758.836,-284.768 				"/>
				<polygon fill="#FFF100" points="761.594,-289.707 762.685,-288.617 782.277,-308.205 782.293,-309.935 				"/>
				<polygon fill="#FFF100" points="781.7,-313.132 779.488,-313.113 732.964,-266.599 733.022,-263.197 				"/>
				<polygon fill="#FFF100" points="761.594,-289.707 761.028,-290.272 757.18,-286.425 757.975,-285.629 759.105,-286.86 
					759.977,-285.909 761.514,-287.446 760.418,-288.558 				"/>
				<polygon fill="#FFF100" points="757.975,-285.629 758.836,-284.768 759.977,-285.909 759.105,-286.86 				"/>
				<polygon fill="#FFF100" points="760.418,-288.558 761.514,-287.446 762.685,-288.617 761.594,-289.707 				"/>
			</g>
		</g>
		<path fill="#DC001A" d="M781.404-298.787c0.355-6.451-3.348-13.009-10.181-12.749c-5.713,0.218-10.618,4.437-10.618,11.354
			c0,0.07,0.018,0.148,0.024,0.222c-0.04,0.327-0.064,0.658-0.064,0.996c0,3.77,3.99,6.812,6.27,8.419
			c0.565,0.661,1.042,1.232,1.352,1.66c2.603,4.95,2.426,8.725,3.207,8.725c1.119,0,0.285-2.937,2.857-8.441
			c0.316-0.53,1.22-2.096,2.419-2.875c1.799-1.815,3.149-2.308,3.928-3.948c0.271-0.389,0.611-1.639,0.663-1.909
			c0.137-0.577,0.103-0.931,0.103-0.938c0.006-0.067,0.007-0.136,0.011-0.205C781.387-298.578,781.397-298.681,781.404-298.787z"/>
		<path fill="#D0E39E" d="M754.223-299.673h-7.1v2.582h4.084c-0.644,2.334-2.784,4.056-5.325,4.056
			c-3.048,0-5.527-2.475-5.527-5.517c0-3.042,2.479-5.516,5.528-5.516h0.001c1.38,0,2.701,0.51,3.721,1.438l1.972-2.158
			c-1.56-1.419-3.581-2.2-5.692-2.2h-0.002c-4.662,0-8.455,3.785-8.455,8.436c0,4.652,3.792,8.437,8.455,8.437
			c4.162,0,7.621-3.02,8.317-6.977h0.024V-299.673z"/>
	</g>
	<circle fill="#930000" cx="771.36" cy="-300.958" r="3.562"/>
</g>
<radialGradient id="SVGID_20_" cx="879.8682" cy="-261.4541" r="67.5348" fx="879.5443" fy="-261.3623" gradientTransform="matrix(1.0888 0 0 1.0888 -80.8257 32.9303)" gradientUnits="userSpaceOnUse">
	<stop  offset="0.0317" style="stop-color:#FFFFFF"/>
	<stop  offset="0.127" style="stop-color:#FAEE00"/>
	<stop  offset="0.2593" style="stop-color:#EA5514"/>
	<stop  offset="0.328" style="stop-color:#E72012"/>
	<stop  offset="0.4074" style="stop-color:#E60012"/>
	<stop  offset="0.582" style="stop-color:#9F356F"/>
	<stop  offset="0.6825" style="stop-color:#93387A"/>
	<stop  offset="0.8995" style="stop-color:#036EB8"/>
</radialGradient>
<path fill="url(#SVGID_20_)" d="M911.914-274.108c0,5.939-4.814,10.753-10.752,10.753h-26.684c-5.938,0-10.752-4.814-10.752-10.753
	v-26.682c0-5.939,4.814-10.753,10.752-10.753h26.684c5.938,0,10.752,4.814,10.752,10.753V-274.108z"/>
<path fill="none" stroke="#FFFFFF" stroke-width="3" stroke-miterlimit="10" d="M902.502-277.487c0,2.776-2.438,5.025-5.445,5.025
	h-18.473c-3.006,0-5.443-2.25-5.443-5.025v-19.926c0-2.776,2.438-5.025,5.443-5.025h18.473c3.008,0,5.445,2.25,5.445,5.025V-277.487
	z"/>
<circle fill="none" stroke="#FFFFFF" stroke-width="3" stroke-miterlimit="10" cx="887.821" cy="-287.45" r="7.688"/>
<circle fill="#FFFFFF" cx="896.797" cy="-296.56" r="1.855"/>
<g>
	<circle fill="#A49590" cx="-81.076" cy="-92.911" r="42.52"/>
	<g>
		<path fill="none" stroke="#FFFFFF" stroke-width="4" stroke-miterlimit="10" d="M-58.182-77.373c0,4.329-3.801,7.837-8.492,7.837
			h-28.808c-4.688,0-8.489-3.508-8.489-7.837v-31.074c0-4.329,3.801-7.837,8.489-7.837h28.808c4.69,0,8.492,3.508,8.492,7.837
			V-77.373z"/>
		<circle fill="none" stroke="#FFFFFF" stroke-width="4" stroke-miterlimit="10" cx="-81.076" cy="-92.909" r="11.99"/>
		<circle fill="#FFFFFF" cx="-67.078" cy="-107.117" r="2.894"/>
	</g>
</g>
<g>
	<circle fill="#FFFFFF" cx="-81.076" cy="33.966" r="42.52"/>
	<g>
		<path fill="none" stroke="#A2938F" stroke-width="4" stroke-miterlimit="10" d="M-58.182,49.504c0,4.329-3.801,7.837-8.492,7.837
			h-28.808c-4.688,0-8.489-3.508-8.489-7.837V18.43c0-4.329,3.801-7.837,8.489-7.837h28.808c4.69,0,8.492,3.508,8.492,7.837V49.504z
			"/>
		<circle fill="none" stroke="#A2938F" stroke-width="4" stroke-miterlimit="10" cx="-81.076" cy="33.968" r="11.99"/>
		<circle fill="#A2938F" cx="-67.078" cy="19.76" r="2.894"/>
	</g>
</g>
<g>
	<path fill="#FFFFFF" d="M977.258-274.108c0,5.939-4.814,10.753-10.754,10.753H939.82c-5.938,0-10.752-4.814-10.752-10.753v-26.682
		c0-5.939,4.814-10.753,10.752-10.753h26.684c5.939,0,10.754,4.814,10.754,10.753V-274.108z"/>
	<g>
		<circle fill="none" stroke="#0085C9" stroke-miterlimit="10" cx="937.939" cy="-299.792" r="3.666"/>
		<circle fill="#0085C9" cx="937.938" cy="-299.792" r="2.124"/>
	</g>
	<g>
		<circle fill="#FFFFFF" stroke="#D70051" stroke-miterlimit="10" cx="937.939" cy="-287.45" r="3.666"/>
		<circle fill="#E60012" cx="937.938" cy="-287.45" r="2.124"/>
	</g>
	<g>
		<circle fill="none" stroke="#F8B62D" stroke-miterlimit="10" cx="937.939" cy="-275.107" r="3.666"/>
		<circle fill="#F8B62D" cx="937.938" cy="-275.107" r="2.124"/>
	</g>
	
		<line fill="none" stroke="#B5B5B6" stroke-width="0.75" stroke-miterlimit="10" x1="945.932" y1="-299.792" x2="971.174" y2="-299.792"/>
	
		<line fill="none" stroke="#B5B5B6" stroke-width="0.75" stroke-miterlimit="10" x1="945.932" y1="-287.45" x2="971.174" y2="-287.449"/>
	
		<line fill="none" stroke="#B5B5B6" stroke-width="0.75" stroke-miterlimit="10" x1="945.932" y1="-275.107" x2="971.174" y2="-275.106"/>
</g>
<linearGradient id="SVGID_21_" gradientUnits="userSpaceOnUse" x1="888.2783" y1="-243.085" x2="887.2258" y2="-164.6664">
	<stop  offset="0.0053" style="stop-color:#1A479C"/>
	<stop  offset="0.4497" style="stop-color:#2EA7E0"/>
	<stop  offset="0.7037" style="stop-color:#66C5D9"/>
	<stop  offset="0.9841" style="stop-color:#EFEFEF"/>
</linearGradient>
<path fill="url(#SVGID_21_)" d="M911.916-195.753c0,5.939-4.816,10.754-10.754,10.754h-26.684c-5.938,0-10.752-4.814-10.752-10.754
	v-26.681c0-5.939,4.814-10.754,10.752-10.754h26.684c5.938,0,10.754,4.814,10.754,10.754V-195.753z"/>
<g>
	<g>
		<linearGradient id="SVGID_22_" gradientUnits="userSpaceOnUse" x1="740.3525" y1="-239.6797" x2="771.5842" y2="-184.3551">
			<stop  offset="0.0794" style="stop-color:#EFEFEF"/>
			<stop  offset="0.328" style="stop-color:#DCDDDD"/>
			<stop  offset="0.6455" style="stop-color:#B5B5B6"/>
			<stop  offset="0.9577" style="stop-color:#9FA0A0"/>
		</linearGradient>
		<path fill="url(#SVGID_22_)" d="M781.195-196.912c0,5.989-4.855,10.843-10.843,10.843h-26.903
			c-5.987,0-10.841-4.854-10.841-10.843v-26.902c0-5.988,4.854-10.843,10.841-10.843h26.903c5.988,0,10.843,4.855,10.843,10.843
			V-196.912z"/>
		<circle fill="#494545" cx="756.901" cy="-210.363" r="21.743"/>
		<linearGradient id="SVGID_23_" gradientUnits="userSpaceOnUse" x1="738.8389" y1="-224.2876" x2="784.2458" y2="-189.2652">
			<stop  offset="0.0794" style="stop-color:#EFEFEF"/>
			<stop  offset="0.3545" style="stop-color:#DCDDDD"/>
			<stop  offset="0.7249" style="stop-color:#B5B5B6"/>
			<stop  offset="1" style="stop-color:#728E9D"/>
		</linearGradient>
		<path fill="url(#SVGID_23_)" d="M773.612-210.353c0-0.042-0.002-0.083-0.003-0.124l2.875-0.358l-0.018-0.567l-2.901-0.155
			c-0.031-0.419-0.073-0.835-0.132-1.245l2.793-0.753l-0.096-0.559l-2.891,0.25c-0.087-0.41-0.192-0.814-0.309-1.214l2.662-1.135
			l-0.173-0.54l-2.823,0.648c-0.144-0.393-0.307-0.778-0.479-1.157l2.479-1.495l-0.246-0.512l-2.708,1.037
			c-0.198-0.369-0.412-0.728-0.635-1.079l2.247-1.826l-0.314-0.473l-2.541,1.405c-0.247-0.337-0.506-0.664-0.777-0.981l1.973-2.12
			l-0.378-0.425l-2.321,1.746c-0.291-0.299-0.592-0.588-0.904-0.864l1.658-2.375l-0.433-0.367l-2.057,2.052
			c-0.328-0.256-0.665-0.502-1.014-0.733l1.311-2.58l-0.48-0.305l-1.75,2.318c-0.361-0.208-0.729-0.407-1.106-0.588l0.938-2.733
			l-0.518-0.235l-1.409,2.538c-0.387-0.155-0.778-0.299-1.179-0.426l0.549-2.838l-0.546-0.159l-1.042,2.708
			c-0.404-0.101-0.813-0.184-1.227-0.254l0.149-2.891l-0.564-0.082l-0.655,2.825c-0.412-0.042-0.83-0.064-1.25-0.075l-0.258-2.889
			h-0.567l-0.257,2.894c-0.42,0.015-0.836,0.045-1.247,0.09l-0.656-2.821l-0.562,0.079l0.147,2.899
			c-0.413,0.073-0.822,0.157-1.224,0.26l-1.041-2.697l-0.544,0.155l0.549,2.849c-0.398,0.13-0.791,0.274-1.175,0.433l-1.407-2.529
			l-0.518,0.23l0.94,2.744c-0.375,0.185-0.742,0.383-1.101,0.595l-1.747-2.311l-0.481,0.299l1.313,2.587
			c-0.345,0.234-0.679,0.484-1.005,0.744l-2.053-2.046l-0.435,0.363l1.662,2.38c-0.309,0.28-0.605,0.574-0.892,0.875l-2.32-1.741
			l-0.379,0.421l1.978,2.125c-0.267,0.32-0.521,0.651-0.764,0.99l-2.538-1.401L740.462-221l2.254,1.83
			c-0.221,0.354-0.427,0.716-0.621,1.086l-2.706-1.034l-0.25,0.509l2.485,1.499c-0.168,0.38-0.324,0.766-0.464,1.161l-2.821-0.646
			l-0.176,0.54l2.67,1.138c-0.113,0.399-0.216,0.803-0.3,1.213l-2.882-0.247l-0.1,0.559l2.804,0.754
			c-0.056,0.41-0.098,0.825-0.124,1.244l-2.894,0.157l-0.021,0.567l2.881,0.357c0.001,0.421,0.021,0.836,0.053,1.249l-2.845,0.558
			l0.057,0.564l2.903-0.047c0.059,0.416,0.133,0.825,0.223,1.23l-2.736,0.947l0.135,0.551l2.868-0.45
			c0.116,0.402,0.244,0.799,0.389,1.188l-2.576,1.318l0.211,0.527l2.778-0.846c0.171,0.381,0.352,0.757,0.55,1.123l-2.367,1.664
			l0.284,0.492l2.633-1.224c0.224,0.353,0.457,0.699,0.704,1.034l-2.116,1.979l0.35,0.448l2.438-1.58
			c0.269,0.319,0.549,0.627,0.841,0.924l-1.821,2.257l0.409,0.395l2.194-1.903c0.309,0.278,0.631,0.543,0.961,0.797l-1.489,2.488
			l0.46,0.335l1.906-2.188c0.345,0.231,0.702,0.449,1.065,0.655l-1.128,2.67l0.502,0.267l1.581-2.43
			c0.375,0.182,0.758,0.346,1.147,0.5l-0.745,2.8l0.534,0.195l1.229-2.627c0.395,0.126,0.797,0.238,1.205,0.336l-0.348,2.876
			l0.556,0.118l0.852-2.776c0.408,0.07,0.82,0.13,1.239,0.169l0.055,2.897l0.566,0.039l0.458-2.87
			c0.18,0.005,0.361,0.013,0.542,0.013c0.237,0,0.473-0.008,0.707-0.018l0.459,2.863l0.566-0.038l0.055-2.903
			c0.417-0.043,0.829-0.107,1.237-0.181l0.853,2.771l0.555-0.118l-0.351-2.879c0.407-0.102,0.807-0.22,1.202-0.352l1.229,2.622
			l0.533-0.192l-0.748-2.804c0.388-0.159,0.768-0.33,1.141-0.516l1.581,2.426l0.502-0.265l-1.132-2.674
			c0.361-0.211,0.715-0.432,1.059-0.668l1.905,2.184l0.459-0.333l-1.495-2.493c0.328-0.258,0.65-0.525,0.958-0.807l2.189,1.897
			l0.409-0.393l-1.827-2.261c0.289-0.3,0.57-0.61,0.835-0.931l2.432,1.573l0.35-0.446l-2.123-1.983
			c0.245-0.337,0.479-0.684,0.699-1.041l2.625,1.22l0.285-0.49l-2.376-1.667c0.195-0.368,0.377-0.744,0.545-1.128l2.769,0.842
			l0.215-0.525l-2.583-1.319c0.142-0.391,0.266-0.79,0.377-1.194l2.861,0.448l0.139-0.55l-2.741-0.946
			c0.085-0.406,0.152-0.819,0.207-1.236l2.897,0.047l0.062-0.565l-2.852-0.556C773.595-209.599,773.612-209.974,773.612-210.353z
			 M750.555-202.004l-0.187,0.326c-0.47,0.798-1.159,1.374-2.007,1.534c-0.837,0.155-1.67-0.12-2.391-0.676
			c-0.357-0.348-0.693-0.712-1.006-1.092c-1.952-2.379-3.024-5.349-3.071-8.386l0.005,0c-0.034-3.035,0.955-6.029,2.839-8.457
			c0.303-0.39,0.627-0.763,0.977-1.12c0.704-0.576,1.53-0.874,2.371-0.741c0.854,0.136,1.557,0.692,2.047,1.477l0.196,0.322
			l4.582,7.541l0.089,0.147c0.127,0.204,0.21,0.419,0.215,0.648l0.001,0.007c0.001,0.005,0.002,0.008,0.002,0.01
			c0.001,0.137-0.023,0.271-0.065,0.401l-0.265,0.462L750.555-202.004z M770.496-205.76c-0.123,0.482-0.271,0.957-0.444,1.416
			c-1.082,2.882-3.12,5.292-5.724,6.853l-0.003-0.004c-2.611,1.546-5.698,2.187-8.745,1.768c-0.488-0.068-0.973-0.162-1.458-0.285
			c-0.849-0.323-1.521-0.889-1.826-1.682c-0.309-0.808-0.179-1.696,0.255-2.513l0.182-0.333l4.24-7.738l0.083-0.149
			c0.112-0.21,0.259-0.391,0.453-0.512l0.006-0.004c0.003-0.002,0.006-0.004,0.009-0.006c0.116-0.07,0.245-0.116,0.379-0.143
			l0.533-0.001l8.744-0.045l0.375-0.002c0.926,0.007,1.769,0.316,2.332,0.972C770.439-207.522,770.617-206.662,770.496-205.76z
			 M770.039-212.8c-0.543,0.673-1.377,1.002-2.302,1.036l-0.376,0.008l-8.823,0.197l-0.169,0.004
			c-0.241,0.007-0.47-0.028-0.67-0.138l-0.008-0.003c-0.004-0.001-0.007-0.001-0.011-0.003c-0.119-0.065-0.221-0.154-0.313-0.257
			l-0.269-0.46l-4.41-7.551l-0.19-0.324c-0.456-0.807-0.61-1.689-0.322-2.504c0.282-0.803,0.939-1.389,1.779-1.733
			c0.48-0.135,0.963-0.245,1.449-0.325c3.037-0.501,6.145,0.055,8.798,1.535l-0.002,0.003c2.645,1.487,4.742,3.839,5.902,6.686
			c0.187,0.458,0.346,0.926,0.482,1.406C770.73-214.326,770.576-213.461,770.039-212.8z"/>
		<circle fill="#E60012" cx="778.645" cy="-232.106" r="7.822"/>
		<linearGradient id="SVGID_24_" gradientUnits="userSpaceOnUse" x1="746.6128" y1="-221.8423" x2="775.7164" y2="-189.3894">
			<stop  offset="0.0794" style="stop-color:#EFEFEF"/>
			<stop  offset="0.3545" style="stop-color:#DCDDDD"/>
			<stop  offset="0.7249" style="stop-color:#B5B5B6"/>
			<stop  offset="1" style="stop-color:#9FA0A0"/>
		</linearGradient>
		<path fill="url(#SVGID_24_)" d="M767.276-210.356c0-0.026-0.002-0.051-0.002-0.078l1.784-0.221l-0.011-0.353l-1.801-0.096
			c-0.018-0.26-0.044-0.518-0.083-0.773l1.735-0.467l-0.06-0.347l-1.795,0.156c-0.054-0.255-0.119-0.506-0.191-0.754l1.652-0.705
			l-0.107-0.335l-1.753,0.404c-0.089-0.245-0.191-0.483-0.297-0.719l1.538-0.927l-0.153-0.318l-1.682,0.643
			c-0.123-0.229-0.255-0.451-0.393-0.67l1.395-1.134l-0.195-0.292l-1.577,0.872c-0.153-0.209-0.314-0.412-0.483-0.609l1.225-1.317
			l-0.233-0.264l-1.442,1.084c-0.18-0.186-0.367-0.366-0.561-0.538l1.028-1.474l-0.269-0.229l-1.276,1.274
			c-0.205-0.159-0.414-0.312-0.63-0.455l0.813-1.602l-0.299-0.188l-1.086,1.439c-0.223-0.129-0.452-0.252-0.686-0.365l0.583-1.696
			l-0.322-0.146l-0.875,1.576c-0.24-0.097-0.483-0.187-0.731-0.265l0.34-1.762l-0.338-0.1l-0.647,1.681
			c-0.25-0.062-0.505-0.114-0.762-0.156l0.094-1.795l-0.352-0.051l-0.405,1.754c-0.256-0.025-0.515-0.039-0.776-0.046l-0.16-1.793
			h-0.353l-0.159,1.796c-0.261,0.01-0.518,0.029-0.773,0.057l-0.408-1.753l-0.348,0.049l0.09,1.801
			c-0.256,0.046-0.51,0.097-0.759,0.162l-0.646-1.675l-0.339,0.096l0.342,1.77c-0.247,0.081-0.491,0.17-0.729,0.268l-0.874-1.57
			l-0.32,0.143l0.583,1.704c-0.233,0.114-0.46,0.238-0.684,0.37l-1.084-1.435l-0.299,0.187l0.815,1.606
			c-0.214,0.145-0.421,0.3-0.624,0.461l-1.275-1.271l-0.27,0.226l1.032,1.478c-0.191,0.173-0.376,0.355-0.554,0.542l-1.44-1.081
			l-0.236,0.262l1.228,1.32c-0.167,0.199-0.323,0.404-0.474,0.614l-1.577-0.87l-0.197,0.292l1.399,1.136
			c-0.137,0.219-0.265,0.445-0.385,0.674l-1.68-0.642l-0.155,0.317l1.543,0.929c-0.104,0.236-0.201,0.476-0.288,0.722l-1.751-0.401
			l-0.11,0.335l1.658,0.706c-0.071,0.248-0.134,0.499-0.187,0.753l-1.788-0.153l-0.063,0.347l1.741,0.469
			c-0.035,0.255-0.061,0.512-0.077,0.772l-1.796,0.097l-0.014,0.353l1.788,0.222c0.001,0.26,0.014,0.518,0.034,0.775l-1.768,0.346
			l0.036,0.351l1.803-0.03c0.036,0.258,0.083,0.512,0.138,0.764l-1.698,0.588l0.083,0.342l1.781-0.28
			c0.073,0.25,0.152,0.496,0.242,0.738l-1.6,0.818l0.132,0.327l1.724-0.524c0.106,0.237,0.218,0.469,0.341,0.697l-1.469,1.032
			l0.176,0.306l1.635-0.761c0.138,0.22,0.282,0.435,0.437,0.643l-1.313,1.229l0.217,0.278l1.513-0.98
			c0.167,0.198,0.342,0.389,0.522,0.573l-1.13,1.401l0.254,0.245l1.362-1.181c0.193,0.172,0.391,0.337,0.597,0.495l-0.924,1.545
			l0.286,0.208l1.183-1.358c0.214,0.144,0.436,0.278,0.661,0.406l-0.7,1.658l0.312,0.166l0.982-1.508
			c0.232,0.113,0.47,0.215,0.711,0.31l-0.463,1.738l0.332,0.122l0.762-1.632c0.246,0.079,0.495,0.148,0.749,0.209l-0.216,1.787
			l0.345,0.073l0.528-1.724c0.253,0.043,0.51,0.08,0.77,0.105l0.035,1.799l0.352,0.024l0.283-1.782
			c0.113,0.003,0.224,0.009,0.337,0.009c0.148,0,0.293-0.005,0.439-0.011l0.284,1.776l0.352-0.023l0.033-1.802
			c0.26-0.028,0.516-0.067,0.768-0.114l0.529,1.721l0.345-0.073l-0.218-1.787c0.253-0.064,0.5-0.137,0.745-0.22l0.764,1.629
			l0.332-0.12l-0.465-1.741c0.241-0.098,0.477-0.205,0.708-0.32l0.981,1.506l0.312-0.164l-0.703-1.661
			c0.224-0.131,0.443-0.269,0.657-0.414l1.183,1.355l0.286-0.207l-0.928-1.548c0.204-0.16,0.403-0.326,0.595-0.501l1.358,1.177
			l0.254-0.244l-1.135-1.403c0.18-0.187,0.354-0.378,0.52-0.579l1.51,0.978l0.217-0.278l-1.318-1.231
			c0.152-0.209,0.297-0.424,0.433-0.645l1.631,0.757l0.177-0.305l-1.476-1.035c0.121-0.228,0.233-0.462,0.338-0.701l1.718,0.523
			l0.133-0.326l-1.603-0.818c0.087-0.244,0.165-0.491,0.236-0.742l1.774,0.279l0.087-0.342l-1.703-0.588
			c0.053-0.251,0.096-0.507,0.128-0.767l1.799,0.03l0.039-0.351l-1.771-0.346C767.266-209.889,767.276-210.121,767.276-210.356z
			 M756.901-202.099c-4.564,0-8.264-3.7-8.264-8.264c0-4.564,3.7-8.264,8.264-8.264c4.563,0,8.264,3.7,8.264,8.264
			C765.165-205.799,761.465-202.099,756.901-202.099z"/>
	</g>
	<text transform="matrix(1 0 0 1 775.439 -228.2427)" fill="#FFFFFF" font-family="'ArialMT'" font-size="10.978">1</text>
</g>
<path fill="#FFFFFF" d="M773.523-352.636c-2.454-0.825-2.737-0.979-4.979-2.227c-0.942-0.524-2.172-0.13-2.78,0.939
	c-0.67,1.18-1.003,1.771-1.673,2.952c-6.226-3.927-8.964-6.65-13.037-12.978c1.081-0.772,1.621-1.158,2.701-1.929
	c0.979-0.7,1.284-2.015,0.734-2.977c-1.31-2.288-1.875-3.502-2.796-6.037c-0.387-1.065-1.566-1.645-2.691-1.264
	c-1.257,0.426-2.123,0.719-3.085,1.044c-0.301,0.059-0.584,0.162-0.855,0.289c-1.261,0.594-2.14,1.867-2.14,3.354
	c0,0.486,0.1,0.947,0.269,1.372c0.013,0.036,0.027,0.072,0.041,0.106c0.57,1.482,1.049,2.53,1.899,4.205
	c0.442,0.871,0.673,1.3,1.156,2.143c5.145,8.992,8.973,12.802,17.786,17.705c0.683,0.38,1.027,0.562,1.727,0.912
	c1.263,0.632,2.181,1.058,3.175,1.457c0.099,0.044,0.177,0.08,0.259,0.117c0.272,0.074,0.542,0.154,0.818,0.227
	c0.144,0.038,0.291,0.056,0.438,0.076c0.011,0,0.019-0.006,0.03-0.006c0.034,0,0.058,0.016,0.09,0.019
	c0.08-0.006,0.159-0.011,0.238-0.019c0.002,0,0.003,0,0.005,0c0.022-0.002,0.033-0.007,0.058-0.009
	c0.213-0.018,0.414-0.054,0.605-0.098c1.521-0.238,2.033-1.447,2.396-2.709c0.036-0.124,0.07-0.247,0.092-0.375
	c0.277-1.123,0.515-2.087,0.871-3.53C775.171-351.083,774.555-352.29,773.523-352.636z"/>
<text transform="matrix(1 0 0 1 748.8521 -325.2046)" fill="#FFFFFF" font-family="'AdobeFanHeitiStd-Bold-B5pc-H'" font-size="8">電話</text>
<text transform="matrix(1 0 0 1 814.873 -325.2046)" fill="#FFFFFF" font-family="'AdobeFanHeitiStd-Bold-B5pc-H'" font-size="8">天氣</text>
<text transform="matrix(1 0 0 1 863.0059 -325.2046)" fill="#FFFFFF" font-family="'AdobeFanHeitiStd-Bold-B5pc-H'" font-size="8">Google Home</text>
<text transform="matrix(1 0 0 1 946.1016 -325.2046)" fill="#FFFFFF" font-family="'AdobeFanHeitiStd-Bold-B5pc-H'" font-size="8">錢包</text>
<text transform="matrix(1 0 0 1 733.0483 -252.7046)" fill="#FFFFFF" font-family="'AdobeFanHeitiStd-Bold-B5pc-H'" font-size="8">Google Maps</text>
<text transform="matrix(1 0 0 1 748.8521 -175.7046)" fill="#FFFFFF" font-family="'AdobeFanHeitiStd-Bold-B5pc-H'" font-size="8">設定</text>
<text transform="matrix(1 0 0 1 814.873 -252.7046)" fill="#FFFFFF" font-family="'AdobeFanHeitiStd-Bold-B5pc-H'" font-size="8">照片</text>
<text transform="matrix(1 0 0 1 869.5137 -252.7046)" fill="#FFFFFF" font-family="'AdobeFanHeitiStd-Bold-B5pc-H'" font-size="8">Instagram</text>
<text transform="matrix(1 0 0 1 938.1016 -252.7046)" fill="#FFFFFF" font-family="'AdobeFanHeitiStd-Bold-B5pc-H'" font-size="8">提醒事項</text>
<g>
	<g>
		<path fill="#FFFFFF" d="M847.329-197.022c0,5.939-4.816,10.753-10.755,10.753h-26.683c-5.937,0-10.752-4.814-10.752-10.753
			v-26.682c0-5.939,4.815-10.754,10.752-10.754h26.683c5.938,0,10.755,4.814,10.755,10.754V-197.022z"/>
	</g>
	<g>
		<path fill="#D70051" d="M816.02-222.627v-0.581h-2.171v-0.567h2.171v-0.609h-1.912c-0.098,0.182-0.294,0.406-0.596,0.651
			l-0.483-0.385c0.476-0.392,0.833-0.861,1.058-1.394l0.539,0.245l-0.161,0.315h1.555v-0.609h-2.255
			c-0.056,0-0.084-0.028-0.084-0.084v-2.423c0-0.056,0.028-0.084,0.084-0.084h5.057c0.056,0,0.084,0.028,0.084,0.084v2.423
			c0,0.056-0.028,0.084-0.084,0.084h-2.206v0.609h2.521v0.567h-2.521v0.609h2.381v0.567h-2.381v0.581h2.822v0.567h-6.332v-0.567
			H816.02z M814.248-227.124h4.09v-0.441l-0.028-0.021h-4.041l-0.021,0.021V-227.124z M818.338-226.584h-4.09v0.427l0.021,0.028
			h4.041c0.021,0,0.028-0.007,0.028-0.028V-226.584z"/>
		<path fill="#D70051" d="M821.395-223.005c-0.315,0.525-0.666,0.917-1.037,1.184c-0.105-0.196-0.217-0.351-0.329-0.456
			c0.357-0.266,0.651-0.616,0.861-1.043L821.395-223.005z M820.575-224.035v-3.124h-0.497v-0.546h0.497v-0.561h0.567v0.561h1.429
			v-0.561h0.567v0.561h0.399v0.546h-0.399v3.124h0.477v0.539h-3.558v-0.539H820.575z M821.143-226.472h1.429v-0.686h-1.429V-226.472
			z M821.143-225.239h1.429v-0.693h-1.429V-225.239z M821.143-224.035h1.429v-0.666h-1.429V-224.035z M822.656-222.137
			c-0.133-0.287-0.301-0.595-0.511-0.917l0.483-0.252c0.189,0.301,0.371,0.623,0.519,0.959L822.656-222.137z M824.407-224.154
			c-0.084,0.777-0.309,1.534-0.666,2.262l-0.588-0.196c0.448-0.994,0.693-1.891,0.708-2.689v-3.201c0-0.105,0.049-0.161,0.161-0.161
			h2.087c0.112,0,0.175,0.056,0.175,0.168v5.379c0,0.581-0.33,0.686-0.862,0.686c-0.14,0-0.301-0.007-0.476-0.028l-0.042-0.651
			c0.28,0.077,0.49,0.112,0.609,0.112c0.203,0,0.203-0.182,0.203-0.287v-1.394H824.407z M824.428-226.388h1.289v-1.142
			c0-0.049-0.028-0.07-0.077-0.07h-1.142c-0.042,0-0.07,0.028-0.07,0.077V-226.388z M824.428-224.693h1.289v-1.156h-1.289V-224.693z
			"/>
		<path fill="#D70051" d="M827.134-222.816h6.303v0.623h-6.303V-222.816z M827.491-227.992h5.589v0.623h-5.589V-227.992z
			 M827.736-225.442h5.071v0.623h-5.071V-225.442z"/>
	</g>
	<g>
		<g>
			<g>
				<path d="M819.653-209.093l-0.818-0.495c0.53-0.648,0.823-1.399,0.847-2.173c0.036-1.13-0.493-2.208-1.49-3.034
					c-1.009-0.837-2.374-1.317-3.843-1.351c-1.466-0.049-2.861,0.38-3.921,1.168c-1.047,0.78-1.644,1.831-1.68,2.961l-1-0.023
					c0.044-1.375,0.763-2.649,2.026-3.587c1.249-0.93,2.876-1.412,4.603-1.379c1.719,0.041,3.321,0.605,4.51,1.592
					c1.201,0.996,1.839,2.303,1.795,3.677C820.652-210.794,820.296-209.88,819.653-209.093z"/>
			</g>
			<g>
				<polygon points="808.696,-195.195 807.868,-195.677 819.036,-209.856 819.864,-209.375 				"/>
			</g>
		</g>
		<g>
			<rect x="807.88" y="-195.7" width="12.804" height="0.859"/>
		</g>
	</g>
	<g>
		<g>
			<rect x="824.207" y="-216.744" width="13.815" height="1"/>
		</g>
		<polygon points="837.103,-216.196 826.095,-194.84 827.247,-194.84 838.017,-215.733 		"/>
	</g>
</g>
<g>
	<path fill="#FFFFFF" d="M871.455-218.681c-0.438,0.38-0.713,0.922-0.713,1.527v16.122c0,0.499,0.188,0.957,0.498,1.316
		l11.539-9.572L871.455-218.681z"/>
	<path fill="#FFFFFF" d="M904.9-217.034c0-0.585-0.256-1.113-0.664-1.489l-11.121,9.343l11.305,9.495
		c0.299-0.354,0.48-0.806,0.48-1.299V-217.034z"/>
	<path fill="#FFFFFF" d="M892.475-208.633l-2.211,1.823c-0.686,0.435-1.49,0.689-2.357,0.689c-0.838,0-1.619-0.24-2.289-0.648
		l-2.289-1.885l-11.549,9.515c0.404,0.462,1.018,0.758,1.705,0.758h28.785c0.693,0,1.313-0.301,1.715-0.77L892.475-208.633z"/>
	<path fill="#FFFFFF" d="M902.258-219.806h-28.787c-0.576,0-1.098,0.209-1.49,0.549l12.537,10.328l1.02,0.842
		c0.686,0.413,1.486,0.656,2.346,0.656c0.918,0,1.771-0.275,2.486-0.744l0.766-0.631l12.65-10.421
		C903.389-219.584,902.85-219.806,902.258-219.806z"/>
</g>
<text transform="matrix(1 0 0 1 810.873 -175.7046)" fill="#FFFFFF" font-family="'AdobeFanHeitiStd-Bold-B5pc-H'" font-size="8">行事曆</text>
<text transform="matrix(1 0 0 1 879.9648 -175.7046)" fill="#FFFFFF" font-family="'AdobeFanHeitiStd-Bold-B5pc-H'" font-size="8">郵件</text>
<g>
	<path fill="#FFFFFF" d="M977.086-195.312c0,5.938-4.814,10.752-10.754,10.752h-26.684c-5.938,0-10.752-4.814-10.752-10.752v-26.683
		c0-5.938,4.814-10.753,10.752-10.753h26.684c5.939,0,10.754,4.814,10.754,10.753V-195.312z"/>
	
		<radialGradient id="SVGID_25_" cx="959" cy="-199.5947" r="22.9708" fx="957.8099" fy="-201.253" gradientTransform="matrix(-0.7337 -0.7312 1.0688 -0.9103 1873.9241 319.9308)" gradientUnits="userSpaceOnUse">
		<stop  offset="0.0317" style="stop-color:#47A4DC"/>
		<stop  offset="0.2063" style="stop-color:#60A0D6"/>
		<stop  offset="0.3439" style="stop-color:#7163A1"/>
		<stop  offset="0.5185" style="stop-color:#7E69AD"/>
		<stop  offset="0.6614" style="stop-color:#AC70A6"/>
		<stop  offset="0.9312" style="stop-color:#EA596E"/>
	</radialGradient>
	<path fill="url(#SVGID_25_)" d="M962.995-224.044l-17.491,2.573c-0.353,0-0.638,0.162-0.638,0.36v3.381v2.26v14.922l0,0
		c0,0.531-0.006,0.656-1.507,0.666c-0.172-0.016-0.347-0.024-0.522-0.024c-2.469,0-4.472,1.487-4.472,3.322
		c0,1.834,2.003,3.321,4.472,3.321c2.467,0,4.466-1.487,4.466-3.321v-18.526l13.894-2.573v14.873
		c-0.065,0.273-0.341,0.349-1.505,0.354c-0.175-0.014-0.349-0.023-0.526-0.023c-2.469,0-4.47,1.488-4.47,3.323
		c0,1.833,2.001,3.321,4.47,3.321c2.467,0,4.468-1.488,4.468-3.321v-18.886v-2.259v-3.382
		C963.633-223.884,963.346-224.044,962.995-224.044z"/>
</g>
<text transform="matrix(1 0 0 1 945.9316 -175.7046)" fill="#FFFFFF" font-family="'AdobeFanHeitiStd-Bold-B5pc-H'" font-size="8">音樂</text>
<g>
	<circle fill="#A49590" cx="47.931" cy="-92.911" r="42.52"/>
	<path fill="#FFFFFF" d="M52.831-106.918c0.808-0.703,3.004-0.867,7.901-0.904l0.001-9.741
		c-18.035,0.327-19.132,3.126-19.481,19.082h-9.083v9.764h9.642v28.067h10.171v-28.067h7.084l2.558-9.764h-9.642v-3.442
		C52.09-104.492,52.324-106.475,52.831-106.918z"/>
</g>
<g>
	<circle fill="#FFFFFF" cx="45.354" cy="45.354" r="42.52"/>
	<path fill="#A2938F" d="M50.254,31.348c0.808-0.703,3.004-0.867,7.901-0.904l0.001-9.741c-18.035,0.327-19.132,3.126-19.481,19.082
		h-9.082v9.764h9.642v28.067h10.171V49.548h7.084l2.558-9.764h-9.642v-3.442C49.514,33.773,49.747,31.791,50.254,31.348z"/>
</g>
<g>
	<circle fill="#A49590" cx="-216.797" cy="-92.911" r="42.52"/>
	<g id="XMLID_1_">
		<g>
			<path fill="#FFFFFF" d="M-222.773-69.59c-3.946,0.142-12.912-0.513-18.206-4.785c2.646,0.186,4.786,0.282,6.272-0.275
				c1.672-0.282,7.011-1.954,9.333-4.184c-0.65-0.044-2.832-0.416-4.645-1.3c-1.813-0.881-3.671-2.367-5.388-6.269
				c1.858,0.234,3.574,0.186,4.786-0.093c-1.583-0.602-8.085-2.88-8.501-10.73c0.973,0.605,2.879,1.672,4.689,1.3
				c-0.602-0.646-7.569-6.546-3.158-14.305c1.349,1.583,9.385,10.961,22.178,11.103c0,0-1.23-7.662,5.387-11.727
				c6.618-4.064,13.146,1.672,13.004,1.973c0.65-0.048,6.387-1.694,6.9-2.578c-0.743,1.857-1.884,3.786-4.6,5.9
				c0.364-0.282,1.665-0.271,2.147-0.375c1.367-0.298,2.649-0.759,3.953-1.271c-0.111,0.152-2.653,3.615-5.335,5.499
				c-0.044,1.605-0.067,12.752-7.36,21.483C-208.61-71.492-218.828-69.73-222.773-69.59z"/>
		</g>
		<g>
		</g>
	</g>
</g>
<g>
	<circle fill="#FFFFFF" cx="-218.626" cy="33.966" r="42.52"/>
	<g id="XMLID_2_">
		<g>
			<path fill="#A2938F" d="M-190.449,19.671c-0.111,0.152-2.653,3.615-5.335,5.499c-0.044,1.605-0.067,12.752-7.36,21.483
				c-7.294,8.731-17.512,10.493-21.458,10.634c-3.946,0.142-12.912-0.513-18.206-4.785c2.646,0.186,4.786,0.282,6.272-0.275
				c1.672-0.282,7.011-1.954,9.333-4.184c-0.65-0.044-2.832-0.416-4.645-1.3c-1.813-0.881-3.671-2.367-5.388-6.269
				c1.858,0.234,3.574,0.186,4.786-0.093c-1.583-0.602-8.085-2.88-8.501-10.73c0.973,0.605,2.879,1.672,4.689,1.3
				c-0.602-0.646-7.569-6.546-3.158-14.305c1.349,1.583,9.385,10.961,22.178,11.103c0,0-1.23-7.662,5.387-11.727
				c6.618-4.064,13.146,1.672,13.004,1.973c0.65-0.048,6.387-1.694,6.9-2.578c-0.743,1.857-1.884,3.786-4.6,5.9
				c0.364-0.282,1.665-0.271,2.147-0.375C-193.035,20.645-191.753,20.184-190.449,19.671z"/>
		</g>
		<g>
		</g>
	</g>
</g>
</svg>
