<?xml version="1.0" encoding="utf-8"?>
<!-- Generator: Adobe Illustrator 16.0.0, SVG Export Plug-In . SVG Version: 6.00 Build 0)  -->
<!DOCTYPE svg PUBLIC "-//W3C//DTD SVG 1.1//EN" "http://www.w3.org/Graphics/SVG/1.1/DTD/svg11.dtd">
<svg version="1.1" id="圖層_1" xmlns="http://www.w3.org/2000/svg" xmlns:xlink="http://www.w3.org/1999/xlink" x="0px" y="0px"
	 width="90.709px" height="90.709px" viewBox="0 0 90.709 90.709" enable-background="new 0 0 90.709 90.709" xml:space="preserve">
<linearGradient id="SVGID_1_" gradientUnits="userSpaceOnUse" x1="696.5894" y1="5.5273" x2="1008.3999" y2="5.5273">
	<stop  offset="0.0635" style="stop-color:#B5B5B6"/>
	<stop  offset="0.254" style="stop-color:#F7F8F8"/>
	<stop  offset="0.6508" style="stop-color:#898989"/>
	<stop  offset="0.9206" style="stop-color:#B5B5B6"/>
</linearGradient>
<path fill="url(#SVGID_1_)" d="M1008.4,274.818c0,23.482-19.037,42.52-42.52,42.52H739.109c-23.483,0-42.52-19.037-42.52-42.52
	v-538.582c0-23.483,19.037-42.52,42.52-42.52H965.88c23.482,0,42.52,19.037,42.52,42.52V274.818z"/>
<path stroke="#000000" stroke-miterlimit="10" d="M1004.148,271.146c0,23.163-18.518,41.941-41.359,41.941H742.202
	c-22.843,0-41.36-18.778-41.36-41.941v-531.237c0-23.163,18.517-41.939,41.36-41.939h220.587c22.842,0,41.359,18.777,41.359,41.939
	V271.146z"/>
<linearGradient id="SVGID_2_" gradientUnits="userSpaceOnUse" x1="852.811" y1="330.8135" x2="852.1391" y2="-255.1404">
	<stop  offset="0.2222" style="stop-color:#CBE4C1"/>
	<stop  offset="0.9312" style="stop-color:#F8C8C9"/>
</linearGradient>
<path fill="url(#SVGID_2_)" stroke="#000000" stroke-miterlimit="10" d="M998.613,265.349c0,22.595-17.85,40.911-39.865,40.911
	H746.131c-22.017,0-39.866-18.316-39.866-40.911v-518.18c0-22.594,17.849-40.909,39.866-40.909h212.616
	c22.016,0,39.865,18.315,39.865,40.909V265.349z"/>
<path stroke="#000000" stroke-miterlimit="10" d="M922.64-281.649c-0.633,3.563-4.02,6.404-7.576,6.404H790.16
	c-3.556,0-6.942-2.841-7.576-6.404l-2.143-12.075c-0.684-3.854,1.824-7.033,5.613-7.033h133.116c3.791,0,6.297,3.179,5.613,7.033
	L922.64-281.649z"/>
<path fill="#595757" d="M866.3-288.001c0,0.869-0.992,1.574-2.215,1.574H841.14c-1.223,0-2.216-0.705-2.216-1.574l0,0
	c0-0.869,0.993-1.574,2.216-1.574h22.946C865.308-289.575,866.3-288.87,866.3-288.001L866.3-288.001z"/>
<g>
	<linearGradient id="SVGID_3_" gradientUnits="userSpaceOnUse" x1="872.3354" y1="-288.001" x2="876.5249" y2="-288.001">
		<stop  offset="0.0159" style="stop-color:#433F3E"/>
		<stop  offset="0.3386" style="stop-color:#4D4A49"/>
		<stop  offset="0.5397" style="stop-color:#595757"/>
		<stop  offset="0.9735" style="stop-color:#000000"/>
	</linearGradient>
	<circle fill="url(#SVGID_3_)" cx="874.43" cy="-288.001" r="2.095"/>
	
		<linearGradient id="SVGID_4_" gradientUnits="userSpaceOnUse" x1="620.0913" y1="-345.3369" x2="623.4282" y2="-345.3369" gradientTransform="matrix(-0.95 -0.3123 0.3123 -0.95 1572.9495 -421.8968)">
		<stop  offset="0.0159" style="stop-color:#433F3E"/>
		<stop  offset="0.3386" style="stop-color:#4D4A49"/>
		<stop  offset="0.5397" style="stop-color:#595757"/>
		<stop  offset="0.9735" style="stop-color:#000000"/>
	</linearGradient>
	<circle fill="url(#SVGID_4_)" cx="874.43" cy="-288.001" r="1.668"/>
	
		<radialGradient id="SVGID_5_" cx="622.4067" cy="-344.8291" r="1.8292" gradientTransform="matrix(-0.95 -0.3123 0.3123 -0.95 1572.9495 -421.8968)" gradientUnits="userSpaceOnUse">
		<stop  offset="0.0265" style="stop-color:#A9A9A9"/>
		<stop  offset="0.0899" style="stop-color:#686968"/>
		<stop  offset="0.2222" style="stop-color:#172A4F"/>
		<stop  offset="0.5079" style="stop-color:#1A2D76"/>
		<stop  offset="0.7196" style="stop-color:#1E2C5C"/>
		<stop  offset="0.9735" style="stop-color:#080815"/>
	</radialGradient>
	<circle fill="url(#SVGID_5_)" cx="874.43" cy="-288.001" r="1.309"/>
</g>
<g>
	<linearGradient id="SVGID_6_" gradientUnits="userSpaceOnUse" x1="695.4536" y1="-204.688" x2="695.7532" y2="-128.6024">
		<stop  offset="0.0265" style="stop-color:#EFEFEF"/>
		<stop  offset="0.0587" style="stop-color:#F4F4F4"/>
		<stop  offset="0.1005" style="stop-color:#FFFFFF"/>
		<stop  offset="0.3342" style="stop-color:#FFFFFF;stop-opacity:0.1"/>
		<stop  offset="0.7778" style="stop-color:#595757"/>
		<stop  offset="0.9683" style="stop-color:#A48B78"/>
	</linearGradient>
	<path fill="url(#SVGID_6_)" d="M699.089-150.269c0,1.847-1.567,3.343-3.5,3.343l0,0c-1.933,0-3.5-1.497-3.5-3.343v-39.813
		c0-1.847,1.567-3.343,3.5-3.343l0,0c1.933,0,3.5,1.497,3.5,3.343V-150.269z"/>
	<path fill="#B5B5B6" d="M696.589-150.269c0,1.847-1.007,3.343-2.25,3.343l0,0c-1.243,0-2.25-1.497-2.25-3.343v-39.813
		c0-1.847,1.007-3.343,2.25-3.343l0,0c1.243,0,2.25,1.497,2.25,3.343V-150.269z"/>
</g>
<g>
	
		<linearGradient id="SVGID_7_" gradientUnits="userSpaceOnUse" x1="424.5522" y1="-190.687" x2="424.9753" y2="-83.2514" gradientTransform="matrix(-1 0 0 1 1434.6504 0)">
		<stop  offset="0.0265" style="stop-color:#EFEFEF"/>
		<stop  offset="0.0587" style="stop-color:#F4F4F4"/>
		<stop  offset="0.1005" style="stop-color:#FFFFFF"/>
		<stop  offset="0.3342" style="stop-color:#FFFFFF;stop-opacity:0.1"/>
		<stop  offset="0.7778" style="stop-color:#595757"/>
		<stop  offset="0.9683" style="stop-color:#A48B78"/>
	</linearGradient>
	<path fill="url(#SVGID_7_)" d="M1006.4-111.451c0,2.688,1.566,4.868,3.5,4.868l0,0c1.934,0,3.5-2.179,3.5-4.868v-57.97
		c0-2.688-1.566-4.868-3.5-4.868l0,0c-1.934,0-3.5,2.179-3.5,4.868V-111.451z"/>
	<path fill="#B5B5B6" d="M1008.9-111.451c0,2.688,1.008,4.868,2.25,4.868l0,0c1.242,0,2.25-2.179,2.25-4.868v-57.97
		c0-2.688-1.008-4.868-2.25-4.868l0,0c-1.242,0-2.25,2.179-2.25,4.868V-111.451z"/>
</g>
<g>
	<linearGradient id="SVGID_8_" gradientUnits="userSpaceOnUse" x1="695.4536" y1="-144.3462" x2="695.7282" y2="-74.6017">
		<stop  offset="0.0265" style="stop-color:#EFEFEF"/>
		<stop  offset="0.0587" style="stop-color:#F4F4F4"/>
		<stop  offset="0.1005" style="stop-color:#FFFFFF"/>
		<stop  offset="0.3342" style="stop-color:#FFFFFF;stop-opacity:0.1"/>
		<stop  offset="0.7778" style="stop-color:#595757"/>
		<stop  offset="0.9683" style="stop-color:#A48B78"/>
	</linearGradient>
	<path fill="url(#SVGID_8_)" d="M699.089-89.928c0,1.847-1.567,3.343-3.5,3.343l0,0c-1.933,0-3.5-1.497-3.5-3.343v-39.813
		c0-1.847,1.567-3.343,3.5-3.343l0,0c1.933,0,3.5,1.497,3.5,3.343V-89.928z"/>
	<path fill="#B5B5B6" d="M696.589-89.928c0,1.847-1.007,3.343-2.25,3.343l0,0c-1.243,0-2.25-1.497-2.25-3.343v-39.813
		c0-1.847,1.007-3.343,2.25-3.343l0,0c1.243,0,2.25,1.497,2.25,3.343V-89.928z"/>
</g>
<text transform="matrix(1 0 0 1 740.2783 -275.8896)"><tspan x="0" y="0" fill="#FFFFFF" font-family="'ArialMT'" font-size="12">9:3</tspan><tspan x="19.382" y="0" fill="#FFFFFF" font-family="'ArialMT'" font-size="12">0</tspan></text>
<path fill="#FFFFFF" d="M927.695-275.669c0,0.234-0.447,0.424-1,0.424h-0.5c-0.553,0-1-0.19-1-0.424v-1.749
	c0-0.234,0.447-0.424,1-0.424h0.5c0.553,0,1,0.19,1,0.424V-275.669z"/>
<path fill="#FFFFFF" d="M931.195-275.957c0,0.393-0.447,0.712-1,0.712h-0.5c-0.553,0-1-0.319-1-0.712v-2.937
	c0-0.393,0.447-0.712,1-0.712h0.5c0.553,0,1,0.319,1,0.712V-275.957z"/>
<path fill="#FFFFFF" d="M934.695-276.257c0,0.559-0.447,1.012-1,1.012h-0.5c-0.553,0-1-0.453-1-1.012v-4.171
	c0-0.559,0.447-1.012,1-1.012h0.5c0.553,0,1,0.453,1,1.012V-276.257z"/>
<path fill="#FFFFFF" d="M938.195-276.61c0,0.754-0.447,1.365-1,1.365h-0.5c-0.553,0-1-0.611-1-1.365v-5.63
	c0-0.754,0.447-1.365,1-1.365h0.5c0.553,0,1,0.611,1,1.365V-276.61z"/>
<text transform="matrix(1 0 0 1 939.603 -275.2451)" fill="#FFFFFF" font-family="'ArialMT'" font-size="12">4</text>
<text transform="matrix(0.95 0 0 1 945.6772 -275.2451)" fill="#FFFFFF" font-family="'ArialMT'" font-size="12">G</text>
<g>
	<path opacity="0.6" fill="none" stroke="#FFFFFF" stroke-width="0.5" stroke-miterlimit="10" d="M976.361-275.821
		c0,0.365-0.213,0.662-0.479,0.662h-18.711c-0.264,0-0.477-0.297-0.477-0.662v-7.122c0-0.366,0.213-0.663,0.477-0.663h18.711
		c0.266,0,0.479,0.297,0.479,0.663V-275.821z"/>
	<path fill="#8FC31F" d="M973.585-276.438c0,0.302-0.176,0.548-0.396,0.548h-15.475c-0.219,0-0.395-0.246-0.395-0.548v-5.891
		c0-0.302,0.176-0.548,0.395-0.548h15.475c0.221,0,0.396,0.246,0.396,0.548V-276.438z"/>
	<path opacity="0.6" fill="#FFFFFF" d="M976.916-280.973c0.93,0,1.684,0.712,1.684,1.59c0,0.879-0.754,1.591-1.684,1.591"/>
</g>
<linearGradient id="SVGID_9_" gradientUnits="userSpaceOnUse" x1="688.9912" y1="6.3721" x2="753.1868" y2="6.3721">
	<stop  offset="0" style="stop-color:#FFFFFF"/>
	<stop  offset="0.313" style="stop-color:#FFFFFF;stop-opacity:0.1"/>
</linearGradient>
<path fill="url(#SVGID_9_)" d="M722.274,271.096v-529.449c0-23.084,14.51-41.797,32.41-41.797h-20.896
	c-17.901,0-32.411,18.713-32.411,41.797v529.449c0,23.085,14.51,41.8,32.411,41.8h20.896
	C736.784,312.896,722.274,294.181,722.274,271.096z"/>
<linearGradient id="SVGID_10_" gradientUnits="userSpaceOnUse" x1="500.6772" y1="6.4121" x2="564.0855" y2="6.4121" gradientTransform="matrix(-1 0 0 1 1518.0313 0)">
	<stop  offset="0" style="stop-color:#FFFFFF"/>
	<stop  offset="0.3183" style="stop-color:#FFFFFF;stop-opacity:0.1"/>
</linearGradient>
<path fill="url(#SVGID_10_)" d="M982.994,270.791v-528.759c0-23.054-14.357-41.743-32.068-41.743h20.676
	c17.711,0,32.066,18.689,32.066,41.743v528.759c0,23.054-14.355,41.745-32.066,41.745h-20.676
	C968.636,312.536,982.994,293.845,982.994,270.791z"/>
<path opacity="0.5" fill="#FFFFFF" d="M986.162,275.453c0,9.357-8.461,16.941-18.895,16.941H737.723
	c-10.436,0-18.896-7.584-18.896-16.941V234.67c0-9.357,8.46-16.941,18.896-16.941h229.544c10.434,0,18.895,7.584,18.895,16.941
	V275.453z"/>
<g>
	<path fill="#00AA3A" d="M778.499,268.402c0,5.939-4.814,10.754-10.753,10.754h-26.684c-5.938,0-10.752-4.814-10.752-10.754v-26.682
		c0-5.939,4.814-10.754,10.752-10.754h26.684c5.939,0,10.753,4.814,10.753,10.754V268.402z"/>
	<path fill="#FFFFFF" d="M754.258,239.109c-9.709,0-17.581,6.256-17.581,13.973c0,0.146,0.022,0.286,0.027,0.43
		c-0.006,0.153-0.027,0.303-0.027,0.457c0,7.525,7.225,13.625,16.136,13.625c0.533,0,1.058-0.024,1.577-0.067l-1.88,4.791
		c4.288,1.681,12.394-6.073,15.93-10.411c2.688-3.25,3.397-5.606,3.397-8.824C771.838,245.365,763.967,239.109,754.258,239.109z"/>
	<g>
		<path fill="#00AA3A" d="M742.137,257.04v-7.73h1.574v6.417h3.913v1.313H742.137z"/>
		<path fill="#00AA3A" d="M748.97,257.04v-7.794h1.574v7.794H748.97z"/>
		<path fill="#00AA3A" d="M752.331,257.04v-7.794h1.531l3.19,5.205v-5.205h1.462v7.794h-1.579l-3.142-5.082v5.082H752.331z"/>
		<path fill="#00AA3A" d="M760.45,257.04v-7.794h5.779v1.318h-4.206v1.729h3.913v1.313h-3.913v2.121h4.354v1.313H760.45z"/>
	</g>
</g>
<line fill="#FFFFFF" x1="828.423" y1="259.687" x2="826.914" y2="259.687"/>
<linearGradient id="SVGID_11_" gradientUnits="userSpaceOnUse" x1="819.3232" y1="220.667" x2="820.2527" y2="288.0568">
	<stop  offset="0.1376" style="stop-color:#2EA7E0"/>
	<stop  offset="0.709" style="stop-color:#036EB8"/>
</linearGradient>
<path fill="url(#SVGID_11_)" d="M843.893,268.402c0,5.939-4.815,10.754-10.753,10.754h-26.684c-5.938,0-10.753-4.814-10.753-10.754
	v-26.682c0-5.939,4.814-10.754,10.753-10.754h26.684c5.938,0,10.753,4.814,10.753,10.754V268.402z"/>
<path fill="#FFFFFF" d="M823.769,248.196c0.54-0.471,2.01-0.581,5.287-0.605l0.001-6.519c-12.069,0.219-12.802,2.092-13.036,12.769
	h-6.078v6.533h6.452v18.782h6.806v-18.782h4.74l1.711-6.533h-6.452v-2.303C823.273,249.818,823.429,248.492,823.769,248.196z"/>
<polygon fill="#EFEFEF" points="957.789,271.27 958.078,271.183 958.519,272.55 958.238,272.643 "/>
<g>
	<path fill="#FFFFFF" d="M974.679,268.402c0,5.939-4.814,10.754-10.752,10.754h-26.686c-5.938,0-10.752-4.814-10.752-10.754v-26.682
		c0-5.939,4.814-10.754,10.752-10.754h26.686c5.938,0,10.752,4.814,10.752,10.754V268.402z"/>
	<linearGradient id="SVGID_12_" gradientUnits="userSpaceOnUse" x1="922.4946" y1="267.8545" x2="980.4747" y2="241.4504">
		<stop  offset="0.4339" style="stop-color:#036EB8"/>
		<stop  offset="0.8624" style="stop-color:#00A0E9"/>
	</linearGradient>
	<circle fill="url(#SVGID_12_)" cx="950.584" cy="255.062" r="21.3"/>
	<rect x="950.585" y="235.292" fill="#EFEFEF" width="0.324" height="3.13"/>
	<rect x="951.351" y="235.292" fill="#EFEFEF" width="0.324" height="1.565"/>
	
		<rect x="948.68" y="235.375" transform="matrix(0.9944 -0.1055 0.1055 0.9944 -19.6978 101.395)" fill="#EFEFEF" width="0.324" height="3.131"/>
	
		<rect x="949.361" y="235.299" transform="matrix(0.9945 -0.1048 0.1048 0.9945 -19.5181 100.8498)" fill="#EFEFEF" width="0.326" height="1.564"/>
	
		<rect x="946.796" y="235.656" transform="matrix(0.9783 -0.2071 0.2071 0.9783 -28.597 201.2273)" fill="#EFEFEF" width="0.325" height="3.13"/>
	
		<rect x="947.383" y="235.512" transform="matrix(0.9777 -0.2099 0.2099 0.9777 -28.491 204.1924)" fill="#EFEFEF" width="0.326" height="1.566"/>
	
		<rect x="944.951" y="236.132" transform="matrix(0.9493 -0.3144 0.3144 0.9493 -26.8048 309.2105)" fill="#EFEFEF" width="0.323" height="3.131"/>
	
		<rect x="945.438" y="235.933" transform="matrix(0.9513 -0.3081 0.3081 0.9513 -26.9296 302.8947)" fill="#EFEFEF" width="0.326" height="1.565"/>
	
		<rect x="943.165" y="236.798" transform="matrix(0.9118 -0.4106 0.4106 0.9118 -14.6823 408.3664)" fill="#EFEFEF" width="0.323" height="3.13"/>
	
		<rect x="943.547" y="236.556" transform="matrix(0.916 -0.4011 0.4011 0.916 -15.9509 398.4849)" fill="#EFEFEF" width="0.326" height="1.563"/>
	
		<rect x="941.46" y="237.647" transform="matrix(0.8636 -0.5042 0.5042 0.8636 7.8528 507.4476)" fill="#EFEFEF" width="0.323" height="3.132"/>
	
		<rect x="941.731" y="237.371" transform="matrix(0.869 -0.4948 0.4948 0.869 5.5547 497.2868)" fill="#EFEFEF" width="0.324" height="1.564"/>
	
		<rect x="939.852" y="238.669" transform="matrix(0.8051 -0.5932 0.5932 0.8051 40.7427 604.4474)" fill="#EFEFEF" width="0.323" height="3.132"/>
	
		<rect x="940.012" y="238.372" transform="matrix(0.8121 -0.5835 0.5835 0.8121 37.1054 593.539)" fill="#EFEFEF" width="0.325" height="1.563"/>
	
		<rect x="938.361" y="239.855" transform="matrix(0.7397 -0.673 0.673 0.7397 81.8594 694.4515)" fill="#EFEFEF" width="0.322" height="3.131"/>
	
		<rect x="938.406" y="239.547" transform="matrix(0.7466 -0.6653 0.6653 0.7466 77.9635 685.3314)" fill="#EFEFEF" width="0.324" height="1.564"/>
	
		<rect x="937" y="241.19" transform="matrix(0.6651 -0.7467 0.7467 0.6651 132.5663 781.1133)" fill="#EFEFEF" width="0.323" height="3.132"/>
	
		<rect x="936.932" y="240.883" transform="matrix(0.6748 -0.738 0.738 0.6748 126.4166 770.1993)" fill="#EFEFEF" width="0.324" height="1.563"/>
	
		<rect x="935.788" y="242.66" transform="matrix(0.5838 -0.8119 0.8119 0.5838 191.2371 861.5193)" fill="#EFEFEF" width="0.321" height="3.131"/>
	
		<rect x="935.604" y="242.366" transform="matrix(0.5928 -0.8054 0.8054 0.5928 185.2329 852.6383)" fill="#EFEFEF" width="0.326" height="1.564"/>
	
		<rect x="934.736" y="244.249" transform="matrix(0.4955 -0.8686 0.8686 0.4955 258.1541 936.0873)" fill="#EFEFEF" width="0.319" height="3.131"/>
	
		<rect x="934.44" y="243.979" transform="matrix(0.5039 -0.8638 0.8638 0.5039 252.264 928.7235)" fill="#EFEFEF" width="0.326" height="1.565"/>
	
		<rect x="933.855" y="245.938" transform="matrix(0.4027 -0.9153 0.9153 0.4027 331.3063 1002.7432)" fill="#EFEFEF" width="0.32" height="3.133"/>
	
		<rect x="933.452" y="245.707" transform="matrix(0.4168 -0.909 0.909 0.4168 320.4597 992.4333)" fill="#EFEFEF" width="0.323" height="1.564"/>
	
		<rect x="933.155" y="247.712" transform="matrix(0.3098 -0.9508 0.9508 0.3098 407.1259 1059.4266)" fill="#EFEFEF" width="0.321" height="3.131"/>
	
		<rect x="932.648" y="247.526" transform="matrix(0.318 -0.9481 0.9481 0.318 400.7349 1053.7206)" fill="#EFEFEF" width="0.325" height="1.565"/>
	<polygon fill="#EFEFEF" points="934.371,251.281 934.306,251.595 931.24,250.945 931.31,250.629 	"/>
	<polygon fill="#EFEFEF" points="933.003,250.207 932.931,250.524 931.402,250.199 931.468,249.883 	"/>
	
		<rect x="932.331" y="251.427" transform="matrix(0.1034 -0.9946 0.9946 0.1034 584.4192 1154.3203)" fill="#EFEFEF" width="0.321" height="3.132"/>
	<polygon fill="#EFEFEF" points="932.591,252.07 932.554,252.394 931,252.229 931.031,251.909 	"/>
	<rect x="930.806" y="254.733" fill="#EFEFEF" width="3.133" height="0.323"/>
	<rect x="930.81" y="253.967" fill="#EFEFEF" width="1.566" height="0.325"/>
	
		<rect x="932.295" y="255.234" transform="matrix(-0.1034 -0.9946 0.9946 -0.1034 773.4664 1210.8121)" fill="#EFEFEF" width="0.321" height="3.131"/>
	
		<rect x="931.438" y="255.337" transform="matrix(-0.0962 -0.9954 0.9954 -0.0962 766.3151 1208.0422)" fill="#EFEFEF" width="0.325" height="1.565"/>
	
		<rect x="932.576" y="257.117" transform="matrix(-0.2072 -0.9783 0.9783 -0.2072 872.967 1224.78)" fill="#EFEFEF" width="0.32" height="3.135"/>
	
		<rect x="931.653" y="257.316" transform="matrix(-0.1984 -0.9801 0.9801 -0.1984 863.7474 1222.5984)" fill="#EFEFEF" width="0.325" height="1.565"/>
	
		<rect x="933.05" y="258.963" transform="matrix(-0.3089 -0.9511 0.9511 -0.3089 973.742 1228.5776)" fill="#EFEFEF" width="0.322" height="3.134"/>
	
		<rect x="932.073" y="259.26" transform="matrix(-0.3017 -0.9534 0.9534 -0.3017 965.573 1227.2937)" fill="#EFEFEF" width="0.324" height="1.567"/>
	
		<rect x="933.719" y="260.748" transform="matrix(-0.409 -0.9125 0.9125 -0.409 1076.4314 1221.8037)" fill="#EFEFEF" width="0.32" height="3.134"/>
	
		<rect x="932.695" y="261.151" transform="matrix(-0.3983 -0.9173 0.9173 -0.3983 1064.1379 1221.9319)" fill="#EFEFEF" width="0.324" height="1.565"/>
	
		<rect x="934.568" y="262.455" transform="matrix(-0.506 -0.8626 0.8626 -0.506 1179.9235 1203.8629)" fill="#EFEFEF" width="0.32" height="3.133"/>
	
		<rect x="933.509" y="262.965" transform="matrix(-0.4994 -0.8664 0.8664 -0.4994 1171.4156 1204.3777)" fill="#EFEFEF" width="0.325" height="1.568"/>
	
		<rect x="935.592" y="264.062" transform="matrix(-0.5867 -0.8098 0.8098 -0.5867 1269.6691 1179.2412)" fill="#EFEFEF" width="0.32" height="3.134"/>
	
		<rect x="934.509" y="264.685" transform="matrix(-0.5849 -0.8111 0.8111 -0.5849 1266.083 1178.8413)" fill="#EFEFEF" width="0.324" height="1.567"/>
	
		<rect x="936.776" y="265.554" transform="matrix(-0.673 -0.7397 0.7397 -0.673 1369.8915 1139.9069)" fill="#EFEFEF" width="0.322" height="3.134"/>
	<polygon fill="#EFEFEF" points="936.322,266.429 936.535,266.672 935.373,267.719 935.156,267.481 	"/>
	
		<rect x="938.113" y="266.915" transform="matrix(-0.7457 -0.6663 0.6663 -0.7457 1459.0841 1093.827)" fill="#EFEFEF" width="0.32" height="3.133"/>
	
		<rect x="937.021" y="267.766" transform="matrix(-0.7367 -0.6763 0.6763 -0.7367 1445.95 1100.1652)" fill="#EFEFEF" width="0.323" height="1.565"/>
	
		<rect x="939.583" y="268.128" transform="matrix(-0.8137 -0.5812 0.5812 -0.8137 1547.6859 1035.3689)" fill="#EFEFEF" width="0.319" height="3.134"/>
	
		<rect x="938.504" y="269.092" transform="matrix(-0.8036 -0.5952 0.5952 -0.8036 1532.3699 1045.4004)" fill="#EFEFEF" width="0.323" height="1.565"/>
	
		<rect x="941.171" y="269.18" transform="matrix(-0.8701 -0.4929 0.4929 -0.8701 1626.9526 970.2695)" fill="#EFEFEF" width="0.321" height="3.133"/>
	<polygon fill="#EFEFEF" points="940.531,270.278 940.81,270.444 940.027,271.799 939.75,271.64 	"/>
	
		<rect x="942.863" y="270.061" transform="matrix(-0.9153 -0.4027 0.4027 -0.9153 1696.7913 900.0438)" fill="#EFEFEF" width="0.32" height="3.133"/>
	<polygon fill="#EFEFEF" points="942.177,271.244 942.472,271.382 941.835,272.811 941.541,272.681 	"/>
	
		<rect x="944.635" y="270.761" transform="matrix(-0.9523 -0.3052 0.3052 -0.9523 1761.3879 820.0287)" fill="#EFEFEF" width="0.32" height="3.133"/>
	<polygon fill="#EFEFEF" points="943.916,272.034 944.224,272.14 943.738,273.628 943.433,273.528 	"/>
	
		<rect x="946.473" y="271.271" transform="matrix(-0.9788 -0.2049 0.2049 -0.9788 1817.2607 733.8779)" fill="#EFEFEF" width="0.319" height="3.132"/>
	<polygon fill="#EFEFEF" points="945.726,272.637 946.042,272.71 945.716,274.241 945.402,274.176 	"/>
	
		<rect x="948.351" y="271.585" transform="matrix(-0.9946 -0.1037 0.1037 -0.9946 1863.571 643.2199)" fill="#EFEFEF" width="0.32" height="3.133"/>
	<polygon fill="#EFEFEF" points="947.587,273.047 947.914,273.088 947.748,274.644 947.429,274.611 	"/>
	<rect x="950.253" y="271.703" fill="#EFEFEF" width="0.32" height="3.132"/>
	<polygon fill="#EFEFEF" points="949.486,273.262 949.812,273.268 949.81,274.833 949.49,274.833 	"/>
	
		<rect x="952.16" y="271.62" transform="matrix(-0.9942 0.1074 -0.1074 -0.9942 1928.4696 442.5139)" fill="#EFEFEF" width="0.318" height="3.133"/>
	<polygon fill="#EFEFEF" points="951.394,273.277 951.72,273.249 951.88,274.806 951.562,274.84 	"/>
	
		<rect x="954.044" y="271.339" transform="matrix(-0.9782 0.2079 -0.2079 -0.9782 1944.2922 341.5125)" fill="#EFEFEF" width="0.319" height="3.135"/>
	<polygon fill="#EFEFEF" points="953.292,273.091 953.617,273.03 953.937,274.562 953.625,274.629 	"/>
	
		<rect x="955.89" y="270.862" transform="matrix(-0.9499 0.3125 -0.3125 -0.9499 1949.3496 232.3986)" fill="#EFEFEF" width="0.319" height="3.134"/>
	
		<rect x="957.674" y="270.196" transform="matrix(-0.9119 0.4104 -0.4104 -0.9119 1942.8264 126.5285)" fill="#EFEFEF" width="0.321" height="3.135"/>
	<polygon fill="#EFEFEF" points="956.982,272.134 957.285,272.006 957.917,273.436 957.625,273.567 	"/>
	
		<rect x="959.379" y="269.346" transform="matrix(-0.8633 0.5046 -0.5046 -0.8633 1924.6561 20.5932)" fill="#EFEFEF" width="0.321" height="3.135"/>
	<polygon fill="#EFEFEF" points="958.732,271.371 959.019,271.213 959.798,272.568 959.521,272.73 	"/>
	<polygon fill="#EFEFEF" points="960.099,268.717 960.357,268.526 962.199,271.064 961.937,271.249 	"/>
	<polygon fill="#EFEFEF" points="960.392,270.43 960.662,270.242 961.578,271.51 961.32,271.698 	"/>
	
		<rect x="962.48" y="267.137" transform="matrix(-0.7369 0.676 -0.676 -0.7369 1853.6555 -184.0309)" fill="#EFEFEF" width="0.321" height="3.135"/>
	<polygon fill="#EFEFEF" points="961.945,269.321 962.191,269.105 963.238,270.27 963,270.484 	"/>
	<polygon fill="#EFEFEF" points="962.73,266.44 962.945,266.199 965.271,268.3 965.054,268.534 	"/>
	<polygon fill="#EFEFEF" points="963.375,268.055 963.595,267.816 964.757,268.864 964.542,269.103 	"/>
	<polygon fill="#EFEFEF" points="963.853,265.107 964.041,264.847 966.574,266.692 966.384,266.947 	"/>
	<polygon fill="#EFEFEF" points="964.662,266.646 964.859,266.384 966.123,267.308 965.935,267.566 	"/>
	
		<rect x="966.105" y="262.744" transform="matrix(-0.4988 0.8667 -0.8667 -0.4988 1677.285 -441.3661)" fill="#EFEFEF" width="0.321" height="3.133"/>
	<polygon fill="#EFEFEF" points="965.796,265.111 965.964,264.83 967.318,265.615 967.156,265.894 	"/>
	
		<rect x="966.986" y="261.054" transform="matrix(-0.4005 0.9163 -0.9163 -0.4005 1595.1282 -518.3931)" fill="#EFEFEF" width="0.322" height="3.134"/>
	
		<rect x="967.386" y="262.853" transform="matrix(-0.4168 0.909 -0.909 -0.4168 1610.4307 -506.0089)" fill="#EFEFEF" width="0.323" height="1.565"/>
	<polygon fill="#EFEFEF" points="966.308,260.516 966.406,260.208 969.384,261.181 969.285,261.482 	"/>
	<polygon fill="#EFEFEF" points="967.554,261.728 967.66,261.419 969.146,261.905 969.046,262.209 	"/>
	<polygon fill="#EFEFEF" points="966.794,258.842 966.857,258.525 969.921,259.182 969.853,259.492 	"/>
	<polygon fill="#EFEFEF" points="968.158,259.918 968.23,259.599 969.761,259.928 969.691,260.239 	"/>
	<polygon fill="#EFEFEF" points="967.099,257.125 967.128,256.805 970.246,257.138 970.21,257.453 	"/>
	<polygon fill="#EFEFEF" points="968.57,258.054 968.607,257.729 970.166,257.897 970.128,258.214 	"/>
	<polygon fill="#EFEFEF" points="967.226,255.389 967.22,255.064 970.355,255.071 970.353,255.389 	"/>
	<polygon fill="#EFEFEF" points="968.783,256.156 968.787,255.829 970.355,255.835 970.351,256.153 	"/>
	<polygon fill="#EFEFEF" points="967.167,253.646 967.128,253.325 970.248,253.004 970.279,253.319 	"/>
	<polygon fill="#EFEFEF" points="968.796,254.248 968.767,253.923 970.326,253.764 970.357,254.08 	"/>
	<polygon fill="#EFEFEF" points="966.929,251.92 966.857,251.605 969.925,250.96 969.988,251.271 	"/>
	<polygon fill="#EFEFEF" points="968.613,252.35 968.548,252.027 970.082,251.707 970.146,252.019 	"/>
	<polygon fill="#EFEFEF" points="966.511,250.229 966.406,249.922 969.39,248.959 969.486,249.262 	"/>
	<polygon fill="#EFEFEF" points="968.23,250.479 968.132,250.166 969.625,249.687 969.72,249.99 	"/>
	<polygon fill="#EFEFEF" points="965.919,248.59 965.783,248.296 968.648,247.026 968.777,247.317 	"/>
	<polygon fill="#EFEFEF" points="967.654,248.659 967.525,248.358 968.958,247.726 969.085,248.019 	"/>
	<polygon fill="#EFEFEF" points="965.158,247.022 964.994,246.744 967.71,245.182 967.867,245.459 	"/>
	<polygon fill="#EFEFEF" points="966.89,246.91 966.73,246.625 968.091,245.847 968.246,246.122 	"/>
	<polygon fill="#EFEFEF" points="964.238,245.542 964.044,245.283 966.583,243.445 966.767,243.705 	"/>
	<polygon fill="#EFEFEF" points="965.949,245.251 965.759,244.983 967.031,244.066 967.214,244.325 	"/>
	<polygon fill="#EFEFEF" points="963.167,244.167 962.949,243.928 965.281,241.836 965.492,242.074 	"/>
	<polygon fill="#EFEFEF" points="964.837,243.698 964.623,243.451 965.791,242.408 966.001,242.646 	"/>
	<polygon fill="#EFEFEF" points="961.958,242.91 961.716,242.696 963.818,240.372 964.052,240.587 	"/>
	<polygon fill="#EFEFEF" points="963.574,242.269 963.332,242.048 964.386,240.887 964.619,241.102 	"/>
	<polygon fill="#EFEFEF" points="960.626,241.786 960.363,241.602 962.21,239.069 962.466,239.258 	"/>
	<polygon fill="#EFEFEF" points="962.164,240.982 961.902,240.787 962.828,239.522 963.082,239.711 	"/>
	<polygon fill="#EFEFEF" points="959.183,240.808 958.902,240.653 960.474,237.941 960.748,238.103 	"/>
	<polygon fill="#EFEFEF" points="960.628,239.847 960.345,239.681 961.136,238.327 961.41,238.487 	"/>
	<polygon fill="#EFEFEF" points="957.648,239.987 957.351,239.861 958.63,237.002 958.919,237.132 	"/>
	<polygon fill="#EFEFEF" points="958.984,238.88 958.685,238.745 959.33,237.314 959.617,237.446 	"/>
	<polygon fill="#EFEFEF" points="956.033,239.332 955.724,239.236 956.699,236.26 956.998,236.357 	"/>
	<polygon fill="#EFEFEF" points="957.246,238.089 956.935,237.986 957.425,236.496 957.726,236.6 	"/>
	<polygon fill="#EFEFEF" points="954.359,238.849 954.041,238.785 954.701,235.724 955.007,235.789 	"/>
	<polygon fill="#EFEFEF" points="955.435,237.485 955.115,237.417 955.449,235.883 955.757,235.954 	"/>
	<polygon fill="#EFEFEF" points="952.644,238.543 952.32,238.514 952.656,235.398 952.97,235.431 	"/>
	<polygon fill="#EFEFEF" points="953.572,237.074 953.246,237.04 953.417,235.479 953.732,235.517 	"/>
	<g>
		<polygon fill="#E60012" points="951.531,256.317 949.638,254.123 965.833,242.63 		"/>
		<polygon fill="#FFFFFF" points="949.611,254.128 951.505,256.317 935.314,267.823 		"/>
	</g>
</g>
<g>
	<path fill="#FFFFFF" d="M909.287,268.402c0,5.939-4.814,10.754-10.754,10.754h-26.684c-5.938,0-10.752-4.814-10.752-10.754v-26.682
		c0-5.939,4.814-10.754,10.752-10.754h26.684c5.939,0,10.754,4.814,10.754,10.754V268.402z"/>
	<path fill="#E60012" d="M903.103,261.205c0,4.235-2.572,7.668-5.744,7.668h-24.334c-3.174,0-5.746-3.433-5.746-7.668v-11.958
		c0-4.234,2.572-7.669,5.746-7.669h24.334c3.172,0,5.744,3.435,5.744,7.669V261.205z"/>
	<polygon fill="#FFFFFF" points="890.96,255.006 881.716,260.343 881.716,249.667 	"/>
</g>
<g>
	<circle opacity="0.4" fill="#FFFFFF" cx="838.611" cy="204.384" r="3.344"/>
	<circle fill="#FFFFFF" cx="852.945" cy="204.384" r="3.344"/>
	<circle opacity="0.4" fill="#FFFFFF" cx="867.279" cy="204.384" r="3.344"/>
</g>
<g>
	<linearGradient id="SVGID_13_" gradientUnits="userSpaceOnUse" x1="761.1475" y1="-261.1279" x2="748.4452" y2="-186.3647">
		<stop  offset="0.0317" style="stop-color:#CBE4C1"/>
		<stop  offset="0.5661" style="stop-color:#7DBE27"/>
		<stop  offset="0.9788" style="stop-color:#00913A"/>
	</linearGradient>
	<path fill="url(#SVGID_13_)" d="M778.499-208.099c0,5.939-4.814,10.754-10.753,10.754h-26.684c-5.938,0-10.752-4.814-10.752-10.754
		v-26.682c0-5.939,4.814-10.754,10.752-10.754h26.684c5.939,0,10.753,4.814,10.753,10.754V-208.099z"/>
</g>
<g>
	<linearGradient id="SVGID_14_" gradientUnits="userSpaceOnUse" x1="823.5161" y1="-262.0444" x2="818.7979" y2="-210.5087">
		<stop  offset="0.2011" style="stop-color:#3155A5"/>
		<stop  offset="0.9418" style="stop-color:#63C5E3"/>
	</linearGradient>
	<path fill="url(#SVGID_14_)" d="M843.893-208.099c0,5.939-4.815,10.754-10.753,10.754h-26.684c-5.938,0-10.753-4.814-10.753-10.754
		v-26.682c0-5.939,4.814-10.754,10.753-10.754h26.684c5.938,0,10.753,4.814,10.753,10.754V-208.099z"/>
	<g>
		<linearGradient id="SVGID_15_" gradientUnits="userSpaceOnUse" x1="796.439" y1="-235.0605" x2="836.2725" y2="-212.5605">
			<stop  offset="0.1693" style="stop-color:#F8B62D"/>
			<stop  offset="0.2622" style="stop-color:#F9BC28"/>
			<stop  offset="0.4051" style="stop-color:#FCCB11"/>
			<stop  offset="0.5767" style="stop-color:#FFE200"/>
		</linearGradient>
		<circle fill="url(#SVGID_15_)" cx="811.331" cy="-226.649" r="8.903"/>
		<path opacity="0.5" fill="#FFFFFF" d="M837.168-215.312c0-4.41-3.916-7.985-8.746-7.985c-0.611,0-1.206,0.058-1.781,0.166
			c-1.607-3.458-4.832-5.819-8.55-5.819c-4.616,0-8.474,3.642-9.417,8.503c-2.339,1.302-3.87,3.464-3.87,5.913
			c0,3.641,3.386,6.65,7.781,7.137v0.07h17.168v-0.103C833.949-208.017,837.168-211.316,837.168-215.312z"/>
	</g>
</g>
<g>
	<path fill="#FFFFFF" d="M909.287-208.099c0,5.939-4.814,10.754-10.754,10.754h-26.684c-5.938,0-10.752-4.814-10.752-10.754v-26.682
		c0-5.939,4.814-10.754,10.752-10.754h26.684c5.939,0,10.754,4.814,10.754,10.754V-208.099z"/>
	<g>
		<path fill="none" stroke="#000000" stroke-width="5" stroke-miterlimit="10" d="M873.121-227.274"/>
		<polygon fill="none" points="875.328,-222.651 875.328,-222.65 885.226,-229.174 885.191,-229.197 		"/>
		<polygon fill="none" points="875.328,-212.73 895.054,-212.73 895.054,-222.651 885.226,-229.174 875.328,-222.65 		"/>
		<polygon fill="#E60012" points="875.328,-222.651 885.191,-229.197 885.226,-229.174 888.992,-231.657 885.191,-234.178 
			870.916,-224.705 870.916,-220.535 870.916,-219.741 875.328,-222.65 		"/>
		<polygon fill="#F8B62D" points="875.328,-212.951 875.328,-222.65 870.916,-219.741 870.916,-208.701 875.328,-208.701 
			875.328,-212.73 		"/>
		<rect x="875.328" y="-212.73" fill="#009944" width="19.727" height="4.029"/>
		<polygon fill="#036EB8" points="888.992,-231.657 885.226,-229.174 895.054,-222.651 895.054,-212.997 895.054,-212.73 
			895.054,-208.701 899.468,-208.701 899.468,-224.705 		"/>
	</g>
</g>
<g>
	<path fill="#3E3A39" d="M974.679-208.099c0,5.939-4.814,10.754-10.752,10.754h-26.686c-5.938,0-10.752-4.814-10.752-10.754v-26.682
		c0-5.939,4.814-10.754,10.752-10.754h26.686c5.938,0,10.752,4.814,10.752,10.754V-208.099z"/>
	<g>
		<path fill="#C9CACA" d="M970.32-208.17c0,1.341-0.975,2.428-2.178,2.428h-35.115c-1.201,0-2.178-1.087-2.178-2.428v-23.603
			c0-1.34,0.977-2.427,2.178-2.427h35.115c1.203,0,2.178,1.087,2.178,2.427V-208.17z"/>
		<path fill="#0F5493" d="M968.597-210.752c0,1.133-0.889,2.052-1.988,2.052H934.56c-1.098,0-1.986-0.918-1.986-2.052v-19.941
			c0-1.133,0.889-2.051,1.986-2.051h32.049c1.1,0,1.988,0.918,1.988,2.051V-210.752z"/>
		<path fill="#F8B62D" d="M968.597-211.945c0,0.962-0.889,1.742-1.988,1.742H934.56c-1.098,0-1.986-0.78-1.986-1.742v-16.944
			c0-0.961,0.889-1.742,1.986-1.742h32.049c1.1,0,1.988,0.781,1.988,1.742V-211.945z"/>
		<path fill="#22AC38" d="M968.597-210.356c0,0.914-0.889,1.655-1.988,1.655H934.56c-1.098,0-1.986-0.741-1.986-1.655v-16.085
			c0-0.914,0.889-1.655,1.986-1.655h32.049c1.1,0,1.988,0.741,1.988,1.655V-210.356z"/>
		<path fill="#D71E24" d="M968.597-208.437c0,0.891-0.889,1.614-1.988,1.614H934.56c-1.098,0-1.986-0.723-1.986-1.614v-15.696
			c0-0.892,0.889-1.614,1.986-1.614h32.049c1.1,0,1.988,0.723,1.988,1.614V-208.437z"/>
		<g>
			<defs>
				<path id="SVGID_16_" d="M970.32-208.707c0,1.636-0.975,2.964-2.178,2.964h-35.115c-1.201,0-2.178-1.328-2.178-2.964v-28.822
					c0-1.637,0.977-2.964,2.178-2.964h35.115c1.203,0,2.178,1.327,2.178,2.964V-208.707z"/>
			</defs>
			<clipPath id="SVGID_17_">
				<use xlink:href="#SVGID_16_"  overflow="visible"/>
			</clipPath>
			<path clip-path="url(#SVGID_17_)" fill="#B3B3B3" d="M969.892-222.35h-1.486H956.3h-0.281c0,0.013-0.004,0.022-0.004,0.033
				c-1.156,0.147-2.068,1.167-2.209,2.461h-0.029c0,2.173-1.621,3.934-3.627,3.934c-2.004,0-3.629-1.761-3.629-3.934h-0.002
				c-0.135-1.26-1.004-2.263-2.117-2.451c-0.002-0.015-0.006-0.029-0.008-0.044h-0.371h-12.105h-1.094
				c-1.34,0-2.424,1.269-2.424,2.834v10.94c0,1.565,1.084,2.833,2.424,2.833h39.068c1.34,0,2.424-1.268,2.424-2.833v-10.94
				C972.316-221.081,971.232-222.35,969.892-222.35z"/>
		</g>
	</g>
</g>
<rect x="930.849" y="-223.118" fill="#9FA0A0" width="1.725" height="0.768"/>
<rect x="968.597" y="-223.059" fill="#9FA0A0" width="1.723" height="0.705"/>
<g>
	<path fill="#FFFFFF" d="M843.996-135.843c0,5.939-4.813,10.753-10.754,10.753H806.56c-5.938,0-10.752-4.814-10.752-10.753v-26.682
		c0-5.939,4.814-10.754,10.752-10.754h26.683c5.94,0,10.754,4.814,10.754,10.754V-135.843z"/>
	<g opacity="0.9">
		<path opacity="0.8" fill="#F39800" d="M826.021-156.709c0,3.333-2.74,6.037-6.12,6.037l0,0c-3.379,0-6.119-2.703-6.119-6.037
			v-7.163c0-3.333,2.74-6.036,6.119-6.036l0,0c3.38,0,6.12,2.703,6.12,6.036V-156.709z"/>
		<path opacity="0.8" fill="#E60012" d="M818.907-158.832c2.357,2.356,2.331,6.205-0.06,8.595l0,0
			c-2.389,2.389-6.238,2.415-8.594,0.059l-5.066-5.065c-2.355-2.357-2.33-6.206,0.059-8.595l0,0c2.39-2.39,6.238-2.417,8.595-0.059
			L818.907-158.832z"/>
		<path opacity="0.8" fill="#E61673" d="M812.375-155.303c3.333,0,6.037,2.74,6.037,6.12l0,0c0,3.379-2.704,6.118-6.037,6.118
			h-7.164c-3.333,0-6.036-2.74-6.036-6.118l0,0c0-3.38,2.703-6.12,6.036-6.12H812.375z"/>
		<path opacity="0.8" fill="#601986" d="M810.253-148.189c2.356-2.356,6.205-2.331,8.595,0.06l0,0
			c2.389,2.39,2.414,6.239,0.058,8.595l-5.065,5.065c-2.356,2.356-6.206,2.331-8.593-0.058l0,0c-2.39-2.39-2.417-6.238-0.06-8.596
			L810.253-148.189z"/>
		<path opacity="0.8" fill="#036EB8" d="M813.782-141.658c-0.001-3.333,2.74-6.037,6.119-6.037l0,0c3.379,0,6.118,2.704,6.118,6.037
			v7.164c0,3.331-2.739,6.035-6.117,6.035l0,0c-3.38,0-6.121-2.703-6.12-6.036V-141.658z"/>
		<path opacity="0.8" fill="#00913A" d="M820.896-139.535c-2.358-2.356-2.331-6.206,0.058-8.595l0,0
			c2.39-2.389,6.239-2.415,8.595-0.059l5.065,5.066c2.356,2.355,2.332,6.205-0.057,8.593l0,0c-2.391,2.39-6.24,2.417-8.597,0.059
			L820.896-139.535z"/>
		<path opacity="0.8" fill="#FAEE00" d="M829.549-150.178c-2.356,2.357-6.205,2.33-8.594-0.059l0,0
			c-2.389-2.39-2.415-6.239-0.059-8.595l5.065-5.065c2.356-2.356,6.205-2.331,8.594,0.058l0,0c2.391,2.39,2.417,6.24,0.058,8.597
			L829.549-150.178z"/>
		<path opacity="0.8" fill="#8FC31F" d="M827.427-143.064c-3.333,0.002-6.035-2.74-6.036-6.118l0,0
			c0.001-3.38,2.704-6.119,6.036-6.119h7.165c3.33,0,6.035,2.739,6.035,6.117l0,0c0,3.38-2.704,6.121-6.037,6.12H827.427z"/>
	</g>
</g>
<g>
	<g>
		<g>
			<defs>
				<path id="SVGID_18_" d="M778.85-135.841c0,5.938-4.815,10.752-10.752,10.752h-26.685c-5.937,0-10.752-4.814-10.752-10.752
					v-26.677c0-5.938,4.815-10.752,10.752-10.752h26.685c5.937,0,10.752,4.813,10.752,10.752V-135.841z"/>
			</defs>
			<clipPath id="SVGID_19_">
				<use xlink:href="#SVGID_18_"  overflow="visible"/>
			</clipPath>
			<g clip-path="url(#SVGID_19_)">
				<polygon fill="#0093D6" points="756.259,-146.502 736.053,-126.3 734.937,-125.085 778.119,-125.085 776.972,-126.333 
					776.703,-126.063 				"/>
				<polygon fill="#999999" points="779.328,-131.136 779.7,-169.939 760.108,-150.351 				"/>
				<polygon fill="#999999" points="779.302,-128.498 779.304,-128.664 779.22,-128.581 				"/>
				<polygon fill="#009F53" points="729.608,-174.436 730.388,-128.333 776.911,-174.848 				"/>
				<polygon fill="#E6E6E6" points="779.328,-131.136 779.304,-128.664 780.551,-129.912 				"/>
				<polygon fill="#E6E6E6" points="757.4,-147.644 776.972,-126.333 779.22,-128.581 758.937,-149.18 				"/>
				<polygon fill="#E6E6E6" points="756.259,-146.502 776.703,-126.063 776.972,-126.333 757.4,-147.644 				"/>
				<polygon fill="#E6E6E6" points="760.108,-150.351 758.937,-149.18 779.22,-128.581 779.304,-128.664 779.328,-131.136 				"/>
				<polygon fill="#FFF100" points="754.603,-148.159 758.452,-152.007 759.018,-151.441 779.717,-171.669 779.7,-169.939 
					786.353,-176.591 782.504,-180.44 776.911,-174.848 779.124,-174.867 730.445,-124.931 730.388,-128.333 726.703,-124.648 
					730.551,-120.8 736.053,-126.3 755.398,-147.364 				"/>
				<polygon fill="#FFF100" points="755.398,-147.364 736.053,-126.3 756.259,-146.502 				"/>
				<polygon fill="#FFF100" points="759.018,-151.441 760.108,-150.351 779.7,-169.939 779.717,-171.669 				"/>
				<polygon fill="#FFF100" points="779.124,-174.867 776.911,-174.848 730.388,-128.333 730.445,-124.931 				"/>
				<polygon fill="#FFF100" points="759.018,-151.441 758.452,-152.007 754.603,-148.159 755.398,-147.364 756.528,-148.594 
					757.4,-147.644 758.937,-149.18 757.841,-150.292 				"/>
				<polygon fill="#FFF100" points="755.398,-147.364 756.259,-146.502 757.4,-147.644 756.528,-148.594 				"/>
				<polygon fill="#FFF100" points="757.841,-150.292 758.937,-149.18 760.108,-150.351 759.018,-151.441 				"/>
			</g>
		</g>
		<path fill="#DC001A" d="M778.827-160.521c0.355-6.451-3.348-13.009-10.181-12.749c-5.713,0.218-10.618,4.437-10.618,11.354
			c0,0.07,0.018,0.148,0.024,0.222c-0.04,0.327-0.064,0.658-0.064,0.996c0,3.77,3.99,6.812,6.27,8.419
			c0.565,0.661,1.042,1.232,1.352,1.66c2.603,4.95,2.426,8.725,3.207,8.725c1.119,0,0.285-2.937,2.857-8.441
			c0.316-0.53,1.22-2.096,2.419-2.875c1.799-1.815,3.149-2.308,3.928-3.948c0.271-0.389,0.611-1.639,0.663-1.909
			c0.137-0.577,0.103-0.931,0.103-0.938c0.006-0.067,0.007-0.136,0.011-0.205C778.81-160.312,778.821-160.416,778.827-160.521z"/>
		<path fill="#D0E39E" d="M751.646-161.408h-7.1v2.582h4.084c-0.644,2.334-2.784,4.056-5.325,4.056
			c-3.048,0-5.527-2.475-5.527-5.517c0-3.042,2.479-5.516,5.528-5.516h0.001c1.38,0,2.701,0.51,3.721,1.438l1.972-2.158
			c-1.56-1.419-3.581-2.2-5.692-2.2h-0.002c-4.662,0-8.455,3.785-8.455,8.436c0,4.652,3.792,8.437,8.455,8.437
			c4.162,0,7.621-3.02,8.317-6.977h0.024V-161.408z"/>
	</g>
	<circle fill="#930000" cx="768.783" cy="-162.692" r="3.562"/>
</g>
<radialGradient id="SVGID_20_" cx="877.2915" cy="-123.1885" r="67.5348" fx="876.9676" fy="-123.0967" gradientTransform="matrix(1.0888 0 0 1.0888 -80.5969 20.6523)" gradientUnits="userSpaceOnUse">
	<stop  offset="0.0317" style="stop-color:#FFFFFF"/>
	<stop  offset="0.127" style="stop-color:#FAEE00"/>
	<stop  offset="0.2593" style="stop-color:#EA5514"/>
	<stop  offset="0.328" style="stop-color:#E72012"/>
	<stop  offset="0.4074" style="stop-color:#E60012"/>
	<stop  offset="0.582" style="stop-color:#9F356F"/>
	<stop  offset="0.6825" style="stop-color:#93387A"/>
	<stop  offset="0.8995" style="stop-color:#036EB8"/>
</radialGradient>
<path fill="url(#SVGID_20_)" d="M909.337-135.843c0,5.939-4.814,10.753-10.752,10.753h-26.684c-5.938,0-10.752-4.814-10.752-10.753
	v-26.682c0-5.939,4.814-10.753,10.752-10.753h26.684c5.938,0,10.752,4.814,10.752,10.753V-135.843z"/>
<path fill="none" stroke="#FFFFFF" stroke-width="3" stroke-miterlimit="10" d="M899.925-139.222c0,2.776-2.438,5.025-5.445,5.025
	h-18.473c-3.006,0-5.443-2.25-5.443-5.025v-19.926c0-2.776,2.438-5.025,5.443-5.025h18.473c3.008,0,5.445,2.25,5.445,5.025V-139.222
	z"/>
<circle fill="none" stroke="#FFFFFF" stroke-width="3" stroke-miterlimit="10" cx="885.245" cy="-149.184" r="7.688"/>
<circle fill="#FFFFFF" cx="894.22" cy="-158.294" r="1.855"/>
<g>
	<circle fill="#A49590" cx="-83.652" cy="45.354" r="42.52"/>
	<g>
		<path fill="none" stroke="#FFFFFF" stroke-width="4" stroke-miterlimit="10" d="M-60.758,60.893c0,4.329-3.801,7.837-8.492,7.837
			h-28.808c-4.688,0-8.489-3.508-8.489-7.837V29.818c0-4.329,3.801-7.837,8.489-7.837h28.808c4.69,0,8.492,3.508,8.492,7.837V60.893
			z"/>
		<circle fill="none" stroke="#FFFFFF" stroke-width="4" stroke-miterlimit="10" cx="-83.652" cy="45.356" r="11.99"/>
		<circle fill="#FFFFFF" cx="-69.655" cy="31.148" r="2.894"/>
	</g>
</g>
<g>
	<circle fill="#FFFFFF" cx="-83.652" cy="172.231" r="42.52"/>
	<g>
		<path fill="none" stroke="#A2938F" stroke-width="4" stroke-miterlimit="10" d="M-60.758,187.77c0,4.329-3.801,7.837-8.492,7.837
			h-28.808c-4.688,0-8.489-3.508-8.489-7.837v-31.074c0-4.329,3.801-7.837,8.489-7.837h28.808c4.69,0,8.492,3.508,8.492,7.837
			V187.77z"/>
		<circle fill="none" stroke="#A2938F" stroke-width="4" stroke-miterlimit="10" cx="-83.652" cy="172.233" r="11.99"/>
		<circle fill="#A2938F" cx="-69.655" cy="158.025" r="2.894"/>
	</g>
</g>
<g>
	<path fill="#FFFFFF" d="M974.681-135.843c0,5.939-4.814,10.753-10.754,10.753h-26.684c-5.938,0-10.752-4.814-10.752-10.753v-26.682
		c0-5.939,4.814-10.753,10.752-10.753h26.684c5.939,0,10.754,4.814,10.754,10.753V-135.843z"/>
	<g>
		<circle fill="none" stroke="#0085C9" stroke-miterlimit="10" cx="935.363" cy="-161.526" r="3.666"/>
		<circle fill="#0085C9" cx="935.362" cy="-161.526" r="2.124"/>
	</g>
	<g>
		<circle fill="#FFFFFF" stroke="#D70051" stroke-miterlimit="10" cx="935.363" cy="-149.184" r="3.666"/>
		<circle fill="#E60012" cx="935.362" cy="-149.184" r="2.124"/>
	</g>
	<g>
		<circle fill="none" stroke="#F8B62D" stroke-miterlimit="10" cx="935.363" cy="-136.842" r="3.666"/>
		<circle fill="#F8B62D" cx="935.362" cy="-136.842" r="2.124"/>
	</g>
	
		<line fill="none" stroke="#B5B5B6" stroke-width="0.75" stroke-miterlimit="10" x1="943.355" y1="-161.527" x2="968.597" y2="-161.526"/>
	
		<line fill="none" stroke="#B5B5B6" stroke-width="0.75" stroke-miterlimit="10" x1="943.355" y1="-149.184" x2="968.597" y2="-149.184"/>
	
		<line fill="none" stroke="#B5B5B6" stroke-width="0.75" stroke-miterlimit="10" x1="943.355" y1="-136.841" x2="968.597" y2="-136.841"/>
</g>
<linearGradient id="SVGID_21_" gradientUnits="userSpaceOnUse" x1="885.7017" y1="-104.8193" x2="884.6491" y2="-26.4007">
	<stop  offset="0.0053" style="stop-color:#1A479C"/>
	<stop  offset="0.4497" style="stop-color:#2EA7E0"/>
	<stop  offset="0.7037" style="stop-color:#66C5D9"/>
	<stop  offset="0.9841" style="stop-color:#EFEFEF"/>
</linearGradient>
<path fill="url(#SVGID_21_)" d="M909.339-57.487c0,5.939-4.816,10.754-10.754,10.754h-26.684c-5.938,0-10.752-4.814-10.752-10.754
	v-26.681c0-5.939,4.814-10.754,10.752-10.754h26.684c5.938,0,10.754,4.814,10.754,10.754V-57.487z"/>
<g>
	<g>
		<linearGradient id="SVGID_22_" gradientUnits="userSpaceOnUse" x1="737.7759" y1="-101.4141" x2="769.0075" y2="-46.0894">
			<stop  offset="0.0794" style="stop-color:#EFEFEF"/>
			<stop  offset="0.328" style="stop-color:#DCDDDD"/>
			<stop  offset="0.6455" style="stop-color:#B5B5B6"/>
			<stop  offset="0.9577" style="stop-color:#9FA0A0"/>
		</linearGradient>
		<path fill="url(#SVGID_22_)" d="M778.619-58.646c0,5.989-4.855,10.843-10.843,10.843h-26.903c-5.987,0-10.841-4.854-10.841-10.843
			v-26.902c0-5.988,4.854-10.843,10.841-10.843h26.903c5.988,0,10.843,4.855,10.843,10.843V-58.646z"/>
		<circle fill="#494545" cx="754.324" cy="-72.097" r="21.743"/>
		<linearGradient id="SVGID_23_" gradientUnits="userSpaceOnUse" x1="736.2622" y1="-86.022" x2="781.6692" y2="-50.9996">
			<stop  offset="0.0794" style="stop-color:#EFEFEF"/>
			<stop  offset="0.3545" style="stop-color:#DCDDDD"/>
			<stop  offset="0.7249" style="stop-color:#B5B5B6"/>
			<stop  offset="1" style="stop-color:#728E9D"/>
		</linearGradient>
		<path fill="url(#SVGID_23_)" d="M771.036-72.087c0-0.042-0.002-0.083-0.003-0.124l2.875-0.358l-0.018-0.567l-2.901-0.155
			c-0.031-0.419-0.073-0.835-0.132-1.245l2.793-0.753l-0.096-0.559l-2.891,0.25c-0.087-0.41-0.192-0.814-0.309-1.214l2.662-1.135
			l-0.173-0.54l-2.823,0.648c-0.144-0.393-0.307-0.778-0.479-1.157l2.479-1.495l-0.246-0.512l-2.708,1.037
			c-0.198-0.369-0.412-0.728-0.635-1.079l2.247-1.826l-0.314-0.473l-2.541,1.405c-0.247-0.337-0.506-0.664-0.777-0.981l1.973-2.12
			l-0.378-0.425l-2.321,1.746c-0.291-0.299-0.592-0.588-0.904-0.864l1.658-2.375l-0.433-0.367l-2.057,2.052
			c-0.328-0.256-0.665-0.502-1.014-0.733l1.311-2.58l-0.48-0.305l-1.75,2.318c-0.361-0.208-0.729-0.407-1.106-0.588l0.938-2.733
			l-0.518-0.235l-1.409,2.538c-0.387-0.155-0.778-0.299-1.179-0.426l0.549-2.838l-0.546-0.159l-1.042,2.708
			c-0.404-0.101-0.813-0.184-1.227-0.254l0.149-2.891l-0.564-0.082l-0.655,2.825c-0.412-0.042-0.83-0.064-1.25-0.075l-0.258-2.889
			h-0.567l-0.257,2.894c-0.42,0.015-0.836,0.045-1.247,0.09l-0.656-2.821l-0.562,0.079l0.147,2.899
			c-0.413,0.073-0.822,0.157-1.224,0.26l-1.041-2.697l-0.544,0.155l0.549,2.849c-0.398,0.13-0.791,0.274-1.175,0.433l-1.407-2.529
			l-0.518,0.23l0.94,2.744c-0.375,0.185-0.742,0.383-1.101,0.595l-1.747-2.311l-0.481,0.299l1.313,2.587
			c-0.345,0.234-0.679,0.484-1.005,0.744l-2.053-2.046l-0.435,0.363l1.662,2.38c-0.309,0.28-0.605,0.574-0.892,0.875l-2.32-1.741
			l-0.379,0.421l1.978,2.125c-0.267,0.32-0.521,0.651-0.764,0.99l-2.538-1.401l-0.318,0.469l2.254,1.83
			c-0.221,0.354-0.427,0.716-0.621,1.086l-2.706-1.034l-0.25,0.509l2.485,1.499c-0.168,0.38-0.324,0.766-0.464,1.161l-2.821-0.646
			l-0.176,0.54l2.67,1.138c-0.113,0.399-0.216,0.803-0.3,1.213l-2.882-0.247l-0.1,0.559l2.804,0.754
			c-0.056,0.41-0.098,0.825-0.124,1.244l-2.894,0.157l-0.021,0.567l2.881,0.357c0.001,0.421,0.021,0.836,0.053,1.249l-2.845,0.558
			l0.057,0.564l2.903-0.047c0.059,0.416,0.133,0.825,0.223,1.23l-2.736,0.947l0.135,0.551l2.868-0.45
			c0.116,0.402,0.244,0.799,0.389,1.188l-2.576,1.318l0.211,0.527l2.778-0.846c0.171,0.381,0.352,0.757,0.55,1.123l-2.367,1.664
			l0.284,0.492l2.633-1.224c0.224,0.353,0.457,0.699,0.704,1.034l-2.116,1.979l0.35,0.448l2.438-1.58
			c0.269,0.319,0.549,0.627,0.841,0.924l-1.821,2.257l0.409,0.395l2.194-1.903c0.309,0.278,0.631,0.543,0.961,0.797l-1.489,2.488
			l0.46,0.335l1.906-2.188c0.345,0.231,0.702,0.449,1.065,0.655l-1.128,2.67l0.502,0.267l1.581-2.43
			c0.375,0.182,0.758,0.346,1.147,0.5l-0.745,2.8l0.534,0.195l1.229-2.627c0.395,0.126,0.797,0.238,1.205,0.336l-0.348,2.876
			l0.556,0.118l0.852-2.776c0.408,0.07,0.82,0.13,1.239,0.169l0.055,2.897l0.566,0.039l0.458-2.87
			c0.18,0.005,0.361,0.013,0.542,0.013c0.237,0,0.473-0.008,0.707-0.018l0.459,2.863l0.566-0.038l0.055-2.903
			c0.417-0.043,0.829-0.107,1.237-0.181l0.853,2.771l0.555-0.118l-0.351-2.879c0.407-0.102,0.807-0.22,1.202-0.352l1.229,2.622
			l0.533-0.192l-0.748-2.804c0.388-0.159,0.768-0.33,1.141-0.516l1.581,2.426l0.502-0.265l-1.132-2.674
			c0.361-0.211,0.715-0.432,1.059-0.668l1.905,2.184l0.459-0.333l-1.495-2.493c0.328-0.258,0.65-0.525,0.958-0.807l2.189,1.897
			l0.409-0.393l-1.827-2.261c0.289-0.3,0.57-0.61,0.835-0.931l2.432,1.573l0.35-0.446l-2.123-1.983
			c0.245-0.337,0.479-0.684,0.699-1.041l2.625,1.22l0.285-0.49l-2.376-1.667c0.195-0.368,0.377-0.744,0.545-1.128l2.769,0.842
			l0.215-0.525l-2.583-1.319c0.142-0.391,0.266-0.79,0.377-1.194l2.861,0.448l0.139-0.55l-2.741-0.946
			c0.085-0.406,0.152-0.819,0.207-1.236l2.897,0.047l0.062-0.565l-2.852-0.556C771.018-71.333,771.036-71.708,771.036-72.087z
			 M747.979-63.738l-0.187,0.326c-0.47,0.798-1.159,1.374-2.007,1.534c-0.837,0.155-1.67-0.12-2.391-0.676
			c-0.357-0.348-0.693-0.712-1.006-1.092c-1.952-2.379-3.024-5.349-3.071-8.386l0.005,0c-0.034-3.035,0.955-6.029,2.839-8.457
			c0.303-0.39,0.627-0.763,0.977-1.12c0.704-0.576,1.53-0.874,2.371-0.741c0.854,0.136,1.557,0.692,2.047,1.477l0.196,0.322
			l4.582,7.541l0.089,0.147c0.127,0.204,0.21,0.419,0.215,0.648l0.001,0.007c0.001,0.005,0.002,0.008,0.002,0.01
			c0.001,0.137-0.023,0.271-0.065,0.401l-0.265,0.462L747.979-63.738z M767.919-67.494c-0.123,0.482-0.271,0.957-0.444,1.416
			c-1.082,2.882-3.12,5.292-5.724,6.853l-0.003-0.004c-2.611,1.546-5.698,2.187-8.745,1.768c-0.488-0.068-0.973-0.162-1.458-0.285
			c-0.849-0.323-1.521-0.889-1.826-1.682c-0.309-0.808-0.179-1.696,0.255-2.513l0.182-0.333l4.24-7.738l0.083-0.149
			c0.112-0.21,0.259-0.391,0.453-0.512l0.006-0.004c0.003-0.002,0.006-0.004,0.009-0.006c0.116-0.07,0.245-0.116,0.379-0.143
			l0.533-0.001l8.744-0.045l0.375-0.002c0.926,0.007,1.769,0.316,2.332,0.972C767.862-69.256,768.04-68.396,767.919-67.494z
			 M767.462-74.535c-0.543,0.673-1.377,1.002-2.302,1.036l-0.376,0.008l-8.823,0.197l-0.169,0.004
			c-0.241,0.007-0.47-0.028-0.67-0.138l-0.008-0.003c-0.004-0.001-0.007-0.001-0.011-0.003c-0.119-0.065-0.221-0.154-0.313-0.257
			l-0.269-0.46l-4.41-7.551l-0.19-0.324c-0.456-0.807-0.61-1.689-0.322-2.504c0.282-0.803,0.939-1.389,1.779-1.733
			c0.48-0.135,0.963-0.245,1.449-0.325c3.037-0.501,6.145,0.055,8.798,1.535l-0.002,0.003c2.645,1.487,4.742,3.839,5.902,6.686
			c0.187,0.458,0.346,0.926,0.482,1.406C768.153-76.061,767.999-75.196,767.462-74.535z"/>
		<circle fill="#E60012" cx="776.068" cy="-93.84" r="7.822"/>
		<linearGradient id="SVGID_24_" gradientUnits="userSpaceOnUse" x1="744.0361" y1="-83.5767" x2="773.1397" y2="-51.1238">
			<stop  offset="0.0794" style="stop-color:#EFEFEF"/>
			<stop  offset="0.3545" style="stop-color:#DCDDDD"/>
			<stop  offset="0.7249" style="stop-color:#B5B5B6"/>
			<stop  offset="1" style="stop-color:#9FA0A0"/>
		</linearGradient>
		<path fill="url(#SVGID_24_)" d="M764.7-72.091c0-0.026-0.002-0.051-0.002-0.078l1.784-0.221l-0.011-0.353l-1.801-0.096
			c-0.018-0.26-0.044-0.518-0.083-0.773l1.735-0.467l-0.06-0.347l-1.795,0.156c-0.054-0.255-0.119-0.506-0.191-0.754l1.652-0.705
			l-0.107-0.335l-1.753,0.404c-0.089-0.245-0.191-0.483-0.297-0.719l1.538-0.927l-0.153-0.318l-1.682,0.643
			c-0.123-0.229-0.255-0.451-0.393-0.67l1.395-1.134l-0.195-0.292l-1.577,0.872c-0.153-0.209-0.314-0.412-0.483-0.609l1.225-1.317
			l-0.233-0.264l-1.442,1.084c-0.18-0.186-0.367-0.366-0.561-0.538l1.028-1.474l-0.269-0.229l-1.276,1.274
			c-0.205-0.159-0.414-0.312-0.63-0.455l0.813-1.602l-0.299-0.188l-1.086,1.439c-0.223-0.129-0.452-0.252-0.686-0.365l0.583-1.696
			l-0.322-0.146l-0.875,1.576c-0.24-0.097-0.483-0.187-0.731-0.265l0.34-1.762l-0.338-0.1l-0.647,1.681
			c-0.25-0.062-0.505-0.114-0.762-0.156l0.094-1.795l-0.352-0.051l-0.405,1.754c-0.256-0.025-0.515-0.039-0.776-0.046l-0.16-1.793
			h-0.353l-0.159,1.796c-0.261,0.01-0.518,0.029-0.773,0.057l-0.408-1.753L752.41-84.1l0.09,1.801
			c-0.256,0.046-0.51,0.097-0.759,0.162l-0.646-1.675l-0.339,0.096l0.342,1.77c-0.247,0.081-0.491,0.17-0.729,0.268l-0.874-1.57
			l-0.32,0.143l0.583,1.704c-0.233,0.114-0.46,0.238-0.684,0.37l-1.084-1.435l-0.299,0.187l0.815,1.606
			c-0.214,0.145-0.421,0.3-0.624,0.461l-1.275-1.271l-0.27,0.226l1.032,1.478c-0.191,0.173-0.376,0.355-0.554,0.542l-1.44-1.081
			l-0.236,0.262l1.228,1.32c-0.167,0.199-0.323,0.404-0.474,0.614l-1.577-0.87l-0.197,0.292l1.399,1.136
			c-0.137,0.219-0.265,0.445-0.385,0.674l-1.68-0.642l-0.155,0.317l1.543,0.929c-0.104,0.236-0.201,0.476-0.288,0.722l-1.751-0.401
			l-0.11,0.335l1.658,0.706c-0.071,0.248-0.134,0.499-0.187,0.753l-1.788-0.153l-0.063,0.347l1.741,0.469
			c-0.035,0.255-0.061,0.512-0.077,0.772l-1.796,0.097l-0.014,0.353l1.788,0.222c0.001,0.26,0.014,0.518,0.034,0.775l-1.768,0.346
			l0.036,0.351l1.803-0.03c0.036,0.258,0.083,0.512,0.138,0.764l-1.698,0.588l0.083,0.342l1.781-0.28
			c0.073,0.25,0.152,0.496,0.242,0.738l-1.6,0.818l0.132,0.327l1.724-0.524c0.106,0.237,0.218,0.469,0.341,0.697l-1.469,1.032
			l0.176,0.306l1.635-0.761c0.138,0.22,0.282,0.435,0.437,0.643l-1.313,1.229l0.217,0.278l1.513-0.98
			c0.167,0.198,0.342,0.389,0.522,0.573l-1.13,1.401l0.254,0.245l1.362-1.181c0.193,0.172,0.391,0.337,0.597,0.495l-0.924,1.545
			l0.286,0.208l1.183-1.358c0.214,0.144,0.436,0.278,0.661,0.406l-0.7,1.658l0.312,0.166l0.982-1.508
			c0.232,0.113,0.47,0.215,0.711,0.31l-0.463,1.738l0.332,0.122l0.762-1.632c0.246,0.079,0.495,0.148,0.749,0.209l-0.216,1.787
			l0.345,0.073l0.528-1.724c0.253,0.043,0.51,0.08,0.77,0.105l0.035,1.799l0.352,0.024l0.283-1.782
			c0.113,0.003,0.224,0.009,0.337,0.009c0.148,0,0.293-0.005,0.439-0.011l0.284,1.776l0.352-0.023l0.033-1.802
			c0.26-0.028,0.516-0.067,0.768-0.114l0.529,1.721l0.345-0.073l-0.218-1.787c0.253-0.064,0.5-0.137,0.745-0.22l0.764,1.629
			l0.332-0.12l-0.465-1.741c0.241-0.098,0.477-0.205,0.708-0.32l0.981,1.506l0.312-0.164l-0.703-1.661
			c0.224-0.131,0.443-0.269,0.657-0.414l1.183,1.355l0.286-0.207l-0.928-1.548c0.204-0.16,0.403-0.326,0.595-0.501l1.358,1.177
			l0.254-0.244l-1.135-1.403c0.18-0.187,0.354-0.378,0.52-0.579l1.51,0.978l0.217-0.278l-1.318-1.231
			c0.152-0.209,0.297-0.424,0.433-0.645l1.631,0.757l0.177-0.305l-1.476-1.035c0.121-0.228,0.233-0.462,0.338-0.701l1.718,0.523
			l0.133-0.326l-1.603-0.818c0.087-0.244,0.165-0.491,0.236-0.742l1.774,0.279l0.087-0.342l-1.703-0.588
			c0.053-0.251,0.096-0.507,0.128-0.767l1.799,0.03l0.039-0.351l-1.771-0.346C764.689-71.623,764.7-71.855,764.7-72.091z
			 M754.325-63.833c-4.564,0-8.264-3.7-8.264-8.264c0-4.564,3.7-8.264,8.264-8.264c4.563,0,8.264,3.7,8.264,8.264
			C762.588-67.534,758.888-63.833,754.325-63.833z"/>
	</g>
	<text transform="matrix(1 0 0 1 772.8623 -89.9771)" fill="#FFFFFF" font-family="'ArialMT'" font-size="10.978">1</text>
</g>
<path fill="#FFFFFF" d="M770.946-214.371c-2.454-0.825-2.737-0.979-4.979-2.227c-0.942-0.524-2.172-0.13-2.78,0.939
	c-0.67,1.18-1.003,1.771-1.673,2.952c-6.226-3.927-8.964-6.65-13.037-12.978c1.081-0.772,1.621-1.158,2.701-1.929
	c0.979-0.7,1.284-2.015,0.734-2.977c-1.31-2.288-1.875-3.502-2.796-6.037c-0.387-1.065-1.566-1.645-2.691-1.264
	c-1.257,0.426-2.123,0.719-3.085,1.044c-0.301,0.059-0.584,0.162-0.855,0.289c-1.261,0.594-2.14,1.867-2.14,3.354
	c0,0.486,0.1,0.947,0.269,1.372c0.013,0.036,0.027,0.072,0.041,0.106c0.57,1.482,1.049,2.53,1.899,4.205
	c0.442,0.871,0.673,1.3,1.156,2.143c5.145,8.992,8.973,12.802,17.786,17.705c0.683,0.38,1.027,0.562,1.727,0.912
	c1.263,0.632,2.181,1.058,3.175,1.457c0.099,0.044,0.177,0.08,0.259,0.117c0.272,0.074,0.542,0.154,0.818,0.227
	c0.144,0.038,0.291,0.056,0.438,0.076c0.011,0,0.019-0.006,0.03-0.006c0.034,0,0.058,0.016,0.09,0.019
	c0.08-0.006,0.159-0.011,0.238-0.019c0.002,0,0.003,0,0.005,0c0.022-0.002,0.033-0.007,0.058-0.009
	c0.213-0.018,0.414-0.054,0.605-0.098c1.521-0.238,2.033-1.447,2.396-2.709c0.036-0.124,0.07-0.247,0.092-0.375
	c0.277-1.123,0.515-2.087,0.871-3.53C772.595-212.818,771.979-214.024,770.946-214.371z"/>
<text transform="matrix(1 0 0 1 746.2754 -186.939)" fill="#FFFFFF" font-family="'AdobeFanHeitiStd-Bold-B5pc-H'" font-size="8">電話</text>
<text transform="matrix(1 0 0 1 812.2964 -186.939)" fill="#FFFFFF" font-family="'AdobeFanHeitiStd-Bold-B5pc-H'" font-size="8">天氣</text>
<text transform="matrix(1 0 0 1 860.4292 -186.939)" fill="#FFFFFF" font-family="'AdobeFanHeitiStd-Bold-B5pc-H'" font-size="8">Google Home</text>
<text transform="matrix(1 0 0 1 943.5249 -186.939)" fill="#FFFFFF" font-family="'AdobeFanHeitiStd-Bold-B5pc-H'" font-size="8">錢包</text>
<text transform="matrix(1 0 0 1 730.4717 -114.439)" fill="#FFFFFF" font-family="'AdobeFanHeitiStd-Bold-B5pc-H'" font-size="8">Google Maps</text>
<text transform="matrix(1 0 0 1 746.2754 -37.439)" fill="#FFFFFF" font-family="'AdobeFanHeitiStd-Bold-B5pc-H'" font-size="8">設定</text>
<text transform="matrix(1 0 0 1 812.2964 -114.439)" fill="#FFFFFF" font-family="'AdobeFanHeitiStd-Bold-B5pc-H'" font-size="8">照片</text>
<text transform="matrix(1 0 0 1 866.937 -114.439)" fill="#FFFFFF" font-family="'AdobeFanHeitiStd-Bold-B5pc-H'" font-size="8">Instagram</text>
<text transform="matrix(1 0 0 1 935.5249 -114.439)" fill="#FFFFFF" font-family="'AdobeFanHeitiStd-Bold-B5pc-H'" font-size="8">提醒事項</text>
<g>
	<g>
		<path fill="#FFFFFF" d="M844.752-58.757c0,5.939-4.816,10.753-10.755,10.753h-26.683c-5.937,0-10.752-4.814-10.752-10.753v-26.682
			c0-5.939,4.815-10.754,10.752-10.754h26.683c5.938,0,10.755,4.814,10.755,10.754V-58.757z"/>
	</g>
	<g>
		<path fill="#D70051" d="M813.443-84.361v-0.581h-2.171v-0.567h2.171v-0.609h-1.912c-0.098,0.182-0.294,0.406-0.596,0.651
			l-0.483-0.385c0.476-0.392,0.833-0.861,1.058-1.394l0.539,0.245l-0.161,0.315h1.555v-0.609h-2.255
			c-0.056,0-0.084-0.028-0.084-0.084v-2.423c0-0.056,0.028-0.084,0.084-0.084h5.057c0.056,0,0.084,0.028,0.084,0.084v2.423
			c0,0.056-0.028,0.084-0.084,0.084h-2.206v0.609h2.521v0.567h-2.521v0.609h2.381v0.567h-2.381v0.581h2.822v0.567h-6.332v-0.567
			H813.443z M811.671-88.858h4.09v-0.441l-0.028-0.021h-4.041l-0.021,0.021V-88.858z M815.761-88.318h-4.09v0.427l0.021,0.028h4.041
			c0.021,0,0.028-0.007,0.028-0.028V-88.318z"/>
		<path fill="#D70051" d="M818.818-84.74c-0.315,0.525-0.666,0.917-1.037,1.184c-0.105-0.196-0.217-0.351-0.329-0.456
			c0.357-0.266,0.651-0.616,0.861-1.043L818.818-84.74z M817.999-85.769v-3.124h-0.497v-0.546h0.497V-90h0.567v0.561h1.429V-90
			h0.567v0.561h0.399v0.546h-0.399v3.124h0.477v0.539h-3.558v-0.539H817.999z M818.566-88.207h1.429v-0.686h-1.429V-88.207z
			 M818.566-86.974h1.429v-0.693h-1.429V-86.974z M818.566-85.769h1.429v-0.666h-1.429V-85.769z M820.079-83.871
			c-0.133-0.287-0.301-0.595-0.511-0.917l0.483-0.252c0.189,0.301,0.371,0.623,0.519,0.959L820.079-83.871z M821.83-85.888
			c-0.084,0.777-0.309,1.534-0.666,2.262l-0.588-0.196c0.448-0.994,0.693-1.891,0.708-2.689v-3.201c0-0.105,0.049-0.161,0.161-0.161
			h2.087c0.112,0,0.175,0.056,0.175,0.168v5.379c0,0.581-0.33,0.686-0.862,0.686c-0.14,0-0.301-0.007-0.476-0.028l-0.042-0.651
			c0.28,0.077,0.49,0.112,0.609,0.112c0.203,0,0.203-0.182,0.203-0.287v-1.394H821.83z M821.851-88.123h1.289v-1.142
			c0-0.049-0.028-0.07-0.077-0.07h-1.142c-0.042,0-0.07,0.028-0.07,0.077V-88.123z M821.851-86.427h1.289v-1.156h-1.289V-86.427z"/>
		<path fill="#D70051" d="M824.558-84.55h6.303v0.623h-6.303V-84.55z M824.915-89.726h5.589v0.623h-5.589V-89.726z M825.16-87.177
			h5.071v0.623h-5.071V-87.177z"/>
	</g>
	<g>
		<g>
			<g>
				<path d="M817.076-70.828l-0.818-0.495c0.53-0.648,0.823-1.399,0.847-2.173c0.036-1.13-0.493-2.208-1.49-3.034
					c-1.009-0.837-2.374-1.317-3.843-1.351c-1.466-0.049-2.861,0.38-3.921,1.168c-1.047,0.78-1.644,1.831-1.68,2.961l-1-0.023
					c0.044-1.375,0.763-2.649,2.026-3.587c1.249-0.93,2.876-1.412,4.603-1.379c1.719,0.041,3.321,0.605,4.51,1.592
					c1.201,0.996,1.839,2.303,1.795,3.677C818.075-72.529,817.72-71.614,817.076-70.828z"/>
			</g>
			<g>
				<polygon points="806.119,-56.929 805.291,-57.411 816.459,-71.591 817.287,-71.109 				"/>
			</g>
		</g>
		<g>
			<rect x="805.303" y="-57.434" width="12.804" height="0.859"/>
		</g>
	</g>
	<g>
		<g>
			<rect x="821.63" y="-78.479" width="13.815" height="1"/>
		</g>
		<polygon points="834.526,-77.931 823.518,-56.575 824.67,-56.575 835.44,-77.468 		"/>
	</g>
</g>
<g>
	<path fill="#FFFFFF" d="M868.878-80.415c-0.438,0.38-0.713,0.922-0.713,1.527v16.122c0,0.499,0.188,0.957,0.498,1.316l11.539-9.572
		L868.878-80.415z"/>
	<path fill="#FFFFFF" d="M902.324-78.769c0-0.585-0.256-1.113-0.664-1.489l-11.121,9.343l11.305,9.495
		c0.299-0.354,0.48-0.806,0.48-1.299V-78.769z"/>
	<path fill="#FFFFFF" d="M889.898-70.367l-2.211,1.823c-0.686,0.435-1.49,0.689-2.357,0.689c-0.838,0-1.619-0.24-2.289-0.648
		l-2.289-1.885l-11.549,9.515c0.404,0.462,1.018,0.758,1.705,0.758h28.785c0.693,0,1.313-0.301,1.715-0.77L889.898-70.367z"/>
	<path fill="#FFFFFF" d="M899.681-81.54h-28.787c-0.576,0-1.098,0.209-1.49,0.549l12.537,10.328l1.02,0.842
		c0.686,0.413,1.486,0.656,2.346,0.656c0.918,0,1.771-0.275,2.486-0.744l0.766-0.631l12.65-10.421
		C900.812-81.318,900.273-81.54,899.681-81.54z"/>
</g>
<text transform="matrix(1 0 0 1 808.2964 -37.439)" fill="#FFFFFF" font-family="'AdobeFanHeitiStd-Bold-B5pc-H'" font-size="8">行事曆</text>
<text transform="matrix(1 0 0 1 877.3882 -37.439)" fill="#FFFFFF" font-family="'AdobeFanHeitiStd-Bold-B5pc-H'" font-size="8">郵件</text>
<g>
	<path fill="#FFFFFF" d="M974.509-57.046c0,5.938-4.814,10.752-10.754,10.752h-26.684c-5.938,0-10.752-4.814-10.752-10.752v-26.683
		c0-5.938,4.814-10.753,10.752-10.753h26.684c5.939,0,10.754,4.814,10.754,10.753V-57.046z"/>
	
		<radialGradient id="SVGID_25_" cx="956.4233" cy="-61.3291" r="22.9708" fx="955.2333" fy="-62.9874" gradientTransform="matrix(-0.7337 -0.7312 1.0688 -0.9103 1721.6733 582.17)" gradientUnits="userSpaceOnUse">
		<stop  offset="0.0317" style="stop-color:#47A4DC"/>
		<stop  offset="0.2063" style="stop-color:#60A0D6"/>
		<stop  offset="0.3439" style="stop-color:#7163A1"/>
		<stop  offset="0.5185" style="stop-color:#7E69AD"/>
		<stop  offset="0.6614" style="stop-color:#AC70A6"/>
		<stop  offset="0.9312" style="stop-color:#EA596E"/>
	</radialGradient>
	<path fill="url(#SVGID_25_)" d="M960.418-85.779l-17.491,2.573c-0.353,0-0.638,0.162-0.638,0.36v3.381v2.26v14.922l0,0
		c0,0.531-0.006,0.656-1.507,0.666c-0.172-0.016-0.347-0.024-0.522-0.024c-2.469,0-4.472,1.487-4.472,3.322
		c0,1.834,2.003,3.321,4.472,3.321c2.467,0,4.466-1.487,4.466-3.321v-18.526l13.894-2.573v14.873
		c-0.065,0.273-0.341,0.349-1.505,0.354c-0.175-0.014-0.349-0.023-0.526-0.023c-2.469,0-4.47,1.488-4.47,3.323
		c0,1.833,2.001,3.321,4.47,3.321c2.467,0,4.468-1.488,4.468-3.321v-18.886v-2.259v-3.382
		C961.056-85.618,960.769-85.779,960.418-85.779z"/>
</g>
<text transform="matrix(1 0 0 1 943.355 -37.439)" fill="#FFFFFF" font-family="'AdobeFanHeitiStd-Bold-B5pc-H'" font-size="8">音樂</text>
<g>
	<circle fill="#A49590" cx="45.354" cy="45.354" r="42.52"/>
	<path fill="#FFFFFF" d="M50.254,31.348c0.808-0.703,3.004-0.867,7.901-0.904l0.001-9.741c-18.035,0.327-19.132,3.126-19.481,19.082
		h-9.083v9.764h9.642v28.067h10.171V49.548h7.084l2.558-9.764h-9.642v-3.442C49.514,33.773,49.747,31.791,50.254,31.348z"/>
</g>
<g>
	<circle fill="#FFFFFF" cx="42.778" cy="183.62" r="42.52"/>
	<path fill="#A2938F" d="M47.677,169.613c0.808-0.703,3.004-0.867,7.901-0.904l0.001-9.741
		c-18.035,0.327-19.132,3.126-19.481,19.082h-9.082v9.764h9.642v28.067h10.171v-28.067h7.084l2.558-9.764h-9.642v-3.442
		C46.937,172.039,47.17,170.057,47.677,169.613z"/>
</g>
<g>
	<circle fill="#A49590" cx="-219.374" cy="45.354" r="42.52"/>
	<g id="XMLID_1_">
		<g>
			<path fill="#FFFFFF" d="M-225.35,68.676c-3.946,0.142-12.912-0.513-18.206-4.785c2.646,0.186,4.786,0.282,6.272-0.275
				c1.672-0.282,7.011-1.954,9.333-4.184c-0.65-0.044-2.832-0.416-4.645-1.3c-1.813-0.881-3.671-2.367-5.388-6.269
				c1.858,0.234,3.574,0.186,4.786-0.093c-1.583-0.602-8.085-2.88-8.501-10.73c0.973,0.605,2.879,1.672,4.689,1.3
				c-0.602-0.646-7.569-6.546-3.158-14.305c1.349,1.583,9.385,10.961,22.178,11.103c0,0-1.23-7.662,5.387-11.727
				c6.618-4.064,13.146,1.672,13.004,1.973c0.65-0.048,6.387-1.694,6.9-2.578c-0.743,1.857-1.884,3.786-4.6,5.9
				c0.364-0.282,1.665-0.271,2.147-0.375c1.367-0.298,2.649-0.759,3.953-1.271c-0.111,0.152-2.653,3.615-5.335,5.499
				c-0.044,1.605-0.067,12.752-7.36,21.483C-211.187,66.773-221.404,68.535-225.35,68.676z"/>
		</g>
		<g>
		</g>
	</g>
</g>
<g>
	<circle fill="#FFFFFF" cx="-221.203" cy="172.231" r="42.52"/>
	<g id="XMLID_2_">
		<g>
			<path fill="#A2938F" d="M-193.025,157.937c-0.111,0.152-2.653,3.615-5.335,5.499c-0.044,1.605-0.067,12.752-7.36,21.483
				c-7.294,8.731-17.512,10.493-21.458,10.634c-3.946,0.142-12.912-0.513-18.206-4.785c2.646,0.186,4.786,0.282,6.272-0.275
				c1.672-0.282,7.011-1.954,9.333-4.184c-0.65-0.044-2.832-0.416-4.645-1.3c-1.813-0.881-3.671-2.367-5.388-6.269
				c1.858,0.234,3.574,0.186,4.786-0.093c-1.583-0.602-8.085-2.88-8.501-10.73c0.973,0.605,2.879,1.672,4.689,1.3
				c-0.602-0.646-7.569-6.546-3.158-14.305c1.349,1.583,9.385,10.961,22.178,11.103c0,0-1.23-7.662,5.387-11.727
				c6.618-4.064,13.146,1.672,13.004,1.973c0.65-0.048,6.387-1.694,6.9-2.578c-0.743,1.857-1.884,3.786-4.6,5.9
				c0.364-0.282,1.665-0.271,2.147-0.375C-195.611,158.91-194.33,158.449-193.025,157.937z"/>
		</g>
		<g>
		</g>
	</g>
</g>
</svg>
