<?xml version="1.0" encoding="utf-8"?>
<!-- Generator: Adobe Illustrator 16.0.0, SVG Export Plug-In . SVG Version: 6.00 Build 0)  -->
<!DOCTYPE svg PUBLIC "-//W3C//DTD SVG 1.1//EN" "http://www.w3.org/Graphics/SVG/1.1/DTD/svg11.dtd">
<svg version="1.1" id="圖層_1" xmlns="http://www.w3.org/2000/svg" xmlns:xlink="http://www.w3.org/1999/xlink" x="0px" y="0px"
	 width="90.709px" height="90.709px" viewBox="0 0 90.709 90.709" enable-background="new 0 0 90.709 90.709" xml:space="preserve">
<linearGradient id="SVGID_1_" gradientUnits="userSpaceOnUse" x1="825.5962" y1="5.5273" x2="1137.4067" y2="5.5273">
	<stop  offset="0.0635" style="stop-color:#B5B5B6"/>
	<stop  offset="0.254" style="stop-color:#F7F8F8"/>
	<stop  offset="0.6508" style="stop-color:#898989"/>
	<stop  offset="0.9206" style="stop-color:#B5B5B6"/>
</linearGradient>
<path fill="url(#SVGID_1_)" d="M1137.407,274.818c0,23.482-19.037,42.52-42.52,42.52H868.116c-23.483,0-42.52-19.037-42.52-42.52
	v-538.582c0-23.483,19.037-42.52,42.52-42.52h226.771c23.482,0,42.52,19.037,42.52,42.52V274.818z"/>
<path stroke="#000000" stroke-miterlimit="10" d="M1133.155,271.146c0,23.163-18.518,41.941-41.359,41.941H871.208
	c-22.843,0-41.36-18.778-41.36-41.941v-531.237c0-23.163,18.517-41.939,41.36-41.939h220.587c22.842,0,41.359,18.777,41.359,41.939
	V271.146z"/>
<linearGradient id="SVGID_2_" gradientUnits="userSpaceOnUse" x1="981.8179" y1="330.8135" x2="981.1459" y2="-255.1404">
	<stop  offset="0.2222" style="stop-color:#CBE4C1"/>
	<stop  offset="0.9312" style="stop-color:#F8C8C9"/>
</linearGradient>
<path fill="url(#SVGID_2_)" stroke="#000000" stroke-miterlimit="10" d="M1127.62,265.349c0,22.595-17.85,40.911-39.865,40.911
	H875.138c-22.017,0-39.866-18.316-39.866-40.911v-518.18c0-22.594,17.849-40.909,39.866-40.909h212.616
	c22.016,0,39.865,18.315,39.865,40.909V265.349z"/>
<path stroke="#000000" stroke-miterlimit="10" d="M1051.647-281.649c-0.633,3.563-4.02,6.404-7.576,6.404H919.167
	c-3.556,0-6.942-2.841-7.576-6.404l-2.143-12.075c-0.684-3.854,1.824-7.033,5.613-7.033h133.116c3.791,0,6.297,3.179,5.613,7.033
	L1051.647-281.649z"/>
<path fill="#595757" d="M995.307-288.001c0,0.869-0.992,1.574-2.215,1.574h-22.946c-1.223,0-2.216-0.705-2.216-1.574l0,0
	c0-0.869,0.993-1.574,2.216-1.574h22.946C994.315-289.575,995.307-288.87,995.307-288.001L995.307-288.001z"/>
<g>
	<linearGradient id="SVGID_3_" gradientUnits="userSpaceOnUse" x1="1001.3423" y1="-288.001" x2="1005.5317" y2="-288.001">
		<stop  offset="0.0159" style="stop-color:#433F3E"/>
		<stop  offset="0.3386" style="stop-color:#4D4A49"/>
		<stop  offset="0.5397" style="stop-color:#595757"/>
		<stop  offset="0.9735" style="stop-color:#000000"/>
	</linearGradient>
	<circle fill="url(#SVGID_3_)" cx="1003.437" cy="-288.001" r="2.095"/>
	
		<linearGradient id="SVGID_4_" gradientUnits="userSpaceOnUse" x1="749.0981" y1="-345.3369" x2="752.4351" y2="-345.3369" gradientTransform="matrix(-0.95 -0.3123 0.3123 -0.95 1824.5128 -381.6079)">
		<stop  offset="0.0159" style="stop-color:#433F3E"/>
		<stop  offset="0.3386" style="stop-color:#4D4A49"/>
		<stop  offset="0.5397" style="stop-color:#595757"/>
		<stop  offset="0.9735" style="stop-color:#000000"/>
	</linearGradient>
	<circle fill="url(#SVGID_4_)" cx="1003.437" cy="-288.001" r="1.668"/>
	
		<radialGradient id="SVGID_5_" cx="751.4136" cy="-344.8291" r="1.8292" gradientTransform="matrix(-0.95 -0.3123 0.3123 -0.95 1824.5128 -381.6079)" gradientUnits="userSpaceOnUse">
		<stop  offset="0.0265" style="stop-color:#A9A9A9"/>
		<stop  offset="0.0899" style="stop-color:#686968"/>
		<stop  offset="0.2222" style="stop-color:#172A4F"/>
		<stop  offset="0.5079" style="stop-color:#1A2D76"/>
		<stop  offset="0.7196" style="stop-color:#1E2C5C"/>
		<stop  offset="0.9735" style="stop-color:#080815"/>
	</radialGradient>
	<circle fill="url(#SVGID_5_)" cx="1003.437" cy="-288.001" r="1.309"/>
</g>
<g>
	<linearGradient id="SVGID_6_" gradientUnits="userSpaceOnUse" x1="824.4604" y1="-204.688" x2="824.76" y2="-128.6024">
		<stop  offset="0.0265" style="stop-color:#EFEFEF"/>
		<stop  offset="0.0587" style="stop-color:#F4F4F4"/>
		<stop  offset="0.1005" style="stop-color:#FFFFFF"/>
		<stop  offset="0.3342" style="stop-color:#FFFFFF;stop-opacity:0.1"/>
		<stop  offset="0.7778" style="stop-color:#595757"/>
		<stop  offset="0.9683" style="stop-color:#A48B78"/>
	</linearGradient>
	<path fill="url(#SVGID_6_)" d="M828.096-150.269c0,1.847-1.567,3.343-3.5,3.343l0,0c-1.933,0-3.5-1.497-3.5-3.343v-39.813
		c0-1.847,1.567-3.343,3.5-3.343l0,0c1.933,0,3.5,1.497,3.5,3.343V-150.269z"/>
	<path fill="#B5B5B6" d="M825.596-150.269c0,1.847-1.007,3.343-2.25,3.343l0,0c-1.243,0-2.25-1.497-2.25-3.343v-39.813
		c0-1.847,1.007-3.343,2.25-3.343l0,0c1.243,0,2.25,1.497,2.25,3.343V-150.269z"/>
</g>
<g>
	
		<linearGradient id="SVGID_7_" gradientUnits="userSpaceOnUse" x1="553.5591" y1="-190.687" x2="553.9821" y2="-83.2514" gradientTransform="matrix(-1 0 0 1 1692.6641 0)">
		<stop  offset="0.0265" style="stop-color:#EFEFEF"/>
		<stop  offset="0.0587" style="stop-color:#F4F4F4"/>
		<stop  offset="0.1005" style="stop-color:#FFFFFF"/>
		<stop  offset="0.3342" style="stop-color:#FFFFFF;stop-opacity:0.1"/>
		<stop  offset="0.7778" style="stop-color:#595757"/>
		<stop  offset="0.9683" style="stop-color:#A48B78"/>
	</linearGradient>
	<path fill="url(#SVGID_7_)" d="M1135.407-111.451c0,2.688,1.566,4.868,3.5,4.868l0,0c1.934,0,3.5-2.179,3.5-4.868v-57.97
		c0-2.688-1.566-4.868-3.5-4.868l0,0c-1.934,0-3.5,2.179-3.5,4.868V-111.451z"/>
	<path fill="#B5B5B6" d="M1137.907-111.451c0,2.688,1.008,4.868,2.25,4.868l0,0c1.242,0,2.25-2.179,2.25-4.868v-57.97
		c0-2.688-1.008-4.868-2.25-4.868l0,0c-1.242,0-2.25,2.179-2.25,4.868V-111.451z"/>
</g>
<g>
	<linearGradient id="SVGID_8_" gradientUnits="userSpaceOnUse" x1="824.4604" y1="-144.3462" x2="824.735" y2="-74.6017">
		<stop  offset="0.0265" style="stop-color:#EFEFEF"/>
		<stop  offset="0.0587" style="stop-color:#F4F4F4"/>
		<stop  offset="0.1005" style="stop-color:#FFFFFF"/>
		<stop  offset="0.3342" style="stop-color:#FFFFFF;stop-opacity:0.1"/>
		<stop  offset="0.7778" style="stop-color:#595757"/>
		<stop  offset="0.9683" style="stop-color:#A48B78"/>
	</linearGradient>
	<path fill="url(#SVGID_8_)" d="M828.096-89.928c0,1.847-1.567,3.343-3.5,3.343l0,0c-1.933,0-3.5-1.497-3.5-3.343v-39.813
		c0-1.847,1.567-3.343,3.5-3.343l0,0c1.933,0,3.5,1.497,3.5,3.343V-89.928z"/>
	<path fill="#B5B5B6" d="M825.596-89.928c0,1.847-1.007,3.343-2.25,3.343l0,0c-1.243,0-2.25-1.497-2.25-3.343v-39.813
		c0-1.847,1.007-3.343,2.25-3.343l0,0c1.243,0,2.25,1.497,2.25,3.343V-89.928z"/>
</g>
<text transform="matrix(1 0 0 1 869.2852 -275.8896)"><tspan x="0" y="0" fill="#FFFFFF" font-family="'ArialMT'" font-size="12">9:3</tspan><tspan x="19.382" y="0" fill="#FFFFFF" font-family="'ArialMT'" font-size="12">0</tspan></text>
<path fill="#FFFFFF" d="M1056.702-275.669c0,0.234-0.447,0.424-1,0.424h-0.5c-0.553,0-1-0.19-1-0.424v-1.749
	c0-0.234,0.447-0.424,1-0.424h0.5c0.553,0,1,0.19,1,0.424V-275.669z"/>
<path fill="#FFFFFF" d="M1060.202-275.957c0,0.393-0.447,0.712-1,0.712h-0.5c-0.553,0-1-0.319-1-0.712v-2.937
	c0-0.393,0.447-0.712,1-0.712h0.5c0.553,0,1,0.319,1,0.712V-275.957z"/>
<path fill="#FFFFFF" d="M1063.702-276.257c0,0.559-0.447,1.012-1,1.012h-0.5c-0.553,0-1-0.453-1-1.012v-4.171
	c0-0.559,0.447-1.012,1-1.012h0.5c0.553,0,1,0.453,1,1.012V-276.257z"/>
<path fill="#FFFFFF" d="M1067.202-276.61c0,0.754-0.447,1.365-1,1.365h-0.5c-0.553,0-1-0.611-1-1.365v-5.63
	c0-0.754,0.447-1.365,1-1.365h0.5c0.553,0,1,0.611,1,1.365V-276.61z"/>
<text transform="matrix(1 0 0 1 1068.6099 -275.2451)" fill="#FFFFFF" font-family="'ArialMT'" font-size="12">4</text>
<text transform="matrix(0.95 0 0 1 1074.6841 -275.2451)" fill="#FFFFFF" font-family="'ArialMT'" font-size="12">G</text>
<g>
	<path opacity="0.6" fill="none" stroke="#FFFFFF" stroke-width="0.5" stroke-miterlimit="10" d="M1105.368-275.821
		c0,0.365-0.213,0.662-0.479,0.662h-18.711c-0.264,0-0.477-0.297-0.477-0.662v-7.122c0-0.366,0.213-0.663,0.477-0.663h18.711
		c0.266,0,0.479,0.297,0.479,0.663V-275.821z"/>
	<path fill="#8FC31F" d="M1102.592-276.438c0,0.302-0.176,0.548-0.396,0.548h-15.475c-0.219,0-0.395-0.246-0.395-0.548v-5.891
		c0-0.302,0.176-0.548,0.395-0.548h15.475c0.221,0,0.396,0.246,0.396,0.548V-276.438z"/>
	<path opacity="0.6" fill="#FFFFFF" d="M1105.922-280.973c0.93,0,1.684,0.712,1.684,1.59c0,0.879-0.754,1.591-1.684,1.591"/>
</g>
<linearGradient id="SVGID_9_" gradientUnits="userSpaceOnUse" x1="817.998" y1="6.3721" x2="882.1937" y2="6.3721">
	<stop  offset="0" style="stop-color:#FFFFFF"/>
	<stop  offset="0.313" style="stop-color:#FFFFFF;stop-opacity:0.1"/>
</linearGradient>
<path fill="url(#SVGID_9_)" d="M851.281,271.096v-529.449c0-23.084,14.51-41.797,32.41-41.797h-20.896
	c-17.901,0-32.411,18.713-32.411,41.797v529.449c0,23.085,14.51,41.8,32.411,41.8h20.896
	C865.791,312.896,851.281,294.181,851.281,271.096z"/>
<linearGradient id="SVGID_10_" gradientUnits="userSpaceOnUse" x1="629.6841" y1="6.4121" x2="693.0923" y2="6.4121" gradientTransform="matrix(-1 0 0 1 1776.0449 0)">
	<stop  offset="0" style="stop-color:#FFFFFF"/>
	<stop  offset="0.3183" style="stop-color:#FFFFFF;stop-opacity:0.1"/>
</linearGradient>
<path fill="url(#SVGID_10_)" d="M1112,270.791v-528.759c0-23.054-14.357-41.743-32.068-41.743h20.676
	c17.711,0,32.066,18.689,32.066,41.743v528.759c0,23.054-14.355,41.745-32.066,41.745h-20.676
	C1097.643,312.536,1112,293.845,1112,270.791z"/>
<path opacity="0.5" fill="#FFFFFF" d="M1115.168,275.453c0,9.357-8.461,16.941-18.895,16.941H866.73
	c-10.436,0-18.896-7.584-18.896-16.941V234.67c0-9.357,8.46-16.941,18.896-16.941h229.544c10.434,0,18.895,7.584,18.895,16.941
	V275.453z"/>
<g>
	<path fill="#00AA3A" d="M907.505,268.402c0,5.939-4.814,10.754-10.753,10.754h-26.684c-5.938,0-10.752-4.814-10.752-10.754v-26.682
		c0-5.939,4.814-10.754,10.752-10.754h26.684c5.939,0,10.753,4.814,10.753,10.754V268.402z"/>
	<path fill="#FFFFFF" d="M883.265,239.109c-9.709,0-17.581,6.256-17.581,13.973c0,0.146,0.022,0.286,0.027,0.43
		c-0.006,0.153-0.027,0.303-0.027,0.457c0,7.525,7.225,13.625,16.136,13.625c0.533,0,1.058-0.024,1.577-0.067l-1.88,4.791
		c4.288,1.681,12.394-6.073,15.93-10.411c2.688-3.25,3.397-5.606,3.397-8.824C900.845,245.365,892.974,239.109,883.265,239.109z"/>
	<g>
		<path fill="#00AA3A" d="M871.144,257.04v-7.73h1.574v6.417h3.913v1.313H871.144z"/>
		<path fill="#00AA3A" d="M877.977,257.04v-7.794h1.574v7.794H877.977z"/>
		<path fill="#00AA3A" d="M881.338,257.04v-7.794h1.531l3.19,5.205v-5.205h1.462v7.794h-1.579l-3.142-5.082v5.082H881.338z"/>
		<path fill="#00AA3A" d="M889.457,257.04v-7.794h5.779v1.318h-4.206v1.729h3.913v1.313h-3.913v2.121h4.354v1.313H889.457z"/>
	</g>
</g>
<line fill="#FFFFFF" x1="957.43" y1="259.687" x2="955.921" y2="259.687"/>
<linearGradient id="SVGID_11_" gradientUnits="userSpaceOnUse" x1="948.3301" y1="220.667" x2="949.2595" y2="288.0568">
	<stop  offset="0.1376" style="stop-color:#2EA7E0"/>
	<stop  offset="0.709" style="stop-color:#036EB8"/>
</linearGradient>
<path fill="url(#SVGID_11_)" d="M972.899,268.402c0,5.939-4.815,10.754-10.753,10.754h-26.684c-5.938,0-10.753-4.814-10.753-10.754
	v-26.682c0-5.939,4.814-10.754,10.753-10.754h26.684c5.938,0,10.753,4.814,10.753,10.754V268.402z"/>
<path fill="#FFFFFF" d="M952.775,248.196c0.54-0.471,2.01-0.581,5.287-0.605l0.001-6.519c-12.069,0.219-12.802,2.092-13.036,12.769
	h-6.078v6.533h6.452v18.782h6.806v-18.782h4.74l1.711-6.533h-6.452v-2.303C952.28,249.818,952.436,248.492,952.775,248.196z"/>
<polygon fill="#EFEFEF" points="1086.795,271.27 1087.084,271.183 1087.526,272.55 1087.245,272.643 "/>
<g>
	<path fill="#FFFFFF" d="M1103.686,268.402c0,5.939-4.814,10.754-10.752,10.754h-26.686c-5.938,0-10.752-4.814-10.752-10.754
		v-26.682c0-5.939,4.814-10.754,10.752-10.754h26.686c5.938,0,10.752,4.814,10.752,10.754V268.402z"/>
	<linearGradient id="SVGID_12_" gradientUnits="userSpaceOnUse" x1="1051.5015" y1="267.8545" x2="1109.4816" y2="241.4504">
		<stop  offset="0.4339" style="stop-color:#036EB8"/>
		<stop  offset="0.8624" style="stop-color:#00A0E9"/>
	</linearGradient>
	<circle fill="url(#SVGID_12_)" cx="1079.591" cy="255.062" r="21.3"/>
	<rect x="1079.592" y="235.292" fill="#EFEFEF" width="0.324" height="3.13"/>
	<rect x="1080.358" y="235.292" fill="#EFEFEF" width="0.324" height="1.565"/>
	
		<rect x="1077.687" y="235.375" transform="matrix(0.9944 -0.1055 0.1055 0.9944 -18.9783 115.0012)" fill="#EFEFEF" width="0.324" height="3.131"/>
	
		<rect x="1078.368" y="235.299" transform="matrix(0.9945 -0.1048 0.1048 0.9945 -18.8071 114.375)" fill="#EFEFEF" width="0.326" height="1.564"/>
	
		<rect x="1075.803" y="235.656" transform="matrix(0.9783 -0.2071 0.2071 0.9783 -25.801 227.9406)" fill="#EFEFEF" width="0.325" height="3.13"/>
	
		<rect x="1076.389" y="235.512" transform="matrix(0.9777 -0.2099 0.2099 0.9777 -25.6161 231.2759)" fill="#EFEFEF" width="0.326" height="1.566"/>
	
		<rect x="1073.958" y="236.132" transform="matrix(0.9493 -0.3144 0.3144 0.9493 -20.2623 349.772)" fill="#EFEFEF" width="0.323" height="3.131"/>
	
		<rect x="1074.445" y="235.933" transform="matrix(0.9513 -0.3081 0.3081 0.9513 -20.6522 342.6467)" fill="#EFEFEF" width="0.326" height="1.565"/>
	
		<rect x="1072.172" y="236.798" transform="matrix(0.9118 -0.4106 0.4106 0.9118 -3.3049 461.3386)" fill="#EFEFEF" width="0.323" height="3.13"/>
	
		<rect x="1072.554" y="236.556" transform="matrix(0.916 -0.4011 0.4011 0.916 -5.1168 450.2338)" fill="#EFEFEF" width="0.326" height="1.563"/>
	
		<rect x="1070.467" y="237.647" transform="matrix(0.8636 -0.5042 0.5042 0.8636 25.4546 572.4988)" fill="#EFEFEF" width="0.323" height="3.132"/>
	
		<rect x="1070.738" y="237.371" transform="matrix(0.869 -0.4948 0.4948 0.869 22.4567 561.1243)" fill="#EFEFEF" width="0.324" height="1.564"/>
	
		<rect x="1068.859" y="238.669" transform="matrix(0.8051 -0.5932 0.5932 0.8051 65.8918 680.9741)" fill="#EFEFEF" width="0.323" height="3.132"/>
	
		<rect x="1069.019" y="238.372" transform="matrix(0.8121 -0.5835 0.5835 0.8121 61.3452 668.8161)" fill="#EFEFEF" width="0.325" height="1.563"/>
	
		<rect x="1067.368" y="239.855" transform="matrix(0.7397 -0.673 0.673 0.7397 115.4443 781.2698)" fill="#EFEFEF" width="0.322" height="3.131"/>
	
		<rect x="1067.412" y="239.547" transform="matrix(0.7466 -0.6653 0.6653 0.7466 110.6566 771.1594)" fill="#EFEFEF" width="0.324" height="1.564"/>
	
		<rect x="1066.007" y="241.19" transform="matrix(0.6651 -0.7467 0.7467 0.6651 175.7689 877.4481)" fill="#EFEFEF" width="0.323" height="3.132"/>
	
		<rect x="1065.939" y="240.883" transform="matrix(0.6748 -0.738 0.738 0.6748 168.3735 865.41)" fill="#EFEFEF" width="0.324" height="1.563"/>
	
		<rect x="1064.795" y="242.66" transform="matrix(0.5838 -0.8119 0.8119 0.5838 244.9266 966.2574)" fill="#EFEFEF" width="0.321" height="3.131"/>
	
		<rect x="1064.611" y="242.366" transform="matrix(0.5928 -0.8054 0.8054 0.5928 237.7657 956.5349)" fill="#EFEFEF" width="0.326" height="1.564"/>
	
		<rect x="1063.743" y="244.249" transform="matrix(0.4955 -0.8686 0.8686 0.4955 323.2407 1048.1451)" fill="#EFEFEF" width="0.319" height="3.131"/>
	
		<rect x="1063.447" y="243.979" transform="matrix(0.5039 -0.8638 0.8638 0.5039 316.2681 1040.1569)" fill="#EFEFEF" width="0.326" height="1.565"/>
	
		<rect x="1062.862" y="245.938" transform="matrix(0.4027 -0.9153 0.9153 0.4027 408.3571 1120.8252)" fill="#EFEFEF" width="0.32" height="3.133"/>
	
		<rect x="1062.459" y="245.707" transform="matrix(0.4168 -0.909 0.909 0.4168 395.7018 1109.7029)" fill="#EFEFEF" width="0.323" height="1.564"/>
	
		<rect x="1062.162" y="247.712" transform="matrix(0.3098 -0.9508 0.9508 0.3098 496.1611 1182.0848)" fill="#EFEFEF" width="0.321" height="3.131"/>
	
		<rect x="1061.655" y="247.526" transform="matrix(0.318 -0.9481 0.9481 0.318 488.714 1176.0295)" fill="#EFEFEF" width="0.325" height="1.565"/>
	<polygon fill="#EFEFEF" points="1063.377,251.281 1063.313,251.595 1060.247,250.945 1060.317,250.629 	"/>
	<polygon fill="#EFEFEF" points="1062.01,250.207 1061.938,250.524 1060.409,250.199 1060.475,249.883 	"/>
	
		<rect x="1061.338" y="251.427" transform="matrix(0.1034 -0.9946 0.9946 0.1034 700.0844 1282.6355)" fill="#EFEFEF" width="0.321" height="3.132"/>
	<polygon fill="#EFEFEF" points="1061.598,252.07 1061.561,252.394 1060.006,252.229 1060.038,251.909 	"/>
	<rect x="1059.813" y="254.733" fill="#EFEFEF" width="3.133" height="0.323"/>
	<rect x="1059.817" y="253.967" fill="#EFEFEF" width="1.566" height="0.325"/>
	
		<rect x="1061.302" y="255.234" transform="matrix(-0.1034 -0.9946 0.9946 -0.1034 915.8149 1339.1272)" fill="#EFEFEF" width="0.321" height="3.131"/>
	
		<rect x="1060.445" y="255.337" transform="matrix(-0.0962 -0.9954 0.9954 -0.0962 907.736 1336.4504)" fill="#EFEFEF" width="0.325" height="1.565"/>
	
		<rect x="1061.583" y="257.117" transform="matrix(-0.2072 -0.9783 0.9783 -0.2072 1028.7092 1350.9862)" fill="#EFEFEF" width="0.32" height="3.135"/>
	
		<rect x="1060.659" y="257.316" transform="matrix(-0.1984 -0.9801 0.9801 -0.1984 1018.3528 1349.0399)" fill="#EFEFEF" width="0.325" height="1.565"/>
	
		<rect x="1062.057" y="258.963" transform="matrix(-0.3089 -0.9511 0.9511 -0.3089 1142.6053 1351.2732)" fill="#EFEFEF" width="0.322" height="3.134"/>
	
		<rect x="1061.08" y="259.26" transform="matrix(-0.3017 -0.9534 0.9534 -0.3017 1133.5023 1350.2888)" fill="#EFEFEF" width="0.324" height="1.567"/>
	
		<rect x="1062.726" y="260.748" transform="matrix(-0.409 -0.9125 0.9125 -0.409 1258.1979 1339.5288)" fill="#EFEFEF" width="0.32" height="3.134"/>
	
		<rect x="1061.702" y="261.151" transform="matrix(-0.3983 -0.9173 0.9173 -0.3983 1244.5261 1340.2649)" fill="#EFEFEF" width="0.324" height="1.565"/>
	
		<rect x="1063.575" y="262.455" transform="matrix(-0.506 -0.8626 0.8626 -0.506 1374.2018 1315.139)" fill="#EFEFEF" width="0.32" height="3.133"/>
	
		<rect x="1062.516" y="262.965" transform="matrix(-0.4994 -0.8664 0.8664 -0.4994 1364.8453 1316.1473)" fill="#EFEFEF" width="0.325" height="1.568"/>
	
		<rect x="1064.599" y="264.062" transform="matrix(-0.5867 -0.8098 0.8098 -0.5867 1474.3665 1283.7098)" fill="#EFEFEF" width="0.32" height="3.134"/>
	
		<rect x="1063.516" y="264.685" transform="matrix(-0.5849 -0.8111 0.8111 -0.5849 1470.551 1283.4758)" fill="#EFEFEF" width="0.324" height="1.567"/>
	
		<rect x="1065.783" y="265.554" transform="matrix(-0.673 -0.7397 0.7397 -0.673 1585.7167 1235.3289)" fill="#EFEFEF" width="0.322" height="3.134"/>
	<polygon fill="#EFEFEF" points="1065.329,266.429 1065.542,266.672 1064.379,267.719 1064.163,267.481 	"/>
	
		<rect x="1067.12" y="266.915" transform="matrix(-0.7457 -0.6663 0.6663 -0.7457 1684.2939 1179.7789)" fill="#EFEFEF" width="0.32" height="3.133"/>
	
		<rect x="1066.028" y="267.766" transform="matrix(-0.7367 -0.6763 0.6763 -0.7367 1669.9901 1187.4088)" fill="#EFEFEF" width="0.323" height="1.565"/>
	
		<rect x="1068.59" y="268.128" transform="matrix(-0.8137 -0.5812 0.5812 -0.8137 1781.6699 1110.3525)" fill="#EFEFEF" width="0.319" height="3.134"/>
	
		<rect x="1067.511" y="269.092" transform="matrix(-0.8036 -0.5952 0.5952 -0.8036 1765.0481 1122.1794)" fill="#EFEFEF" width="0.323" height="1.565"/>
	
		<rect x="1070.178" y="269.18" transform="matrix(-0.8701 -0.4929 0.4929 -0.8701 1868.2096 1033.8517)" fill="#EFEFEF" width="0.321" height="3.133"/>
	<polygon fill="#EFEFEF" points="1069.538,270.278 1069.817,270.444 1069.034,271.799 1068.756,271.64 	"/>
	
		<rect x="1071.87" y="270.061" transform="matrix(-0.9153 -0.4027 0.4027 -0.9153 1943.8799 951.9999)" fill="#EFEFEF" width="0.32" height="3.133"/>
	<polygon fill="#EFEFEF" points="1071.184,271.244 1071.479,271.382 1070.842,272.811 1070.547,272.681 	"/>
	
		<rect x="1073.642" y="270.761" transform="matrix(-0.9523 -0.3052 0.3052 -0.9523 2013.2456 859.4041)" fill="#EFEFEF" width="0.32" height="3.133"/>
	<polygon fill="#EFEFEF" points="1072.922,272.034 1073.231,272.14 1072.745,273.628 1072.44,273.528 	"/>
	
		<rect x="1075.479" y="271.271" transform="matrix(-0.9788 -0.2049 0.2049 -0.9788 2072.5366 760.3155)" fill="#EFEFEF" width="0.319" height="3.132"/>
	<polygon fill="#EFEFEF" points="1074.733,272.637 1075.049,272.71 1074.723,274.241 1074.409,274.176 	"/>
	
		<rect x="1077.358" y="271.585" transform="matrix(-0.9946 -0.1037 0.1037 -0.9946 2120.8887 656.6021)" fill="#EFEFEF" width="0.32" height="3.133"/>
	<polygon fill="#EFEFEF" points="1076.594,273.047 1076.92,273.088 1076.754,274.644 1076.436,274.611 	"/>
	<rect x="1079.26" y="271.703" fill="#EFEFEF" width="0.32" height="3.132"/>
	<polygon fill="#EFEFEF" points="1078.493,273.262 1078.819,273.268 1078.817,274.833 1078.497,274.833 	"/>
	
		<rect x="1081.167" y="271.62" transform="matrix(-0.9942 0.1074 -0.1074 -0.9942 2185.7371 428.6586)" fill="#EFEFEF" width="0.318" height="3.133"/>
	<polygon fill="#EFEFEF" points="1080.401,273.277 1080.727,273.249 1080.887,274.806 1080.569,274.84 	"/>
	
		<rect x="1083.051" y="271.339" transform="matrix(-0.9782 0.2079 -0.2079 -0.9782 2199.4883 314.6973)" fill="#EFEFEF" width="0.319" height="3.135"/>
	<polygon fill="#EFEFEF" points="1082.299,273.091 1082.624,273.03 1082.944,274.562 1082.631,274.629 	"/>
	
		<rect x="1084.897" y="270.862" transform="matrix(-0.9499 0.3125 -0.3125 -0.9499 2200.9004 192.0777)" fill="#EFEFEF" width="0.319" height="3.134"/>
	
		<rect x="1086.681" y="270.196" transform="matrix(-0.9119 0.4104 -0.4104 -0.9119 2189.4773 73.5887)" fill="#EFEFEF" width="0.321" height="3.135"/>
	<polygon fill="#EFEFEF" points="1085.989,272.134 1086.292,272.006 1086.924,273.436 1086.631,273.567 	"/>
	
		<rect x="1088.386" y="269.346" transform="matrix(-0.8633 0.5046 -0.5046 -0.8633 2165.0396 -44.5071)" fill="#EFEFEF" width="0.321" height="3.135"/>
	<polygon fill="#EFEFEF" points="1087.739,271.371 1088.026,271.213 1088.805,272.568 1088.528,272.73 	"/>
	<polygon fill="#EFEFEF" points="1089.106,268.717 1089.364,268.526 1091.206,271.064 1090.944,271.249 	"/>
	<polygon fill="#EFEFEF" points="1089.399,270.43 1089.668,270.242 1090.584,271.51 1090.327,271.698 	"/>
	
		<rect x="1091.487" y="267.137" transform="matrix(-0.7369 0.676 -0.676 -0.7369 2077.7278 -271.2396)" fill="#EFEFEF" width="0.321" height="3.135"/>
	<polygon fill="#EFEFEF" points="1090.952,269.321 1091.198,269.105 1092.245,270.27 1092.006,270.484 	"/>
	<polygon fill="#EFEFEF" points="1091.737,266.44 1091.952,266.199 1094.278,268.3 1094.061,268.534 	"/>
	<polygon fill="#EFEFEF" points="1092.381,268.055 1092.602,267.816 1093.764,268.864 1093.549,269.103 	"/>
	<polygon fill="#EFEFEF" points="1092.86,265.107 1093.047,264.847 1095.581,266.692 1095.391,266.947 	"/>
	<polygon fill="#EFEFEF" points="1093.668,266.646 1093.866,266.384 1095.129,267.308 1094.942,267.566 	"/>
	
		<rect x="1095.111" y="262.744" transform="matrix(-0.4988 0.8667 -0.8667 -0.4988 1870.6349 -553.1818)" fill="#EFEFEF" width="0.321" height="3.133"/>
	<polygon fill="#EFEFEF" points="1094.803,265.111 1094.971,264.83 1096.325,265.615 1096.163,265.894 	"/>
	
		<rect x="1095.993" y="261.054" transform="matrix(-0.4005 0.9163 -0.9163 -0.4005 1775.8022 -636.6016)" fill="#EFEFEF" width="0.322" height="3.134"/>
	
		<rect x="1096.392" y="262.853" transform="matrix(-0.4168 0.909 -0.909 -0.4168 1793.2021 -623.2783)" fill="#EFEFEF" width="0.323" height="1.565"/>
	<polygon fill="#EFEFEF" points="1095.315,260.516 1095.413,260.208 1098.391,261.181 1098.292,261.482 	"/>
	<polygon fill="#EFEFEF" points="1096.561,261.728 1096.667,261.419 1098.153,261.905 1098.053,262.209 	"/>
	<polygon fill="#EFEFEF" points="1095.801,258.842 1095.864,258.525 1098.928,259.182 1098.86,259.492 	"/>
	<polygon fill="#EFEFEF" points="1097.165,259.918 1097.237,259.599 1098.768,259.928 1098.698,260.239 	"/>
	<polygon fill="#EFEFEF" points="1096.106,257.125 1096.135,256.805 1099.252,257.138 1099.217,257.453 	"/>
	<polygon fill="#EFEFEF" points="1097.577,258.054 1097.614,257.729 1099.172,257.897 1099.135,258.214 	"/>
	<polygon fill="#EFEFEF" points="1096.233,255.389 1096.227,255.064 1099.362,255.071 1099.36,255.389 	"/>
	<polygon fill="#EFEFEF" points="1097.79,256.156 1097.793,255.829 1099.362,255.835 1099.358,256.153 	"/>
	<polygon fill="#EFEFEF" points="1096.174,253.646 1096.135,253.325 1099.254,253.004 1099.286,253.319 	"/>
	<polygon fill="#EFEFEF" points="1097.803,254.248 1097.774,253.923 1099.333,253.764 1099.364,254.08 	"/>
	<polygon fill="#EFEFEF" points="1095.936,251.92 1095.864,251.605 1098.932,250.96 1098.995,251.271 	"/>
	<polygon fill="#EFEFEF" points="1097.62,252.35 1097.555,252.027 1099.088,251.707 1099.153,252.019 	"/>
	<polygon fill="#EFEFEF" points="1095.518,250.229 1095.413,249.922 1098.397,248.959 1098.493,249.262 	"/>
	<polygon fill="#EFEFEF" points="1097.237,250.479 1097.139,250.166 1098.631,249.687 1098.727,249.99 	"/>
	<polygon fill="#EFEFEF" points="1094.926,248.59 1094.79,248.296 1097.655,247.026 1097.784,247.317 	"/>
	<polygon fill="#EFEFEF" points="1096.661,248.659 1096.532,248.358 1097.965,247.726 1098.092,248.019 	"/>
	<polygon fill="#EFEFEF" points="1094.165,247.022 1094,246.744 1096.717,245.182 1096.874,245.459 	"/>
	<polygon fill="#EFEFEF" points="1095.897,246.91 1095.737,246.625 1097.098,245.847 1097.252,246.122 	"/>
	<polygon fill="#EFEFEF" points="1093.245,245.542 1093.051,245.283 1095.59,243.445 1095.774,243.705 	"/>
	<polygon fill="#EFEFEF" points="1094.956,245.251 1094.766,244.983 1096.038,244.066 1096.221,244.325 	"/>
	<polygon fill="#EFEFEF" points="1092.174,244.167 1091.956,243.928 1094.288,241.836 1094.499,242.074 	"/>
	<polygon fill="#EFEFEF" points="1093.844,243.698 1093.629,243.451 1094.797,242.408 1095.008,242.646 	"/>
	<polygon fill="#EFEFEF" points="1090.965,242.91 1090.723,242.696 1092.825,240.372 1093.059,240.587 	"/>
	<polygon fill="#EFEFEF" points="1092.581,242.269 1092.338,242.048 1093.393,240.887 1093.625,241.102 	"/>
	<polygon fill="#EFEFEF" points="1089.633,241.786 1089.37,241.602 1091.217,239.069 1091.473,239.258 	"/>
	<polygon fill="#EFEFEF" points="1091.17,240.982 1090.909,240.787 1091.834,239.522 1092.088,239.711 	"/>
	<polygon fill="#EFEFEF" points="1088.19,240.808 1087.909,240.653 1089.481,237.941 1089.754,238.103 	"/>
	<polygon fill="#EFEFEF" points="1089.635,239.847 1089.352,239.681 1090.143,238.327 1090.417,238.487 	"/>
	<polygon fill="#EFEFEF" points="1086.655,239.987 1086.358,239.861 1087.637,237.002 1087.926,237.132 	"/>
	<polygon fill="#EFEFEF" points="1087.991,238.88 1087.692,238.745 1088.336,237.314 1088.624,237.446 	"/>
	<polygon fill="#EFEFEF" points="1085.04,239.332 1084.731,239.236 1085.706,236.26 1086.004,236.357 	"/>
	<polygon fill="#EFEFEF" points="1086.252,238.089 1085.942,237.986 1086.432,236.496 1086.733,236.6 	"/>
	<polygon fill="#EFEFEF" points="1083.366,238.849 1083.047,238.785 1083.708,235.724 1084.014,235.789 	"/>
	<polygon fill="#EFEFEF" points="1084.442,237.485 1084.122,237.417 1084.456,235.883 1084.764,235.954 	"/>
	<polygon fill="#EFEFEF" points="1081.651,238.543 1081.327,238.514 1081.663,235.398 1081.977,235.431 	"/>
	<polygon fill="#EFEFEF" points="1082.579,237.074 1082.252,237.04 1082.424,235.479 1082.739,235.517 	"/>
	<g>
		<polygon fill="#E60012" points="1080.538,256.317 1078.645,254.123 1094.84,242.63 		"/>
		<polygon fill="#FFFFFF" points="1078.618,254.128 1080.512,256.317 1064.321,267.823 		"/>
	</g>
</g>
<g>
	<path fill="#FFFFFF" d="M1038.293,268.402c0,5.939-4.814,10.754-10.754,10.754h-26.684c-5.938,0-10.752-4.814-10.752-10.754
		v-26.682c0-5.939,4.814-10.754,10.752-10.754h26.684c5.939,0,10.754,4.814,10.754,10.754V268.402z"/>
	<path fill="#E60012" d="M1032.11,261.205c0,4.235-2.572,7.668-5.744,7.668h-24.334c-3.174,0-5.746-3.433-5.746-7.668v-11.958
		c0-4.234,2.572-7.669,5.746-7.669h24.334c3.172,0,5.744,3.435,5.744,7.669V261.205z"/>
	<polygon fill="#FFFFFF" points="1019.967,255.006 1010.723,260.343 1010.723,249.667 	"/>
</g>
<g>
	<circle opacity="0.4" fill="#FFFFFF" cx="967.618" cy="204.384" r="3.344"/>
	<circle fill="#FFFFFF" cx="981.952" cy="204.384" r="3.344"/>
	<circle opacity="0.4" fill="#FFFFFF" cx="996.286" cy="204.384" r="3.344"/>
</g>
<g>
	<linearGradient id="SVGID_13_" gradientUnits="userSpaceOnUse" x1="890.1543" y1="-261.1279" x2="877.452" y2="-186.3647">
		<stop  offset="0.0317" style="stop-color:#CBE4C1"/>
		<stop  offset="0.5661" style="stop-color:#7DBE27"/>
		<stop  offset="0.9788" style="stop-color:#00913A"/>
	</linearGradient>
	<path fill="url(#SVGID_13_)" d="M907.505-208.099c0,5.939-4.814,10.754-10.753,10.754h-26.684c-5.938,0-10.752-4.814-10.752-10.754
		v-26.682c0-5.939,4.814-10.754,10.752-10.754h26.684c5.939,0,10.753,4.814,10.753,10.754V-208.099z"/>
</g>
<g>
	<linearGradient id="SVGID_14_" gradientUnits="userSpaceOnUse" x1="952.5229" y1="-262.0444" x2="947.8047" y2="-210.5087">
		<stop  offset="0.2011" style="stop-color:#3155A5"/>
		<stop  offset="0.9418" style="stop-color:#63C5E3"/>
	</linearGradient>
	<path fill="url(#SVGID_14_)" d="M972.899-208.099c0,5.939-4.815,10.754-10.753,10.754h-26.684c-5.938,0-10.753-4.814-10.753-10.754
		v-26.682c0-5.939,4.814-10.754,10.753-10.754h26.684c5.938,0,10.753,4.814,10.753,10.754V-208.099z"/>
	<g>
		<linearGradient id="SVGID_15_" gradientUnits="userSpaceOnUse" x1="925.4458" y1="-235.0605" x2="965.2793" y2="-212.5605">
			<stop  offset="0.1693" style="stop-color:#F8B62D"/>
			<stop  offset="0.2622" style="stop-color:#F9BC28"/>
			<stop  offset="0.4051" style="stop-color:#FCCB11"/>
			<stop  offset="0.5767" style="stop-color:#FFE200"/>
		</linearGradient>
		<circle fill="url(#SVGID_15_)" cx="940.337" cy="-226.649" r="8.903"/>
		<path opacity="0.5" fill="#FFFFFF" d="M966.175-215.312c0-4.41-3.916-7.985-8.746-7.985c-0.611,0-1.206,0.058-1.781,0.166
			c-1.607-3.458-4.832-5.819-8.55-5.819c-4.616,0-8.474,3.642-9.417,8.503c-2.339,1.302-3.87,3.464-3.87,5.913
			c0,3.641,3.386,6.65,7.781,7.137v0.07h17.168v-0.103C962.956-208.017,966.175-211.316,966.175-215.312z"/>
	</g>
</g>
<g>
	<path fill="#FFFFFF" d="M1038.293-208.099c0,5.939-4.814,10.754-10.754,10.754h-26.684c-5.938,0-10.752-4.814-10.752-10.754
		v-26.682c0-5.939,4.814-10.754,10.752-10.754h26.684c5.939,0,10.754,4.814,10.754,10.754V-208.099z"/>
	<g>
		<path fill="none" stroke="#000000" stroke-width="5" stroke-miterlimit="10" d="M1002.127-227.274"/>
		<polygon fill="none" points="1004.334,-222.651 1004.334,-222.65 1014.233,-229.174 1014.198,-229.197 		"/>
		<polygon fill="none" points="1004.334,-212.73 1024.061,-212.73 1024.061,-222.651 1014.233,-229.174 1004.334,-222.65 		"/>
		<polygon fill="#E60012" points="1004.334,-222.651 1014.198,-229.197 1014.233,-229.174 1017.999,-231.657 1014.198,-234.178 
			999.922,-224.705 999.922,-220.535 999.922,-219.741 1004.334,-222.65 		"/>
		<polygon fill="#F8B62D" points="1004.334,-212.951 1004.334,-222.65 999.922,-219.741 999.922,-208.701 1004.334,-208.701 
			1004.334,-212.73 		"/>
		<rect x="1004.334" y="-212.73" fill="#009944" width="19.727" height="4.029"/>
		<polygon fill="#036EB8" points="1017.999,-231.657 1014.233,-229.174 1024.061,-222.651 1024.061,-212.997 1024.061,-212.73 
			1024.061,-208.701 1028.475,-208.701 1028.475,-224.705 		"/>
	</g>
</g>
<g>
	<path fill="#3E3A39" d="M1103.686-208.099c0,5.939-4.814,10.754-10.752,10.754h-26.686c-5.938,0-10.752-4.814-10.752-10.754
		v-26.682c0-5.939,4.814-10.754,10.752-10.754h26.686c5.938,0,10.752,4.814,10.752,10.754V-208.099z"/>
	<g>
		<path fill="#C9CACA" d="M1099.327-208.17c0,1.341-0.975,2.428-2.178,2.428h-35.115c-1.201,0-2.178-1.087-2.178-2.428v-23.603
			c0-1.34,0.977-2.427,2.178-2.427h35.115c1.203,0,2.178,1.087,2.178,2.427V-208.17z"/>
		<path fill="#0F5493" d="M1097.604-210.752c0,1.133-0.889,2.052-1.988,2.052h-32.049c-1.098,0-1.986-0.918-1.986-2.052v-19.941
			c0-1.133,0.889-2.051,1.986-2.051h32.049c1.1,0,1.988,0.918,1.988,2.051V-210.752z"/>
		<path fill="#F8B62D" d="M1097.604-211.945c0,0.962-0.889,1.742-1.988,1.742h-32.049c-1.098,0-1.986-0.78-1.986-1.742v-16.944
			c0-0.961,0.889-1.742,1.986-1.742h32.049c1.1,0,1.988,0.781,1.988,1.742V-211.945z"/>
		<path fill="#22AC38" d="M1097.604-210.356c0,0.914-0.889,1.655-1.988,1.655h-32.049c-1.098,0-1.986-0.741-1.986-1.655v-16.085
			c0-0.914,0.889-1.655,1.986-1.655h32.049c1.1,0,1.988,0.741,1.988,1.655V-210.356z"/>
		<path fill="#D71E24" d="M1097.604-208.437c0,0.891-0.889,1.614-1.988,1.614h-32.049c-1.098,0-1.986-0.723-1.986-1.614v-15.696
			c0-0.892,0.889-1.614,1.986-1.614h32.049c1.1,0,1.988,0.723,1.988,1.614V-208.437z"/>
		<g>
			<defs>
				<path id="SVGID_16_" d="M1099.327-208.707c0,1.636-0.975,2.964-2.178,2.964h-35.115c-1.201,0-2.178-1.328-2.178-2.964v-28.822
					c0-1.637,0.977-2.964,2.178-2.964h35.115c1.203,0,2.178,1.327,2.178,2.964V-208.707z"/>
			</defs>
			<clipPath id="SVGID_17_">
				<use xlink:href="#SVGID_16_"  overflow="visible"/>
			</clipPath>
			<path clip-path="url(#SVGID_17_)" fill="#B3B3B3" d="M1098.899-222.35h-1.486h-12.105h-0.281c0,0.013-0.004,0.022-0.004,0.033
				c-1.156,0.147-2.068,1.167-2.209,2.461h-0.029c0,2.173-1.621,3.934-3.627,3.934c-2.004,0-3.629-1.761-3.629-3.934h-0.002
				c-0.135-1.26-1.004-2.263-2.117-2.451c-0.002-0.015-0.006-0.029-0.008-0.044h-0.371h-12.105h-1.094
				c-1.34,0-2.424,1.269-2.424,2.834v10.94c0,1.565,1.084,2.833,2.424,2.833h39.068c1.34,0,2.424-1.268,2.424-2.833v-10.94
				C1101.323-221.081,1100.239-222.35,1098.899-222.35z"/>
		</g>
	</g>
</g>
<rect x="1059.856" y="-223.118" fill="#9FA0A0" width="1.725" height="0.768"/>
<rect x="1097.604" y="-223.059" fill="#9FA0A0" width="1.723" height="0.705"/>
<g>
	<path fill="#FFFFFF" d="M973.003-135.843c0,5.939-4.813,10.753-10.754,10.753h-26.683c-5.938,0-10.752-4.814-10.752-10.753v-26.682
		c0-5.939,4.814-10.754,10.752-10.754h26.683c5.94,0,10.754,4.814,10.754,10.754V-135.843z"/>
	<g opacity="0.9">
		<path opacity="0.8" fill="#F39800" d="M955.028-156.709c0,3.333-2.74,6.037-6.12,6.037l0,0c-3.379,0-6.119-2.703-6.119-6.037
			v-7.163c0-3.333,2.74-6.036,6.119-6.036l0,0c3.38,0,6.12,2.703,6.12,6.036V-156.709z"/>
		<path opacity="0.8" fill="#E60012" d="M947.914-158.832c2.357,2.356,2.331,6.205-0.06,8.595l0,0
			c-2.389,2.389-6.238,2.415-8.594,0.059l-5.066-5.065c-2.355-2.357-2.33-6.206,0.059-8.595l0,0c2.39-2.39,6.238-2.417,8.595-0.059
			L947.914-158.832z"/>
		<path opacity="0.8" fill="#E61673" d="M941.382-155.303c3.333,0,6.037,2.74,6.037,6.12l0,0c0,3.379-2.704,6.118-6.037,6.118
			h-7.164c-3.333,0-6.036-2.74-6.036-6.118l0,0c0-3.38,2.703-6.12,6.036-6.12H941.382z"/>
		<path opacity="0.8" fill="#601986" d="M939.26-148.189c2.356-2.356,6.205-2.331,8.595,0.06l0,0
			c2.389,2.39,2.414,6.239,0.058,8.595l-5.065,5.065c-2.356,2.356-6.206,2.331-8.593-0.058l0,0c-2.39-2.39-2.417-6.238-0.06-8.596
			L939.26-148.189z"/>
		<path opacity="0.8" fill="#036EB8" d="M942.789-141.658c-0.001-3.333,2.74-6.037,6.119-6.037l0,0c3.379,0,6.118,2.704,6.118,6.037
			v7.164c0,3.331-2.739,6.035-6.117,6.035l0,0c-3.38,0-6.121-2.703-6.12-6.036V-141.658z"/>
		<path opacity="0.8" fill="#00913A" d="M949.903-139.535c-2.358-2.356-2.331-6.206,0.058-8.595l0,0
			c2.39-2.389,6.239-2.415,8.595-0.059l5.065,5.066c2.356,2.355,2.332,6.205-0.057,8.593l0,0c-2.391,2.39-6.24,2.417-8.597,0.059
			L949.903-139.535z"/>
		<path opacity="0.8" fill="#FAEE00" d="M958.556-150.178c-2.356,2.357-6.205,2.33-8.594-0.059l0,0
			c-2.389-2.39-2.415-6.239-0.059-8.595l5.065-5.065c2.356-2.356,6.205-2.331,8.594,0.058l0,0c2.391,2.39,2.417,6.24,0.058,8.597
			L958.556-150.178z"/>
		<path opacity="0.8" fill="#8FC31F" d="M956.434-143.064c-3.333,0.002-6.035-2.74-6.036-6.118l0,0
			c0.001-3.38,2.704-6.119,6.036-6.119h7.165c3.33,0,6.035,2.739,6.035,6.117l0,0c0,3.38-2.704,6.121-6.037,6.12H956.434z"/>
	</g>
</g>
<g>
	<g>
		<g>
			<defs>
				<path id="SVGID_18_" d="M907.857-135.841c0,5.938-4.815,10.752-10.752,10.752H870.42c-5.937,0-10.752-4.814-10.752-10.752
					v-26.677c0-5.938,4.815-10.752,10.752-10.752h26.685c5.937,0,10.752,4.813,10.752,10.752V-135.841z"/>
			</defs>
			<clipPath id="SVGID_19_">
				<use xlink:href="#SVGID_18_"  overflow="visible"/>
			</clipPath>
			<g clip-path="url(#SVGID_19_)">
				<polygon fill="#0093D6" points="885.266,-146.502 865.06,-126.3 863.943,-125.085 907.125,-125.085 905.979,-126.333 
					905.709,-126.063 				"/>
				<polygon fill="#999999" points="908.334,-131.136 908.707,-169.939 889.115,-150.351 				"/>
				<polygon fill="#999999" points="908.309,-128.498 908.311,-128.664 908.227,-128.581 				"/>
				<polygon fill="#009F53" points="858.615,-174.436 859.395,-128.333 905.918,-174.848 				"/>
				<polygon fill="#E6E6E6" points="908.334,-131.136 908.311,-128.664 909.558,-129.912 				"/>
				<polygon fill="#E6E6E6" points="886.407,-147.644 905.979,-126.333 908.227,-128.581 887.944,-149.18 				"/>
				<polygon fill="#E6E6E6" points="885.266,-146.502 905.709,-126.063 905.979,-126.333 886.407,-147.644 				"/>
				<polygon fill="#E6E6E6" points="889.115,-150.351 887.944,-149.18 908.227,-128.581 908.311,-128.664 908.334,-131.136 				"/>
				<polygon fill="#FFF100" points="883.61,-148.159 887.458,-152.007 888.024,-151.441 908.724,-171.669 908.707,-169.939 
					915.36,-176.591 911.511,-180.44 905.918,-174.848 908.13,-174.867 859.452,-124.931 859.395,-128.333 855.709,-124.648 
					859.558,-120.8 865.06,-126.3 884.405,-147.364 				"/>
				<polygon fill="#FFF100" points="884.405,-147.364 865.06,-126.3 885.266,-146.502 				"/>
				<polygon fill="#FFF100" points="888.024,-151.441 889.115,-150.351 908.707,-169.939 908.724,-171.669 				"/>
				<polygon fill="#FFF100" points="908.13,-174.867 905.918,-174.848 859.395,-128.333 859.452,-124.931 				"/>
				<polygon fill="#FFF100" points="888.024,-151.441 887.458,-152.007 883.61,-148.159 884.405,-147.364 885.535,-148.594 
					886.407,-147.644 887.944,-149.18 886.848,-150.292 				"/>
				<polygon fill="#FFF100" points="884.405,-147.364 885.266,-146.502 886.407,-147.644 885.535,-148.594 				"/>
				<polygon fill="#FFF100" points="886.848,-150.292 887.944,-149.18 889.115,-150.351 888.024,-151.441 				"/>
			</g>
		</g>
		<path fill="#DC001A" d="M907.834-160.521c0.355-6.451-3.348-13.009-10.181-12.749c-5.713,0.218-10.618,4.437-10.618,11.354
			c0,0.07,0.018,0.148,0.024,0.222c-0.04,0.327-0.064,0.658-0.064,0.996c0,3.77,3.99,6.812,6.27,8.419
			c0.565,0.661,1.042,1.232,1.352,1.66c2.603,4.95,2.426,8.725,3.207,8.725c1.119,0,0.285-2.937,2.857-8.441
			c0.316-0.53,1.22-2.096,2.419-2.875c1.799-1.815,3.149-2.308,3.928-3.948c0.271-0.389,0.611-1.639,0.663-1.909
			c0.137-0.577,0.103-0.931,0.103-0.938c0.006-0.067,0.007-0.136,0.011-0.205C907.817-160.312,907.828-160.416,907.834-160.521z"/>
		<path fill="#D0E39E" d="M880.653-161.408h-7.1v2.582h4.084c-0.644,2.334-2.784,4.056-5.325,4.056
			c-3.048,0-5.527-2.475-5.527-5.517c0-3.042,2.479-5.516,5.528-5.516h0.001c1.38,0,2.701,0.51,3.721,1.438l1.972-2.158
			c-1.56-1.419-3.581-2.2-5.692-2.2h-0.002c-4.662,0-8.455,3.785-8.455,8.436c0,4.652,3.792,8.437,8.455,8.437
			c4.162,0,7.621-3.02,8.317-6.977h0.024V-161.408z"/>
	</g>
	<circle fill="#930000" cx="897.79" cy="-162.692" r="3.562"/>
</g>
<radialGradient id="SVGID_20_" cx="1006.2983" cy="-123.1885" r="67.5348" fx="1005.9744" fy="-123.0967" gradientTransform="matrix(1.0888 0 0 1.0888 -92.0527 20.6523)" gradientUnits="userSpaceOnUse">
	<stop  offset="0.0317" style="stop-color:#FFFFFF"/>
	<stop  offset="0.127" style="stop-color:#FAEE00"/>
	<stop  offset="0.2593" style="stop-color:#EA5514"/>
	<stop  offset="0.328" style="stop-color:#E72012"/>
	<stop  offset="0.4074" style="stop-color:#E60012"/>
	<stop  offset="0.582" style="stop-color:#9F356F"/>
	<stop  offset="0.6825" style="stop-color:#93387A"/>
	<stop  offset="0.8995" style="stop-color:#036EB8"/>
</radialGradient>
<path fill="url(#SVGID_20_)" d="M1038.344-135.843c0,5.939-4.814,10.753-10.752,10.753h-26.684c-5.938,0-10.752-4.814-10.752-10.753
	v-26.682c0-5.939,4.814-10.753,10.752-10.753h26.684c5.938,0,10.752,4.814,10.752,10.753V-135.843z"/>
<path fill="none" stroke="#FFFFFF" stroke-width="3" stroke-miterlimit="10" d="M1028.932-139.222c0,2.776-2.438,5.025-5.445,5.025
	h-18.473c-3.006,0-5.443-2.25-5.443-5.025v-19.926c0-2.776,2.438-5.025,5.443-5.025h18.473c3.008,0,5.445,2.25,5.445,5.025V-139.222
	z"/>
<circle fill="none" stroke="#FFFFFF" stroke-width="3" stroke-miterlimit="10" cx="1014.251" cy="-149.184" r="7.688"/>
<circle fill="#FFFFFF" cx="1023.227" cy="-158.294" r="1.855"/>
<g>
	<circle fill="#A49590" cx="45.354" cy="45.354" r="42.52"/>
	<g>
		<path fill="none" stroke="#FFFFFF" stroke-width="4" stroke-miterlimit="10" d="M68.249,60.893c0,4.329-3.801,7.837-8.492,7.837
			H30.949c-4.688,0-8.489-3.508-8.489-7.837V29.818c0-4.329,3.801-7.837,8.489-7.837h28.808c4.69,0,8.492,3.508,8.492,7.837V60.893z
			"/>
		<circle fill="none" stroke="#FFFFFF" stroke-width="4" stroke-miterlimit="10" cx="45.354" cy="45.356" r="11.99"/>
		<circle fill="#FFFFFF" cx="59.352" cy="31.148" r="2.894"/>
	</g>
</g>
<g>
	<circle fill="#FFFFFF" cx="45.354" cy="172.231" r="42.52"/>
	<g>
		<path fill="none" stroke="#A2938F" stroke-width="4" stroke-miterlimit="10" d="M68.249,187.77c0,4.329-3.801,7.837-8.492,7.837
			H30.949c-4.688,0-8.489-3.508-8.489-7.837v-31.074c0-4.329,3.801-7.837,8.489-7.837h28.808c4.69,0,8.492,3.508,8.492,7.837V187.77
			z"/>
		<circle fill="none" stroke="#A2938F" stroke-width="4" stroke-miterlimit="10" cx="45.354" cy="172.233" r="11.99"/>
		<circle fill="#A2938F" cx="59.352" cy="158.025" r="2.894"/>
	</g>
</g>
<g>
	<path fill="#FFFFFF" d="M1103.688-135.843c0,5.939-4.814,10.753-10.754,10.753h-26.684c-5.938,0-10.752-4.814-10.752-10.753
		v-26.682c0-5.939,4.814-10.753,10.752-10.753h26.684c5.939,0,10.754,4.814,10.754,10.753V-135.843z"/>
	<g>
		<circle fill="none" stroke="#0085C9" stroke-miterlimit="10" cx="1064.37" cy="-161.526" r="3.666"/>
		<circle fill="#0085C9" cx="1064.369" cy="-161.526" r="2.124"/>
	</g>
	<g>
		<circle fill="#FFFFFF" stroke="#D70051" stroke-miterlimit="10" cx="1064.37" cy="-149.184" r="3.666"/>
		<circle fill="#E60012" cx="1064.369" cy="-149.184" r="2.124"/>
	</g>
	<g>
		<circle fill="none" stroke="#F8B62D" stroke-miterlimit="10" cx="1064.37" cy="-136.842" r="3.666"/>
		<circle fill="#F8B62D" cx="1064.369" cy="-136.842" r="2.124"/>
	</g>
	
		<line fill="none" stroke="#B5B5B6" stroke-width="0.75" stroke-miterlimit="10" x1="1072.362" y1="-161.527" x2="1097.604" y2="-161.526"/>
	
		<line fill="none" stroke="#B5B5B6" stroke-width="0.75" stroke-miterlimit="10" x1="1072.362" y1="-149.184" x2="1097.604" y2="-149.184"/>
	
		<line fill="none" stroke="#B5B5B6" stroke-width="0.75" stroke-miterlimit="10" x1="1072.362" y1="-136.841" x2="1097.604" y2="-136.841"/>
</g>
<linearGradient id="SVGID_21_" gradientUnits="userSpaceOnUse" x1="1014.7085" y1="-104.8193" x2="1013.6559" y2="-26.4007">
	<stop  offset="0.0053" style="stop-color:#1A479C"/>
	<stop  offset="0.4497" style="stop-color:#2EA7E0"/>
	<stop  offset="0.7037" style="stop-color:#66C5D9"/>
	<stop  offset="0.9841" style="stop-color:#EFEFEF"/>
</linearGradient>
<path fill="url(#SVGID_21_)" d="M1038.346-57.487c0,5.939-4.816,10.754-10.754,10.754h-26.684c-5.938,0-10.752-4.814-10.752-10.754
	v-26.681c0-5.939,4.814-10.754,10.752-10.754h26.684c5.938,0,10.754,4.814,10.754,10.754V-57.487z"/>
<g>
	<g>
		<linearGradient id="SVGID_22_" gradientUnits="userSpaceOnUse" x1="866.7827" y1="-101.4141" x2="898.0143" y2="-46.0894">
			<stop  offset="0.0794" style="stop-color:#EFEFEF"/>
			<stop  offset="0.328" style="stop-color:#DCDDDD"/>
			<stop  offset="0.6455" style="stop-color:#B5B5B6"/>
			<stop  offset="0.9577" style="stop-color:#9FA0A0"/>
		</linearGradient>
		<path fill="url(#SVGID_22_)" d="M907.625-58.646c0,5.989-4.855,10.843-10.843,10.843h-26.903c-5.987,0-10.841-4.854-10.841-10.843
			v-26.902c0-5.988,4.854-10.843,10.841-10.843h26.903c5.988,0,10.843,4.855,10.843,10.843V-58.646z"/>
		<circle fill="#494545" cx="883.331" cy="-72.097" r="21.743"/>
		<linearGradient id="SVGID_23_" gradientUnits="userSpaceOnUse" x1="865.269" y1="-86.022" x2="910.676" y2="-50.9996">
			<stop  offset="0.0794" style="stop-color:#EFEFEF"/>
			<stop  offset="0.3545" style="stop-color:#DCDDDD"/>
			<stop  offset="0.7249" style="stop-color:#B5B5B6"/>
			<stop  offset="1" style="stop-color:#728E9D"/>
		</linearGradient>
		<path fill="url(#SVGID_23_)" d="M900.042-72.087c0-0.042-0.002-0.083-0.003-0.124l2.875-0.358l-0.018-0.567l-2.901-0.155
			c-0.031-0.419-0.073-0.835-0.132-1.245l2.793-0.753l-0.096-0.559l-2.891,0.25c-0.087-0.41-0.192-0.814-0.309-1.214l2.662-1.135
			l-0.173-0.54l-2.823,0.648c-0.144-0.393-0.307-0.778-0.479-1.157l2.479-1.495l-0.246-0.512l-2.708,1.037
			c-0.198-0.369-0.412-0.728-0.635-1.079l2.247-1.826l-0.314-0.473l-2.541,1.405c-0.247-0.337-0.506-0.664-0.777-0.981l1.973-2.12
			l-0.378-0.425l-2.321,1.746c-0.291-0.299-0.592-0.588-0.904-0.864l1.658-2.375l-0.433-0.367l-2.057,2.052
			c-0.328-0.256-0.665-0.502-1.014-0.733l1.311-2.58l-0.48-0.305l-1.75,2.318c-0.361-0.208-0.729-0.407-1.106-0.588l0.938-2.733
			l-0.518-0.235l-1.409,2.538c-0.387-0.155-0.778-0.299-1.179-0.426l0.549-2.838l-0.546-0.159l-1.042,2.708
			c-0.404-0.101-0.813-0.184-1.227-0.254l0.149-2.891l-0.564-0.082l-0.655,2.825c-0.412-0.042-0.83-0.064-1.25-0.075l-0.258-2.889
			h-0.567l-0.257,2.894c-0.42,0.015-0.836,0.045-1.247,0.09l-0.656-2.821l-0.562,0.079l0.147,2.899
			c-0.413,0.073-0.822,0.157-1.224,0.26l-1.041-2.697l-0.544,0.155l0.549,2.849c-0.398,0.13-0.791,0.274-1.175,0.433l-1.407-2.529
			l-0.518,0.23l0.94,2.744c-0.375,0.185-0.742,0.383-1.101,0.595l-1.747-2.311l-0.481,0.299l1.313,2.587
			c-0.345,0.234-0.679,0.484-1.005,0.744l-2.053-2.046l-0.435,0.363l1.662,2.38c-0.309,0.28-0.605,0.574-0.892,0.875l-2.32-1.741
			l-0.379,0.421l1.978,2.125c-0.267,0.32-0.521,0.651-0.764,0.99l-2.538-1.401l-0.318,0.469l2.254,1.83
			c-0.221,0.354-0.427,0.716-0.621,1.086l-2.706-1.034l-0.25,0.509l2.485,1.499c-0.168,0.38-0.324,0.766-0.464,1.161l-2.821-0.646
			l-0.176,0.54l2.67,1.138c-0.113,0.399-0.216,0.803-0.3,1.213l-2.882-0.247l-0.1,0.559l2.804,0.754
			c-0.056,0.41-0.098,0.825-0.124,1.244l-2.894,0.157l-0.021,0.567l2.881,0.357c0.001,0.421,0.021,0.836,0.053,1.249l-2.845,0.558
			l0.057,0.564l2.903-0.047c0.059,0.416,0.133,0.825,0.223,1.23l-2.736,0.947l0.135,0.551l2.868-0.45
			c0.116,0.402,0.244,0.799,0.389,1.188l-2.576,1.318l0.211,0.527l2.778-0.846c0.171,0.381,0.352,0.757,0.55,1.123l-2.367,1.664
			l0.284,0.492l2.633-1.224c0.224,0.353,0.457,0.699,0.704,1.034l-2.116,1.979l0.35,0.448l2.438-1.58
			c0.269,0.319,0.549,0.627,0.841,0.924l-1.821,2.257l0.409,0.395l2.194-1.903c0.309,0.278,0.631,0.543,0.961,0.797l-1.489,2.488
			l0.46,0.335l1.906-2.188c0.345,0.231,0.702,0.449,1.065,0.655l-1.128,2.67l0.502,0.267l1.581-2.43
			c0.375,0.182,0.758,0.346,1.147,0.5l-0.745,2.8l0.534,0.195l1.229-2.627c0.395,0.126,0.797,0.238,1.205,0.336l-0.348,2.876
			l0.556,0.118l0.852-2.776c0.408,0.07,0.82,0.13,1.239,0.169l0.055,2.897l0.566,0.039l0.458-2.87
			c0.18,0.005,0.361,0.013,0.542,0.013c0.237,0,0.473-0.008,0.707-0.018l0.459,2.863l0.566-0.038l0.055-2.903
			c0.417-0.043,0.829-0.107,1.237-0.181l0.853,2.771l0.555-0.118l-0.351-2.879c0.407-0.102,0.807-0.22,1.202-0.352l1.229,2.622
			l0.533-0.192l-0.748-2.804c0.388-0.159,0.768-0.33,1.141-0.516l1.581,2.426l0.502-0.265l-1.132-2.674
			c0.361-0.211,0.715-0.432,1.059-0.668l1.905,2.184l0.459-0.333l-1.495-2.493c0.328-0.258,0.65-0.525,0.958-0.807l2.189,1.897
			l0.409-0.393l-1.827-2.261c0.289-0.3,0.57-0.61,0.835-0.931l2.432,1.573l0.35-0.446l-2.123-1.983
			c0.245-0.337,0.479-0.684,0.699-1.041l2.625,1.22l0.285-0.49l-2.376-1.667c0.195-0.368,0.377-0.744,0.545-1.128l2.769,0.842
			l0.215-0.525l-2.583-1.319c0.142-0.391,0.266-0.79,0.377-1.194l2.861,0.448l0.139-0.55l-2.741-0.946
			c0.085-0.406,0.152-0.819,0.207-1.236l2.897,0.047l0.062-0.565L900-70.96C900.025-71.333,900.042-71.708,900.042-72.087z
			 M876.985-63.738l-0.187,0.326c-0.47,0.798-1.159,1.374-2.007,1.534c-0.837,0.155-1.67-0.12-2.391-0.676
			c-0.357-0.348-0.693-0.712-1.006-1.092c-1.952-2.379-3.024-5.349-3.071-8.386l0.005,0c-0.034-3.035,0.955-6.029,2.839-8.457
			c0.303-0.39,0.627-0.763,0.977-1.12c0.704-0.576,1.53-0.874,2.371-0.741c0.854,0.136,1.557,0.692,2.047,1.477l0.196,0.322
			l4.582,7.541l0.089,0.147c0.127,0.204,0.21,0.419,0.215,0.648l0.001,0.007c0.001,0.005,0.002,0.008,0.002,0.01
			c0.001,0.137-0.023,0.271-0.065,0.401l-0.265,0.462L876.985-63.738z M896.926-67.494c-0.123,0.482-0.271,0.957-0.444,1.416
			c-1.082,2.882-3.12,5.292-5.724,6.853l-0.003-0.004c-2.611,1.546-5.698,2.187-8.745,1.768c-0.488-0.068-0.973-0.162-1.458-0.285
			c-0.849-0.323-1.521-0.889-1.826-1.682c-0.309-0.808-0.179-1.696,0.255-2.513l0.182-0.333l4.24-7.738l0.083-0.149
			c0.112-0.21,0.259-0.391,0.453-0.512l0.006-0.004c0.003-0.002,0.006-0.004,0.009-0.006c0.116-0.07,0.245-0.116,0.379-0.143
			l0.533-0.001l8.744-0.045l0.375-0.002c0.926,0.007,1.769,0.316,2.332,0.972C896.869-69.256,897.047-68.396,896.926-67.494z
			 M896.469-74.535c-0.543,0.673-1.377,1.002-2.302,1.036l-0.376,0.008l-8.823,0.197l-0.169,0.004
			c-0.241,0.007-0.47-0.028-0.67-0.138l-0.008-0.003c-0.004-0.001-0.007-0.001-0.011-0.003c-0.119-0.065-0.221-0.154-0.313-0.257
			l-0.269-0.46l-4.41-7.551l-0.19-0.324c-0.456-0.807-0.61-1.689-0.322-2.504c0.282-0.803,0.939-1.389,1.779-1.733
			c0.48-0.135,0.963-0.245,1.449-0.325c3.037-0.501,6.145,0.055,8.798,1.535l-0.002,0.003c2.645,1.487,4.742,3.839,5.902,6.686
			c0.187,0.458,0.346,0.926,0.482,1.406C897.16-76.061,897.006-75.196,896.469-74.535z"/>
		<circle fill="#E60012" cx="905.075" cy="-93.84" r="7.822"/>
		<linearGradient id="SVGID_24_" gradientUnits="userSpaceOnUse" x1="873.043" y1="-83.5767" x2="902.1465" y2="-51.1238">
			<stop  offset="0.0794" style="stop-color:#EFEFEF"/>
			<stop  offset="0.3545" style="stop-color:#DCDDDD"/>
			<stop  offset="0.7249" style="stop-color:#B5B5B6"/>
			<stop  offset="1" style="stop-color:#9FA0A0"/>
		</linearGradient>
		<path fill="url(#SVGID_24_)" d="M893.707-72.091c0-0.026-0.002-0.051-0.002-0.078l1.784-0.221l-0.011-0.353l-1.801-0.096
			c-0.018-0.26-0.044-0.518-0.083-0.773l1.735-0.467l-0.06-0.347l-1.795,0.156c-0.054-0.255-0.119-0.506-0.191-0.754l1.652-0.705
			l-0.107-0.335l-1.753,0.404c-0.089-0.245-0.191-0.483-0.297-0.719l1.538-0.927l-0.153-0.318l-1.682,0.643
			c-0.123-0.229-0.255-0.451-0.393-0.67l1.395-1.134l-0.195-0.292l-1.577,0.872c-0.153-0.209-0.314-0.412-0.483-0.609l1.225-1.317
			l-0.233-0.264l-1.442,1.084c-0.18-0.186-0.367-0.366-0.561-0.538l1.028-1.474l-0.269-0.229l-1.276,1.274
			c-0.205-0.159-0.414-0.312-0.63-0.455l0.813-1.602l-0.299-0.188l-1.086,1.439c-0.223-0.129-0.452-0.252-0.686-0.365l0.583-1.696
			l-0.322-0.146l-0.875,1.576c-0.24-0.097-0.483-0.187-0.731-0.265l0.34-1.762l-0.338-0.1l-0.647,1.681
			c-0.25-0.062-0.505-0.114-0.762-0.156l0.094-1.795l-0.352-0.051l-0.405,1.754c-0.256-0.025-0.515-0.039-0.776-0.046l-0.16-1.793
			h-0.353l-0.159,1.796c-0.261,0.01-0.518,0.029-0.773,0.057l-0.408-1.753l-0.348,0.049l0.09,1.801
			c-0.256,0.046-0.51,0.097-0.759,0.162l-0.646-1.675l-0.339,0.096l0.342,1.77c-0.247,0.081-0.491,0.17-0.729,0.268l-0.874-1.57
			l-0.32,0.143l0.583,1.704c-0.233,0.114-0.46,0.238-0.684,0.37l-1.084-1.435l-0.299,0.187l0.815,1.606
			c-0.214,0.145-0.421,0.3-0.624,0.461l-1.275-1.271l-0.27,0.226l1.032,1.478c-0.191,0.173-0.376,0.355-0.554,0.542l-1.44-1.081
			l-0.236,0.262l1.228,1.32c-0.167,0.199-0.323,0.404-0.474,0.614l-1.577-0.87l-0.197,0.292l1.399,1.136
			c-0.137,0.219-0.265,0.445-0.385,0.674l-1.68-0.642l-0.155,0.317l1.543,0.929c-0.104,0.236-0.201,0.476-0.288,0.722l-1.751-0.401
			l-0.11,0.335l1.658,0.706c-0.071,0.248-0.134,0.499-0.187,0.753l-1.788-0.153l-0.063,0.347l1.741,0.469
			c-0.035,0.255-0.061,0.512-0.077,0.772l-1.796,0.097l-0.014,0.353l1.788,0.222c0.001,0.26,0.014,0.518,0.034,0.775l-1.768,0.346
			l0.036,0.351l1.803-0.03c0.036,0.258,0.083,0.512,0.138,0.764l-1.698,0.588l0.083,0.342l1.781-0.28
			c0.073,0.25,0.152,0.496,0.242,0.738l-1.6,0.818l0.132,0.327l1.724-0.524c0.106,0.237,0.218,0.469,0.341,0.697l-1.469,1.032
			l0.176,0.306l1.635-0.761c0.138,0.22,0.282,0.435,0.437,0.643l-1.313,1.229l0.217,0.278l1.513-0.98
			c0.167,0.198,0.342,0.389,0.522,0.573l-1.13,1.401l0.254,0.245l1.362-1.181c0.193,0.172,0.391,0.337,0.597,0.495l-0.924,1.545
			l0.286,0.208l1.183-1.358c0.214,0.144,0.436,0.278,0.661,0.406l-0.7,1.658l0.312,0.166l0.982-1.508
			c0.232,0.113,0.47,0.215,0.711,0.31l-0.463,1.738l0.332,0.122l0.762-1.632c0.246,0.079,0.495,0.148,0.749,0.209l-0.216,1.787
			l0.345,0.073l0.528-1.724c0.253,0.043,0.51,0.08,0.77,0.105l0.035,1.799l0.352,0.024l0.283-1.782
			c0.113,0.003,0.224,0.009,0.337,0.009c0.148,0,0.293-0.005,0.439-0.011l0.284,1.776l0.352-0.023l0.033-1.802
			c0.26-0.028,0.516-0.067,0.768-0.114l0.529,1.721l0.345-0.073l-0.218-1.787c0.253-0.064,0.5-0.137,0.745-0.22l0.764,1.629
			l0.332-0.12l-0.465-1.741c0.241-0.098,0.477-0.205,0.708-0.32l0.981,1.506l0.312-0.164l-0.703-1.661
			c0.224-0.131,0.443-0.269,0.657-0.414l1.183,1.355l0.286-0.207l-0.928-1.548c0.204-0.16,0.403-0.326,0.595-0.501l1.358,1.177
			l0.254-0.244l-1.135-1.403c0.18-0.187,0.354-0.378,0.52-0.579l1.51,0.978l0.217-0.278l-1.318-1.231
			c0.152-0.209,0.297-0.424,0.433-0.645l1.631,0.757l0.177-0.305l-1.476-1.035c0.121-0.228,0.233-0.462,0.338-0.701l1.718,0.523
			l0.133-0.326l-1.603-0.818c0.087-0.244,0.165-0.491,0.236-0.742l1.774,0.279l0.087-0.342l-1.703-0.588
			c0.053-0.251,0.096-0.507,0.128-0.767l1.799,0.03l0.039-0.351l-1.771-0.346C893.696-71.623,893.707-71.855,893.707-72.091z
			 M883.332-63.833c-4.564,0-8.264-3.7-8.264-8.264c0-4.564,3.7-8.264,8.264-8.264c4.563,0,8.264,3.7,8.264,8.264
			C891.595-67.534,887.895-63.833,883.332-63.833z"/>
	</g>
	<text transform="matrix(1 0 0 1 901.8691 -89.9771)" fill="#FFFFFF" font-family="'ArialMT'" font-size="10.978">1</text>
</g>
<path fill="#FFFFFF" d="M899.953-214.371c-2.454-0.825-2.737-0.979-4.979-2.227c-0.942-0.524-2.172-0.13-2.78,0.939
	c-0.67,1.18-1.003,1.771-1.673,2.952c-6.226-3.927-8.964-6.65-13.037-12.978c1.081-0.772,1.621-1.158,2.701-1.929
	c0.979-0.7,1.284-2.015,0.734-2.977c-1.31-2.288-1.875-3.502-2.796-6.037c-0.387-1.065-1.566-1.645-2.691-1.264
	c-1.257,0.426-2.123,0.719-3.085,1.044c-0.301,0.059-0.584,0.162-0.855,0.289c-1.261,0.594-2.14,1.867-2.14,3.354
	c0,0.486,0.1,0.947,0.269,1.372c0.013,0.036,0.027,0.072,0.041,0.106c0.57,1.482,1.049,2.53,1.899,4.205
	c0.442,0.871,0.673,1.3,1.156,2.143c5.145,8.992,8.973,12.802,17.786,17.705c0.683,0.38,1.027,0.562,1.727,0.912
	c1.263,0.632,2.181,1.058,3.175,1.457c0.099,0.044,0.177,0.08,0.259,0.117c0.272,0.074,0.542,0.154,0.818,0.227
	c0.144,0.038,0.291,0.056,0.438,0.076c0.011,0,0.019-0.006,0.03-0.006c0.034,0,0.058,0.016,0.09,0.019
	c0.08-0.006,0.159-0.011,0.238-0.019c0.002,0,0.003,0,0.005,0c0.022-0.002,0.033-0.007,0.058-0.009
	c0.213-0.018,0.414-0.054,0.605-0.098c1.521-0.238,2.033-1.447,2.396-2.709c0.036-0.124,0.07-0.247,0.092-0.375
	c0.277-1.123,0.515-2.087,0.871-3.53C901.602-212.818,900.985-214.024,899.953-214.371z"/>
<text transform="matrix(1 0 0 1 875.2822 -186.939)" fill="#FFFFFF" font-family="'AdobeFanHeitiStd-Bold-B5pc-H'" font-size="8">電話</text>
<text transform="matrix(1 0 0 1 941.3032 -186.939)" fill="#FFFFFF" font-family="'AdobeFanHeitiStd-Bold-B5pc-H'" font-size="8">天氣</text>
<text transform="matrix(1 0 0 1 989.436 -186.939)" fill="#FFFFFF" font-family="'AdobeFanHeitiStd-Bold-B5pc-H'" font-size="8">Google Home</text>
<text transform="matrix(1 0 0 1 1072.5317 -186.939)" fill="#FFFFFF" font-family="'AdobeFanHeitiStd-Bold-B5pc-H'" font-size="8">錢包</text>
<text transform="matrix(1 0 0 1 859.4785 -114.439)" fill="#FFFFFF" font-family="'AdobeFanHeitiStd-Bold-B5pc-H'" font-size="8">Google Maps</text>
<text transform="matrix(1 0 0 1 875.2822 -37.439)" fill="#FFFFFF" font-family="'AdobeFanHeitiStd-Bold-B5pc-H'" font-size="8">設定</text>
<text transform="matrix(1 0 0 1 941.3032 -114.439)" fill="#FFFFFF" font-family="'AdobeFanHeitiStd-Bold-B5pc-H'" font-size="8">照片</text>
<text transform="matrix(1 0 0 1 995.9438 -114.439)" fill="#FFFFFF" font-family="'AdobeFanHeitiStd-Bold-B5pc-H'" font-size="8">Instagram</text>
<text transform="matrix(1 0 0 1 1064.5317 -114.439)" fill="#FFFFFF" font-family="'AdobeFanHeitiStd-Bold-B5pc-H'" font-size="8">提醒事項</text>
<g>
	<g>
		<path fill="#FFFFFF" d="M973.759-58.757c0,5.939-4.816,10.753-10.755,10.753h-26.683c-5.937,0-10.752-4.814-10.752-10.753v-26.682
			c0-5.939,4.815-10.754,10.752-10.754h26.683c5.938,0,10.755,4.814,10.755,10.754V-58.757z"/>
	</g>
	<g>
		<path fill="#D70051" d="M942.45-84.361v-0.581h-2.171v-0.567h2.171v-0.609h-1.912c-0.098,0.182-0.294,0.406-0.596,0.651
			l-0.483-0.385c0.476-0.392,0.833-0.861,1.058-1.394l0.539,0.245l-0.161,0.315h1.555v-0.609h-2.255
			c-0.056,0-0.084-0.028-0.084-0.084v-2.423c0-0.056,0.028-0.084,0.084-0.084h5.057c0.056,0,0.084,0.028,0.084,0.084v2.423
			c0,0.056-0.028,0.084-0.084,0.084h-2.206v0.609h2.521v0.567h-2.521v0.609h2.381v0.567h-2.381v0.581h2.822v0.567h-6.332v-0.567
			H942.45z M940.678-88.858h4.09v-0.441l-0.028-0.021h-4.041l-0.021,0.021V-88.858z M944.768-88.318h-4.09v0.427l0.021,0.028h4.041
			c0.021,0,0.028-0.007,0.028-0.028V-88.318z"/>
		<path fill="#D70051" d="M947.825-84.74c-0.315,0.525-0.666,0.917-1.037,1.184c-0.105-0.196-0.217-0.351-0.329-0.456
			c0.357-0.266,0.651-0.616,0.861-1.043L947.825-84.74z M947.005-85.769v-3.124h-0.497v-0.546h0.497V-90h0.567v0.561h1.429V-90
			h0.567v0.561h0.399v0.546h-0.399v3.124h0.477v0.539h-3.558v-0.539H947.005z M947.573-88.207h1.429v-0.686h-1.429V-88.207z
			 M947.573-86.974h1.429v-0.693h-1.429V-86.974z M947.573-85.769h1.429v-0.666h-1.429V-85.769z M949.086-83.871
			c-0.133-0.287-0.301-0.595-0.511-0.917l0.483-0.252c0.189,0.301,0.371,0.623,0.519,0.959L949.086-83.871z M950.837-85.888
			c-0.084,0.777-0.309,1.534-0.666,2.262l-0.588-0.196c0.448-0.994,0.693-1.891,0.708-2.689v-3.201c0-0.105,0.049-0.161,0.161-0.161
			h2.087c0.112,0,0.175,0.056,0.175,0.168v5.379c0,0.581-0.33,0.686-0.862,0.686c-0.14,0-0.301-0.007-0.476-0.028l-0.042-0.651
			c0.28,0.077,0.49,0.112,0.609,0.112c0.203,0,0.203-0.182,0.203-0.287v-1.394H950.837z M950.858-88.123h1.289v-1.142
			c0-0.049-0.028-0.07-0.077-0.07h-1.142c-0.042,0-0.07,0.028-0.07,0.077V-88.123z M950.858-86.427h1.289v-1.156h-1.289V-86.427z"/>
		<path fill="#D70051" d="M953.564-84.55h6.303v0.623h-6.303V-84.55z M953.921-89.726h5.589v0.623h-5.589V-89.726z M954.167-87.177
			h5.071v0.623h-5.071V-87.177z"/>
	</g>
	<g>
		<g>
			<g>
				<path d="M946.083-70.828l-0.818-0.495c0.53-0.648,0.823-1.399,0.847-2.173c0.036-1.13-0.493-2.208-1.49-3.034
					c-1.009-0.837-2.374-1.317-3.843-1.351c-1.466-0.049-2.861,0.38-3.921,1.168c-1.047,0.78-1.644,1.831-1.68,2.961l-1-0.023
					c0.044-1.375,0.763-2.649,2.026-3.587c1.249-0.93,2.876-1.412,4.603-1.379c1.719,0.041,3.321,0.605,4.51,1.592
					c1.201,0.996,1.839,2.303,1.795,3.677C947.082-72.529,946.727-71.614,946.083-70.828z"/>
			</g>
			<g>
				<polygon points="935.126,-56.929 934.298,-57.411 945.466,-71.591 946.294,-71.109 				"/>
			</g>
		</g>
		<g>
			<rect x="934.31" y="-57.434" width="12.804" height="0.859"/>
		</g>
	</g>
	<g>
		<g>
			<rect x="950.637" y="-78.479" width="13.815" height="1"/>
		</g>
		<polygon points="963.533,-77.931 952.525,-56.575 953.677,-56.575 964.447,-77.468 		"/>
	</g>
</g>
<g>
	<path fill="#FFFFFF" d="M997.885-80.415c-0.438,0.38-0.713,0.922-0.713,1.527v16.122c0,0.499,0.188,0.957,0.498,1.316l11.539-9.572
		L997.885-80.415z"/>
	<path fill="#FFFFFF" d="M1031.331-78.769c0-0.585-0.256-1.113-0.664-1.489l-11.121,9.343l11.305,9.495
		c0.299-0.354,0.48-0.806,0.48-1.299V-78.769z"/>
	<path fill="#FFFFFF" d="M1018.905-70.367l-2.211,1.823c-0.686,0.435-1.49,0.689-2.357,0.689c-0.838,0-1.619-0.24-2.289-0.648
		l-2.289-1.885l-11.549,9.515c0.404,0.462,1.018,0.758,1.705,0.758h28.785c0.693,0,1.313-0.301,1.715-0.77L1018.905-70.367z"/>
	<path fill="#FFFFFF" d="M1028.688-81.54h-28.787c-0.576,0-1.098,0.209-1.49,0.549l12.537,10.328l1.02,0.842
		c0.686,0.413,1.486,0.656,2.346,0.656c0.918,0,1.771-0.275,2.486-0.744l0.766-0.631l12.65-10.421
		C1029.819-81.318,1029.28-81.54,1028.688-81.54z"/>
</g>
<text transform="matrix(1 0 0 1 937.3032 -37.439)" fill="#FFFFFF" font-family="'AdobeFanHeitiStd-Bold-B5pc-H'" font-size="8">行事曆</text>
<text transform="matrix(1 0 0 1 1006.395 -37.439)" fill="#FFFFFF" font-family="'AdobeFanHeitiStd-Bold-B5pc-H'" font-size="8">郵件</text>
<g>
	<path fill="#FFFFFF" d="M1103.516-57.046c0,5.938-4.814,10.752-10.754,10.752h-26.684c-5.938,0-10.752-4.814-10.752-10.752v-26.683
		c0-5.938,4.814-10.753,10.752-10.753h26.684c5.939,0,10.754,4.814,10.754,10.753V-57.046z"/>
	
		<radialGradient id="SVGID_25_" cx="1085.4302" cy="-61.3291" r="22.9708" fx="1084.2401" fy="-62.9874" gradientTransform="matrix(-0.7337 -0.7312 1.0688 -0.9103 1945.3359 676.5037)" gradientUnits="userSpaceOnUse">
		<stop  offset="0.0317" style="stop-color:#47A4DC"/>
		<stop  offset="0.2063" style="stop-color:#60A0D6"/>
		<stop  offset="0.3439" style="stop-color:#7163A1"/>
		<stop  offset="0.5185" style="stop-color:#7E69AD"/>
		<stop  offset="0.6614" style="stop-color:#AC70A6"/>
		<stop  offset="0.9312" style="stop-color:#EA596E"/>
	</radialGradient>
	<path fill="url(#SVGID_25_)" d="M1089.425-85.779l-17.491,2.573c-0.353,0-0.638,0.162-0.638,0.36v3.381v2.26v14.922l0,0
		c0,0.531-0.006,0.656-1.507,0.666c-0.172-0.016-0.347-0.024-0.522-0.024c-2.469,0-4.472,1.487-4.472,3.322
		c0,1.834,2.003,3.321,4.472,3.321c2.467,0,4.466-1.487,4.466-3.321v-18.526l13.894-2.573v14.873
		c-0.065,0.273-0.341,0.349-1.505,0.354c-0.175-0.014-0.349-0.023-0.526-0.023c-2.469,0-4.47,1.488-4.47,3.323
		c0,1.833,2.001,3.321,4.47,3.321c2.467,0,4.468-1.488,4.468-3.321v-18.886v-2.259v-3.382
		C1090.063-85.618,1089.776-85.779,1089.425-85.779z"/>
</g>
<text transform="matrix(1 0 0 1 1072.3618 -37.439)" fill="#FFFFFF" font-family="'AdobeFanHeitiStd-Bold-B5pc-H'" font-size="8">音樂</text>
<g>
	<circle fill="#A49590" cx="174.361" cy="45.354" r="42.52"/>
	<path fill="#FFFFFF" d="M179.261,31.348c0.808-0.703,3.004-0.867,7.901-0.904l0.001-9.741
		c-18.035,0.327-19.132,3.126-19.481,19.082H158.6v9.764h9.642v28.067h10.171V49.548h7.084l2.558-9.764h-9.642v-3.442
		C178.521,33.773,178.754,31.791,179.261,31.348z"/>
</g>
<g>
	<circle fill="#FFFFFF" cx="171.785" cy="183.62" r="42.52"/>
	<path fill="#A2938F" d="M176.684,169.613c0.808-0.703,3.004-0.867,7.901-0.904l0.001-9.741
		c-18.035,0.327-19.132,3.126-19.481,19.082h-9.082v9.764h9.642v28.067h10.171v-28.067h7.084l2.558-9.764h-9.642v-3.442
		C175.944,172.039,176.177,170.057,176.684,169.613z"/>
</g>
<g>
	<circle fill="#A49590" cx="-90.367" cy="45.354" r="42.52"/>
	<g id="XMLID_1_">
		<g>
			<path fill="#FFFFFF" d="M-96.343,68.676c-3.946,0.142-12.912-0.513-18.206-4.785c2.646,0.186,4.786,0.282,6.272-0.275
				c1.672-0.282,7.011-1.954,9.333-4.184c-0.65-0.044-2.832-0.416-4.645-1.3c-1.813-0.881-3.671-2.367-5.388-6.269
				c1.858,0.234,3.574,0.186,4.786-0.093c-1.583-0.602-8.085-2.88-8.501-10.73c0.973,0.605,2.879,1.672,4.689,1.3
				c-0.602-0.646-7.569-6.546-3.158-14.305c1.349,1.583,9.385,10.961,22.178,11.103c0,0-1.23-7.662,5.387-11.727
				c6.618-4.064,13.146,1.672,13.004,1.973c0.65-0.048,6.387-1.694,6.9-2.578c-0.743,1.857-1.884,3.786-4.6,5.9
				c0.364-0.282,1.665-0.271,2.147-0.375c1.367-0.298,2.649-0.759,3.953-1.271c-0.111,0.152-2.653,3.615-5.335,5.499
				c-0.044,1.605-0.067,12.752-7.36,21.483C-82.18,66.773-92.397,68.535-96.343,68.676z"/>
		</g>
		<g>
		</g>
	</g>
</g>
<g>
	<circle fill="#FFFFFF" cx="-92.196" cy="172.231" r="42.52"/>
	<g id="XMLID_2_">
		<g>
			<path fill="#A2938F" d="M-64.019,157.937c-0.111,0.152-2.653,3.615-5.335,5.499c-0.044,1.605-0.067,12.752-7.36,21.483
				c-7.294,8.731-17.512,10.493-21.458,10.634c-3.946,0.142-12.912-0.513-18.206-4.785c2.646,0.186,4.786,0.282,6.272-0.275
				c1.672-0.282,7.011-1.954,9.333-4.184c-0.65-0.044-2.832-0.416-4.645-1.3c-1.813-0.881-3.671-2.367-5.388-6.269
				c1.858,0.234,3.574,0.186,4.786-0.093c-1.583-0.602-8.085-2.88-8.501-10.73c0.973,0.605,2.879,1.672,4.689,1.3
				c-0.602-0.646-7.569-6.546-3.158-14.305c1.349,1.583,9.385,10.961,22.178,11.103c0,0-1.23-7.662,5.387-11.727
				c6.618-4.064,13.146,1.672,13.004,1.973c0.65-0.048,6.387-1.694,6.9-2.578c-0.743,1.857-1.884,3.786-4.6,5.9
				c0.364-0.282,1.665-0.271,2.147-0.375C-66.604,158.91-65.323,158.449-64.019,157.937z"/>
		</g>
		<g>
		</g>
	</g>
</g>
</svg>
