<?xml version="1.0" encoding="utf-8"?>
<!-- Generator: Adobe Illustrator 24.0.1, SVG Export Plug-In . SVG Version: 6.00 Build 0)  -->
<svg version="1.1" id="圖層_1" xmlns="http://www.w3.org/2000/svg" xmlns:xlink="http://www.w3.org/1999/xlink" x="0px" y="0px"
	 viewBox="0 0 50 50" style="enable-background:new 0 0 50 50;" xml:space="preserve">
<style type="text/css">
	.st0{fill:none;stroke:#BFA099;stroke-width:5;stroke-linecap:round;stroke-miterlimit:10;}
	.st1{fill:#BFA099;}
	.st2{fill:#443936;}
	.st3{fill:none;stroke:#443936;stroke-width:5;stroke-linecap:round;stroke-miterlimit:10;}
</style>
<g>
	<line class="st0" x1="86" y1="28.3" x2="71.3" y2="43.4"/>
	<line class="st0" x1="86" y1="58.4" x2="71.3" y2="43.4"/>
</g>
<path class="st1" d="M100.5-1.2c0-0.1,0.1-0.1,0.1-0.2c0-0.1,0.1-0.2,0.1-0.2c0-0.1,0-0.1,0.1-0.2c0-0.1,0-0.2,0-0.2
	c0-0.1,0-0.2,0-0.2c0-0.1,0-0.2,0-0.2c0-0.1,0-0.2,0-0.2c0-0.1,0-0.1-0.1-0.2c0-0.1,0-0.2-0.1-0.2c0-0.1-0.1-0.1-0.1-0.2
	c0-0.1-0.1-0.2-0.1-0.2c0-0.1-0.1-0.1-0.1-0.2c-0.1-0.1-0.1-0.1-0.1-0.2L85.4-19.2c-1-1-2.5-1-3.5,0c-1,1-1,2.5,0,3.5l13,13.3
	l-13,13.3c-1,1-0.9,2.6,0,3.5c0.5,0.5,1.1,0.7,1.7,0.7c0.6,0,1.3-0.3,1.8-0.8l14.7-15.1c0.1-0.1,0.1-0.1,0.1-0.2
	c0.1-0.1,0.1-0.1,0.2-0.2C100.5-1.1,100.5-1.2,100.5-1.2z"/>
<path class="st2" d="M13.2,26.1c0-0.1-0.1-0.1-0.1-0.2c0-0.1-0.1-0.2-0.1-0.2c0-0.1,0-0.1-0.1-0.2c0-0.1,0-0.2,0-0.2
	c0-0.1,0-0.2,0-0.2c0-0.1,0-0.2,0-0.2c0-0.1,0-0.2,0-0.2c0-0.1,0-0.1,0.1-0.2c0-0.1,0-0.2,0.1-0.2c0-0.1,0.1-0.1,0.1-0.2
	c0-0.1,0.1-0.2,0.1-0.2c0-0.1,0.1-0.1,0.1-0.2c0.1-0.1,0.1-0.1,0.1-0.2L28.3,8.2c1-1,2.5-1,3.5,0c1,1,1,2.5,0,3.5L18.9,25l13,13.3
	c1,1,0.9,2.6,0,3.5c-0.5,0.5-1.1,0.7-1.7,0.7c-0.6,0-1.3-0.3-1.8-0.8L13.6,26.7c-0.1-0.1-0.1-0.1-0.1-0.2c-0.1-0.1-0.1-0.1-0.2-0.2
	C13.3,26.3,13.2,26.2,13.2,26.1z"/>
<g>
	<line class="st0" x1="-20.3" y1="48" x2="-35" y2="63"/>
	<line class="st0" x1="-20.3" y1="78.1" x2="-35" y2="63"/>
</g>
<g>
	<line class="st3" x1="-23" y1="15.2" x2="-37.7" y2="30.3"/>
	<line class="st3" x1="-23" y1="45.3" x2="-37.7" y2="30.3"/>
</g>
</svg>
