<?xml version="1.0" encoding="utf-8"?>
<!-- Generator: Adobe Illustrator 24.0.1, SVG Export Plug-In . SVG Version: 6.00 Build 0)  -->
<svg version="1.1" id="圖層_1" xmlns="http://www.w3.org/2000/svg" xmlns:xlink="http://www.w3.org/1999/xlink" x="0px" y="0px"
	 viewBox="0 0 380 190" style="enable-background:new 0 0 380 190;" xml:space="preserve">
<style type="text/css">
	.st0{fill:#F4F1E7;}
	.st1{fill:#F9F8F7;}
	.st2{fill:#D9D2C5;}
	.st3{fill:#D7D1C5;}
	.st4{fill:#714D22;}
	.st5{fill:#724F23;}
	.st6{fill:#6F4D22;}
	.st7{fill:#744D22;}
	.st8{fill:#714C22;}
</style>
<g>
	<path class="st0" d="M277.28,81.6c0.51,6.61,2.72,13.03,5.76,18.88c1.46,2.79,3.25,5.39,5.09,7.94c2.02,2.79,4.99,5.38,4.64,9.13
		c-0.57,6.09-6.39,12.14-10.8,15.88c-2.07,1.76-4.34,3.27-6.77,4.46c-1.21,0.6-2.45,1.11-3.72,1.55c-0.81,0.28-2.94,0.5-3.36,1.4
		c-0.58,1.24,4.07,1.16,4.7,1.13c1.98-0.09,3.92-0.52,5.8-1.15c4.99-1.67,10.06-3.75,14.74-6.18c3.77-1.96,8.56-4.52,10.51-8.59
		c4.21-8.79,3.96-11.43,3.96-11.43l-12.85-13.5l-14.3-19.52l-1.41-4.68l-2.22,1.51C277.04,78.43,277.28,81.59,277.28,81.6z"/>
	<path class="st1" d="M106.82,99.9c0,0,2.29,24.56,7.35,31.58c5.06,7.02,24.27,30.47,50.13,33.28s47.81,5.13,66.59-5.13
		c18.78-10.26,45.25-35.06,45.86-57.05c0.33-11.83-0.3-17.87-0.3-17.87s-3.14-23.04-3.41-22.96c-0.25,4.21-1.95,21.25-24.21,32.3
		s-60.37,21.86-60.37,21.86l-46.84,0.24l-23.79-6.84L106.82,99.9z"/>
	<path class="st1" d="M272.25,55.6c1.02,5.38,1.02,12.12-2.34,17.77c-10.09,16.95-39.46,32.45-74.43,39.07
		c-32.5,6.15-61.21,6.64-77.66-3.12c-7.15-4.24-11.59-10.22-12.83-16.75c-1.02-5.38-1.99-15.35,1.4-20.83
		c10.17-16.42,39.39-30.68,74.36-37.3c39.68-7.51,77.15-0.22,89.4,15.12C272.29,52.24,271.64,52.39,272.25,55.6z"/>
	<g>
		<path class="st2" d="M272.67,83.43c-0.32-1.74-3.9,4.78-7.45,8.57c-23.79,25.37-62.38,34.46-95.28,34.58
			c-3.5,0.01-8.51-1.28-11.83-0.44c-2.48,0.63-3.15,2.05-3.28,5.25c-0.22,5.48,2.88,11.12,5.45,15.69
			c4.52,8.06,13.25,14.31,22.11,17.55c0.58,0.21,1.74,0.33,2.22,0.68c0.94,0.69,2.16,1.09,2.95,1.13c13.5,0.72,27.38-3.23,39.6-9.04
			c11.99-5.71,25.81-13.01,33.59-24.58c7.68-11.43,11.97-25.68,12.06-41.61C272.82,88.73,273.36,87.21,272.67,83.43z"/>
		<g>
			<g>
				<path class="st3" d="M250.76,48.39c-0.55-2.61-2.64-4.38-4.6-5.52c-3.23-1.86-6.81-2.81-10.35-3.45
					c-11.03-2-22.4-1.51-33.48-0.32c-13.82,1.49-27.57,4.32-40.99,8.44c-5.86,1.8-11.68,3.88-17.37,6.32
					c-4.7,2.02-9.35,4.28-13.76,7.05c-3.36,2.11-6.72,4.45-9.49,7.54c-1.72,1.93-3.37,4.33-3.52,7.2c-0.03,0.51,0.01,1.02,0.11,1.52
					c0.09,0.45,0.83,0.53,1.09,0.56c0.72,0.06,1.56-0.1,2.25-0.33c0.72-0.24,1.48-0.51,2.09-1.02c0.29-0.24,0.81-0.62,0.71-1.11
					c-0.1-0.5-0.14-1.01-0.11-1.52c0.01-0.11,0.07-0.53,0-0.09c0.02-0.12,0.03-0.25,0.06-0.37c0.05-0.28,0.12-0.56,0.2-0.83
					c0.17-0.56,0.39-1.1,0.66-1.61c0.14-0.27,0.29-0.52,0.44-0.78c0.04-0.07,0.08-0.13,0.12-0.2c0.11-0.2-0.26,0.38-0.07,0.1
					c0.11-0.16,0.22-0.32,0.33-0.47c0.43-0.59,0.89-1.14,1.37-1.67c0.25-0.27,0.51-0.54,0.77-0.8c0.14-0.14,0.27-0.27,0.41-0.4
					c0.16-0.16,0.64-0.76,0.18-0.18c0.51-0.65,1.34-1.16,1.97-1.66c0.74-0.58,1.49-1.13,2.26-1.66c0.4-0.28,0.8-0.53,1.2-0.81
					c-0.73,0.51-0.01,0.01,0.17-0.11c0.26-0.16,0.51-0.32,0.77-0.48c0.95-0.59,1.91-1.15,2.88-1.69c1.04-0.58,2.08-1.13,3.14-1.67
					c0.26-0.13,0.52-0.26,0.78-0.39c0.07-0.04,0.61-0.3,0.12-0.06c-0.49,0.24,0.05-0.03,0.13-0.06c0.6-0.29,1.2-0.58,1.81-0.86
					c2.47-1.14,4.96-2.19,7.48-3.18c0.63-0.25,1.27-0.49,1.9-0.73c0.32-0.12,0.65-0.24,0.97-0.36c0.19-0.07,0.58-0.16-0.22,0.08
					c0.23-0.07,0.46-0.17,0.69-0.25c1.38-0.5,2.76-0.97,4.15-1.43c2.99-0.99,5.99-1.9,9.01-2.74c0.75-0.21,1.49-0.41,2.24-0.61
					c0.38-0.1,0.75-0.2,1.13-0.3c0.23-0.06,0.46-0.12,0.68-0.18c0.66-0.17-0.63,0.16,0.09-0.02c1.63-0.41,3.25-0.8,4.88-1.17
					c3.37-0.77,6.76-1.46,10.15-2.07c1.63-0.29,3.27-0.57,4.9-0.82c0.78-0.12,1.57-0.24,2.36-0.35c0.48-0.07-0.7,0.1,0.06-0.01
					c0.19-0.03,0.39-0.05,0.58-0.08c0.42-0.06,0.85-0.12,1.28-0.17c6.06-0.79,12.14-1.31,18.24-1.44c0.33-0.01,0.67-0.01,1-0.02
					c0.65-0.01-0.38,0,0.03,0c0.16,0,0.33,0,0.49,0c0.71,0,1.42,0,2.13,0.01c1.3,0.02,2.6,0.05,3.91,0.11
					c2.35,0.11,4.7,0.3,7.04,0.6c0.52,0.07,1.04,0.14,1.55,0.22c0.13,0.02,0.25,0.04,0.38,0.06c0.03,0,0.52,0.08,0.18,0.03
					c-0.34-0.06,0.15,0.03,0.18,0.03c0.15,0.03,0.29,0.05,0.44,0.08c0.97,0.18,1.95,0.38,2.91,0.62c1.67,0.41,3.33,0.92,4.93,1.62
					c0.17,0.07,0.34,0.15,0.5,0.23c0.09,0.04,0.65,0.32,0.2,0.09c0.33,0.17,0.67,0.35,0.99,0.54c0.57,0.33,1.12,0.7,1.63,1.12
					c0.45,0.36,0.87,0.76,1.25,1.21c0.18,0.21,0.34,0.43,0.5,0.66c0.05,0.06,0.12,0.21-0.06-0.09c0.04,0.07,0.08,0.13,0.12,0.2
					c0.07,0.12,0.14,0.24,0.2,0.37c0.22,0.45,0.39,0.93,0.5,1.44c0.1,0.45,0.82,0.53,1.09,0.56c0.72,0.06,1.56-0.1,2.25-0.33
					c0.72-0.24,1.48-0.51,2.09-1.02C250.34,49.27,250.86,48.88,250.76,48.39L250.76,48.39z"/>
			</g>
			<g>
				<path class="st3" d="M239.03,55.3c-0.49-2.3-2.33-3.75-4.04-4.76c-2.6-1.52-5.58-2.24-8.43-2.77c-4-0.73-8.07-0.97-12.12-1.01
					c-4.98-0.05-9.95,0.29-14.91,0.81c-10.89,1.16-21.74,3.42-32.31,6.67c-8.57,2.64-17.2,5.9-25.03,10.8
					c-2.77,1.73-5.46,3.72-7.72,6.27c-1.32,1.49-2.67,3.45-2.8,5.66c-0.03,0.54-0.03,1.06,0.08,1.58c0.11,0.53,0.78,0.73,1.15,0.79
					c0.71,0.13,1.59,0,2.28-0.23c0.72-0.24,1.5-0.55,2.07-1.12c0.33-0.33,0.77-0.78,0.65-1.35c-0.08-0.38-0.11-0.76-0.09-1.15
					c-0.01,0.15-0.01,0.29-0.02,0.44c0.04-0.87,0.31-1.62,0.63-2.39c0.1-0.25-0.15,0.3-0.14,0.27c0.04-0.06,0.06-0.12,0.1-0.18
					c0.05-0.09,0.1-0.19,0.15-0.28c0.13-0.22,0.27-0.44,0.41-0.65c0.3-0.44,0.63-0.86,0.97-1.26c0.04-0.04,0.07-0.08,0.11-0.13
					c0.24-0.28-0.4,0.43-0.21,0.23c0.09-0.09,0.18-0.19,0.27-0.29c0.22-0.23,0.44-0.45,0.67-0.67c0.47-0.45,0.95-0.87,1.44-1.28
					c0.25-0.21,0.51-0.41,0.76-0.61c0.06-0.04,0.11-0.09,0.17-0.13c0.36-0.29-0.6,0.45-0.23,0.17c0.15-0.11,0.29-0.22,0.44-0.32
					c0.62-0.45,1.24-0.87,1.88-1.29c0.68-0.44,1.38-0.87,2.08-1.28c0.35-0.21,0.7-0.41,1.05-0.61c0.17-0.1,0.34-0.19,0.51-0.29
					c0.48-0.26-0.72,0.39-0.23,0.13c0.12-0.06,0.24-0.13,0.35-0.19c1.65-0.88,3.33-1.69,5.03-2.46c1.87-0.84,3.76-1.62,5.67-2.36
					c0.59-0.23-0.79,0.3-0.2,0.08c0.1-0.04,0.2-0.08,0.31-0.12c0.26-0.1,0.51-0.19,0.77-0.29c0.52-0.19,1.04-0.38,1.57-0.57
					c1.07-0.38,2.15-0.75,3.23-1.1c2.27-0.74,4.55-1.43,6.84-2.07c1.16-0.32,2.33-0.63,3.5-0.93c0.58-0.15,1.16-0.29,1.74-0.43
					c0.09-0.02,0.71-0.17,0.14-0.03c-0.58,0.14,0.05-0.01,0.14-0.03c0.31-0.07,0.62-0.15,0.93-0.22c5.04-1.16,10.12-2.11,15.23-2.81
					c1.22-0.17,2.43-0.32,3.65-0.46c0.54-0.06,1.07-0.12,1.61-0.17c0.15-0.02,0.3-0.03,0.44-0.04c0.42-0.04-0.77,0.07-0.15,0.01
					c0.32-0.03,0.64-0.06,0.97-0.09c2.22-0.2,4.45-0.34,6.68-0.42c2.08-0.07,4.16-0.1,6.24-0.04c0.97,0.02,1.93,0.06,2.9,0.12
					c0.09,0.01,0.19,0.01,0.28,0.02c-0.77-0.04-0.37-0.02-0.19-0.01c0.21,0.01,0.41,0.03,0.62,0.05c0.49,0.04,0.98,0.08,1.48,0.13
					c1.6,0.16,3.2,0.38,4.79,0.69c0.73,0.14,1.45,0.3,2.17,0.49c0.17,0.04,0.34,0.09,0.51,0.14c0.54,0.15-0.5-0.15,0.04,0.01
					c0.32,0.1,0.63,0.19,0.95,0.3c1.1,0.38,2.19,0.83,3.21,1.43c0.2,0.12,0.39,0.25,0.59,0.37c-0.57-0.33-0.16-0.11-0.03-0.01
					c0.11,0.08,0.21,0.16,0.31,0.24c0.35,0.28,0.68,0.59,0.98,0.93c0.26,0.3,0.5,0.63,0.7,0.99c-0.07-0.12-0.14-0.25-0.2-0.37
					c0.22,0.41,0.39,0.86,0.49,1.33c0.11,0.53,0.78,0.72,1.15,0.79c0.71,0.13,1.59,0,2.28-0.23c0.72-0.24,1.5-0.55,2.07-1.12
					C238.7,56.33,239.15,55.87,239.03,55.3L239.03,55.3z"/>
			</g>
			<g>
				<g>
					<path class="st4" d="M311.1,91.83c-0.15,0-0.29-0.06-0.4-0.17c-0.12-0.11-0.19-0.26-0.21-0.44c-0.03-0.19,0.02-0.35,0.13-0.48
						s0.26-0.22,0.44-0.24c0.21-0.02,2.14-0.22,5.78-0.6c3.64-0.38,8.1-0.81,13.38-1.31c1.33-8.86,2.12-14.1,2.38-15.72
						c0.03-0.12,0.05-0.2,0.05-0.23c0.04-0.18,0.12-0.33,0.26-0.43c0.14-0.1,0.3-0.14,0.48-0.1c0.18,0.04,0.32,0.12,0.42,0.27
						c0.1,0.14,0.15,0.3,0.15,0.49c-0.77,4.87-1.57,10.08-2.42,15.63c1.82-0.2,3.66-0.38,5.51-0.54c3.79-0.36,7.08-0.65,9.87-0.88
						c2.79-0.23,5.15-0.41,7.07-0.54c1.93-0.13,3.51-0.22,4.75-0.26c1.24-0.04,2.22-0.05,2.93-0.03s1.22,0.06,1.54,0.13
						c0.32,0.07,0.51,0.16,0.58,0.27c0.07,0.11,0.12,0.24,0.15,0.4c0.05,0.37-0.15,0.67-0.59,0.88c-0.44,0.22-1.09,0.42-1.95,0.62
						c-0.18,0.03-0.35,0-0.5-0.08c-0.15-0.08-0.25-0.21-0.31-0.4c-0.03-0.19-0.01-0.35,0.06-0.51c-2.57,0.08-6.52,0.34-11.82,0.76
						c-5.31,0.42-11.13,0.93-17.47,1.52c-2.25,14.99-4.19,29.07-5.82,42.24c-1.63,13.17-2.23,21.07-1.82,23.7
						c0.18,0.01,0.33,0.1,0.45,0.29c0.12,0.16,0.16,0.32,0.12,0.49c-0.03,0.17-0.13,0.31-0.28,0.43c-0.19,0.15-0.37,0.22-0.55,0.22
						c-0.15,0-0.3-0.05-0.45-0.15c-0.09-0.06-0.18-0.17-0.29-0.31c-0.1-0.14-0.19-0.41-0.27-0.79c-0.08-0.39-0.13-0.98-0.16-1.78
						c-0.02-0.8,0-1.89,0.07-3.25c0.07-1.37,0.19-3.1,0.37-5.18c0.18-2.09,0.43-4.62,0.75-7.6c0.32-2.98,0.74-6.47,1.26-10.47
						s1.13-8.61,1.85-13.82c1.2-8.68,2.34-16.63,3.41-23.87c-6.68,0.65-12.94,1.27-18.8,1.88L311.1,91.83z"/>
					<g>
						<path class="st4" d="M312.71,90.1c-0.13-0.06-0.27-0.12-0.4-0.17c0.37,0.33,0.74,0.66,1.12,0.99
							c-0.02-0.15-0.04-0.3-0.07-0.45c-0.53,0.57-1.06,1.14-1.59,1.7c-0.89,0.49-1.15,0.15-0.23,0.07c0.45-0.04,0.89-0.09,1.34-0.14
							c1.77-0.18,3.55-0.37,5.32-0.55c3.9-0.4,7.81-0.77,11.72-1.14c1.12-0.11,2.85-0.79,3.04-2.1c0.54-3.61,1.08-7.23,1.63-10.84
							c0.21-1.42,0.15-3.84,0.89-5.06c-0.71,0.49-1.42,0.99-2.13,1.48c0.16-0.03,0.32-0.07,0.48-0.1c-0.86-0.07-1.72-0.14-2.58-0.2
							c0.14,0.09-1.13,6.4-1.23,7.08c-0.42,2.69-0.83,5.38-1.24,8.07c-0.2,1.32,1.53,1.67,2.46,1.58
							c5.57-0.59,11.15-1.08,16.74-1.53c2.55-0.21,5.09-0.4,7.65-0.56c1.09-0.06,2.18-0.12,3.26-0.15c0.6-0.02,1.19-0.04,1.79-0.02
							c0.21,0.01,0.43,0.02,0.64,0.03c0.78,0.13,0.69,0.02-0.25-0.31c0.33-0.45,0.66-0.9,0.98-1.36c-0.39,0.18-0.45,0.24-0.17,0.17
							c0.51,0.23,1.02,0.45,1.52,0.68c0,0-0.01,0-0.01,0c0.16-1.36-1.49-1.61-2.46-1.58c-9.78,0.34-19.56,1.37-29.3,2.28
							c-1.12,0.1-2.85,0.79-3.04,2.1c-2.07,13.78-4,27.59-5.72,41.42c-0.71,5.71-1.4,11.44-1.82,17.19
							c-0.13,1.75-0.24,3.51-0.23,5.27c0.01,0.63-0.02,1.29,0.07,1.91c0.03,0.17,0,0.38,0.06,0.55c0.02,0.19,0.09,0.37,0.23,0.52
							c0.44,0.5,0.51,0.44,0.21-0.18c0.47-0.41,0.95-0.82,1.42-1.22c-0.18,0.07-0.37,0.14-0.55,0.22c0.92-0.09,1.85-0.19,2.77-0.28
							c0.44,0.15,0.12-0.11,0.04-0.72c-0.08-0.54-0.07-1.1-0.07-1.65c-0.01-1.13,0.06-2.26,0.12-3.38c0.15-2.58,0.38-5.15,0.64-7.71
							c0.55-5.6,1.24-11.19,1.97-16.77c1.55-11.85,3.23-23.69,4.98-35.51c0.2-1.32-1.52-1.67-2.46-1.58
							c-3.24,0.31-6.47,0.63-9.71,0.95c-2.73,0.27-5.77,0.99-8.49,0.92c-1.22-0.03-3,0.36-3.57,1.62c-0.52,1.16,0.46,2.03,1.59,2.06
							c2.97,0.08,6.07-0.55,9.03-0.84c3.52-0.35,7.04-0.7,10.56-1.04c-0.82-0.53-1.64-1.05-2.46-1.58
							c-1.6,10.8-3.13,21.61-4.57,32.44c-1.29,9.7-2.73,19.49-3.1,29.29c-0.12,3.33-0.15,8.34,4.69,6.81
							c1.72-0.54,3.41-1.96,2.42-3.87c-0.39-0.76-0.22,0.33-0.3-0.51c-0.05-0.49-0.03-0.98-0.03-1.47
							c0.06-8.43,1.41-16.91,2.46-25.25c1.61-12.72,3.4-25.42,5.3-38.1c-1.01,0.7-2.03,1.4-3.04,2.1c9.74-0.91,19.52-1.94,29.3-2.28
							c-0.82-0.53-1.64-1.05-2.46-1.58c-0.5,4.31,6.91,2.35,8.34,0.18c2.62-3.97-4.99-3.62-6.77-3.56
							c-9.22,0.27-18.48,1.27-27.65,2.24c0.82,0.53,1.64,1.05,2.46,1.58c0.71-4.67,1.43-9.33,2.16-13.99
							c0.26-1.68,0.5-3.24-1.45-3.86c-1.56-0.49-3.78,0.24-4.67,1.61c-0.94,1.44-0.9,3.85-1.15,5.51
							c-0.57,3.79-1.14,7.57-1.71,11.36c1.01-0.7,2.03-1.4,3.04-2.1c-5.58,0.53-11.17,1.08-16.75,1.66
							c-1.46,0.15-2.99,0.16-4.3,0.89c-2.11,1.18-2.21,3.3,0.04,4.27C311.56,94.44,315.83,91.44,312.71,90.1z"/>
					</g>
				</g>
				<g>
					<path class="st4" d="M122.68,105.17c-1.13-0.36-1.95-1.37-2.46-3.04c-0.51-1.67-0.35-4.13,0.46-7.38
						c1.42-5.05,3.67-8.12,6.73-9.19c1.36-0.44,2.64-0.52,3.82-0.24c1.19,0.28,2.17,0.63,2.94,1.05c0.77,0.42,1.19,0.68,1.25,0.76
						c0.22,0.2,0.34,0.42,0.36,0.67c0.02,0.25-0.04,0.51-0.18,0.77c-0.19,0.22-0.41,0.36-0.66,0.4c-0.25,0.05-0.5-0.02-0.77-0.21
						l-0.08-0.06c-0.04,0.01-0.07-0.01-0.08-0.06l-0.32-0.22c-0.36-0.22-0.85-0.45-1.45-0.69c-0.6-0.24-1.26-0.41-1.97-0.49
						s-1.46,0-2.26,0.23c-2.36,0.85-4.15,3.46-5.37,7.82c-1.09,4.85-0.85,7.51,0.72,7.98c1.05,0.42,2.59-0.37,4.63-2.36
						c2.04-1.99,4.18-5.45,6.41-10.37c0.21-0.41,0.52-0.61,0.94-0.59c0.42,0.02,0.71,0.22,0.88,0.62c0.28,0.79,0.75,1.83,1.42,3.09
						c0.67,1.27,1.44,2.41,2.31,3.42c0.88,1.02,1.81,1.55,2.79,1.61c0.42,0.02,0.97-0.24,1.64-0.76c0.67-0.52,1.42-1.54,2.24-3.05
						c0.82-1.51,1.69-3.76,2.6-6.75c0.09-0.25,0.27-0.45,0.52-0.59c0.25-0.14,0.51-0.16,0.75-0.07c0.29,0.09,0.5,0.25,0.61,0.49
						c0.11,0.24,0.14,0.48,0.09,0.72c-2.39,7.96-5.19,11.97-8.38,12.03c-1.78-0.1-3.31-0.95-4.6-2.55c-1.28-1.6-2.27-3.18-2.97-4.75
						c-4.08,7.37-7.62,11.33-10.64,11.88C123.94,105.43,123.28,105.39,122.68,105.17z"/>
					<g>
						<path class="st4" d="M123.88,103.81c-1.97-0.76-1.96-3.91-1.79-5.63c0.26-2.55,0.96-5.08,2.11-7.36
							c0.77-1.52,1.87-3.16,3.49-3.85c1.26-0.54,2.52-0.33,3.77,0.1c0.55,0.19,1.05,0.42,1.55,0.7c0.2,0.11,0.39,0.23,0.59,0.34
							c0.21,0.22,0.37,0.12,0.46-0.3c0.54-0.1,1.08-0.19,1.61-0.29c0.17,0.01-0.06,0-0.22-0.15c-0.32-0.28-0.8-0.46-1.19-0.63
							c-1.16-0.54-2.4-0.9-3.68-0.97c-2.31-0.12-4.5,0.74-6.17,2.34c-3.19,3.07-4.76,8.67-4.46,13.03c0.32,4.53,4.86,4.23,7.78,2.09
							c1.86-1.36,3.34-3.14,4.63-5.05c0.71-1.06,1.37-2.17,1.98-3.29c0.35-0.65,0.69-1.3,1.01-1.96c0.22-0.44,0.57-1.77,0.98-2.02
							c-0.51,0.19-1.03,0.38-1.54,0.56c-0.5-0.13-0.6,0-0.3,0.39c0.12,0.29,0.25,0.57,0.38,0.85c0.25,0.53,0.51,1.06,0.78,1.58
							c0.61,1.16,1.29,2.29,2.13,3.3c1.39,1.69,3.37,2.98,5.62,2.44c4.12-0.99,5.97-6.14,7.17-9.72c0.13-0.39,0.67-1.37,0.57-1.76
							c-1.37-0.4-2.1-0.05-2.2,1.04c-0.11,0.35-0.23,0.71-0.35,1.06c-0.38,1.11-0.79,2.2-1.27,3.27c-0.69,1.57-1.49,3.2-2.7,4.44
							c-0.88,0.9-1.13,1.09-2.28,0.66c-2.34-0.88-4.02-4-5.01-6.14c-0.73-1.58-3.28-0.94-3.99,0.35c-1.56,2.8-3.22,5.58-5.34,7.99
							C127.01,102.34,125.38,104.25,123.88,103.81c-0.97-0.28-2.22-0.02-2.89,0.78c-0.58,0.7-0.43,1.66,0.51,1.93
							c7.49,2.15,12.8-7.6,15.75-12.89c-1.33,0.12-2.66,0.23-3.99,0.35c2.03,4.38,5.84,9.66,11.32,7.83c4.02-1.34,6.1-5.8,7.48-9.51
							c0.78-2.08,2.57-5.67-0.79-6.28c-1.21-0.22-2.68,0.24-3.5,1.2c-0.95,1.12-1.17,3.03-1.69,4.4c-0.39,1.04-0.82,2.07-1.35,3.05
							c-0.32,0.59-0.65,1.17-1.05,1.7c-0.15,0.2-0.33,0.37-0.48,0.57c-0.09,0.09-0.19,0.17-0.3,0.24c-0.33,0.21-0.25,0.21,0.26-0.01
							c-0.45-0.5-1.13-0.81-1.6-1.37c-0.44-0.52-0.83-1.09-1.2-1.66c-0.84-1.31-1.39-2.72-2.05-4.12c-1.24-2.64-4.82-1.51-5.94,0.6
							c-1.34,2.53-2.44,5.14-4.13,7.47c-0.64,0.89-1.35,1.74-2.15,2.48c-0.48,0.45-0.99,0.81-1.51,1.19
							c-0.38,0.27-0.18,0.01,0.06,0.19c-1.18-0.89-0.43-3.99-0.22-5.18c0.44-2.48,1.29-5.49,3.17-7.29c1.5-1.44,3.35-0.56,4.91,0.35
							c1.85,1.08,5.62,0.42,5.37-2.41c-0.18-2-3.36-2.94-4.92-3.35c-5.97-1.58-10.94,2.19-13.2,7.57
							c-1.74,4.16-3.93,12.68,1.76,14.87C123.16,107.17,126.28,104.74,123.88,103.81z"/>
					</g>
				</g>
				<g>
					<path class="st4" d="M150.06,88.7c-0.25-0.1-0.43-0.27-0.55-0.53c-0.12-0.26-0.13-0.52-0.03-0.77c0.94-2.29,1.83-4.59,2.67-6.9
						c-1.23-0.67-2.03-1.6-2.38-2.81c-0.27-0.75-0.18-1.82,0.26-3.22c0.45-1.4,1.74-3.04,3.86-4.93c0.57-0.48,1.03-0.72,1.41-0.71
						c0.37,0,0.66,0.08,0.88,0.23c0.11,0.08,0.22,0.18,0.34,0.33c0.12,0.14,0.2,0.41,0.25,0.8c0.05,0.39,0.03,0.95-0.05,1.67
						c-0.08,0.72-0.28,1.67-0.61,2.86c-0.32,1.19-0.77,2.68-1.33,4.47c2.75,0.34,5.59-1.2,8.51-4.65c0.11-0.16,0.27-0.36,0.49-0.58
						c0.22-0.23,0.46-0.4,0.74-0.52c0.28-0.12,0.59-0.12,0.94,0c0.6,0.22,0.87,0.91,0.82,2.07c-0.05,1.16-0.4,3.3-1.05,6.43
						c-0.37,1.85-0.74,3.99-1.12,6.41c-0.38,2.42-0.6,4.62-0.64,6.6c-0.04,1.98,0.27,3.29,0.94,3.92c0.11,0.07,0.26,0.13,0.45,0.17
						c0.19,0.04,0.45,0.02,0.76-0.03c1.59-0.48,3.42-1.87,5.49-4.17c2.07-2.3,4-4.75,5.77-7.32c1.77-2.58,2.96-4.49,3.58-5.73
						c0.14-0.26,0.33-0.42,0.57-0.49c0.24-0.07,0.49-0.05,0.74,0.04c0.26,0.14,0.43,0.34,0.53,0.61c0.09,0.26,0.07,0.53-0.07,0.79
						c-0.48,0.93-1.63,2.76-3.45,5.49c-1.81,2.73-3.88,5.38-6.21,7.97c-2.33,2.58-4.5,4.2-6.52,4.85l-0.2,0.04
						c-0.63,0.11-1.17,0.1-1.61-0.06c-0.45-0.15-0.8-0.35-1.08-0.58c-1.31-1.12-1.86-3.36-1.65-6.71c0.22-3.35,0.81-7.4,1.78-12.13
						c0.34-1.75,0.63-3.38,0.87-4.88c-1.75,1.92-3.52,3.19-5.31,3.82c-1.79,0.63-3.38,0.84-4.77,0.62
						c-0.72,1.96-1.62,4.31-2.72,7.05c-0.14,0.26-0.33,0.45-0.56,0.56C150.56,88.85,150.32,88.84,150.06,88.7z M154.79,71.41
						c-2.39,2.22-3.42,4.12-3.1,5.71c0.2,0.58,0.56,1.05,1.09,1.42C153.88,75.33,154.55,72.96,154.79,71.41z"/>
					<g>
						<path class="st4" d="M151.65,87.55c-0.4-0.25,2.21-6.22,2.45-6.87c0.19-0.51,0.16-1.03-0.35-1.34
							c-3.86-2.29-1.3-6.37,1.15-8.62c0.15-0.15,0.31-0.3,0.48-0.42c0.55-0.38,0.3-0.4-0.76-0.06c-0.06,0.09,0.09,0.89,0.09,1.05
							c-0.02,0.84-0.2,1.67-0.38,2.48c-0.44,1.88-1.04,3.74-1.61,5.58c-0.23,0.75,0.8,1.19,1.34,1.24c3.78,0.35,7.07-1.55,9.69-4.17
							c0.25-0.25,1.19-1.01,1.25-1.36c0.03-0.04,0.07-0.09,0.1-0.13c0.35-0.38,0.02-0.46-1.02-0.25c-0.03,0.03,0.08,1.82,0.04,2.13
							c-0.22,1.78-0.6,3.54-0.95,5.29c-0.82,4.11-1.61,8.31-1.75,12.51c-0.05,1.52-0.11,3.34,0.75,4.66
							c0.9,1.38,2.71,1.36,4.12,0.92c3.67-1.13,6.45-4.63,8.79-7.5c2.46-3.01,4.77-6.24,6.71-9.62c0.1-0.18,0.49-0.67,0.48-0.88
							c-0.7,0.17-1.39,0.34-2.09,0.51c-0.09,0.16-0.17,0.31-0.26,0.47c-0.38,0.47-0.65,1.08-0.97,1.59
							c-1.23,1.95-2.49,3.89-3.87,5.74c-2.36,3.16-5.14,7.14-8.75,8.91c-3.46,1.69-2.69-6.86-2.54-8.29
							c0.52-4.92,1.64-9.74,2.45-14.62c0.33-1.98-3.07-1.1-3.76-0.36c-2.04,2.17-4.55,3.94-7.65,3.56c-0.85-0.1-2.34,0.32-2.67,1.23
							c-0.4,1.08-0.8,2.16-1.22,3.24c-0.2,0.52-0.4,1.04-0.61,1.56c-0.14,0.36-1.12,1.94-0.22,1.75c0.52,0,1.03,0,1.55,0
							c-0.13-0.04-0.25-0.08-0.38-0.12c-0.95-0.29-2.23,0.01-2.89,0.78c-0.6,0.7-0.42,1.59,0.5,1.88c2.18,0.67,3.98-0.49,4.79-2.52
							c0.81-2.05,1.61-4.11,2.37-6.19c-0.89,0.41-1.78,0.82-2.67,1.23c4.86,0.59,9.25-1.87,12.5-5.32
							c-1.25-0.12-2.51-0.24-3.76-0.36c-0.79,4.8-1.89,9.53-2.42,14.37c-0.35,3.18-1.04,8.08,1.89,10.33
							c3.37,2.58,7.77-0.24,10.38-2.55c3.73-3.31,6.74-7.51,9.47-11.67c0.91-1.39,2.02-2.82,2.7-4.35c0.85-1.89-0.66-3.26-2.51-3.2
							c-2.17,0.07-2.93,1.6-3.9,3.23c-1.14,1.92-2.39,3.78-3.71,5.58c-1.49,2.04-3.08,4.02-4.79,5.88c-0.74,0.8-1.5,1.57-2.36,2.22
							c-0.32,0.24-0.72,0.43-1.01,0.68c-0.04,0.04-0.46,0.2-0.45,0.22c0.24,0.05,0.48,0.09,0.72,0.14
							c-0.06-0.08-0.11-0.17-0.17-0.25c-0.01-0.88-0.4-1.81-0.39-2.75c0.01-1.23,0.12-2.47,0.25-3.69c0.26-2.38,0.67-4.75,1.1-7.11
							c0.43-2.38,0.99-4.75,1.32-7.15c0.21-1.55,0.47-3.66-1.15-4.53c-4.75-2.52-6.91,5.9-11.54,5.47c0.45,0.41,0.89,0.83,1.34,1.24
							c0.84-2.69,2.01-5.62,2.01-8.48c0-3.24-3.36-3.8-5.7-2.27c-4.31,2.82-8.47,9.9-2.59,13.4c-0.12-0.45-0.24-0.89-0.35-1.34
							c-0.71,1.93-1.44,3.85-2.21,5.76c-0.59,1.45-1.1,2.79,0.47,3.79C149.9,90.75,153.54,88.75,151.65,87.55z"/>
						<path class="st4" d="M153.09,70.86c-1.26,1.18-2.57,2.58-3.18,4.25c-0.28,0.77-0.41,1.47-0.31,2.29
							c0.11,0.95,0.85,1.76,1.59,2.29c0.53,0.38,1.35,0.34,1.94,0.18c0.54-0.15,1.39-0.54,1.59-1.14c0.84-2.44,1.73-4.94,2.13-7.51
							c0.15-0.99-1.12-1.33-1.86-1.24c-0.87,0.1-2.11,0.59-2.27,1.61c-0.15,0.98-0.4,1.94-0.66,2.89c-0.18,0.63-0.36,1.25-0.56,1.87
							c-0.06,0.18-0.11,0.35-0.17,0.53c-0.03,0.08-0.05,0.16-0.08,0.24c-0.07,0.22,0.08-0.22,0,0c-0.14,0.41-0.27,0.82-0.41,1.23
							c1.18-0.32,2.36-0.64,3.53-0.96c-0.02-0.02-0.24-0.21-0.27-0.21c0.14,0.13,0.17,0.15,0.09,0.07
							c-0.04-0.04-0.07-0.08-0.11-0.12c-0.14-0.16-0.25-0.34-0.35-0.52c0.06,0.11,0.11,0.22,0.17,0.33c-0.13-0.27-0.2-0.51-0.22-0.8
							c0.01,0.12,0.01,0.25,0.02,0.37c-0.02-0.4,0.05-0.79,0.15-1.17c0.07-0.25-0.14,0.37,0.01-0.01c0.03-0.08,0.06-0.16,0.1-0.24
							c0.1-0.22,0.22-0.44,0.34-0.65c0.07-0.11,0.14-0.22,0.21-0.33c0.1-0.15,0.07-0.11-0.07,0.1c0.04-0.06,0.08-0.11,0.13-0.17
							c0.16-0.21,0.32-0.41,0.49-0.61c0.44-0.52,0.93-1.01,1.43-1.47c0.27-0.25,0.45-0.74,0.35-1.1c-0.1-0.38-0.49-0.67-0.85-0.78
							C154.95,69.77,153.87,70.14,153.09,70.86z"/>
					</g>
				</g>
				<g>
					<path class="st4" d="M180.83,83.09c-0.25-0.1-0.43-0.27-0.55-0.53c-0.12-0.26-0.13-0.52-0.03-0.77
						c0.94-2.29,1.83-4.59,2.67-6.9c-1.23-0.67-2.03-1.6-2.38-2.81c-0.27-0.75-0.18-1.82,0.26-3.22c0.45-1.4,1.74-3.04,3.86-4.93
						c0.57-0.48,1.03-0.72,1.41-0.71c0.37,0,0.66,0.08,0.88,0.23c0.11,0.08,0.22,0.18,0.34,0.33c0.12,0.14,0.2,0.41,0.25,0.8
						c0.05,0.39,0.03,0.95-0.05,1.67c-0.08,0.72-0.28,1.67-0.61,2.86c-0.32,1.19-0.77,2.68-1.33,4.47c2.75,0.34,5.59-1.2,8.51-4.65
						c0.11-0.16,0.27-0.36,0.49-0.58c0.22-0.23,0.46-0.4,0.74-0.52c0.28-0.12,0.59-0.12,0.94,0c0.6,0.22,0.87,0.91,0.82,2.07
						c-0.05,1.16-0.4,3.3-1.05,6.43c-0.37,1.85-0.74,3.99-1.12,6.41c-0.38,2.42-0.6,4.62-0.64,6.6c-0.04,1.98,0.27,3.29,0.94,3.92
						c0.11,0.07,0.26,0.13,0.45,0.17s0.45,0.02,0.76-0.03c1.59-0.48,3.42-1.87,5.49-4.17s4-4.75,5.77-7.32
						c1.77-2.58,2.96-4.49,3.58-5.73c0.14-0.26,0.33-0.42,0.57-0.49c0.24-0.07,0.49-0.05,0.74,0.04c0.26,0.14,0.43,0.34,0.53,0.61
						c0.09,0.26,0.07,0.53-0.07,0.79c-0.48,0.93-1.63,2.76-3.45,5.49c-1.81,2.73-3.88,5.38-6.21,7.97c-2.33,2.58-4.5,4.2-6.52,4.85
						l-0.2,0.04c-0.63,0.11-1.17,0.1-1.61-0.06c-0.45-0.15-0.8-0.35-1.08-0.58c-1.31-1.12-1.86-3.36-1.65-6.71
						c0.22-3.35,0.81-7.4,1.78-12.13c0.34-1.75,0.63-3.38,0.87-4.88c-1.75,1.92-3.52,3.19-5.31,3.82c-1.79,0.63-3.38,0.84-4.77,0.62
						c-0.72,1.96-1.62,4.31-2.72,7.05c-0.14,0.26-0.33,0.45-0.56,0.56S181.09,83.23,180.83,83.09z M185.56,65.81
						c-2.39,2.22-3.42,4.12-3.1,5.71c0.2,0.58,0.56,1.05,1.09,1.42C184.66,69.73,185.32,67.35,185.56,65.81z"/>
					<g>
						<path class="st4" d="M182.75,82.37c-1.1-0.7,0.3-2.85,0.67-3.79c0.52-1.34,1.03-2.69,1.52-4.04c0.06-0.15,0.03-0.28-0.1-0.38
							c-4.03-2.4-2.09-6.66,0.55-9.3c0.4-0.4,0.87-0.74,1.25-1.15c-1.46,1.55-1.22,0.37-1.14,1.73c0.05,0.88-0.13,1.78-0.32,2.64
							c-0.44,1.97-1.07,3.9-1.67,5.83c-0.14,0.44,0.41,0.52,0.71,0.54c2.31,0.21,4.66-0.38,6.7-1.47c1.05-0.56,2.01-1.26,2.91-2.06
							c0.58-0.52,1.14-1.07,1.65-1.66c0.22-0.24,0.43-0.49,0.62-0.75c0.57-0.53,0.32-0.52-0.75,0.02c-0.44,0-0.87,0-1.31,0.01
							c1.8,0.34,0.64,4.36,0.42,5.56c-0.48,2.59-1.01,5.17-1.44,7.77c-0.41,2.48-0.76,4.98-0.84,7.5c-0.05,1.55-0.19,4.39,1.75,4.86
							c4.27,1.04,8.52-3.66,10.94-6.47c1.71-1.99,3.29-4.08,4.78-6.24c0.72-1.04,1.43-2.1,2.1-3.17c0.23-0.36,1.15-2.33,1.22-2.37
							c-0.69,0.19-1.38,0.37-2.07,0.56c0.54-0.06-0.42,1.73-0.48,1.84c-0.42,0.72-0.87,1.42-1.33,2.13
							c-1.32,2.05-2.67,4.08-4.16,6.01c-1.42,1.84-2.92,3.66-4.56,5.3c-0.81,0.81-1.66,1.58-2.62,2.21
							c-0.19,0.13-1.09,0.48-1.15,0.65c-0.34,0.14-0.19,0.11,0.45-0.08c-0.24,0.01-0.47-0.04-0.67-0.17
							c-3.21-1.37-2.1-7.49-1.79-10.09c0.55-4.57,1.58-9.06,2.33-13.6c0.22-1.31-3.46,0.02-3.88,0.47c-1.89,2.01-4,3.78-6.9,3.43
							c-0.84-0.1-2.99,0.28-3.34,1.24c-0.4,1.08-0.8,2.16-1.22,3.24c-0.2,0.52-0.4,1.04-0.61,1.56c-0.21,0.55-0.53,2.02-1.01,2.36
							c0.65-0.24,1.3-0.48,1.94-0.72c-0.12,0.02-0.24,0.05-0.36,0.07c0.44,0,0.87,0,1.31-0.01c-0.13-0.04-0.25-0.08-0.38-0.12
							c-0.88-0.27-2.08,0.09-2.87,0.51c-0.4,0.21-1.38,0.89-0.48,1.16c1.79,0.55,4.26-0.26,5.11-1.99c1.06-2.13,1.78-4.53,2.6-6.76
							c-1.11,0.41-2.22,0.83-3.34,1.24c5.01,0.61,9.88-1.87,13.25-5.46c-1.29,0.16-2.59,0.31-3.88,0.47
							c-0.78,4.75-1.86,9.43-2.4,14.22c-0.34,2.97-1.22,8.15,1.8,10.1c3.17,2.05,7.68-0.62,10.14-2.65c3.77-3.11,6.8-7.33,9.49-11.4
							c1-1.5,2.12-3.02,2.93-4.65c0.85-1.71-0.64-2.45-2.18-2.29c-2.14,0.22-3.08,1.13-4.08,2.86c-1.06,1.83-2.25,3.59-3.47,5.31
							c-1.52,2.15-3.16,4.21-4.91,6.16c-0.76,0.85-1.55,1.68-2.42,2.42c-0.36,0.3-0.74,0.6-1.14,0.85c-0.16,0.1-0.31,0.19-0.48,0.28
							c-0.62,0.34,0.7-0.44,0.69-0.42c0.03-0.16-0.33-0.79-0.38-0.99c-0.11-0.44-0.16-0.9-0.19-1.36c-0.08-1.23,0.02-2.48,0.12-3.7
							c0.21-2.51,0.65-5,1.09-7.48c0.43-2.43,1-4.85,1.36-7.29c0.2-1.33,0.72-3.54-0.72-4.31c-1.88-1.01-4.6,0.4-5.85,1.81
							c-1.35,1.52-3.18,3.98-5.44,3.77c0.24,0.18,0.47,0.36,0.71,0.54c0.58-1.84,1.17-3.7,1.61-5.58c0.28-1.2,0.85-3.28,0.15-4.43
							c-0.78-1.28-2.84-0.95-4.01-0.58c-1.8,0.57-3.17,1.9-4.42,3.29c-1.91,2.13-3.64,5.44-1.7,8.12c0.43,0.59,1.37,1.07,1.49,1.77
							c0.07,0.41-0.48,1.3-0.65,1.73c-0.22,0.58-0.44,1.15-0.67,1.73c-0.51,1.3-2.09,3.52-0.47,4.54c0.71,0.45,1.93,0.09,2.65-0.19
							C181.78,83.54,183.41,82.78,182.75,82.37z"/>
						<path class="st4" d="M183.7,65.93c-1.21,1.13-2.47,2.46-3.06,4.04c-0.21,0.55-0.32,1.17-0.27,1.76
							c0.06,0.79,0.65,1.49,1.26,1.94c0.52,0.37,1.57,0.14,2.11-0.02c0.34-0.1,0.68-0.22,1.01-0.38c0.24-0.11,0.73-0.38,0.83-0.68
							c0.8-2.32,1.63-4.7,2.01-7.13c0.12-0.75-1.24-0.56-1.66-0.48c-0.53,0.1-1.08,0.24-1.56,0.5c-0.24,0.13-0.78,0.37-0.83,0.68
							c-0.38,2.43-1.21,4.81-2.01,7.13c1.32-0.36,2.63-0.71,3.95-1.07c-0.27-0.19-0.5-0.41-0.7-0.68c0.04,0.06,0.08,0.11,0.12,0.17
							c-0.36-0.52-0.49-1.04-0.43-1.66c-0.01,0.07-0.02,0.14-0.02,0.21c0.09-0.8,0.44-1.53,0.87-2.2c0.06-0.09,0.11-0.17,0.17-0.25
							c-0.11,0.15,0.13-0.18,0.16-0.21c0.16-0.21,0.34-0.42,0.51-0.62c0.4-0.45,0.83-0.88,1.27-1.29c0.18-0.17,0.27-0.42,0.06-0.6
							c-0.23-0.2-0.79-0.19-1.05-0.17C185.5,64.99,184.4,65.27,183.7,65.93z"/>
					</g>
				</g>
				<g>
					<path class="st4" d="M210.61,87.97c-0.72-1.42-1.04-3.02-0.96-4.8c0.08-1.78,0.32-3.43,0.72-4.96c0.4-1.53,0.73-2.62,0.98-3.28
						c-0.66-1.62-0.66-2.96-0.02-4.02c0.57-1,1.53-1.71,2.89-2.15c1.36-0.44,3.05-0.34,5.06,0.28c1.29,0.47,2.35,1.59,3.18,3.37
						c0.83,1.78,1.33,3.8,1.5,6.07c0.65-0.02,1.28-0.09,1.91-0.21c3.78-0.69,6.65-2.97,8.6-6.85c0.14-0.26,0.34-0.43,0.61-0.5
						c0.27-0.07,0.53-0.04,0.78,0.1c0.25,0.1,0.41,0.28,0.48,0.55c0.07,0.27,0.04,0.53-0.1,0.79c-2.28,4.41-5.62,7.04-10.02,7.89
						c-0.76,0.14-1.49,0.23-2.18,0.26c0.04,1.54-0.1,2.96-0.43,4.24c-1.03,3.62-2.94,5.68-5.73,6.19c-1.03,0.19-2.16,0.16-3.36-0.09
						C212.75,90.47,211.44,89.51,210.61,87.97z M212.82,76.92c-0.52,1.5-0.89,3.22-1.11,5.14c-0.22,1.92-0.01,3.57,0.6,4.97
						c0.55,0.98,1.42,1.6,2.63,1.85c3.51,0.68,5.75-0.86,6.71-4.6c0.3-1.18,0.45-2.43,0.45-3.75c-2.03-0.19-3.85-0.61-5.45-1.26
						c-1.6-0.65-2.79-1.35-3.58-2.1C212.97,77.08,212.88,77,212.82,76.92z M213.11,71.86c-0.59,1.14-0.15,2.4,1.3,3.78
						c0.56,0.56,1.52,1.11,2.87,1.66c1.35,0.55,2.91,0.93,4.66,1.13c-0.2-1.89-0.59-3.53-1.19-4.93c-0.6-1.4-1.29-2.23-2.08-2.51
						c-1.37-0.41-2.53-0.53-3.48-0.35C214.16,70.82,213.46,71.23,213.11,71.86z"/>
					<g>
						<path class="st4" d="M212.65,87.41c-1.32-2.79-1.07-5.91-0.4-8.86c0.28-1.24,0.8-2.44,1.05-3.68
							c0.27-1.34-0.81-2.54-0.08-3.97c1.1-2.16,4.38-1.43,5.8-0.01c2.03,2.03,2.66,5.39,2.9,8.15c0.04,0.47,0.92,0.55,1.23,0.53
							c2.91-0.16,5.78-0.86,8.25-2.48c1.04-0.68,1.97-1.49,2.8-2.42c0.47-0.52,0.89-1.08,1.27-1.67c0.18-0.28,0.36-0.57,0.52-0.86
							c0.21-0.36,0.72-0.82-0.11-0.47c-0.53,0.11-1.07,0.22-1.6,0.33c0.32-0.02-1.22,2.55-1.4,2.8c-0.67,0.91-1.43,1.75-2.31,2.46
							c-1.64,1.33-3.6,2.03-5.69,2.16c-0.89,0.05-2.88,0.41-2.87,1.64c0.04,2.81-0.54,6.48-2.91,8.33
							C217.05,91,213.81,89.42,212.65,87.41c-0.74-1.29-4.65,0.14-4.09,1.11c2.36,4.09,7.97,4.44,11.9,2.57
							c4.26-2.02,5.69-6.67,5.63-11.13c-0.96,0.55-1.91,1.09-2.87,1.64c3.29-0.2,6.54-1.04,9.32-2.89c1.26-0.84,2.39-1.85,3.38-3
							c0.87-1.03,2.38-2.76,2.5-4.15c0.15-1.76-2.12-1.86-3.31-1.62c-0.79,0.16-1.67,0.52-2.23,1.13c-0.51,0.55-0.8,1.32-1.21,1.95
							c-1.63,2.5-3.88,4.22-6.9,4.38c0.41,0.18,0.82,0.35,1.23,0.53c-0.28-3.22-1.18-7.45-4.09-9.32c-2.94-1.89-7.5-1.49-10.39,0.29
							c-1.25,0.77-2.44,2-2.68,3.52c-0.15,0.95,0.12,1.68,0.27,2.59c0.12,0.74-0.21,1.38-0.42,2.11c-1.04,3.64-1.84,7.84-0.15,11.41
							C209.18,89.83,213.17,88.5,212.65,87.41z"/>
						<path class="st4" d="M210.78,77.2c-0.74,2.16-1.19,4.5-1.2,6.79c-0.01,2.02,0.47,4.16,2.29,5.26
							c1.74,1.05,4.15,1.02,6.07,0.57c1.8-0.42,3.52-1.44,4.55-3.03c1.3-2.01,1.64-4.48,1.66-6.84c0-0.29-0.59-0.48-0.77-0.5
							c-1.64-0.16-3.27-0.46-4.82-1.06c-1.34-0.52-2.84-1.17-3.82-2.27c-0.88-0.98-4.77,0.5-3.81,1.56c1.11,1.24,2.84,2.02,4.35,2.6
							c1.78,0.69,3.67,1.07,5.56,1.26c-0.26-0.17-0.52-0.33-0.77-0.5c-0.01,1.77-0.3,3.65-1.07,5.26c-0.11,0.23-0.22,0.42-0.39,0.66
							c-0.08,0.11-0.16,0.22-0.24,0.33c-0.06,0.08-0.39,0.4-0.17,0.2c-0.09,0.09-0.19,0.17-0.29,0.25c-0.07,0.05-0.13,0.1-0.2,0.15
							c0.02-0.01,0.28-0.15,0.11-0.09c-0.12,0.05-0.33,0.28-0.15,0.09c0.16-0.17,0.08-0.04-0.06,0.01
							c-0.25,0.09,0.44-0.11,0.17-0.06c-0.06,0.01-0.13,0.03-0.19,0.05c-0.28,0.08,0.05-0.11,0.17-0.03
							c-0.08-0.05-0.3,0.08-0.4,0.05c-0.01,0,0.4,0,0.17-0.02c-0.09-0.01-0.19,0-0.29,0c-0.11,0-0.54-0.04-0.22,0
							c-0.69-0.08-1.27-0.16-1.84-0.59c-1.27-0.96-1.48-2.86-1.49-4.35c-0.01-2.12,0.5-4.36,1.18-6.36
							c0.29-0.85-1.31-0.83-1.73-0.76C212.36,75.99,211.08,76.34,210.78,77.2z"/>
						<path class="st4" d="M211.07,72.15c-1.01,2.08,0.99,4.15,2.61,5.14c2.09,1.28,4.57,1.91,6.98,2.19
							c0.78,0.09,1.58-0.07,2.29-0.41c0.45-0.22,1.1-0.6,1.03-1.19c-0.16-1.51-0.45-3.01-0.99-4.43c-0.47-1.24-1.11-2.52-2.27-3.21
							c-0.64-0.38-1.46-0.51-2.18-0.63c-0.85-0.14-1.71-0.16-2.57-0.08c-1.65,0.16-3.83,0.81-4.75,2.34
							c-0.16,0.26-0.25,0.52-0.02,0.77c0.24,0.25,0.78,0.31,1.09,0.3c0.54-0.01,1.1-0.11,1.6-0.33c0.38-0.17,0.89-0.39,1.11-0.76
							c0.05-0.09,0.12-0.17,0.17-0.26c0.17-0.26-0.2,0.17,0.02-0.02c0.27-0.23-0.31,0.17-0.01,0.01c-0.76,0.4,0.33-0.1-0.16,0.07
							c-0.48,0.16,0.45-0.06-0.01,0c-0.34,0.05,0.09,0,0.16-0.02c0.15-0.02,0.08-0.01-0.21,0.01c0.06,0,0.13-0.01,0.19-0.01
							c0.13,0,0.26,0.01,0.39,0c0.13,0.01,0.09,0-0.11-0.01c0.07,0.01,0.14,0.01,0.21,0.02c0.17,0.02,0.34,0.05,0.51,0.08
							c0.15,0.03,0.3,0.06,0.45,0.09c0.03,0.01,0.43,0.11,0.26,0.06c0.11,0.03,0.22,0.07,0.33,0.12c0.07,0.03,0.29,0.18,0.06,0.02
							c0.17,0.12,0.33,0.26,0.47,0.41c0.71,0.76,1.1,1.8,1.41,2.78c0.39,1.22,0.62,2.49,0.76,3.77c1.11-0.54,2.21-1.07,3.32-1.61
							c-0.58-0.07-1.16-0.15-1.74-0.27c-0.27-0.05-0.54-0.11-0.82-0.18c-0.12-0.03-0.24-0.06-0.36-0.09
							c0.25,0.07-0.18-0.06-0.19-0.06c-1.01-0.31-2-0.72-2.92-1.25c-0.05-0.03-0.25-0.16-0.11-0.07c-0.1-0.06-0.19-0.13-0.29-0.2
							c-0.14-0.1-0.28-0.21-0.4-0.33c-0.4-0.37-0.8-0.78-1.09-1.25c-0.45-0.75-0.5-1.38-0.15-2.1c0.14-0.29-0.19-0.57-0.4-0.66
							c-0.38-0.17-0.94-0.16-1.34-0.1C212.55,70.95,211.49,71.29,211.07,72.15z"/>
					</g>
				</g>
				<g>
					<path class="st4" d="M242.61,84.94c-1.78,1.52-3.35,1.93-4.73,1.23c-1.54-1.1-2.51-3.3-2.91-6.62
						c-0.4-3.31-0.5-6.69-0.32-10.13c0.18-3.44,0.36-5.85,0.54-7.21c0.04-0.29,0.16-0.52,0.37-0.68c0.2-0.16,0.45-0.21,0.74-0.17
						c0.29,0.04,0.52,0.17,0.69,0.37c0.18,0.21,0.24,0.46,0.2,0.75c-0.29,2.82-0.48,5.81-0.55,8.97c-0.07,3.16,0.06,5.95,0.39,8.36
						c0.33,2.42,0.92,3.93,1.77,4.54c0.36,0.17,0.77,0.13,1.23-0.12c0.47-0.25,0.88-0.53,1.25-0.84c2.16-1.97,3.59-3.79,4.3-5.47
						c0.7-1.68,1.03-3.06,0.98-4.15l-0.39-2.22c0-0.29,0.06-0.52,0.19-0.71c0.13-0.19,0.32-0.33,0.59-0.43
						c0.54-0.1,0.93,0.12,1.16,0.64c0.05,0.04,0.13,0.27,0.23,0.71c0.1,0.44,0.17,1.01,0.2,1.72c0.39,1.98,0.93,3.82,1.6,5.53
						c0.67,1.71,1.43,2.73,2.28,3.05c0.44,0.11,0.9-0.02,1.39-0.4s0.92-0.81,1.3-1.31c1.38-1.92,2.22-4.67,2.52-8.26
						c0.3-3.58,0.2-7.16-0.29-10.74c-0.78-4.96-1.66-7.82-2.63-8.6c-0.21-0.15-0.34-0.37-0.39-0.64s0-0.52,0.15-0.74
						c0.18-0.27,0.41-0.42,0.69-0.45c0.27-0.03,0.52,0.04,0.73,0.19c1.05,0.95,1.84,2.5,2.38,4.64c0.54,2.14,0.89,3.91,1.04,5.31
						c0.48,3.53,0.58,7.26,0.29,11.17s-1.27,7.05-2.94,9.41c-1.14,1.45-2.27,2.28-3.39,2.48c-0.45,0.08-0.92,0.05-1.41-0.1
						c-0.98-0.3-1.81-0.99-2.49-2.08c-0.68-1.09-1.26-2.33-1.73-3.72C246.92,80.31,245.25,82.55,242.61,84.94z"/>
					<g>
						<path class="st4" d="M241.29,84.15c-0.7,0.56-1.26,1.28-2.08,0.69c-0.53-0.38-0.9-1.13-1.17-1.71
							c-0.96-2.09-1.11-4.54-1.28-6.8c-0.34-4.63,0.3-9.12,0.42-13.73c0.01-0.1,0.02-0.21,0.04-0.31c0.21-1.09-0.5-0.75-2.15,1.01
							c-0.2,0.46-0.12,1.35-0.16,1.85c-0.08,1.06-0.15,2.13-0.2,3.19c-0.12,2.51-0.18,5.02-0.08,7.53c0.1,2.62-0.09,9.09,3.35,9.86
							c3.75,0.84,7.62-3.96,9.17-6.87c0.83-1.55,1.56-3.49,1.48-5.28c-0.02-0.49-0.12-0.97-0.21-1.46
							c-0.04-0.22-0.04-0.54-0.13-0.75c-0.39-0.95-2.14-0.42-2.13,0.46c0.03,1.94,0.71,4.15,1.3,6c0.56,1.73,1.24,3.93,2.8,5.03
							c3.52,2.49,7.11-2.21,8.21-5.15c1.8-4.83,1.63-10.5,1.08-15.56c-0.26-2.42-0.69-4.88-1.41-7.21c-0.1-0.33-1.61-3.48-1.69-3.4
							c-0.45,0.25-0.9,0.5-1.35,0.75c-0.66,0.23-0.79-0.41-0.56,0.26c0.11,0.32,0.47,0.65,0.64,0.95c0.35,0.62,0.59,1.29,0.8,1.96
							c0.48,1.56,0.82,3.18,1.09,4.79c0.61,3.68,0.75,7.43,0.54,11.15c-0.18,3.13-0.63,6.38-2.26,9.11
							c-0.4,0.68-0.86,1.31-1.47,1.82c-0.64,0.54-0.95,0.5-1.61-0.02c-1.36-1.07-2.04-3.08-2.6-4.65c-0.63-1.76-3.65-0.5-4.11,0.76
							c-0.88,2.41-2.8,4.33-4.64,6.03c-0.7,0.64-0.33,1.47,0.46,1.75c0.97,0.33,2.18-0.12,2.89-0.78c2.28-2.11,4.32-4.43,5.4-7.4
							c-1.37,0.25-2.74,0.51-4.11,0.76c0.99,2.77,2.39,5.97,5.54,6.62c3.05,0.63,5.93-1.38,7.6-3.81
							c3.73-5.42,3.46-13.26,2.82-19.52c-0.32-3.13-0.76-6.57-2.12-9.44c-0.48-1.01-1.11-2.15-2.11-2.71
							c-1.29-0.73-3.15-0.32-4.22,0.65c-1.91,1.73,0.17,3.18,0.77,4.91c1.08,3.1,1.55,6.52,1.77,9.78c0.25,3.71,0.2,7.68-0.78,11.29
							c-0.36,1.32-0.9,2.75-1.82,3.79c-1.54,1.75,0.89-0.09,0.7,0.48c-0.01,0.04-0.48-0.41-0.51-0.47
							c-0.45-0.83-0.93-1.57-1.26-2.48c-0.61-1.66-1.19-3.45-1.4-5.21c-0.14-1.16-0.18-2.6-1.32-3.28c-1.94-1.15-5.3,0.34-5.11,2.78
							c0.06,0.75,0.35,1.48,0.37,2.23c0.03,1.55-0.68,3.26-1.45,4.56c-0.81,1.38-1.98,2.7-3.21,3.72c-0.19,0.16-1.3,0.95-0.13,0.44
							c0.98-0.42,0.31,0.19,0.24-0.53c-0.07-0.73-0.58-1.64-0.72-2.41c-0.68-3.59-0.61-7.32-0.47-10.96
							c0.07-1.81,0.18-3.62,0.34-5.43c0.13-1.51,0.44-2.9-1.2-3.58c-1.32-0.55-3.19-0.1-4.14,0.97c-0.84,0.95-0.76,2.39-0.86,3.59
							c-0.32,3.99-0.52,7.99-0.28,11.99c0.2,3.23,0.37,7.35,2.82,9.79c2.43,2.42,6.18,1.01,8.48-0.84
							C246.09,83.98,242.72,83,241.29,84.15z"/>
					</g>
				</g>
				<path class="st5" d="M272.25,54.93c-0.93-4.07-3.56-7.43-6.74-9.86c-3.17-2.5-6.89-4.19-10.66-5.57
					c-7.58-2.75-15.63-4.04-23.67-4.75c-8.06-0.64-16.17-0.71-24.25-0.2c-8.08,0.46-16.14,1.41-24.12,2.8
					c-7.99,1.36-15.9,3.15-23.68,5.42c-7.79,2.22-15.43,4.99-22.82,8.29c-7.35,3.35-14.53,7.26-20.8,12.38
					c-3.11,2.56-6.07,5.4-8.25,8.81c-2.21,3.36-3.6,7.41-3.15,11.56c-0.87-4.08,0.21-8.46,2.3-12.08c2.02-3.7,4.88-6.84,7.9-9.71
					c6.18-5.64,13.34-10,20.75-13.66c14.87-7.33,30.9-11.9,47.12-14.77c16.25-2.7,32.87-3.74,49.3-1.79
					c8.19,0.98,16.38,2.71,24.05,5.96c3.79,1.7,7.51,3.7,10.62,6.52C269.29,47.02,271.74,50.79,272.25,54.93z"/>
				<path class="st5" d="M272.78,58.77c0.48,2.09,0.7,4.27,0.6,6.47c-0.2,2.18-0.62,4.38-1.34,6.47c-1.41,4.22-3.82,8.02-6.52,11.5
					c-5.57,6.87-12.58,12.32-20.01,16.83c-14.94,8.99-31.66,14.39-48.61,17.44c-16.9,2.77-34.17,4.14-51.38,2.04
					c-8.56-1.06-17.18-3.03-25.07-6.99c-3.9-2.01-7.61-4.61-10.5-8.01c-1.4-1.73-2.61-3.61-3.48-5.63
					c-0.81-2.05-1.31-4.19-1.47-6.33c0.59,2.07,1.39,4.03,2.48,5.8c1.11,1.76,2.47,3.31,3.97,4.69c3.08,2.68,6.67,4.67,10.5,6.06
					c7.63,2.89,15.89,3.98,24.1,4.49c8.25,0.38,16.55,0.29,24.83-0.47c8.28-0.63,16.57-1.69,24.75-3.16
					c8.17-1.34,16.23-3.31,24.1-5.81c7.92-2.4,15.56-5.6,22.93-9.3c7.28-3.84,14.32-8.31,20.12-14.14c2.9-2.89,5.47-6.15,7.34-9.83
					C271.99,67.24,273.04,63.08,272.78,58.77z"/>
				<path class="st5" d="M275.75,73.37l1.19,7.22l1.03,7.26l0.48,3.64c0.15,1.22,0.33,2.42,0.3,3.7l0.06,3.83l0.03,1.93
					c-0.02,0.64-0.12,1.27-0.17,1.91c-0.47,5.11-1.54,10.22-3.28,15.1c-0.88,2.44-1.76,4.91-3.04,7.16l-1.8,3.46
					c-0.57,1.18-1.37,2.19-2.05,3.3l-2.14,3.26c-0.7,1.1-1.58,2.04-2.37,3.07l-2.49,2.99c-0.82,1.01-1.8,1.84-2.7,2.77
					c-1.83,1.82-3.64,3.68-5.68,5.25c-1.99,1.62-3.93,3.35-6.09,4.73c-8.44,5.86-17.8,10.25-27.53,13.25
					c-9.81,2.74-19.92,4.14-30.01,4.21l-3.79-0.07l-3.78-0.27c-2.52-0.12-5.02-0.52-7.52-0.83c-2.5-0.34-4.97-0.86-7.44-1.35
					c-2.43-0.69-4.89-1.23-7.28-2.04c-9.61-3.01-18.76-7.51-26.75-13.55c-4-3-7.67-6.43-10.98-10.11c-3.31-3.7-6.08-7.84-8.44-12.11
					l0.61-0.45c2.88,3.82,6.02,7.43,9.55,10.64c3.56,3.17,7.3,6.15,11.37,8.63c8.02,5.15,16.95,8.74,26.12,11.16
					c18.4,4.78,38.03,4.11,56.21-1.17c9.1-2.67,17.82-6.68,25.73-11.93c7.9-5.26,15-11.82,20.56-19.58
					c5.55-7.73,9.51-16.7,11.05-26.16c0.11-0.59,0.25-1.17,0.32-1.76l0.13-1.79l0.26-3.58c0.14-1.19,0.07-2.4,0.04-3.6l-0.1-3.62
					L275,73.41L275.75,73.37z"/>
				<g>
					<path class="st4" d="M332.2,44.6c-3.97-4.81-11.87-3.53-17.14-2.46c-8.49,1.71-17.1,4.82-24.65,9.11
						c-5.19,2.95-10.29,6.87-13.19,12.27c-3.46,6.45-2.53,14.42,0.55,20.85c2.32,4.85,5.78,9.03,9.23,13.09
						c3.53,4.16,7.3,8.09,11.35,11.74c1.61,1.44,6.75-0.73,5.03-2.29c-0.23-0.21-0.48-0.45-0.74-0.63c-1.37-0.95-6.37,0.91-4.66,2.6
						c0.53,0.52,1.08,1.03,1.63,1.53c1.42,1.3,6.6-0.07,5.03-2.29c-0.03-0.04-0.06-0.07-0.1-0.1c-1.68,0.76-3.36,1.52-5.03,2.29
						c1.61,1.53,4.27,3.43,5.06,5.58c0.86,2.36-0.6,4.75-1.87,6.64c-2.93,4.35-7.27,7.64-11.62,10.42
						c-4.48,2.86-9.36,5.41-14.59,6.53c-2.15,0.46-4.94,0.75-6.77-0.78c-2.12-1.78-0.91-6.27-0.03-8.55
						c1.08-2.81-4.18-2.09-5.14-0.36c-1.6,2.89-3.76,7.06-2.26,10.41c1.37,3.06,5.17,4.25,8.22,4.52
						c7.09,0.62,14.49-2.56,20.56-5.93c6.54-3.62,12.96-8.11,17.41-14.27c1.84-2.55,3.54-5.51,3.26-8.79
						c-0.3-3.59-3.27-5.9-5.68-8.21c-1.56-1.5-6.73,0.64-5.03,2.29c0.05,0.04,0.09,0.09,0.13,0.13c1.68-0.76,3.36-1.52,5.03-2.29
						c-0.52-0.48-1.07-0.95-1.54-1.47c-1.55,0.87-3.1,1.73-4.66,2.6c-0.06-0.05-0.12-0.09-0.18-0.14c1.61,1.43,6.76-0.74,5.03-2.29
						c-6.54-5.85-12.89-12.53-17.85-19.82c-3.92-5.77-6.96-14.29-3.81-21.08c2.31-4.97,6.9-8.43,11.56-10.99
						c6.9-3.79,14.92-6.67,22.68-7.9c2.34-0.37,5.88-1.01,7.97,0.57c3.34,2.53,0.23,8.73-1.28,11.48c1.77-0.04,3.54-0.07,5.32-0.11
						c0.88-3.56-6.08-2.76-6.9,0.22c-0.58,2.13-1.04,5.45,1.79,5.84c4.07,0.56,5.88-3.91,7.26-6.95
						C333.48,53.45,334.86,48.73,332.2,44.6c-1.15-1.79-6.42,0.13-5.03,2.29c1.81,2.82,0.94,6.39-0.25,9.3
						c-0.5,1.22-1.07,2.42-1.71,3.57c-0.33,0.59-0.71,1.15-1.02,1.74c-0.23,0.43-0.89,0.87-0.08,0.29c0.92-0.25,1.84-0.5,2.75-0.75
						c-0.17,0-0.34-0.01-0.51-0.01c0.5,0.21,1.01,0.42,1.51,0.63c-0.37-0.33-0.11-2.84,0.26-3.54c-0.96,0.53-1.92,1.05-2.88,1.58
						c0.19-0.03,0.38-0.06,0.57-0.1c-0.61-0.1-1.22-0.2-1.83-0.3c0.03-0.34,0.03-0.41-0.01-0.22c-0.62,2.48,4.58,1.24,5.32-0.11
						c1.88-3.44,4.17-8.39,2.46-12.29c-1.16-2.65-3.94-3.59-6.6-3.91c-3.95-0.48-8.07,0.33-11.9,1.25
						c-4.91,1.17-9.75,2.81-14.42,4.74c-6.64,2.75-13.52,6.43-18.1,12.18c-4.68,5.88-5.23,13.17-2.71,20.21
						c2.02,5.66,5.81,10.34,9.63,14.86c3.79,4.48,7.83,8.73,12.2,12.64c1.68-0.76,3.36-1.52,5.03-2.29
						c-0.19-0.17-0.38-0.33-0.58-0.48c-1.35-1.06-6.28,0.82-4.66,2.6c0.48,0.52,1.02,1,1.54,1.47c1.5,1.37,6.75-0.44,5.03-2.29
						c-0.04-0.05-0.09-0.09-0.13-0.13c-1.68,0.76-3.36,1.52-5.03,2.29c1.78,1.71,4.41,3.59,5.05,6.1c0.67,2.62-0.62,5.07-2.02,7.19
						c-3.19,4.85-7.98,8.46-12.82,11.48c-4.69,2.93-9.88,5.54-15.38,6.45c-2.52,0.42-6,0.34-7.76-1.86
						c-2.06-2.57,0.24-6.63,1.58-9.03c-1.71-0.12-3.43-0.24-5.14-0.36c-0.99,2.57-2.36,7.08-1.03,9.69c1.42,2.77,4.85,3.7,7.69,3.88
						c6.76,0.44,13.91-2.91,19.65-6.15c6.17-3.48,12.2-7.75,16.43-13.56c1.68-2.31,3.31-5.04,2.99-8.02
						c-0.34-3.22-3.57-5.57-5.74-7.62c-1.57-1.49-6.74,0.66-5.03,2.29c0.04,0.03,0.07,0.06,0.1,0.1c1.68-0.76,3.36-1.52,5.03-2.29
						c-0.55-0.5-1.1-1.01-1.63-1.53c-1.55,0.87-3.1,1.73-4.66,2.6c-0.32-0.27-0.33-0.26-0.02,0.01c1.68-0.76,3.36-1.52,5.03-2.29
						c-6.13-5.52-11.72-11.73-16.65-18.36c-4.36-5.87-7.7-13.97-5.7-21.41c3.11-11.52,17.64-16.78,27.6-19.85
						c3.94-1.22,8.07-2.4,12.22-2.51c2.3-0.06,4.77,0.23,6.32,2.12C328.55,48.56,333.78,46.51,332.2,44.6z"/>
				</g>
				<path class="st6" d="M355.17,144.03c-0.97,2.24-2.45,3.25-4.53,3.03c-1.46-0.16-2.62-1.13-3.58-2.95
					c-1.14-2.15-1.61-3.69-1.5-4.75c0.18-1.69,1.09-3.4,2.73-4.93c1.53-1.54,3.08-2.33,4.75-2.15c3.12,0.34,4.47,2.51,4.05,6.51
					C357.04,139.22,356.33,140.96,355.17,144.03z"/>
			</g>
			<g>
				<g>
					<path class="st7" d="M107.55,97.28c-0.03,0.05-0.06,0.1-0.09,0.14c-0.04-0.57-0.09-1.15-0.13-1.72
						c-0.09,0.23-0.18,0.45-0.26,0.68c0.77-0.59,1.54-1.17,2.31-1.76c-1.91,0.66-4.55,0.34-6.56,0.58c-2.45,0.28-4.87,0.69-7.3,1.13
						c-0.97,0.17-2.45,1.2-2.48,2.35c-0.26,11.82-0.67,23.65-1.44,35.45c-0.34,5.21-0.7,10.42-1.44,15.59
						c-0.27,1.89-0.56,3.81-1.05,5.66c-0.16,0.63-0.34,1.25-0.59,1.85c-0.42,1.03-1.07,1.16,0.18,0.42
						c0.79-0.14,1.58-0.28,2.36-0.42c0.7,0.83,1,0.99,0.91,0.5c-0.02-0.19-0.05-0.38-0.07-0.58c-0.03-0.23-0.05-0.45-0.08-0.68
						c-0.05-0.61-0.08-0.46-0.07,0.42c-0.65,0.4-1.3,0.8-1.95,1.2c0.16-0.05,0.31-0.1,0.47-0.14c-0.76-0.01-1.52-0.03-2.28-0.04
						c0.16,0.04,0.31,0.08,0.47,0.12c1.85,0.47,4.28-0.17,4.76-2.3c1.54-6.88,2.05-14.03,2.54-21.06
						c0.84-12.02,1.19-24.08,1.44-36.13c0.04-1.97-2.16-2.21-3.6-1.9c-22.09,4.72-43.62,12.53-64.43,21.34
						c-0.74,0.31-1.67,1.17-1.7,2.06c-0.52,14.41-1.03,28.82-1.55,43.23c-0.06,1.77,0.34,4.63-0.29,6.25
						c0.51-0.49,1.02-0.98,1.53-1.47c0.59-0.09,1.18-0.18,1.76-0.27c0.42,0.42,0.85,0.84,1.27,1.26c-0.43-1.15-0.07-3.39-0.03-4.82
						c0.13-3.85,0.26-7.69,0.4-11.54c0.3-8.72,0.6-17.45,0.9-26.17c0.07-2.06,0.14-4.12,0.21-6.19c0.08-2.36-2.9-2.23-4.37-1.61
						c-2.9,1.23-5.8,2.46-8.67,3.74c-1.22,0.54-2.14,1.9-1.4,3.19c0.3-0.55,0.6-1.09,0.9-1.64c0.79-0.14,1.58-0.28,2.36-0.42
						c0.48,0.02-0.51,0.12-0.6-0.13c-0.15-0.05-0.29-0.09-0.44-0.14c-0.58-0.23-0.48-0.09,0.3,0.4c-0.35,0.55-0.69,1.1-1.04,1.65
						c-0.18,0.15,0.63-0.34,0.9-0.46c0.74-0.33,1.48-0.64,2.22-0.96c2.74-1.17,5.48-2.33,8.23-3.48c0.74-0.31,1.67-1.17,1.7-2.06
						c0.85-24.46,1.7-48.91,2.54-73.37c0.12-3.49,0.24-6.97,0.36-10.46c0.05-1.48-1.49-2.21-2.78-2.04
						c0.46,1.83,0.93,2.32,1.42,1.49c0.14-0.18,0.27-0.37,0.41-0.55c0.23-0.21,0.52-0.67,0.64-0.74c-0.75,0.28-1.5,0.56-2.25,0.84
						c0.18,0,0.37,0,0.55,0.01c-0.68-0.16-1.36-0.33-2.05-0.49c-0.44-0.32-0.01-1.07-0.15-0.11c-0.08,0.55-0.04,1.15-0.06,1.71
						c-0.07,2.09-0.14,4.18-0.21,6.27c-0.24,6.86-0.47,13.72-0.71,20.58c-0.52,15.29-1.05,30.58-1.57,45.87
						c-0.12,3.55-0.24,7.1-0.36,10.65c-0.08,2.37,2.9,2.22,4.37,1.61c20.32-8.51,41.3-16.03,62.84-20.57
						c0.96-0.2,2.45-1.18,2.48-2.35c0.27-12.95,0.45-25.91,0.53-38.87c0.04-6.14,0.05-12.27,0.05-18.41c0-3.11-0.01-6.21-0.03-9.32
						c-0.01-1.62-0.02-3.25-0.03-4.87c0-0.57,0.1-4.52-0.58-4.05c-0.75,0.28-1.5,0.56-2.25,0.84c-2.71,0.45-1.11-1.82-1.45-0.27
						c-0.07,0.31,0.01,0.82,0.01,1.13c0.01,0.83,0.01,1.66,0.01,2.49c0.01,2.31,0.02,4.62,0.03,6.93
						c0.02,6.71,0.04,13.42,0.04,20.13c-0.01,14.78-0.19,29.56-0.48,44.34c-0.03,1.43,1.47,2.27,2.78,2.04
						c4.36-0.75,8.74-1.28,13.17-1.4c3.43-0.1,4.59-4.65,0.51-4.53c-4.43,0.12-8.81,0.65-13.17,1.4c0.93,0.68,1.85,1.36,2.78,2.04
						c0.44-22.17,0.52-44.33,0.44-66.51c-0.01-2.95,0.02-5.9-0.04-8.85c-0.1-4.4-6.59-4.74-7.73-0.73c-0.7,2.47-0.12,5.77-0.11,8.35
						c0.02,2.94,0.03,5.87,0.04,8.81c0.01,5.95,0,11.91-0.03,17.86c-0.07,13.96-0.26,27.92-0.55,41.88
						c0.83-0.78,1.65-1.57,2.48-2.35c-22.08,4.65-43.57,12.43-64.39,21.15c1.46,0.54,2.91,1.07,4.37,1.61
						c0.41-11.84,0.81-23.69,1.22-35.53c0.54-15.68,1.07-31.37,1.61-47.05c0.04-1.23,0.4-3.03-0.09-4.22
						c-1.46-3.54-6.07-1.36-7.66,0.79c-0.7,0.95-1.57,2.02-1.33,3.3c0.34,1.82,2.51,2.34,4.02,2.15c-0.93-0.68-1.85-1.36-2.78-2.04
						c-0.85,24.46-1.7,48.91-2.54,73.37c-0.12,3.49-0.24,6.97-0.36,10.46c0.57-0.69,1.13-1.37,1.7-2.06
						c-3.13,1.32-6.26,2.63-9.38,3.98c-1.65,0.71-3.85,1.4-4.33,3.39c-1.34,5.51,12.64,5.06,9.03-1.23
						c-0.47,1.06-0.94,2.12-1.4,3.19c2.88-1.28,5.77-2.51,8.67-3.74c-1.46-0.54-2.91-1.07-4.37-1.61
						c-0.52,15.05-1.03,30.09-1.55,45.14c-0.09,2.52-0.78,5.64,2.41,6.44c3.99,1,5.28-2.53,5.39-5.6c0.3-8.43,0.6-16.86,0.91-25.29
						c0.26-7.29,0.52-14.57,0.78-21.86c-0.57,0.69-1.13,1.37-1.7,2.06c20.32-8.6,41.32-16.15,62.88-20.76
						c-1.2-0.63-2.4-1.27-3.6-1.9c-0.25,12.05-0.61,24.11-1.44,36.13c-0.49,7.03-1,14.18-2.54,21.06c1.59-0.77,3.17-1.54,4.76-2.3
						c-2.81-0.71-6.23,0.5-6.11,3.89c0.1,2.71,1.98,4.62,4.8,3.85c4.69-1.28,5.14-8.76,5.68-12.69c2.31-16.69,2.46-33.86,2.83-50.68
						c-0.83,0.78-1.65,1.57-2.48,2.35c4.11-0.74,8.25-0.74,12.35-1.32c3.34-0.48,6.31-4.36,2.01-6.14
						C108.42,92.05,104.02,95.82,107.55,97.28z"/>
					<path class="st8" d="M27.77,172.89c-0.44,0-0.91-0.06-1.4-0.19c-3.07-0.77-2.89-3.56-2.75-5.8c0.02-0.35,0.04-0.69,0.06-1.02
						l1.41-41.02c-0.5,0.22-1,0.43-1.49,0.65c-0.14,0.61-0.46,1.05-0.74,1.34c-1.63,1.7-5.56,2.05-7.93,0.7
						c-1.39-0.79-1.96-2.03-1.61-3.49c0.47-1.96,2.42-2.76,3.98-3.41c0.19-0.08,0.38-0.16,0.56-0.24c2.49-1.08,5-2.14,7.51-3.19
						l2.79-80.49c-0.59-0.41-1.03-0.99-1.17-1.76c-0.26-1.36,0.59-2.51,1.27-3.42l0.13-0.17c1.14-1.55,3.64-3.05,5.72-2.79
						c1.19,0.15,2.09,0.87,2.59,2.08c0.09,0.22,0.15,0.45,0.2,0.69l0.35-0.13l-0.34,0.23c0.13,0.83,0.05,1.76-0.02,2.61
						c-0.03,0.35-0.06,0.69-0.07,0.98l-2.69,78.53c21.49-8.78,39.7-14.72,56.7-18.5c0.27-13.58,0.44-26.94,0.51-39.75
						c0.03-5.99,0.04-12,0.03-17.86c-0.01-2.94-0.02-5.87-0.04-8.81c0-0.75-0.06-1.56-0.11-2.42c-0.14-2.09-0.28-4.24,0.24-6.04
						c0.66-2.33,2.98-3.29,4.91-3.03c2.11,0.28,3.5,1.8,3.55,3.86c0.05,2.07,0.04,4.18,0.04,6.22c0,0.88,0,1.76,0,2.64
						c0.08,24.34-0.04,44.64-0.39,63.57c3.55-0.51,6.83-0.8,9.95-0.89c0.14,0,0.27,0,0.39,0c0.44-0.02,0.84,0.05,1.22,0.21
						c2.26,0.94,2.44,2.35,2.35,3.11c-0.21,1.75-2.21,3.44-4.45,3.76c-1.83,0.26-3.69,0.41-5.48,0.55
						c-1.35,0.11-2.73,0.22-4.11,0.37l-0.05,2.42c-0.31,15.16-0.64,30.84-2.73,45.99c-0.05,0.38-0.1,0.79-0.16,1.23
						c-0.53,4.2-1.32,10.56-5.8,11.78c-1.37,0.37-2.6,0.19-3.57-0.54c-1.02-0.77-1.64-2.1-1.7-3.65c0-0.04,0-0.08,0-0.13l-0.71-0.18
						l0.71,0.01c0.03-1.25,0.51-2.3,1.42-3.05c0.11-0.09,0.22-0.17,0.34-0.25c1.24-6.31,1.69-12.8,2.13-19.09
						c0.78-11.24,1.14-22.4,1.37-32.91c-17.33,4.01-35.56,10.11-56.83,19.03l-1.63,45.55c-0.05,1.44-0.4,4.05-2.12,5.38
						C29.44,172.63,28.66,172.89,27.77,172.89z M24.8,170.81c0.34,0.53,0.88,0.94,1.75,1.16c1.26,0.32,2.31,0.17,3.1-0.44
						c0.43-0.33,0.8-0.81,1.09-1.42l-1.95-1.93l-1.47,0.23L24.8,170.81z M25.84,124.53l-1.42,41.38c-0.01,0.34-0.03,0.69-0.06,1.04
						c-0.09,1.42-0.18,2.8,0.38,3.77l0.53-1.36c0.41-1.06,0.35-2.76,0.3-4.27c-0.02-0.67-0.05-1.31-0.03-1.86l1.4-39.18
						C26.57,124.22,26.21,124.38,25.84,124.53z M31.99,121.99l-1.45,42.24c-0.01,0.37-0.05,0.8-0.08,1.25
						c-0.1,1.24-0.21,2.65,0.08,3.42l0.34,0.9c0.35-0.85,0.56-1.9,0.6-3.08l1.62-45.2C32.73,121.67,32.36,121.83,31.99,121.99z
						 M27.7,123.74l-1.42,39.53c-0.02,0.52,0,1.14,0.03,1.8c0.04,1.08,0.08,2.27-0.05,3.29l0.71-0.68l2.06-0.32l0.58,0.57
						c-0.04-0.79,0.03-1.69,0.09-2.52c0.03-0.44,0.07-0.85,0.08-1.22l1.44-41.89l-0.67,0.28l0.08-0.09l-0.52,0.22
						C29.28,123.07,28.48,123.41,27.7,123.74z M86.17,157.84c0.07,1.28,0.57,2.36,1.39,2.98c0.78,0.59,1.8,0.73,2.94,0.42
						c3.99-1.09,4.75-7.14,5.25-11.14c0.06-0.44,0.11-0.86,0.16-1.24c2.09-15.1,2.41-30.76,2.73-45.9l0.05-2.32
						c-0.39,0.05-0.78,0.11-1.17,0.17c-0.24,10.79-0.59,22.29-1.4,33.87c-0.48,6.96-0.99,14.15-2.55,21.12
						c-0.16,0.73-0.54,1.34-1.1,1.81l0.16,0l-0.26,0.08c-0.01,0.01-0.01,0.01-0.02,0.02c0.06,0.38-0.1,0.55-0.24,0.63
						c-0.19,0.09-0.39,0.05-0.63-0.14c-0.56,0.23-1.2,0.35-1.85,0.35c-0.01,0-0.02,0-0.03,0l-2.54,0.78l1.46-0.9
						c-0.05-0.01-0.11-0.02-0.16-0.04l-0.09-0.02c-0.02,0.01-0.03,0.02-0.04,0.03l-0.27,0.2l-0.42-0.41L86.17,157.84z M86.16,157.5
						l1.79,0.03c0.09-0.14,0.16-0.28,0.23-0.44c0.16-0.4,0.29-0.8,0.4-1.2l-1.98,0.96l0.17-0.76c0.05-0.23,0.1-0.47,0.15-0.7
						C86.44,155.95,86.18,156.67,86.16,157.5z M89.47,155.46c0,0.01,0,0.01,0,0.02c-0.14,0.53-0.31,1.15-0.54,1.75l2.19-0.39
						l0.25-0.15c0-0.73,0.03-0.94,0.38-0.96c0.39-0.03,0.41,0.34,0.44,0.71l0.04,0.37c0.3-0.32,0.51-0.72,0.61-1.17
						c1.55-6.91,2.05-14.07,2.53-21c0.8-11.52,1.15-22.95,1.39-33.7c-0.02,0-0.05,0.01-0.07,0.01l-1.24,0.22l0.09-0.09l-0.75,0.16
						c-0.48,0.1-0.97,0.21-1.45,0.31c-0.3,12.43-0.74,22.85-1.38,32.58c-0.36,5.53-0.72,10.53-1.44,15.62
						c-0.16,1.14-0.34,2.33-0.57,3.52c0.66-0.04,1.35,0.03,2.03,0.2l1.01,0.26L89.47,155.46z M87.84,154.65
						c-0.06,0.28-0.11,0.56-0.17,0.84l1.17-0.57c0.06-0.24,0.12-0.48,0.17-0.73C88.59,154.31,88.19,154.46,87.84,154.65z
						 M89.8,154.08c-0.03,0.15-0.06,0.29-0.1,0.43l0.93-0.45C90.35,154.04,90.07,154.05,89.8,154.08z M91.43,102
						c-0.24,10.58-0.59,21.81-1.38,33.14c-0.43,6.12-0.87,12.42-2.03,18.58c0.36-0.15,0.75-0.26,1.16-0.34
						c0.25-1.26,0.44-2.52,0.61-3.72c0.72-5.07,1.07-10.05,1.43-15.56c0.63-9.67,1.07-20.03,1.37-32.37
						C92.2,101.82,91.82,101.91,91.43,102z M25.34,118.05c-2.4,1.01-4.8,2.02-7.19,3.05c-0.18,0.08-0.38,0.16-0.57,0.24
						c-1.48,0.61-3.16,1.31-3.54,2.89c-0.34,1.4,0.49,2.21,1.25,2.64c2.08,1.18,5.63,0.89,7.04-0.57c0.12-0.12,0.22-0.25,0.3-0.38
						c-0.39,0.17-0.78,0.35-1.18,0.52l-0.89,0.4l1.07-2.43l-0.02,0.01c-0.62,0.27-1.24,0.53-1.86,0.81
						c-0.11,0.05-0.31,0.16-0.49,0.27c-0.46,0.26-0.68,0.39-0.88,0.09l-0.19-0.28l0.24-0.21l0.55-0.88l-0.62,0.11l-1.13,2.06
						l-0.33-0.57c-0.33-0.58-0.4-1.22-0.2-1.85c0.25-0.79,0.92-1.49,1.78-1.88c2.22-0.99,4.44-1.95,6.82-2.95L25.34,118.05z
						 M22.64,123.99l-0.61,1.38c0.3-0.13,0.6-0.26,0.89-0.39c0.02-0.32-0.04-0.67-0.16-1.04C22.72,123.95,22.68,123.97,22.64,123.99
						z M23.45,123.64c0.13,0.36,0.19,0.7,0.21,1.01c0.48-0.21,0.96-0.42,1.45-0.63l0.04-1.1C24.59,123.16,24.02,123.4,23.45,123.64z
						 M27.35,119.09c-3.05,1.29-5.81,2.46-8.57,3.7c-0.66,0.29-1.18,0.84-1.37,1.42c-0.05,0.15-0.07,0.29-0.07,0.44l0.55-1.01
						l0.92-0.16c-0.12-0.14-0.15-0.28-0.06-0.45c0.17-0.35,0.54-0.2,0.84-0.09l0.6,0.19l0.03,0.08c0.03,0.01,0.06,0.01,0.09,0.01
						l0.17-0.03l0.04,0c0.3,0.01,0.47,0.13,0.49,0.36l0.03,0.31c0.1-0.04,0.2-0.09,0.31-0.13l0.36-0.15
						c0.13-0.06,0.27-0.11,0.4-0.17l0.58-1.31l0.37,0.64c0.04,0.07,0.08,0.15,0.12,0.22c0.68-0.29,1.36-0.58,2.03-0.86l0.06-1.86
						l1.81,0.67l0.03-0.87c0.01-0.31,0.11-0.62,0.26-0.91C27.35,119.1,27.35,119.1,27.35,119.09z M19.97,124.05l-0.23,0.36
						c0.38-0.17,0.76-0.33,1.14-0.49l-0.2,0.05c0,0-0.14,0.03-0.32,0.02L19.97,124.05z M25.91,122.6l-0.04,1.1
						c0.36-0.16,0.73-0.31,1.1-0.47l0.04-1.09C26.65,122.29,26.28,122.45,25.91,122.6z M27.77,121.96l-0.03,0.95
						c0.4-0.17,0.8-0.34,1.21-0.51L27.77,121.96z M28.61,121.46l2.21,0.81l0.43-0.52l0.05-1.46c0-0.02,0-0.03,0-0.05
						c-0.11,0.03-0.22,0.05-0.33,0.07c-0.26,0.21-0.54,0.37-0.78,0.47l-0.26,0.11C29.49,121.09,29.05,121.28,28.61,121.46z
						 M25.96,121.29l-0.02,0.48c0.2-0.09,0.41-0.17,0.61-0.26L25.96,121.29z M27.88,119.8c-0.02,0.08-0.04,0.16-0.04,0.24
						l-0.03,0.94c0.48-0.2,0.97-0.41,1.45-0.61c-0.46-0.07-0.89-0.22-1.23-0.46C27.97,119.88,27.92,119.84,27.88,119.8z
						 M32.04,120.01c0.01,0.1,0.01,0.21,0.01,0.31l-0.02,0.49l1.01-1.22c-0.33,0.14-0.66,0.28-0.99,0.41
						C32.05,120.01,32.05,120.01,32.04,120.01z M33.13,120.67l-0.02,0.02c0.01,0,0.01,0,0.02-0.01L33.13,120.67z M33.92,119.23
						l-0.04,1.14c21.25-8.89,39.47-14.98,56.81-18.98c0.01-0.34,0.02-0.68,0.02-1.02C73.58,104.28,55.36,110.33,33.92,119.23z
						 M28.25,119.12c0.06,0.06,0.12,0.11,0.19,0.16c0.52,0.37,1.4,0.44,2.23,0.32c0.12-0.1,0.22-0.22,0.32-0.34
						c-0.06-0.07-0.14-0.14-0.22-0.2c-0.5-0.36-1.33-0.43-2.12-0.33C28.5,118.86,28.37,118.99,28.25,119.12z M32.16,117.47
						l-0.03,0.93c-0.01,0.3-0.1,0.59-0.24,0.85c22.32-9.35,41.15-15.65,58.84-19.67c0-0.2,0.01-0.41,0.01-0.61l0.01-0.61l1.61,0.85
						c0.09-0.02,0.19-0.04,0.28-0.06c0-0.16,0.01-0.32,0.01-0.48c0.01-0.3,0.09-0.59,0.23-0.86c-0.09-0.19-0.15-0.39-0.18-0.6
						c-0.45,0.1-0.9,0.2-1.35,0.3l-0.6,0.57l0.01-0.43c-17.2,3.89-35.42,9.89-56.75,18.71l-0.06,1.78L32.16,117.47z M27.18,117.61
						l-0.93,1.12c0.3-0.13,0.6-0.25,0.91-0.38c0,0,0.01,0,0.01-0.01c-0.01-0.1-0.01-0.21-0.01-0.31L27.18,117.61z M30.07,118
						c0.42,0.08,0.81,0.22,1.12,0.44c0.06,0.04,0.11,0.08,0.17,0.13c0.02-0.07,0.03-0.13,0.03-0.2l0.03-0.94
						C30.97,117.63,30.52,117.81,30.07,118z M27.96,116.67l-0.05,1.39c0,0.01,0,0.03,0,0.04c0.14-0.03,0.28-0.06,0.43-0.09
						c0.22-0.16,0.45-0.29,0.68-0.39c0.56-0.24,1.11-0.47,1.66-0.7l-2.25-0.83L27.96,116.67z M26.1,117.73l0,0.02l0.02-0.03
						C26.11,117.73,26.1,117.73,26.1,117.73z M32.75,116.88l0.51,0.19l0.01-0.4C33.1,116.74,32.92,116.81,32.75,116.88z
						 M28.89,37.12l-2.77,79.78c0.02-0.01,0.03-0.01,0.05-0.02l1.05-0.44l2.71-79.03C29.57,37.35,29.22,37.25,28.89,37.12z
						 M30.28,115.97l1.18,0.43l0.03-0.94C31.08,115.63,30.68,115.8,30.28,115.97z M32.24,115.15l-0.04,1.14
						c0.37-0.15,0.73-0.3,1.1-0.46l0.04-1.13C32.97,114.85,32.61,115,32.24,115.15z M30.67,37.47l-2.7,78.65l0.24-0.1l-0.01,0
						l0.89-0.37c0.81-0.34,1.61-0.67,2.42-1.01l2.78-80.09c0.01-0.21-0.02-0.4-0.1-0.58l-0.39-0.01l-0.2,0.27
						c-0.23,0.39-0.52,0.59-0.85,0.54c-0.31-0.05-0.57-0.31-0.81-0.84l-1.17-0.01c0,0.06,0,0.13,0,0.19c0,0.2,0,0.39-0.01,0.58
						l-0.05,1.42l1.64,1.2l-0.94,0.12C31.17,37.46,30.92,37.47,30.67,37.47z M34.1,114.39l-0.04,1.13
						c21.31-8.79,39.53-14.78,56.73-18.66c0.01-0.34,0.01-0.68,0.02-1.02C73.82,99.63,55.61,105.59,34.1,114.39z M34.98,33.98
						c0.04,0.19,0.06,0.39,0.06,0.6l-2.77,79.75c0.37-0.15,0.73-0.3,1.1-0.45l2.7-78.86c0.01-0.31,0.04-0.66,0.07-1.02
						c0.06-0.68,0.12-1.42,0.07-2.07l-1.66,1.12c-0.01,0.01-0.02,0.02-0.04,0.04c0.17,0.19,0.3,0.41,0.38,0.64l1.2,0.29L34.98,33.98
						z M91.47,100.19c-0.01,0.34-0.01,0.68-0.02,1.02c0.39-0.09,0.78-0.18,1.16-0.26c0.01-0.25,0.01-0.5,0.02-0.75l-0.36-0.19
						C92,100.07,91.74,100.13,91.47,100.19z M93.41,99.77l2.27,1.2l1.11-1.05c0.01-0.27,0.01-0.55,0.02-0.82
						c-0.3,0.05-0.6,0.1-0.9,0.15c-0.17,0.03-0.34,0.04-0.51,0.04c-0.2,0.08-0.39,0.14-0.57,0.18
						C94.36,99.56,93.88,99.66,93.41,99.77z M93.36,100.6c0,0.06,0,0.13,0,0.19c0.09-0.02,0.17-0.04,0.26-0.06L93.36,100.6z
						 M98.72,99.12l-0.93,0.89c0.31-0.05,0.61-0.09,0.92-0.13L98.72,99.12z M99.47,98.68l-0.02,1.11c1.36-0.15,2.71-0.26,4.04-0.37
						c1.79-0.14,3.64-0.29,5.44-0.54c1.86-0.27,3.65-1.72,3.82-3.1c0.05-0.43-0.05-0.79-0.25-1.11c0.02,0.43-0.09,0.89-0.33,1.33
						c-0.58,1.1-1.79,1.81-3.14,1.84c-0.47,0.01-0.95,0.03-1.43,0.05l-0.43,0.66l-0.05-0.63C104.69,98.06,102.16,98.31,99.47,98.68z
						 M97.56,98.97c0,0.07,0,0.15-0.01,0.22l0.28-0.26C97.74,98.94,97.65,98.96,97.56,98.97z M93.42,98.53
						c-0.01,0.05-0.02,0.1-0.02,0.16c0,0.1,0,0.2-0.01,0.3c0.17-0.04,0.33-0.07,0.5-0.11c-0.15-0.09-0.29-0.19-0.43-0.3
						C93.46,98.56,93.44,98.55,93.42,98.53z M93.78,97.82c0.06,0.07,0.12,0.13,0.18,0.19c0.34,0.3,0.81,0.48,1.29,0.52
						c0.47-0.22,0.96-0.56,1.27-0.97c-0.05-0.06-0.1-0.11-0.17-0.17c-0.34-0.29-0.86-0.44-1.4-0.47
						C94.53,97.12,94.08,97.44,93.78,97.82z M97.4,97.57c0.08,0.2,0.13,0.41,0.16,0.64c0.42-0.07,0.83-0.13,1.24-0.19l0.71-0.67
						l-0.01,0.57c2.39-0.33,4.67-0.57,6.85-0.71l0.08-0.2c-0.45-0.43-0.63-0.97-0.54-1.55c-0.23,0.01-0.47,0.01-0.7,0.01
						c-0.83,0.01-1.62,0.03-2.33,0.11c-1.13,0.13-2.25,0.29-3.34,0.46c0,0.12,0,0.23-0.01,0.35l-0.01,0.72l-1.19-0.88
						c-0.23,0.04-0.46,0.08-0.69,0.11c0,0.13-0.01,0.27-0.01,0.4C97.6,97.04,97.52,97.31,97.4,97.57z M106.63,97.19L106.63,97.19
						C106.63,97.19,106.63,97.19,106.63,97.19C106.63,97.19,106.63,97.19,106.63,97.19z M107.79,96.97l0.31,0.13l-0.01,0.01
						c0.3-0.01,0.6-0.02,0.9-0.03c1.3-0.04,2.15-0.77,2.51-1.45c0.29-0.55,0.32-1.14,0.06-1.56c-0.09-0.15-0.21-0.27-0.36-0.38
						l-3.46,2.64L107.79,96.97z M93.45,97.05c0,0.01,0,0.01,0,0.01c0.01-0.01,0.01-0.01,0.02-0.02
						C93.46,97.05,93.45,97.05,93.45,97.05z M96.46,96.55c0.13,0.07,0.26,0.16,0.37,0.26c0.01,0,0.01,0.01,0.02,0.01
						c0-0.03,0-0.06,0.01-0.08c0-0.09,0-0.17,0.01-0.26C96.73,96.5,96.6,96.52,96.46,96.55z M92.7,96.24l-0.27,0.26
						c0.09-0.02,0.18-0.04,0.26-0.06C92.7,96.37,92.7,96.31,92.7,96.24z M91.56,95.67c0,0.21-0.01,0.42-0.01,0.63l0.85-0.81
						C92.12,95.55,91.84,95.61,91.56,95.67z M93.46,95.52c-0.01,0.25-0.01,0.5-0.01,0.76c0.02-0.01,0.05-0.01,0.07-0.02
						c0.4-0.09,0.85-0.13,1.31-0.12c0.21-0.09,0.42-0.15,0.61-0.19c0.46-0.08,0.94-0.17,1.43-0.25c0-0.17,0.01-0.34,0.01-0.51
						l-1.47-1.08l0.88-0.15c0.21-0.04,0.41-0.07,0.62-0.11c0.24-12.33,0.4-24.43,0.47-35.98c0.04-6.11,0.05-12.3,0.05-18.4
						c0-3.11-0.01-6.21-0.03-9.32c-0.01-1.62-0.02-3.25-0.03-4.87l0-0.27c0.02-2.29-0.11-3.09-0.2-3.38l-2.13,0.8
						c-0.53,0.09-0.93,0.09-1.23,0.03c0,0.04,0,0.07,0.01,0.1c0.01,0.13,0.02,0.26,0.02,0.36l0.01,2.49
						c0.01,2.31,0.02,4.62,0.03,6.93c0.02,6.71,0.04,13.42,0.03,20.13c-0.01,12.96-0.15,26.72-0.44,42
						c0.03-0.01,0.05-0.01,0.08-0.02l1.31-0.28L93.46,95.52z M106.65,95.44c-0.08,0.29-0.06,0.54,0.07,0.78l0.31-0.8
						C106.91,95.43,106.78,95.43,106.65,95.44z M107.67,95.36l0.01,0.08l0.12-0.09C107.76,95.35,107.72,95.36,107.67,95.36z
						 M97.64,94.81l0.85,0.62c0.1-0.02,0.2-0.03,0.3-0.05c0.01-0.35,0.01-0.71,0.02-1.06c-0.38,0.06-0.77,0.12-1.16,0.18
						C97.64,94.61,97.64,94.71,97.64,94.81z M99.55,94.21c-0.01,0.35-0.01,0.7-0.02,1.06c1.06-0.16,2.14-0.31,3.24-0.44
						c0.75-0.09,1.55-0.1,2.4-0.11c0.33-0.01,0.66-0.01,1-0.02c0.28-0.48,0.73-0.93,1.26-1.29
						C104.93,93.54,102.32,93.81,99.55,94.21z M95.72,17.87c-1.45,0-3.05,0.74-3.55,2.53c-0.48,1.68-0.34,3.76-0.21,5.78
						c0.06,0.87,0.11,1.69,0.11,2.46c0.02,2.94,0.03,5.87,0.04,8.81c0.01,5.86,0,11.87-0.03,17.86c-0.07,12.75-0.23,26.06-0.5,39.58
						c0.39-0.08,0.77-0.17,1.16-0.25c0.29-15.35,0.44-29.16,0.44-42.16c0-6.71-0.02-13.42-0.03-20.13
						c-0.01-2.31-0.02-4.62-0.03-6.93l-0.01-2.49c0-0.09-0.01-0.2-0.02-0.32c-0.01-0.2-0.03-0.41-0.02-0.6
						c-0.02-0.03-0.03-0.06-0.05-0.09c-0.17-0.34-0.07-0.74,0.13-0.93l0.2-0.19l0.31,0.12c0.25,0.15,0.26,0.46,0.21,0.78
						c0.16,0.05,0.45,0.08,1-0.01l2.15-0.81c0.17-0.09,0.35-0.1,0.51-0.01c0.4,0.22,0.63,0.97,0.61,4.14l0,0.26
						c0.01,1.62,0.02,3.25,0.03,4.87c0.02,3.11,0.03,6.22,0.03,9.32c0.01,6.11-0.01,12.3-0.05,18.41
						c-0.07,11.52-0.23,23.57-0.47,35.86c0.39-0.06,0.77-0.12,1.15-0.18c0.35-18.96,0.47-39.29,0.39-63.68c0-0.88,0-1.76,0-2.65
						c0-2.03,0-4.13-0.04-6.2c-0.04-2.03-1.53-2.94-2.9-3.12C96.09,17.88,95.9,17.87,95.72,17.87z M107.46,94.32
						c-0.13,0.11-0.24,0.22-0.34,0.33c0.07-0.01,0.15-0.01,0.22-0.02L107.46,94.32z M107.59,94.22l0.03,0.39
						c0.58-0.06,1.14-0.17,1.63-0.34l1.85-0.64c-0.31-0.18-0.71-0.29-1.2-0.31C109.1,93.35,108.23,93.71,107.59,94.22z M28.92,36.31
						c0.32,0.16,0.68,0.26,1.04,0.33l0.01-0.15l-1.02-0.75L28.92,36.31z M33.62,29.31c-1.68,0-3.7,1.24-4.64,2.52L28.85,32
						c-0.65,0.88-1.33,1.79-1.13,2.82c0.07,0.38,0.24,0.7,0.47,0.95l0.05-1.49l1.75,1.29l0.03-0.91c0.01-0.18,0.01-0.37,0.01-0.55
						c0-0.38,0-0.76,0.05-1.14c-0.08-0.23-0.06-0.47,0.01-0.62l0.14-0.29l0.33,0.07c0.27,0.09,0.31,0.36,0.29,0.61l0.75,0.18
						c-0.03-0.1-0.05-0.2-0.08-0.31l-0.1-0.42l0.42-0.05c0.69-0.09,1.4,0.05,1.97,0.36l2.37-0.89c-0.04-0.24-0.09-0.46-0.17-0.66
						c-0.39-0.96-1.06-1.5-1.99-1.62C33.89,29.32,33.76,29.31,33.62,29.31z M32.81,33.94c0.02,0.03,0.04,0.05,0.05,0.06
						c0.01-0.01,0.02-0.03,0.04-0.06L32.81,33.94z M30.78,33.5c0,0.05,0,0.09,0,0.14l0.23-0.09L30.78,33.5z M32.37,32.88
						c0.02,0.05,0.03,0.1,0.05,0.15l0.3-0.11C32.6,32.89,32.49,32.88,32.37,32.88z"/>
				</g>
			</g>
		</g>
	</g>
</g>
</svg>
