<?xml version="1.0" encoding="utf-8"?>
<!-- Generator: Adobe Illustrator 16.0.0, SVG Export Plug-In . SVG Version: 6.00 Build 0)  -->
<!DOCTYPE svg PUBLIC "-//W3C//DTD SVG 1.1//EN" "http://www.w3.org/Graphics/SVG/1.1/DTD/svg11.dtd">
<svg version="1.1" id="圖層_1" xmlns="http://www.w3.org/2000/svg" xmlns:xlink="http://www.w3.org/1999/xlink" x="0px" y="0px"
	 width="90.709px" height="90.709px" viewBox="0 0 90.709 90.709" enable-background="new 0 0 90.709 90.709" xml:space="preserve">
<linearGradient id="SVGID_1_" gradientUnits="userSpaceOnUse" x1="963.1465" y1="-121.3496" x2="1274.957" y2="-121.3496">
	<stop  offset="0.0635" style="stop-color:#B5B5B6"/>
	<stop  offset="0.254" style="stop-color:#F7F8F8"/>
	<stop  offset="0.6508" style="stop-color:#898989"/>
	<stop  offset="0.9206" style="stop-color:#B5B5B6"/>
</linearGradient>
<path fill="url(#SVGID_1_)" d="M1274.957,147.941c0,23.482-19.037,42.52-42.52,42.52h-226.771c-23.483,0-42.52-19.037-42.52-42.52
	v-538.582c0-23.483,19.037-42.52,42.52-42.52h226.771c23.482,0,42.52,19.037,42.52,42.52V147.941z"/>
<path stroke="#000000" stroke-miterlimit="10" d="M1270.705,144.269c0,23.163-18.518,41.941-41.359,41.941h-220.587
	c-22.843,0-41.36-18.778-41.36-41.941v-531.237c0-23.163,18.517-41.939,41.36-41.939h220.587c22.842,0,41.359,18.777,41.359,41.939
	V144.269z"/>
<linearGradient id="SVGID_2_" gradientUnits="userSpaceOnUse" x1="1119.3682" y1="203.9365" x2="1118.6963" y2="-382.0174">
	<stop  offset="0.2222" style="stop-color:#CBE4C1"/>
	<stop  offset="0.9312" style="stop-color:#F8C8C9"/>
</linearGradient>
<path fill="url(#SVGID_2_)" stroke="#000000" stroke-miterlimit="10" d="M1265.17,138.472c0,22.595-17.85,40.911-39.865,40.911
	h-212.616c-22.017,0-39.866-18.316-39.866-40.911v-518.18c0-22.594,17.849-40.909,39.866-40.909h212.616
	c22.016,0,39.865,18.315,39.865,40.909V138.472z"/>
<path stroke="#000000" stroke-miterlimit="10" d="M1189.197-408.526c-0.633,3.563-4.02,6.404-7.576,6.404h-124.904
	c-3.556,0-6.942-2.841-7.576-6.404l-2.143-12.075c-0.684-3.854,1.824-7.033,5.613-7.033h133.116c3.791,0,6.297,3.179,5.613,7.033
	L1189.197-408.526z"/>
<path fill="#595757" d="M1132.857-414.878c0,0.869-0.992,1.574-2.215,1.574h-22.946c-1.223,0-2.216-0.705-2.216-1.574l0,0
	c0-0.869,0.993-1.574,2.216-1.574h22.946C1131.865-416.452,1132.857-415.747,1132.857-414.878L1132.857-414.878z"/>
<g>
	<linearGradient id="SVGID_3_" gradientUnits="userSpaceOnUse" x1="1138.8926" y1="-414.8779" x2="1143.082" y2="-414.8779">
		<stop  offset="0.0159" style="stop-color:#433F3E"/>
		<stop  offset="0.3386" style="stop-color:#4D4A49"/>
		<stop  offset="0.5397" style="stop-color:#595757"/>
		<stop  offset="0.9735" style="stop-color:#000000"/>
	</linearGradient>
	<circle fill="url(#SVGID_3_)" cx="1140.987" cy="-414.878" r="2.095"/>
	
		<linearGradient id="SVGID_4_" gradientUnits="userSpaceOnUse" x1="886.6484" y1="-472.2139" x2="889.9854" y2="-472.2139" gradientTransform="matrix(-0.95 -0.3123 0.3123 -0.95 2132.3596 -586.061)">
		<stop  offset="0.0159" style="stop-color:#433F3E"/>
		<stop  offset="0.3386" style="stop-color:#4D4A49"/>
		<stop  offset="0.5397" style="stop-color:#595757"/>
		<stop  offset="0.9735" style="stop-color:#000000"/>
	</linearGradient>
	<circle fill="url(#SVGID_4_)" cx="1140.987" cy="-414.878" r="1.668"/>
	
		<radialGradient id="SVGID_5_" cx="888.9639" cy="-471.7061" r="1.8292" gradientTransform="matrix(-0.95 -0.3123 0.3123 -0.95 2132.3596 -586.061)" gradientUnits="userSpaceOnUse">
		<stop  offset="0.0265" style="stop-color:#A9A9A9"/>
		<stop  offset="0.0899" style="stop-color:#686968"/>
		<stop  offset="0.2222" style="stop-color:#172A4F"/>
		<stop  offset="0.5079" style="stop-color:#1A2D76"/>
		<stop  offset="0.7196" style="stop-color:#1E2C5C"/>
		<stop  offset="0.9735" style="stop-color:#080815"/>
	</radialGradient>
	<circle fill="url(#SVGID_5_)" cx="1140.987" cy="-414.878" r="1.309"/>
</g>
<g>
	<linearGradient id="SVGID_6_" gradientUnits="userSpaceOnUse" x1="962.0107" y1="-331.5649" x2="962.3103" y2="-255.4793">
		<stop  offset="0.0265" style="stop-color:#EFEFEF"/>
		<stop  offset="0.0587" style="stop-color:#F4F4F4"/>
		<stop  offset="0.1005" style="stop-color:#FFFFFF"/>
		<stop  offset="0.3342" style="stop-color:#FFFFFF;stop-opacity:0.1"/>
		<stop  offset="0.7778" style="stop-color:#595757"/>
		<stop  offset="0.9683" style="stop-color:#A48B78"/>
	</linearGradient>
	<path fill="url(#SVGID_6_)" d="M965.646-277.146c0,1.847-1.567,3.343-3.5,3.343l0,0c-1.933,0-3.5-1.497-3.5-3.343v-39.813
		c0-1.847,1.567-3.343,3.5-3.343l0,0c1.933,0,3.5,1.497,3.5,3.343V-277.146z"/>
	<path fill="#B5B5B6" d="M963.146-277.146c0,1.847-1.007,3.343-2.25,3.343l0,0c-1.243,0-2.25-1.497-2.25-3.343v-39.813
		c0-1.847,1.007-3.343,2.25-3.343l0,0c1.243,0,2.25,1.497,2.25,3.343V-277.146z"/>
</g>
<g>
	
		<linearGradient id="SVGID_7_" gradientUnits="userSpaceOnUse" x1="691.1094" y1="-317.564" x2="691.5324" y2="-210.1284" gradientTransform="matrix(-1 0 0 1 1967.7646 0)">
		<stop  offset="0.0265" style="stop-color:#EFEFEF"/>
		<stop  offset="0.0587" style="stop-color:#F4F4F4"/>
		<stop  offset="0.1005" style="stop-color:#FFFFFF"/>
		<stop  offset="0.3342" style="stop-color:#FFFFFF;stop-opacity:0.1"/>
		<stop  offset="0.7778" style="stop-color:#595757"/>
		<stop  offset="0.9683" style="stop-color:#A48B78"/>
	</linearGradient>
	<path fill="url(#SVGID_7_)" d="M1272.957-238.328c0,2.688,1.566,4.868,3.5,4.868l0,0c1.934,0,3.5-2.179,3.5-4.868v-57.97
		c0-2.688-1.566-4.868-3.5-4.868l0,0c-1.934,0-3.5,2.179-3.5,4.868V-238.328z"/>
	<path fill="#B5B5B6" d="M1275.457-238.328c0,2.688,1.008,4.868,2.25,4.868l0,0c1.242,0,2.25-2.179,2.25-4.868v-57.97
		c0-2.688-1.008-4.868-2.25-4.868l0,0c-1.242,0-2.25,2.179-2.25,4.868V-238.328z"/>
</g>
<g>
	<linearGradient id="SVGID_8_" gradientUnits="userSpaceOnUse" x1="962.0107" y1="-271.2231" x2="962.2853" y2="-201.4786">
		<stop  offset="0.0265" style="stop-color:#EFEFEF"/>
		<stop  offset="0.0587" style="stop-color:#F4F4F4"/>
		<stop  offset="0.1005" style="stop-color:#FFFFFF"/>
		<stop  offset="0.3342" style="stop-color:#FFFFFF;stop-opacity:0.1"/>
		<stop  offset="0.7778" style="stop-color:#595757"/>
		<stop  offset="0.9683" style="stop-color:#A48B78"/>
	</linearGradient>
	<path fill="url(#SVGID_8_)" d="M965.646-216.805c0,1.847-1.567,3.343-3.5,3.343l0,0c-1.933,0-3.5-1.497-3.5-3.343v-39.813
		c0-1.847,1.567-3.343,3.5-3.343l0,0c1.933,0,3.5,1.497,3.5,3.343V-216.805z"/>
	<path fill="#B5B5B6" d="M963.146-216.805c0,1.847-1.007,3.343-2.25,3.343l0,0c-1.243,0-2.25-1.497-2.25-3.343v-39.813
		c0-1.847,1.007-3.343,2.25-3.343l0,0c1.243,0,2.25,1.497,2.25,3.343V-216.805z"/>
</g>
<text transform="matrix(1 0 0 1 1006.8354 -402.7666)"><tspan x="0" y="0" fill="#FFFFFF" font-family="'ArialMT'" font-size="12">9:3</tspan><tspan x="19.382" y="0" fill="#FFFFFF" font-family="'ArialMT'" font-size="12">0</tspan></text>
<path fill="#FFFFFF" d="M1194.252-402.546c0,0.234-0.447,0.424-1,0.424h-0.5c-0.553,0-1-0.19-1-0.424v-1.749
	c0-0.234,0.447-0.424,1-0.424h0.5c0.553,0,1,0.19,1,0.424V-402.546z"/>
<path fill="#FFFFFF" d="M1197.752-402.834c0,0.393-0.447,0.712-1,0.712h-0.5c-0.553,0-1-0.319-1-0.712v-2.937
	c0-0.393,0.447-0.712,1-0.712h0.5c0.553,0,1,0.319,1,0.712V-402.834z"/>
<path fill="#FFFFFF" d="M1201.252-403.134c0,0.559-0.447,1.012-1,1.012h-0.5c-0.553,0-1-0.453-1-1.012v-4.171
	c0-0.559,0.447-1.012,1-1.012h0.5c0.553,0,1,0.453,1,1.012V-403.134z"/>
<path fill="#FFFFFF" d="M1204.752-403.487c0,0.754-0.447,1.365-1,1.365h-0.5c-0.553,0-1-0.611-1-1.365v-5.63
	c0-0.754,0.447-1.365,1-1.365h0.5c0.553,0,1,0.611,1,1.365V-403.487z"/>
<text transform="matrix(1 0 0 1 1206.1602 -402.1221)" fill="#FFFFFF" font-family="'ArialMT'" font-size="12">4</text>
<text transform="matrix(0.95 0 0 1 1212.2344 -402.1221)" fill="#FFFFFF" font-family="'ArialMT'" font-size="12">G</text>
<g>
	<path opacity="0.6" fill="none" stroke="#FFFFFF" stroke-width="0.5" stroke-miterlimit="10" d="M1242.918-402.698
		c0,0.365-0.213,0.662-0.479,0.662h-18.711c-0.264,0-0.477-0.297-0.477-0.662v-7.122c0-0.366,0.213-0.663,0.477-0.663h18.711
		c0.266,0,0.479,0.297,0.479,0.663V-402.698z"/>
	<path fill="#8FC31F" d="M1240.143-403.314c0,0.302-0.176,0.548-0.396,0.548h-15.475c-0.219,0-0.395-0.246-0.395-0.548v-5.891
		c0-0.302,0.176-0.548,0.395-0.548h15.475c0.221,0,0.396,0.246,0.396,0.548V-403.314z"/>
	<path opacity="0.6" fill="#FFFFFF" d="M1243.473-407.85c0.93,0,1.684,0.712,1.684,1.59c0,0.879-0.754,1.591-1.684,1.591"/>
</g>
<linearGradient id="SVGID_9_" gradientUnits="userSpaceOnUse" x1="955.5483" y1="-120.5049" x2="1019.744" y2="-120.5049">
	<stop  offset="0" style="stop-color:#FFFFFF"/>
	<stop  offset="0.313" style="stop-color:#FFFFFF;stop-opacity:0.1"/>
</linearGradient>
<path fill="url(#SVGID_9_)" d="M988.831,144.219V-385.23c0-23.084,14.51-41.797,32.41-41.797h-20.896
	c-17.901,0-32.411,18.713-32.411,41.797v529.449c0,23.085,14.51,41.8,32.411,41.8h20.896
	C1003.341,186.019,988.831,167.304,988.831,144.219z"/>
<linearGradient id="SVGID_10_" gradientUnits="userSpaceOnUse" x1="767.2344" y1="-120.4648" x2="830.6426" y2="-120.4648" gradientTransform="matrix(-1 0 0 1 2051.1455 0)">
	<stop  offset="0" style="stop-color:#FFFFFF"/>
	<stop  offset="0.3183" style="stop-color:#FFFFFF;stop-opacity:0.1"/>
</linearGradient>
<path fill="url(#SVGID_10_)" d="M1249.551,143.914v-528.759c0-23.054-14.357-41.743-32.068-41.743h20.676
	c17.711,0,32.066,18.689,32.066,41.743v528.759c0,23.054-14.355,41.745-32.066,41.745h-20.676
	C1235.193,185.659,1249.551,166.968,1249.551,143.914z"/>
<path opacity="0.5" fill="#FFFFFF" d="M1252.719,148.576c0,9.357-8.461,16.941-18.895,16.941H1004.28
	c-10.436,0-18.896-7.584-18.896-16.941v-40.783c0-9.357,8.46-16.941,18.896-16.941h229.544c10.434,0,18.895,7.584,18.895,16.941
	V148.576z"/>
<g>
	<path fill="#00AA3A" d="M1045.056,141.525c0,5.939-4.814,10.754-10.753,10.754h-26.684c-5.938,0-10.752-4.814-10.752-10.754
		v-26.682c0-5.939,4.814-10.754,10.752-10.754h26.684c5.939,0,10.753,4.814,10.753,10.754V141.525z"/>
	<path fill="#FFFFFF" d="M1020.815,112.232c-9.709,0-17.581,6.256-17.581,13.973c0,0.146,0.022,0.286,0.027,0.43
		c-0.006,0.153-0.027,0.303-0.027,0.457c0,7.525,7.225,13.625,16.136,13.625c0.533,0,1.058-0.024,1.577-0.067l-1.88,4.791
		c4.288,1.681,12.394-6.073,15.93-10.411c2.688-3.25,3.397-5.606,3.397-8.824C1038.395,118.488,1030.524,112.232,1020.815,112.232z"
		/>
	<g>
		<path fill="#00AA3A" d="M1008.694,130.163v-7.73h1.574v6.417h3.913v1.313H1008.694z"/>
		<path fill="#00AA3A" d="M1015.527,130.163v-7.794h1.574v7.794H1015.527z"/>
		<path fill="#00AA3A" d="M1018.888,130.163v-7.794h1.531l3.19,5.205v-5.205h1.462v7.794h-1.579l-3.142-5.082v5.082H1018.888z"/>
		<path fill="#00AA3A" d="M1027.007,130.163v-7.794h5.779v1.318h-4.206v1.729h3.913v1.313h-3.913v2.121h4.354v1.313H1027.007z"/>
	</g>
</g>
<line fill="#FFFFFF" x1="1094.98" y1="132.81" x2="1093.471" y2="132.81"/>
<linearGradient id="SVGID_11_" gradientUnits="userSpaceOnUse" x1="1085.8804" y1="93.79" x2="1086.8098" y2="161.1799">
	<stop  offset="0.1376" style="stop-color:#2EA7E0"/>
	<stop  offset="0.709" style="stop-color:#036EB8"/>
</linearGradient>
<path fill="url(#SVGID_11_)" d="M1110.45,141.525c0,5.939-4.815,10.754-10.753,10.754h-26.684c-5.938,0-10.753-4.814-10.753-10.754
	v-26.682c0-5.939,4.814-10.754,10.753-10.754h26.684c5.938,0,10.753,4.814,10.753,10.754V141.525z"/>
<path fill="#FFFFFF" d="M1090.326,121.319c0.54-0.471,2.01-0.581,5.287-0.605l0.001-6.519c-12.069,0.219-12.802,2.092-13.036,12.769
	h-6.078v6.533h6.452v18.782h6.806v-18.782h4.74l1.711-6.533h-6.452v-2.303C1089.83,122.941,1089.986,121.615,1090.326,121.319z"/>
<polygon fill="#EFEFEF" points="1224.346,144.393 1224.635,144.306 1225.076,145.673 1224.795,145.766 "/>
<g>
	<path fill="#FFFFFF" d="M1241.236,141.525c0,5.939-4.814,10.754-10.752,10.754h-26.686c-5.938,0-10.752-4.814-10.752-10.754
		v-26.682c0-5.939,4.814-10.754,10.752-10.754h26.686c5.938,0,10.752,4.814,10.752,10.754V141.525z"/>
	<linearGradient id="SVGID_12_" gradientUnits="userSpaceOnUse" x1="1189.0518" y1="140.9775" x2="1247.0319" y2="114.5734">
		<stop  offset="0.4339" style="stop-color:#036EB8"/>
		<stop  offset="0.8624" style="stop-color:#00A0E9"/>
	</linearGradient>
	<circle fill="url(#SVGID_12_)" cx="1217.142" cy="128.185" r="21.3"/>
	<rect x="1217.143" y="108.415" fill="#EFEFEF" width="0.324" height="3.13"/>
	<rect x="1217.908" y="108.415" fill="#EFEFEF" width="0.324" height="1.565"/>
	
		<rect x="1215.237" y="108.498" transform="matrix(0.9944 -0.1055 0.1055 0.9944 -4.8295 128.8009)" fill="#EFEFEF" width="0.324" height="3.131"/>
	
		<rect x="1215.918" y="108.422" transform="matrix(0.9945 -0.1048 0.1048 0.9945 -4.7473 128.0966)" fill="#EFEFEF" width="0.326" height="1.564"/>
	
		<rect x="1213.353" y="108.779" transform="matrix(0.9783 -0.2071 0.2071 0.9783 3.4526 253.6731)" fill="#EFEFEF" width="0.325" height="3.13"/>
	
		<rect x="1213.94" y="108.635" transform="matrix(0.9777 -0.2099 0.2099 0.9777 4.0857 257.3256)" fill="#EFEFEF" width="0.326" height="1.566"/>
	
		<rect x="1211.508" y="109.255" transform="matrix(0.9493 -0.3144 0.3144 0.9493 26.6051 386.5852)" fill="#EFEFEF" width="0.323" height="3.131"/>
	
		<rect x="1211.995" y="109.056" transform="matrix(0.9513 -0.3081 0.3081 0.9513 25.1365 378.8576)" fill="#EFEFEF" width="0.326" height="1.565"/>
	
		<rect x="1209.722" y="109.921" transform="matrix(0.9118 -0.4106 0.4106 0.9118 60.9235 506.6295)" fill="#EFEFEF" width="0.323" height="3.13"/>
	
		<rect x="1210.104" y="109.679" transform="matrix(0.916 -0.4011 0.4011 0.916 57.3291 494.7546)" fill="#EFEFEF" width="0.326" height="1.563"/>
	
		<rect x="1208.017" y="110.77" transform="matrix(0.8636 -0.5042 0.5042 0.8636 108.1991 624.547)" fill="#EFEFEF" width="0.323" height="3.132"/>
	
		<rect x="1208.288" y="110.494" transform="matrix(0.869 -0.4948 0.4948 0.869 103.2614 612.5668)" fill="#EFEFEF" width="0.324" height="1.564"/>
	
		<rect x="1206.409" y="111.792" transform="matrix(0.8051 -0.5932 0.5932 0.8051 167.9697 737.835)" fill="#EFEFEF" width="0.323" height="3.132"/>
	
		<rect x="1206.569" y="111.496" transform="matrix(0.8121 -0.5835 0.5835 0.8121 161.2245 725.2388)" fill="#EFEFEF" width="0.325" height="1.563"/>
	
		<rect x="1204.918" y="112.978" transform="matrix(0.7397 -0.673 0.673 0.7397 236.6383 840.8073)" fill="#EFEFEF" width="0.322" height="3.131"/>
	
		<rect x="1204.963" y="112.67" transform="matrix(0.7466 -0.6653 0.6653 0.7466 229.9257 830.5178)" fill="#EFEFEF" width="0.324" height="1.564"/>
	
		<rect x="1203.557" y="114.313" transform="matrix(0.6651 -0.7467 0.7467 0.6651 316.5768 937.6733)" fill="#EFEFEF" width="0.323" height="3.132"/>
	
		<rect x="1203.489" y="114.006" transform="matrix(0.6748 -0.738 0.738 0.6748 306.748 925.6619)" fill="#EFEFEF" width="0.324" height="1.563"/>
	
		<rect x="1202.345" y="115.783" transform="matrix(0.5838 -0.8119 0.8119 0.5838 405.1807 1025.1287)" fill="#EFEFEF" width="0.321" height="3.131"/>
	
		<rect x="1202.161" y="115.489" transform="matrix(0.5928 -0.8054 0.8054 0.5928 395.9587 1015.6464)" fill="#EFEFEF" width="0.326" height="1.564"/>
	
		<rect x="1201.293" y="117.372" transform="matrix(0.4955 -0.8686 0.8686 0.4955 502.8453 1103.6119)" fill="#EFEFEF" width="0.319" height="3.131"/>
	
		<rect x="1200.997" y="117.102" transform="matrix(0.5039 -0.8638 0.8638 0.5039 494.1044 1096.0225)" fill="#EFEFEF" width="0.326" height="1.565"/>
	
		<rect x="1200.412" y="119.061" transform="matrix(0.4027 -0.9153 0.9153 0.4027 606.6429 1170.9482)" fill="#EFEFEF" width="0.32" height="3.133"/>
	
		<rect x="1200.009" y="118.83" transform="matrix(0.4168 -0.909 0.909 0.4168 591.2601 1160.7385)" fill="#EFEFEF" width="0.323" height="1.564"/>
	
		<rect x="1199.712" y="120.835" transform="matrix(0.3098 -0.9508 0.9508 0.3098 711.7257 1225.3009)" fill="#EFEFEF" width="0.321" height="3.131"/>
	
		<rect x="1199.205" y="120.649" transform="matrix(0.318 -0.9481 0.9481 0.318 702.8092 1219.912)" fill="#EFEFEF" width="0.325" height="1.565"/>
	<polygon fill="#EFEFEF" points="1200.928,124.404 1200.863,124.718 1197.797,124.068 1197.867,123.752 	"/>
	<polygon fill="#EFEFEF" points="1199.561,123.33 1199.488,123.647 1197.959,123.322 1198.025,123.006 	"/>
	
		<rect x="1198.888" y="124.55" transform="matrix(0.1034 -0.9946 0.9946 0.1034 949.6061 1305.6926)" fill="#EFEFEF" width="0.321" height="3.132"/>
	<polygon fill="#EFEFEF" points="1199.148,125.193 1199.111,125.517 1197.557,125.353 1197.588,125.032 	"/>
	<rect x="1197.363" y="127.856" fill="#EFEFEF" width="3.133" height="0.323"/>
	<rect x="1197.367" y="127.09" fill="#EFEFEF" width="1.566" height="0.325"/>
	
		<rect x="1198.852" y="128.357" transform="matrix(-0.1034 -0.9946 0.9946 -0.1034 1193.787 1335.9417)" fill="#EFEFEF" width="0.321" height="3.131"/>
	
		<rect x="1197.995" y="128.46" transform="matrix(-0.0962 -0.9954 0.9954 -0.0962 1184.8107 1334.2764)" fill="#EFEFEF" width="0.325" height="1.565"/>
	
		<rect x="1199.133" y="130.24" transform="matrix(-0.2072 -0.9783 0.9783 -0.2072 1318.8877 1332.3794)" fill="#EFEFEF" width="0.32" height="3.135"/>
	
		<rect x="1198.21" y="130.439" transform="matrix(-0.1984 -0.9801 0.9801 -0.1984 1307.551 1331.8021)" fill="#EFEFEF" width="0.325" height="1.565"/>
	
		<rect x="1199.607" y="132.086" transform="matrix(-0.3089 -0.9511 0.9511 -0.3089 1443.3217 1316.0188)" fill="#EFEFEF" width="0.322" height="3.134"/>
	
		<rect x="1198.63" y="132.383" transform="matrix(-0.3017 -0.9534 0.9534 -0.3017 1433.5173 1316.2723)" fill="#EFEFEF" width="0.324" height="1.567"/>
	
		<rect x="1200.276" y="133.871" transform="matrix(-0.409 -0.9125 0.9125 -0.409 1567.7833 1286.2845)" fill="#EFEFEF" width="0.32" height="3.134"/>
	
		<rect x="1199.252" y="134.274" transform="matrix(-0.3983 -0.9173 0.9173 -0.3983 1553.24 1289.0244)" fill="#EFEFEF" width="0.324" height="1.565"/>
	
		<rect x="1201.125" y="135.578" transform="matrix(-0.506 -0.8626 0.8626 -0.506 1690.7853 1242.7136)" fill="#EFEFEF" width="0.32" height="3.133"/>
	
		<rect x="1200.066" y="136.088" transform="matrix(-0.4994 -0.8664 0.8664 -0.4994 1681.0092 1245.0829)" fill="#EFEFEF" width="0.325" height="1.568"/>
	
		<rect x="1202.149" y="137.185" transform="matrix(-0.5867 -0.8098 0.8098 -0.5867 1795.3638 1193.7792)" fill="#EFEFEF" width="0.32" height="3.134"/>
	
		<rect x="1201.067" y="137.808" transform="matrix(-0.5849 -0.8111 0.8111 -0.5849 1791.467 1193.9473)" fill="#EFEFEF" width="0.324" height="1.567"/>
	
		<rect x="1203.333" y="138.677" transform="matrix(-0.673 -0.7397 0.7397 -0.673 1909.6814 1124.8081)" fill="#EFEFEF" width="0.322" height="3.134"/>
	<polygon fill="#EFEFEF" points="1202.879,139.552 1203.092,139.795 1201.93,140.842 1201.713,140.604 	"/>
	
		<rect x="1204.67" y="140.038" transform="matrix(-0.7457 -0.6663 0.6663 -0.7457 2008.9512 1049.9314)" fill="#EFEFEF" width="0.32" height="3.133"/>
	
		<rect x="1203.578" y="140.889" transform="matrix(-0.7367 -0.6763 0.6763 -0.7367 1994.6704 1060.0889)" fill="#EFEFEF" width="0.323" height="1.565"/>
	
		<rect x="1206.14" y="141.251" transform="matrix(-0.8137 -0.5812 0.5812 -0.8137 2104.8953 960.181)" fill="#EFEFEF" width="0.319" height="3.134"/>
	
		<rect x="1205.061" y="142.215" transform="matrix(-0.8036 -0.5952 0.5952 -0.8036 2088.6467 975.2067)" fill="#EFEFEF" width="0.323" height="1.565"/>
	
		<rect x="1207.728" y="142.303" transform="matrix(-0.8701 -0.4929 0.4929 -0.8701 2187.9761 864.3708)" fill="#EFEFEF" width="0.321" height="3.133"/>
	<polygon fill="#EFEFEF" points="1207.088,143.401 1207.367,143.567 1206.584,144.922 1206.307,144.763 	"/>
	
		<rect x="1209.42" y="143.184" transform="matrix(-0.9153 -0.4027 0.4027 -0.9153 2258.4302 764.3873)" fill="#EFEFEF" width="0.32" height="3.133"/>
	<polygon fill="#EFEFEF" points="1208.734,144.367 1209.029,144.505 1208.393,145.934 1208.098,145.804 	"/>
	
		<rect x="1211.193" y="143.884" transform="matrix(-0.9523 -0.3052 0.3052 -0.9523 2320.5078 653.6874)" fill="#EFEFEF" width="0.32" height="3.133"/>
	<polygon fill="#EFEFEF" points="1210.473,145.157 1210.781,145.263 1210.295,146.751 1209.99,146.651 	"/>
	
		<rect x="1213.03" y="144.394" transform="matrix(-0.9788 -0.2049 0.2049 -0.9788 2370.7188 537.4427)" fill="#EFEFEF" width="0.319" height="3.132"/>
	<polygon fill="#EFEFEF" points="1212.283,145.76 1212.6,145.833 1212.273,147.364 1211.959,147.299 	"/>
	
		<rect x="1214.908" y="144.708" transform="matrix(-0.9946 -0.1037 0.1037 -0.9946 2408.4084 417.8009)" fill="#EFEFEF" width="0.32" height="3.133"/>
	<polygon fill="#EFEFEF" points="1214.145,146.17 1214.471,146.211 1214.305,147.767 1213.986,147.734 	"/>
	<rect x="1216.811" y="144.826" fill="#EFEFEF" width="0.32" height="3.132"/>
	<polygon fill="#EFEFEF" points="1216.043,146.385 1216.369,146.391 1216.367,147.956 1216.047,147.956 	"/>
	
		<rect x="1218.717" y="144.743" transform="matrix(-0.9942 0.1074 -0.1074 -0.9942 2446.4155 160.8656)" fill="#EFEFEF" width="0.318" height="3.133"/>
	<polygon fill="#EFEFEF" points="1217.951,146.4 1218.277,146.372 1218.438,147.929 1218.119,147.963 	"/>
	
		<rect x="1220.601" y="144.462" transform="matrix(-0.9782 0.2079 -0.2079 -0.9782 2445.2122 35.1235)" fill="#EFEFEF" width="0.319" height="3.135"/>
	<polygon fill="#EFEFEF" points="1219.85,146.214 1220.174,146.153 1220.494,147.685 1220.182,147.752 	"/>
	
		<rect x="1222.447" y="143.985" transform="matrix(-0.9499 0.3125 -0.3125 -0.9499 2429.4546 -98.311)" fill="#EFEFEF" width="0.319" height="3.134"/>
	
		<rect x="1224.231" y="143.319" transform="matrix(-0.9119 0.4104 -0.4104 -0.9119 2400.397 -225.4359)" fill="#EFEFEF" width="0.321" height="3.135"/>
	<polygon fill="#EFEFEF" points="1223.539,145.257 1223.842,145.129 1224.475,146.559 1224.182,146.69 	"/>
	
		<rect x="1225.936" y="142.469" transform="matrix(-0.8633 0.5046 -0.5046 -0.8633 2357.3164 -350.3333)" fill="#EFEFEF" width="0.321" height="3.135"/>
	<polygon fill="#EFEFEF" points="1225.289,144.494 1225.576,144.336 1226.355,145.691 1226.078,145.854 	"/>
	<polygon fill="#EFEFEF" points="1226.656,141.84 1226.914,141.649 1228.756,144.188 1228.494,144.372 	"/>
	<polygon fill="#EFEFEF" points="1226.949,143.553 1227.219,143.365 1228.135,144.633 1227.877,144.821 	"/>
	
		<rect x="1229.037" y="140.26" transform="matrix(-0.7369 0.676 -0.676 -0.7369 2230.8701 -584.5964)" fill="#EFEFEF" width="0.321" height="3.135"/>
	<polygon fill="#EFEFEF" points="1228.502,142.444 1228.748,142.229 1229.795,143.393 1229.557,143.607 	"/>
	<polygon fill="#EFEFEF" points="1229.287,139.563 1229.502,139.322 1231.828,141.423 1231.611,141.657 	"/>
	<polygon fill="#EFEFEF" points="1229.932,141.178 1230.152,140.939 1231.314,141.987 1231.1,142.226 	"/>
	<polygon fill="#EFEFEF" points="1230.41,138.23 1230.598,137.97 1233.131,139.815 1232.941,140.07 	"/>
	<polygon fill="#EFEFEF" points="1231.219,139.769 1231.416,139.507 1232.68,140.431 1232.492,140.689 	"/>
	
		<rect x="1232.662" y="135.867" transform="matrix(-0.4988 0.8667 -0.8667 -0.4988 1966.8197 -862.56)" fill="#EFEFEF" width="0.321" height="3.133"/>
	<polygon fill="#EFEFEF" points="1232.354,138.234 1232.521,137.953 1233.875,138.738 1233.713,139.017 	"/>
	
		<rect x="1233.543" y="134.177" transform="matrix(-0.4005 0.9163 -0.9163 -0.4005 1852.1846 -940.3298)" fill="#EFEFEF" width="0.322" height="3.134"/>
	
		<rect x="1233.943" y="135.976" transform="matrix(-0.4168 0.909 -0.909 -0.4168 1872.7444 -928.0679)" fill="#EFEFEF" width="0.323" height="1.565"/>
	<polygon fill="#EFEFEF" points="1232.865,133.639 1232.963,133.331 1235.941,134.304 1235.842,134.605 	"/>
	<polygon fill="#EFEFEF" points="1234.111,134.851 1234.217,134.542 1235.703,135.028 1235.604,135.332 	"/>
	<polygon fill="#EFEFEF" points="1233.352,131.965 1233.414,131.648 1236.479,132.305 1236.41,132.615 	"/>
	<polygon fill="#EFEFEF" points="1234.715,133.041 1234.787,132.722 1236.318,133.051 1236.248,133.362 	"/>
	<polygon fill="#EFEFEF" points="1233.656,130.248 1233.686,129.928 1236.803,130.261 1236.768,130.576 	"/>
	<polygon fill="#EFEFEF" points="1235.127,131.177 1235.164,130.852 1236.723,131.021 1236.686,131.337 	"/>
	<polygon fill="#EFEFEF" points="1233.783,128.512 1233.777,128.188 1236.912,128.194 1236.91,128.512 	"/>
	<polygon fill="#EFEFEF" points="1235.34,129.279 1235.344,128.952 1236.912,128.958 1236.908,129.276 	"/>
	<polygon fill="#EFEFEF" points="1233.725,126.77 1233.686,126.448 1236.805,126.127 1236.836,126.442 	"/>
	<polygon fill="#EFEFEF" points="1235.354,127.371 1235.324,127.046 1236.883,126.887 1236.914,127.203 	"/>
	<polygon fill="#EFEFEF" points="1233.486,125.043 1233.414,124.729 1236.482,124.083 1236.545,124.394 	"/>
	<polygon fill="#EFEFEF" points="1235.17,125.473 1235.105,125.15 1236.639,124.83 1236.703,125.142 	"/>
	<polygon fill="#EFEFEF" points="1233.068,123.352 1232.963,123.045 1235.947,122.082 1236.043,122.385 	"/>
	<polygon fill="#EFEFEF" points="1234.787,123.603 1234.689,123.289 1236.182,122.81 1236.277,123.113 	"/>
	<polygon fill="#EFEFEF" points="1232.477,121.713 1232.34,121.419 1235.205,120.149 1235.334,120.44 	"/>
	<polygon fill="#EFEFEF" points="1234.211,121.782 1234.082,121.481 1235.516,120.849 1235.643,121.142 	"/>
	<polygon fill="#EFEFEF" points="1231.715,120.146 1231.551,119.867 1234.268,118.305 1234.424,118.582 	"/>
	<polygon fill="#EFEFEF" points="1233.447,120.033 1233.287,119.748 1234.648,118.97 1234.803,119.245 	"/>
	<polygon fill="#EFEFEF" points="1230.795,118.665 1230.602,118.406 1233.141,116.568 1233.324,116.828 	"/>
	<polygon fill="#EFEFEF" points="1232.506,118.374 1232.316,118.106 1233.588,117.189 1233.771,117.448 	"/>
	<polygon fill="#EFEFEF" points="1229.725,117.29 1229.506,117.051 1231.838,114.959 1232.049,115.197 	"/>
	<polygon fill="#EFEFEF" points="1231.395,116.821 1231.18,116.574 1232.348,115.531 1232.559,115.769 	"/>
	<polygon fill="#EFEFEF" points="1228.516,116.033 1228.273,115.819 1230.375,113.495 1230.609,113.71 	"/>
	<polygon fill="#EFEFEF" points="1230.131,115.392 1229.889,115.171 1230.943,114.01 1231.176,114.225 	"/>
	<polygon fill="#EFEFEF" points="1227.184,114.909 1226.92,114.725 1228.768,112.192 1229.023,112.381 	"/>
	<polygon fill="#EFEFEF" points="1228.721,114.105 1228.459,113.91 1229.385,112.646 1229.639,112.834 	"/>
	<polygon fill="#EFEFEF" points="1225.74,113.931 1225.459,113.776 1227.031,111.064 1227.305,111.226 	"/>
	<polygon fill="#EFEFEF" points="1227.186,112.97 1226.902,112.804 1227.693,111.45 1227.967,111.61 	"/>
	<polygon fill="#EFEFEF" points="1224.205,113.11 1223.908,112.984 1225.188,110.125 1225.477,110.255 	"/>
	<polygon fill="#EFEFEF" points="1225.541,112.003 1225.242,111.868 1225.887,110.438 1226.174,110.569 	"/>
	<polygon fill="#EFEFEF" points="1222.59,112.455 1222.281,112.359 1223.256,109.383 1223.555,109.48 	"/>
	<polygon fill="#EFEFEF" points="1223.803,111.212 1223.492,111.109 1223.982,109.619 1224.283,109.723 	"/>
	<polygon fill="#EFEFEF" points="1220.916,111.972 1220.598,111.908 1221.258,108.847 1221.564,108.912 	"/>
	<polygon fill="#EFEFEF" points="1221.992,110.608 1221.672,110.54 1222.006,109.006 1222.314,109.077 	"/>
	<polygon fill="#EFEFEF" points="1219.201,111.666 1218.877,111.637 1219.213,108.521 1219.527,108.554 	"/>
	<polygon fill="#EFEFEF" points="1220.129,110.197 1219.803,110.163 1219.975,108.603 1220.289,108.64 	"/>
	<g>
		<polygon fill="#E60012" points="1218.088,129.44 1216.195,127.246 1232.391,115.753 		"/>
		<polygon fill="#FFFFFF" points="1216.168,127.251 1218.063,129.44 1201.871,140.946 		"/>
	</g>
</g>
<g>
	<path fill="#FFFFFF" d="M1175.844,141.525c0,5.939-4.814,10.754-10.754,10.754h-26.684c-5.938,0-10.752-4.814-10.752-10.754
		v-26.682c0-5.939,4.814-10.754,10.752-10.754h26.684c5.939,0,10.754,4.814,10.754,10.754V141.525z"/>
	<path fill="#E60012" d="M1169.66,134.328c0,4.235-2.572,7.668-5.744,7.668h-24.334c-3.174,0-5.746-3.433-5.746-7.668V122.37
		c0-4.234,2.572-7.669,5.746-7.669h24.334c3.172,0,5.744,3.435,5.744,7.669V134.328z"/>
	<polygon fill="#FFFFFF" points="1157.518,128.129 1148.273,133.466 1148.273,122.79 	"/>
</g>
<g>
	<circle opacity="0.4" fill="#FFFFFF" cx="1105.168" cy="77.507" r="3.344"/>
	<circle fill="#FFFFFF" cx="1119.502" cy="77.507" r="3.344"/>
	<circle opacity="0.4" fill="#FFFFFF" cx="1133.836" cy="77.507" r="3.344"/>
</g>
<g>
	<linearGradient id="SVGID_13_" gradientUnits="userSpaceOnUse" x1="1027.7046" y1="-388.0049" x2="1015.0023" y2="-313.2417">
		<stop  offset="0.0317" style="stop-color:#CBE4C1"/>
		<stop  offset="0.5661" style="stop-color:#7DBE27"/>
		<stop  offset="0.9788" style="stop-color:#00913A"/>
	</linearGradient>
	<path fill="url(#SVGID_13_)" d="M1045.056-334.976c0,5.939-4.814,10.754-10.753,10.754h-26.684
		c-5.938,0-10.752-4.814-10.752-10.754v-26.682c0-5.939,4.814-10.754,10.752-10.754h26.684c5.939,0,10.753,4.814,10.753,10.754
		V-334.976z"/>
</g>
<g>
	<linearGradient id="SVGID_14_" gradientUnits="userSpaceOnUse" x1="1090.0732" y1="-388.9214" x2="1085.355" y2="-337.3857">
		<stop  offset="0.2011" style="stop-color:#3155A5"/>
		<stop  offset="0.9418" style="stop-color:#63C5E3"/>
	</linearGradient>
	<path fill="url(#SVGID_14_)" d="M1110.45-334.976c0,5.939-4.815,10.754-10.753,10.754h-26.684c-5.938,0-10.753-4.814-10.753-10.754
		v-26.682c0-5.939,4.814-10.754,10.753-10.754h26.684c5.938,0,10.753,4.814,10.753,10.754V-334.976z"/>
	<g>
		<linearGradient id="SVGID_15_" gradientUnits="userSpaceOnUse" x1="1062.9961" y1="-361.9375" x2="1102.8296" y2="-339.4375">
			<stop  offset="0.1693" style="stop-color:#F8B62D"/>
			<stop  offset="0.2622" style="stop-color:#F9BC28"/>
			<stop  offset="0.4051" style="stop-color:#FCCB11"/>
			<stop  offset="0.5767" style="stop-color:#FFE200"/>
		</linearGradient>
		<circle fill="url(#SVGID_15_)" cx="1077.888" cy="-353.526" r="8.903"/>
		<path opacity="0.5" fill="#FFFFFF" d="M1103.725-342.188c0-4.41-3.916-7.985-8.746-7.985c-0.611,0-1.206,0.058-1.781,0.166
			c-1.607-3.458-4.832-5.819-8.55-5.819c-4.616,0-8.474,3.642-9.417,8.503c-2.339,1.302-3.87,3.464-3.87,5.913
			c0,3.641,3.386,6.65,7.781,7.137v0.07h17.168v-0.103C1100.506-334.894,1103.725-338.193,1103.725-342.188z"/>
	</g>
</g>
<g>
	<path fill="#FFFFFF" d="M1175.844-334.976c0,5.939-4.814,10.754-10.754,10.754h-26.684c-5.938,0-10.752-4.814-10.752-10.754
		v-26.682c0-5.939,4.814-10.754,10.752-10.754h26.684c5.939,0,10.754,4.814,10.754,10.754V-334.976z"/>
	<g>
		<path fill="none" stroke="#000000" stroke-width="5" stroke-miterlimit="10" d="M1139.678-354.151"/>
		<polygon fill="none" points="1141.885,-349.528 1141.885,-349.527 1151.783,-356.051 1151.748,-356.074 		"/>
		<polygon fill="none" points="1141.885,-339.607 1161.611,-339.607 1161.611,-349.528 1151.783,-356.051 1141.885,-349.527 		"/>
		<polygon fill="#E60012" points="1141.885,-349.528 1151.748,-356.074 1151.783,-356.051 1155.549,-358.534 1151.748,-361.055 
			1137.473,-351.582 1137.473,-347.412 1137.473,-346.618 1141.885,-349.527 		"/>
		<polygon fill="#F8B62D" points="1141.885,-339.828 1141.885,-349.527 1137.473,-346.618 1137.473,-335.578 1141.885,-335.578 
			1141.885,-339.607 		"/>
		<rect x="1141.885" y="-339.607" fill="#009944" width="19.727" height="4.029"/>
		<polygon fill="#036EB8" points="1155.549,-358.534 1151.783,-356.051 1161.611,-349.528 1161.611,-339.874 1161.611,-339.607 
			1161.611,-335.578 1166.025,-335.578 1166.025,-351.582 		"/>
	</g>
</g>
<g>
	<path fill="#3E3A39" d="M1241.236-334.976c0,5.939-4.814,10.754-10.752,10.754h-26.686c-5.938,0-10.752-4.814-10.752-10.754
		v-26.682c0-5.939,4.814-10.754,10.752-10.754h26.686c5.938,0,10.752,4.814,10.752,10.754V-334.976z"/>
	<g>
		<path fill="#C9CACA" d="M1236.877-335.047c0,1.341-0.975,2.428-2.178,2.428h-35.115c-1.201,0-2.178-1.087-2.178-2.428v-23.603
			c0-1.34,0.977-2.427,2.178-2.427h35.115c1.203,0,2.178,1.087,2.178,2.427V-335.047z"/>
		<path fill="#0F5493" d="M1235.154-337.629c0,1.133-0.889,2.052-1.988,2.052h-32.049c-1.098,0-1.986-0.918-1.986-2.052v-19.941
			c0-1.133,0.889-2.051,1.986-2.051h32.049c1.1,0,1.988,0.918,1.988,2.051V-337.629z"/>
		<path fill="#F8B62D" d="M1235.154-338.822c0,0.962-0.889,1.742-1.988,1.742h-32.049c-1.098,0-1.986-0.78-1.986-1.742v-16.944
			c0-0.961,0.889-1.742,1.986-1.742h32.049c1.1,0,1.988,0.781,1.988,1.742V-338.822z"/>
		<path fill="#22AC38" d="M1235.154-337.233c0,0.914-0.889,1.655-1.988,1.655h-32.049c-1.098,0-1.986-0.741-1.986-1.655v-16.085
			c0-0.914,0.889-1.655,1.986-1.655h32.049c1.1,0,1.988,0.741,1.988,1.655V-337.233z"/>
		<path fill="#D71E24" d="M1235.154-335.313c0,0.891-0.889,1.614-1.988,1.614h-32.049c-1.098,0-1.986-0.723-1.986-1.614v-15.696
			c0-0.892,0.889-1.614,1.986-1.614h32.049c1.1,0,1.988,0.723,1.988,1.614V-335.313z"/>
		<g>
			<defs>
				<path id="SVGID_16_" d="M1236.877-335.583c0,1.636-0.975,2.964-2.178,2.964h-35.115c-1.201,0-2.178-1.328-2.178-2.964v-28.822
					c0-1.637,0.977-2.964,2.178-2.964h35.115c1.203,0,2.178,1.327,2.178,2.964V-335.583z"/>
			</defs>
			<clipPath id="SVGID_17_">
				<use xlink:href="#SVGID_16_"  overflow="visible"/>
			</clipPath>
			<path clip-path="url(#SVGID_17_)" fill="#B3B3B3" d="M1236.449-349.227h-1.486h-12.105h-0.281c0,0.013-0.004,0.022-0.004,0.033
				c-1.156,0.147-2.068,1.167-2.209,2.461h-0.029c0,2.173-1.621,3.934-3.627,3.934c-2.004,0-3.629-1.761-3.629-3.934h-0.002
				c-0.135-1.26-1.004-2.263-2.117-2.451c-0.002-0.015-0.006-0.029-0.008-0.044h-0.371h-12.105h-1.094
				c-1.34,0-2.424,1.269-2.424,2.834v10.94c0,1.565,1.084,2.833,2.424,2.833h39.068c1.34,0,2.424-1.268,2.424-2.833v-10.94
				C1238.873-347.958,1237.789-349.227,1236.449-349.227z"/>
		</g>
	</g>
</g>
<rect x="1197.406" y="-349.995" fill="#9FA0A0" width="1.725" height="0.768"/>
<rect x="1235.154" y="-349.936" fill="#9FA0A0" width="1.723" height="0.705"/>
<g>
	<path fill="#FFFFFF" d="M1110.553-262.72c0,5.939-4.813,10.753-10.754,10.753h-26.683c-5.938,0-10.752-4.814-10.752-10.753v-26.682
		c0-5.939,4.814-10.754,10.752-10.754h26.683c5.94,0,10.754,4.814,10.754,10.754V-262.72z"/>
	<g opacity="0.9">
		<path opacity="0.8" fill="#F39800" d="M1092.578-283.586c0,3.333-2.74,6.037-6.12,6.037l0,0c-3.379,0-6.119-2.703-6.119-6.037
			v-7.163c0-3.333,2.74-6.036,6.119-6.036l0,0c3.38,0,6.12,2.703,6.12,6.036V-283.586z"/>
		<path opacity="0.8" fill="#E60012" d="M1085.464-285.708c2.357,2.356,2.331,6.205-0.06,8.595l0,0
			c-2.389,2.389-6.238,2.415-8.594,0.059l-5.066-5.065c-2.355-2.357-2.33-6.206,0.059-8.595l0,0c2.39-2.39,6.238-2.417,8.595-0.059
			L1085.464-285.708z"/>
		<path opacity="0.8" fill="#E61673" d="M1078.933-282.18c3.333,0,6.037,2.74,6.037,6.12l0,0c0,3.379-2.704,6.118-6.037,6.118
			h-7.164c-3.333,0-6.036-2.74-6.036-6.118l0,0c0-3.38,2.703-6.12,6.036-6.12H1078.933z"/>
		<path opacity="0.8" fill="#601986" d="M1076.811-275.066c2.356-2.356,6.205-2.331,8.595,0.06l0,0
			c2.389,2.39,2.414,6.239,0.058,8.595l-5.065,5.065c-2.356,2.356-6.206,2.331-8.593-0.058l0,0c-2.39-2.39-2.417-6.238-0.06-8.596
			L1076.811-275.066z"/>
		<path opacity="0.8" fill="#036EB8" d="M1080.339-268.535c-0.001-3.333,2.74-6.037,6.119-6.037l0,0
			c3.379,0,6.118,2.704,6.118,6.037v7.164c0,3.331-2.739,6.035-6.117,6.035l0,0c-3.38,0-6.121-2.703-6.12-6.036V-268.535z"/>
		<path opacity="0.8" fill="#00913A" d="M1087.454-266.412c-2.358-2.356-2.331-6.206,0.058-8.595l0,0
			c2.39-2.389,6.239-2.415,8.595-0.059l5.065,5.066c2.356,2.355,2.332,6.205-0.057,8.593l0,0c-2.391,2.39-6.24,2.417-8.597,0.059
			L1087.454-266.412z"/>
		<path opacity="0.8" fill="#FAEE00" d="M1096.106-277.055c-2.356,2.357-6.205,2.33-8.594-0.059l0,0
			c-2.389-2.39-2.415-6.239-0.059-8.595l5.065-5.065c2.356-2.356,6.205-2.331,8.594,0.058l0,0c2.391,2.39,2.417,6.24,0.058,8.597
			L1096.106-277.055z"/>
		<path opacity="0.8" fill="#8FC31F" d="M1093.984-269.941c-3.333,0.002-6.035-2.74-6.036-6.118l0,0
			c0.001-3.38,2.704-6.119,6.036-6.119h7.165c3.33,0,6.035,2.739,6.035,6.117l0,0c0,3.38-2.704,6.121-6.037,6.12H1093.984z"/>
	</g>
</g>
<g>
	<g>
		<g>
			<defs>
				<path id="SVGID_18_" d="M1045.407-262.718c0,5.938-4.815,10.752-10.752,10.752h-26.685c-5.937,0-10.752-4.814-10.752-10.752
					v-26.677c0-5.938,4.815-10.752,10.752-10.752h26.685c5.937,0,10.752,4.813,10.752,10.752V-262.718z"/>
			</defs>
			<clipPath id="SVGID_19_">
				<use xlink:href="#SVGID_18_"  overflow="visible"/>
			</clipPath>
			<g clip-path="url(#SVGID_19_)">
				<polygon fill="#0093D6" points="1022.816,-273.379 1002.61,-253.177 1001.494,-251.962 1044.676,-251.962 1043.529,-253.21 
					1043.26,-252.94 				"/>
				<polygon fill="#999999" points="1045.885,-258.013 1046.257,-296.816 1026.666,-277.228 				"/>
				<polygon fill="#999999" points="1045.859,-255.375 1045.861,-255.541 1045.777,-255.458 				"/>
				<polygon fill="#009F53" points="996.166,-301.313 996.945,-255.21 1043.468,-301.725 				"/>
				<polygon fill="#E6E6E6" points="1045.885,-258.013 1045.861,-255.541 1047.108,-256.789 				"/>
				<polygon fill="#E6E6E6" points="1023.958,-274.521 1043.529,-253.21 1045.777,-255.458 1025.494,-276.057 				"/>
				<polygon fill="#E6E6E6" points="1022.816,-273.379 1043.26,-252.94 1043.529,-253.21 1023.958,-274.521 				"/>
				<polygon fill="#E6E6E6" points="1026.666,-277.228 1025.494,-276.057 1045.777,-255.458 1045.861,-255.541 1045.885,-258.013 
									"/>
				<polygon fill="#FFF100" points="1021.16,-275.036 1025.009,-278.884 1025.575,-278.318 1046.274,-298.546 1046.257,-296.816 
					1052.91,-303.468 1049.062,-307.317 1043.468,-301.725 1045.681,-301.744 997.002,-251.808 996.945,-255.21 993.26,-251.525 
					997.108,-247.677 1002.61,-253.177 1021.955,-274.241 				"/>
				<polygon fill="#FFF100" points="1021.955,-274.241 1002.61,-253.177 1022.816,-273.379 				"/>
				<polygon fill="#FFF100" points="1025.575,-278.318 1026.666,-277.228 1046.257,-296.816 1046.274,-298.546 				"/>
				<polygon fill="#FFF100" points="1045.681,-301.744 1043.468,-301.725 996.945,-255.21 997.002,-251.808 				"/>
				<polygon fill="#FFF100" points="1025.575,-278.318 1025.009,-278.884 1021.16,-275.036 1021.955,-274.241 1023.085,-275.471 
					1023.958,-274.521 1025.494,-276.057 1024.398,-277.169 				"/>
				<polygon fill="#FFF100" points="1021.955,-274.241 1022.816,-273.379 1023.958,-274.521 1023.085,-275.471 				"/>
				<polygon fill="#FFF100" points="1024.398,-277.169 1025.494,-276.057 1026.666,-277.228 1025.575,-278.318 				"/>
			</g>
		</g>
		<path fill="#DC001A" d="M1045.384-287.398c0.355-6.451-3.348-13.009-10.181-12.749c-5.713,0.218-10.618,4.437-10.618,11.354
			c0,0.07,0.018,0.148,0.024,0.222c-0.04,0.327-0.064,0.658-0.064,0.996c0,3.77,3.99,6.812,6.27,8.419
			c0.565,0.661,1.042,1.232,1.352,1.66c2.603,4.95,2.426,8.725,3.207,8.725c1.119,0,0.285-2.937,2.857-8.441
			c0.316-0.53,1.22-2.096,2.419-2.875c1.799-1.815,3.149-2.308,3.928-3.948c0.271-0.389,0.611-1.639,0.663-1.909
			c0.137-0.577,0.103-0.931,0.103-0.938c0.006-0.067,0.007-0.136,0.011-0.205C1045.367-287.189,1045.378-287.292,1045.384-287.398z"
			/>
		<path fill="#D0E39E" d="M1018.204-288.285h-7.1v2.582h4.084c-0.644,2.334-2.784,4.056-5.325,4.056
			c-3.048,0-5.527-2.475-5.527-5.517c0-3.042,2.479-5.516,5.528-5.516h0.001c1.38,0,2.701,0.51,3.721,1.438l1.972-2.158
			c-1.56-1.419-3.581-2.2-5.692-2.2h-0.002c-4.662,0-8.455,3.785-8.455,8.436c0,4.652,3.792,8.437,8.455,8.437
			c4.162,0,7.621-3.02,8.317-6.977h0.024V-288.285z"/>
	</g>
	<circle fill="#930000" cx="1035.34" cy="-289.569" r="3.562"/>
</g>
<radialGradient id="SVGID_20_" cx="1143.8486" cy="-250.0654" r="67.5348" fx="1143.5248" fy="-249.9736" gradientTransform="matrix(1.0888 0 0 1.0888 -104.2672 31.919)" gradientUnits="userSpaceOnUse">
	<stop  offset="0.0317" style="stop-color:#FFFFFF"/>
	<stop  offset="0.127" style="stop-color:#FAEE00"/>
	<stop  offset="0.2593" style="stop-color:#EA5514"/>
	<stop  offset="0.328" style="stop-color:#E72012"/>
	<stop  offset="0.4074" style="stop-color:#E60012"/>
	<stop  offset="0.582" style="stop-color:#9F356F"/>
	<stop  offset="0.6825" style="stop-color:#93387A"/>
	<stop  offset="0.8995" style="stop-color:#036EB8"/>
</radialGradient>
<path fill="url(#SVGID_20_)" d="M1175.895-262.72c0,5.939-4.814,10.753-10.752,10.753h-26.684c-5.938,0-10.752-4.814-10.752-10.753
	v-26.682c0-5.939,4.814-10.753,10.752-10.753h26.684c5.938,0,10.752,4.814,10.752,10.753V-262.72z"/>
<path fill="none" stroke="#FFFFFF" stroke-width="3" stroke-miterlimit="10" d="M1166.482-266.099c0,2.776-2.438,5.025-5.445,5.025
	h-18.473c-3.006,0-5.443-2.25-5.443-5.025v-19.926c0-2.776,2.438-5.025,5.443-5.025h18.473c3.008,0,5.445,2.25,5.445,5.025V-266.099
	z"/>
<circle fill="none" stroke="#FFFFFF" stroke-width="3" stroke-miterlimit="10" cx="1151.802" cy="-276.061" r="7.688"/>
<circle fill="#FFFFFF" cx="1160.777" cy="-285.171" r="1.855"/>
<g>
	<circle fill="#A49590" cx="182.905" cy="-81.522" r="42.52"/>
	<g>
		<path fill="none" stroke="#FFFFFF" stroke-width="4" stroke-miterlimit="10" d="M205.799-65.984c0,4.329-3.801,7.837-8.492,7.837
			H168.5c-4.688,0-8.489-3.508-8.489-7.837v-31.074c0-4.329,3.801-7.837,8.489-7.837h28.808c4.69,0,8.492,3.508,8.492,7.837V-65.984
			z"/>
		<circle fill="none" stroke="#FFFFFF" stroke-width="4" stroke-miterlimit="10" cx="182.905" cy="-81.521" r="11.99"/>
		<circle fill="#FFFFFF" cx="196.902" cy="-95.729" r="2.894"/>
	</g>
</g>
<g>
	<circle fill="#FFFFFF" cx="182.905" cy="45.354" r="42.52"/>
	<g>
		<path fill="none" stroke="#A2938F" stroke-width="4" stroke-miterlimit="10" d="M205.799,60.893c0,4.329-3.801,7.837-8.492,7.837
			H168.5c-4.688,0-8.489-3.508-8.489-7.837V29.818c0-4.329,3.801-7.837,8.489-7.837h28.808c4.69,0,8.492,3.508,8.492,7.837V60.893z"
			/>
		<circle fill="none" stroke="#A2938F" stroke-width="4" stroke-miterlimit="10" cx="182.905" cy="45.356" r="11.99"/>
		<circle fill="#A2938F" cx="196.902" cy="31.148" r="2.894"/>
	</g>
</g>
<g>
	<path fill="#FFFFFF" d="M1241.238-262.72c0,5.939-4.814,10.753-10.754,10.753h-26.684c-5.938,0-10.752-4.814-10.752-10.753v-26.682
		c0-5.939,4.814-10.753,10.752-10.753h26.684c5.939,0,10.754,4.814,10.754,10.753V-262.72z"/>
	<g>
		<circle fill="none" stroke="#0085C9" stroke-miterlimit="10" cx="1201.92" cy="-288.403" r="3.666"/>
		<circle fill="#0085C9" cx="1201.919" cy="-288.403" r="2.124"/>
	</g>
	<g>
		<circle fill="#FFFFFF" stroke="#D70051" stroke-miterlimit="10" cx="1201.92" cy="-276.061" r="3.666"/>
		<circle fill="#E60012" cx="1201.919" cy="-276.061" r="2.124"/>
	</g>
	<g>
		<circle fill="none" stroke="#F8B62D" stroke-miterlimit="10" cx="1201.92" cy="-263.719" r="3.666"/>
		<circle fill="#F8B62D" cx="1201.919" cy="-263.719" r="2.124"/>
	</g>
	
		<line fill="none" stroke="#B5B5B6" stroke-width="0.75" stroke-miterlimit="10" x1="1209.912" y1="-288.404" x2="1235.154" y2="-288.403"/>
	
		<line fill="none" stroke="#B5B5B6" stroke-width="0.75" stroke-miterlimit="10" x1="1209.912" y1="-276.061" x2="1235.154" y2="-276.061"/>
	
		<line fill="none" stroke="#B5B5B6" stroke-width="0.75" stroke-miterlimit="10" x1="1209.912" y1="-263.718" x2="1235.154" y2="-263.718"/>
</g>
<linearGradient id="SVGID_21_" gradientUnits="userSpaceOnUse" x1="1152.2588" y1="-231.6963" x2="1151.2062" y2="-153.2777">
	<stop  offset="0.0053" style="stop-color:#1A479C"/>
	<stop  offset="0.4497" style="stop-color:#2EA7E0"/>
	<stop  offset="0.7037" style="stop-color:#66C5D9"/>
	<stop  offset="0.9841" style="stop-color:#EFEFEF"/>
</linearGradient>
<path fill="url(#SVGID_21_)" d="M1175.896-184.364c0,5.939-4.816,10.754-10.754,10.754h-26.684c-5.938,0-10.752-4.814-10.752-10.754
	v-26.681c0-5.939,4.814-10.754,10.752-10.754h26.684c5.938,0,10.754,4.814,10.754,10.754V-184.364z"/>
<g>
	<g>
		<linearGradient id="SVGID_22_" gradientUnits="userSpaceOnUse" x1="1004.333" y1="-228.291" x2="1035.5646" y2="-172.9664">
			<stop  offset="0.0794" style="stop-color:#EFEFEF"/>
			<stop  offset="0.328" style="stop-color:#DCDDDD"/>
			<stop  offset="0.6455" style="stop-color:#B5B5B6"/>
			<stop  offset="0.9577" style="stop-color:#9FA0A0"/>
		</linearGradient>
		<path fill="url(#SVGID_22_)" d="M1045.176-185.523c0,5.989-4.855,10.843-10.843,10.843h-26.903
			c-5.987,0-10.841-4.854-10.841-10.843v-26.902c0-5.988,4.854-10.843,10.841-10.843h26.903c5.988,0,10.843,4.855,10.843,10.843
			V-185.523z"/>
		<circle fill="#494545" cx="1020.882" cy="-198.974" r="21.743"/>
		<linearGradient id="SVGID_23_" gradientUnits="userSpaceOnUse" x1="1002.8193" y1="-212.8989" x2="1048.2263" y2="-177.8765">
			<stop  offset="0.0794" style="stop-color:#EFEFEF"/>
			<stop  offset="0.3545" style="stop-color:#DCDDDD"/>
			<stop  offset="0.7249" style="stop-color:#B5B5B6"/>
			<stop  offset="1" style="stop-color:#728E9D"/>
		</linearGradient>
		<path fill="url(#SVGID_23_)" d="M1037.593-198.964c0-0.042-0.002-0.083-0.003-0.124l2.875-0.358l-0.018-0.567l-2.901-0.155
			c-0.031-0.419-0.073-0.835-0.132-1.245l2.793-0.753l-0.096-0.559l-2.891,0.25c-0.087-0.41-0.192-0.814-0.309-1.214l2.662-1.135
			l-0.173-0.54l-2.823,0.648c-0.144-0.393-0.307-0.778-0.479-1.157l2.479-1.495l-0.246-0.512l-2.708,1.037
			c-0.198-0.369-0.412-0.728-0.635-1.079l2.247-1.826l-0.314-0.473l-2.541,1.405c-0.247-0.337-0.506-0.664-0.777-0.981l1.973-2.12
			l-0.378-0.425l-2.321,1.746c-0.291-0.299-0.592-0.588-0.904-0.864l1.658-2.375l-0.433-0.367l-2.057,2.052
			c-0.328-0.256-0.665-0.502-1.014-0.733l1.311-2.58l-0.48-0.305l-1.75,2.318c-0.361-0.208-0.729-0.407-1.106-0.588l0.938-2.733
			l-0.518-0.235l-1.409,2.538c-0.387-0.155-0.778-0.299-1.179-0.426l0.549-2.838l-0.546-0.159l-1.042,2.708
			c-0.404-0.101-0.813-0.184-1.227-0.254l0.149-2.891l-0.564-0.082l-0.655,2.825c-0.412-0.042-0.83-0.064-1.25-0.075l-0.258-2.889
			h-0.567l-0.257,2.894c-0.42,0.015-0.836,0.045-1.247,0.09l-0.656-2.821l-0.562,0.079l0.147,2.899
			c-0.413,0.073-0.822,0.157-1.224,0.26l-1.041-2.697l-0.544,0.155l0.549,2.849c-0.398,0.13-0.791,0.274-1.175,0.433l-1.407-2.529
			l-0.518,0.23l0.94,2.744c-0.375,0.185-0.742,0.383-1.101,0.595l-1.747-2.311l-0.481,0.299l1.313,2.587
			c-0.345,0.234-0.679,0.484-1.005,0.744l-2.053-2.046l-0.435,0.363l1.662,2.38c-0.309,0.28-0.605,0.574-0.892,0.875l-2.32-1.741
			l-0.379,0.421l1.978,2.125c-0.267,0.32-0.521,0.651-0.764,0.99l-2.538-1.401l-0.318,0.469l2.254,1.83
			c-0.221,0.354-0.427,0.716-0.621,1.086l-2.706-1.034l-0.25,0.509l2.485,1.499c-0.168,0.38-0.324,0.766-0.464,1.161l-2.821-0.646
			l-0.176,0.54l2.67,1.138c-0.113,0.399-0.216,0.803-0.3,1.213l-2.882-0.247l-0.1,0.559l2.804,0.754
			c-0.056,0.41-0.098,0.825-0.124,1.244l-2.894,0.157l-0.021,0.567l2.881,0.357c0.001,0.421,0.021,0.836,0.053,1.249l-2.845,0.558
			l0.057,0.564l2.903-0.047c0.059,0.416,0.133,0.825,0.223,1.23l-2.736,0.947l0.135,0.551l2.868-0.45
			c0.116,0.402,0.244,0.799,0.389,1.188l-2.576,1.318l0.211,0.527l2.778-0.846c0.171,0.381,0.352,0.757,0.55,1.123l-2.367,1.664
			l0.284,0.492l2.633-1.224c0.224,0.353,0.457,0.699,0.704,1.034l-2.116,1.979l0.35,0.448l2.438-1.58
			c0.269,0.319,0.549,0.627,0.841,0.924l-1.821,2.257l0.409,0.395l2.194-1.903c0.309,0.278,0.631,0.543,0.961,0.797l-1.489,2.488
			l0.46,0.335l1.906-2.188c0.345,0.231,0.702,0.449,1.065,0.655l-1.128,2.67l0.502,0.267l1.581-2.43
			c0.375,0.182,0.758,0.346,1.147,0.5l-0.745,2.8l0.534,0.195l1.229-2.627c0.395,0.126,0.797,0.238,1.205,0.336l-0.348,2.876
			l0.556,0.118l0.852-2.776c0.408,0.07,0.82,0.13,1.239,0.169l0.055,2.897l0.566,0.039l0.458-2.87
			c0.18,0.005,0.361,0.013,0.542,0.013c0.237,0,0.473-0.008,0.707-0.018l0.459,2.863l0.566-0.038l0.055-2.903
			c0.417-0.043,0.829-0.107,1.237-0.181l0.853,2.771l0.555-0.118l-0.351-2.879c0.407-0.102,0.807-0.22,1.202-0.352l1.229,2.622
			l0.533-0.192l-0.748-2.804c0.388-0.159,0.768-0.33,1.141-0.516l1.581,2.426l0.502-0.265l-1.132-2.674
			c0.361-0.211,0.715-0.432,1.059-0.668l1.905,2.184l0.459-0.333l-1.495-2.493c0.328-0.258,0.65-0.525,0.958-0.807l2.189,1.897
			l0.409-0.393l-1.827-2.261c0.289-0.3,0.57-0.61,0.835-0.931l2.432,1.573l0.35-0.446l-2.123-1.983
			c0.245-0.337,0.479-0.684,0.699-1.041l2.625,1.22l0.285-0.49l-2.376-1.667c0.195-0.368,0.377-0.744,0.545-1.128l2.769,0.842
			l0.215-0.525l-2.583-1.319c0.142-0.391,0.266-0.79,0.377-1.194l2.861,0.448l0.139-0.55l-2.741-0.946
			c0.085-0.406,0.152-0.819,0.207-1.236l2.897,0.047l0.062-0.565l-2.852-0.556C1037.575-198.21,1037.593-198.585,1037.593-198.964z
			 M1014.536-190.615l-0.187,0.326c-0.47,0.798-1.159,1.374-2.007,1.534c-0.837,0.155-1.67-0.12-2.391-0.676
			c-0.357-0.348-0.693-0.712-1.006-1.092c-1.952-2.379-3.024-5.349-3.071-8.386l0.005,0c-0.034-3.035,0.955-6.029,2.839-8.457
			c0.303-0.39,0.627-0.763,0.977-1.12c0.704-0.576,1.53-0.874,2.371-0.741c0.854,0.136,1.557,0.692,2.047,1.477l0.196,0.322
			l4.582,7.541l0.089,0.147c0.127,0.204,0.21,0.419,0.215,0.648l0.001,0.007c0.001,0.005,0.002,0.008,0.002,0.01
			c0.001,0.137-0.023,0.271-0.065,0.401l-0.265,0.462L1014.536-190.615z M1034.476-194.371c-0.123,0.482-0.271,0.957-0.444,1.416
			c-1.082,2.882-3.12,5.292-5.724,6.853l-0.003-0.004c-2.611,1.546-5.698,2.187-8.745,1.768c-0.488-0.068-0.973-0.162-1.458-0.285
			c-0.849-0.323-1.521-0.889-1.826-1.682c-0.309-0.808-0.179-1.696,0.255-2.513l0.182-0.333l4.24-7.738l0.083-0.149
			c0.112-0.21,0.259-0.391,0.453-0.512l0.006-0.004c0.003-0.002,0.006-0.004,0.009-0.006c0.116-0.07,0.245-0.116,0.379-0.143
			l0.533-0.001l8.744-0.045l0.375-0.002c0.926,0.007,1.769,0.316,2.332,0.972C1034.419-196.133,1034.597-195.273,1034.476-194.371z
			 M1034.019-201.412c-0.543,0.673-1.377,1.002-2.302,1.036l-0.376,0.008l-8.823,0.197l-0.169,0.004
			c-0.241,0.007-0.47-0.028-0.67-0.138l-0.008-0.003c-0.004-0.001-0.007-0.001-0.011-0.003c-0.119-0.065-0.221-0.154-0.313-0.257
			l-0.269-0.46l-4.41-7.551l-0.19-0.324c-0.456-0.807-0.61-1.689-0.322-2.504c0.282-0.803,0.939-1.389,1.779-1.733
			c0.48-0.135,0.963-0.245,1.449-0.325c3.037-0.501,6.145,0.055,8.798,1.535l-0.002,0.003c2.645,1.487,4.742,3.839,5.902,6.686
			c0.187,0.458,0.346,0.926,0.482,1.406C1034.71-202.938,1034.556-202.073,1034.019-201.412z"/>
		<circle fill="#E60012" cx="1042.625" cy="-220.717" r="7.822"/>
		<linearGradient id="SVGID_24_" gradientUnits="userSpaceOnUse" x1="1010.5933" y1="-210.4536" x2="1039.6968" y2="-178.0008">
			<stop  offset="0.0794" style="stop-color:#EFEFEF"/>
			<stop  offset="0.3545" style="stop-color:#DCDDDD"/>
			<stop  offset="0.7249" style="stop-color:#B5B5B6"/>
			<stop  offset="1" style="stop-color:#9FA0A0"/>
		</linearGradient>
		<path fill="url(#SVGID_24_)" d="M1031.257-198.968c0-0.026-0.002-0.051-0.002-0.078l1.784-0.221l-0.011-0.353l-1.801-0.096
			c-0.018-0.26-0.044-0.518-0.083-0.773l1.735-0.467l-0.06-0.347l-1.795,0.156c-0.054-0.255-0.119-0.506-0.191-0.754l1.652-0.705
			l-0.107-0.335l-1.753,0.404c-0.089-0.245-0.191-0.483-0.297-0.719l1.538-0.927l-0.153-0.318l-1.682,0.643
			c-0.123-0.229-0.255-0.451-0.393-0.67l1.395-1.134l-0.195-0.292l-1.577,0.872c-0.153-0.209-0.314-0.412-0.483-0.609l1.225-1.317
			l-0.233-0.264l-1.442,1.084c-0.18-0.186-0.367-0.366-0.561-0.538l1.028-1.474l-0.269-0.229l-1.276,1.274
			c-0.205-0.159-0.414-0.312-0.63-0.455l0.813-1.602l-0.299-0.188l-1.086,1.439c-0.223-0.129-0.452-0.252-0.686-0.365l0.583-1.696
			l-0.322-0.146l-0.875,1.576c-0.24-0.097-0.483-0.187-0.731-0.265l0.34-1.762l-0.338-0.1l-0.647,1.681
			c-0.25-0.062-0.505-0.114-0.762-0.156l0.094-1.795l-0.352-0.051l-0.405,1.754c-0.256-0.025-0.515-0.039-0.776-0.046l-0.16-1.793
			h-0.353l-0.159,1.796c-0.261,0.01-0.518,0.029-0.773,0.057l-0.408-1.753l-0.348,0.049l0.09,1.801
			c-0.256,0.046-0.51,0.097-0.759,0.162l-0.646-1.675l-0.339,0.096l0.342,1.77c-0.247,0.081-0.491,0.17-0.729,0.268l-0.874-1.57
			l-0.32,0.143l0.583,1.704c-0.233,0.114-0.46,0.238-0.684,0.37l-1.084-1.435l-0.299,0.187l0.815,1.606
			c-0.214,0.145-0.421,0.3-0.624,0.461l-1.275-1.271l-0.27,0.226l1.032,1.478c-0.191,0.173-0.376,0.355-0.554,0.542l-1.44-1.081
			l-0.236,0.262l1.228,1.32c-0.167,0.199-0.323,0.404-0.474,0.614l-1.577-0.87l-0.197,0.292l1.399,1.136
			c-0.137,0.219-0.265,0.445-0.385,0.674l-1.68-0.642l-0.155,0.317l1.543,0.929c-0.104,0.236-0.201,0.476-0.288,0.722l-1.751-0.401
			l-0.11,0.335l1.658,0.706c-0.071,0.248-0.134,0.499-0.187,0.753l-1.788-0.153l-0.063,0.347l1.741,0.469
			c-0.035,0.255-0.061,0.512-0.077,0.772l-1.796,0.097l-0.014,0.353l1.788,0.222c0.001,0.26,0.014,0.518,0.034,0.775l-1.768,0.346
			l0.036,0.351l1.803-0.03c0.036,0.258,0.083,0.512,0.138,0.764l-1.698,0.588l0.083,0.342l1.781-0.28
			c0.073,0.25,0.152,0.496,0.242,0.738l-1.6,0.818l0.132,0.327l1.724-0.524c0.106,0.237,0.218,0.469,0.341,0.697l-1.469,1.032
			l0.176,0.306l1.635-0.761c0.138,0.22,0.282,0.435,0.437,0.643l-1.313,1.229l0.217,0.278l1.513-0.98
			c0.167,0.198,0.342,0.389,0.522,0.573l-1.13,1.401l0.254,0.245l1.362-1.181c0.193,0.172,0.391,0.337,0.597,0.495l-0.924,1.545
			l0.286,0.208l1.183-1.358c0.214,0.144,0.436,0.278,0.661,0.406l-0.7,1.658l0.312,0.166l0.982-1.508
			c0.232,0.113,0.47,0.215,0.711,0.31l-0.463,1.738l0.332,0.122l0.762-1.632c0.246,0.079,0.495,0.148,0.749,0.209l-0.216,1.787
			l0.345,0.073l0.528-1.724c0.253,0.043,0.51,0.08,0.77,0.105l0.035,1.799l0.352,0.024l0.283-1.782
			c0.113,0.003,0.224,0.009,0.337,0.009c0.148,0,0.293-0.005,0.439-0.011l0.284,1.776l0.352-0.023l0.033-1.802
			c0.26-0.028,0.516-0.067,0.768-0.114l0.529,1.721l0.345-0.073l-0.218-1.787c0.253-0.064,0.5-0.137,0.745-0.22l0.764,1.629
			l0.332-0.12l-0.465-1.741c0.241-0.098,0.477-0.205,0.708-0.32l0.981,1.506l0.312-0.164l-0.703-1.661
			c0.224-0.131,0.443-0.269,0.657-0.414l1.183,1.355l0.286-0.207l-0.928-1.548c0.204-0.16,0.403-0.326,0.595-0.501l1.358,1.177
			l0.254-0.244l-1.135-1.403c0.18-0.187,0.354-0.378,0.52-0.579l1.51,0.978l0.217-0.278l-1.318-1.231
			c0.152-0.209,0.297-0.424,0.433-0.645l1.631,0.757l0.177-0.305l-1.476-1.035c0.121-0.228,0.233-0.462,0.338-0.701l1.718,0.523
			l0.133-0.326l-1.603-0.818c0.087-0.244,0.165-0.491,0.236-0.742l1.774,0.279l0.087-0.342l-1.703-0.588
			c0.053-0.251,0.096-0.507,0.128-0.767l1.799,0.03l0.039-0.351l-1.771-0.346C1031.247-198.5,1031.257-198.732,1031.257-198.968z
			 M1020.882-190.71c-4.564,0-8.264-3.7-8.264-8.264c0-4.564,3.7-8.264,8.264-8.264c4.563,0,8.264,3.7,8.264,8.264
			C1029.146-194.411,1025.445-190.71,1020.882-190.71z"/>
	</g>
	<text transform="matrix(1 0 0 1 1039.4194 -216.854)" fill="#FFFFFF" font-family="'ArialMT'" font-size="10.978">1</text>
</g>
<path fill="#FFFFFF" d="M1037.503-341.248c-2.454-0.825-2.737-0.979-4.979-2.227c-0.942-0.524-2.172-0.13-2.78,0.939
	c-0.67,1.18-1.003,1.771-1.673,2.952c-6.226-3.927-8.964-6.65-13.037-12.978c1.081-0.772,1.621-1.158,2.701-1.929
	c0.979-0.7,1.284-2.015,0.734-2.977c-1.31-2.288-1.875-3.502-2.796-6.037c-0.387-1.065-1.566-1.645-2.691-1.264
	c-1.257,0.426-2.123,0.719-3.085,1.044c-0.301,0.059-0.584,0.162-0.855,0.289c-1.261,0.594-2.14,1.867-2.14,3.354
	c0,0.486,0.1,0.947,0.269,1.372c0.013,0.036,0.027,0.072,0.041,0.106c0.57,1.482,1.049,2.53,1.899,4.205
	c0.442,0.871,0.673,1.3,1.156,2.143c5.145,8.992,8.973,12.802,17.786,17.705c0.683,0.38,1.027,0.562,1.727,0.912
	c1.263,0.632,2.181,1.058,3.175,1.457c0.099,0.044,0.177,0.08,0.259,0.117c0.272,0.074,0.542,0.154,0.818,0.227
	c0.144,0.038,0.291,0.056,0.438,0.076c0.011,0,0.019-0.006,0.03-0.006c0.034,0,0.058,0.016,0.09,0.019
	c0.08-0.006,0.159-0.011,0.238-0.019c0.002,0,0.003,0,0.005,0c0.022-0.002,0.033-0.007,0.058-0.009
	c0.213-0.018,0.414-0.054,0.605-0.098c1.521-0.238,2.033-1.447,2.396-2.709c0.036-0.124,0.07-0.247,0.092-0.375
	c0.277-1.123,0.515-2.087,0.871-3.53C1039.152-339.695,1038.536-340.901,1037.503-341.248z"/>
<text transform="matrix(1 0 0 1 1012.8325 -313.8159)" fill="#FFFFFF" font-family="'AdobeFanHeitiStd-Bold-B5pc-H'" font-size="8">電話</text>
<text transform="matrix(1 0 0 1 1078.8535 -313.8159)" fill="#FFFFFF" font-family="'AdobeFanHeitiStd-Bold-B5pc-H'" font-size="8">天氣</text>
<text transform="matrix(1 0 0 1 1126.9863 -313.8159)" fill="#FFFFFF" font-family="'AdobeFanHeitiStd-Bold-B5pc-H'" font-size="8">Google Home</text>
<text transform="matrix(1 0 0 1 1210.082 -313.8159)" fill="#FFFFFF" font-family="'AdobeFanHeitiStd-Bold-B5pc-H'" font-size="8">錢包</text>
<text transform="matrix(1 0 0 1 997.0288 -241.3159)" fill="#FFFFFF" font-family="'AdobeFanHeitiStd-Bold-B5pc-H'" font-size="8">Google Maps</text>
<text transform="matrix(1 0 0 1 1012.8325 -164.3159)" fill="#FFFFFF" font-family="'AdobeFanHeitiStd-Bold-B5pc-H'" font-size="8">設定</text>
<text transform="matrix(1 0 0 1 1078.8535 -241.3159)" fill="#FFFFFF" font-family="'AdobeFanHeitiStd-Bold-B5pc-H'" font-size="8">照片</text>
<text transform="matrix(1 0 0 1 1133.4941 -241.3159)" fill="#FFFFFF" font-family="'AdobeFanHeitiStd-Bold-B5pc-H'" font-size="8">Instagram</text>
<text transform="matrix(1 0 0 1 1202.082 -241.3159)" fill="#FFFFFF" font-family="'AdobeFanHeitiStd-Bold-B5pc-H'" font-size="8">提醒事項</text>
<g>
	<g>
		<path fill="#FFFFFF" d="M1111.309-185.634c0,5.939-4.816,10.753-10.755,10.753h-26.683c-5.937,0-10.752-4.814-10.752-10.753
			v-26.682c0-5.939,4.815-10.754,10.752-10.754h26.683c5.938,0,10.755,4.814,10.755,10.754V-185.634z"/>
	</g>
	<g>
		<path fill="#D70051" d="M1080-211.238v-0.581h-2.171v-0.567H1080v-0.609h-1.912c-0.098,0.182-0.294,0.406-0.596,0.651
			l-0.483-0.385c0.476-0.392,0.833-0.861,1.058-1.394l0.539,0.245l-0.161,0.315H1080v-0.609h-2.255
			c-0.056,0-0.084-0.028-0.084-0.084v-2.423c0-0.056,0.028-0.084,0.084-0.084h5.057c0.056,0,0.084,0.028,0.084,0.084v2.423
			c0,0.056-0.028,0.084-0.084,0.084h-2.206v0.609h2.521v0.567h-2.521v0.609h2.381v0.567h-2.381v0.581h2.822v0.567h-6.332v-0.567
			H1080z M1078.229-215.735h4.09v-0.441l-0.028-0.021h-4.041l-0.021,0.021V-215.735z M1082.318-215.195h-4.09v0.427l0.021,0.028
			h4.041c0.021,0,0.028-0.007,0.028-0.028V-215.195z"/>
		<path fill="#D70051" d="M1085.375-211.617c-0.315,0.525-0.666,0.917-1.037,1.184c-0.105-0.196-0.217-0.351-0.329-0.456
			c0.357-0.266,0.651-0.616,0.861-1.043L1085.375-211.617z M1084.556-212.646v-3.124h-0.497v-0.546h0.497v-0.561h0.567v0.561h1.429
			v-0.561h0.567v0.561h0.399v0.546h-0.399v3.124h0.477v0.539h-3.558v-0.539H1084.556z M1085.123-215.083h1.429v-0.686h-1.429
			V-215.083z M1085.123-213.851h1.429v-0.693h-1.429V-213.851z M1085.123-212.646h1.429v-0.666h-1.429V-212.646z M1086.636-210.748
			c-0.133-0.287-0.301-0.595-0.511-0.917l0.483-0.252c0.189,0.301,0.371,0.623,0.519,0.959L1086.636-210.748z M1088.387-212.765
			c-0.084,0.777-0.309,1.534-0.666,2.262l-0.588-0.196c0.448-0.994,0.693-1.891,0.708-2.689v-3.201c0-0.105,0.049-0.161,0.161-0.161
			h2.087c0.112,0,0.175,0.056,0.175,0.168v5.379c0,0.581-0.33,0.686-0.862,0.686c-0.14,0-0.301-0.007-0.476-0.028l-0.042-0.651
			c0.28,0.077,0.49,0.112,0.609,0.112c0.203,0,0.203-0.182,0.203-0.287v-1.394H1088.387z M1088.408-215h1.289v-1.142
			c0-0.049-0.028-0.07-0.077-0.07h-1.142c-0.042,0-0.07,0.028-0.07,0.077V-215z M1088.408-213.304h1.289v-1.156h-1.289V-213.304z"/>
		<path fill="#D70051" d="M1091.115-211.427h6.303v0.623h-6.303V-211.427z M1091.472-216.603h5.589v0.623h-5.589V-216.603z
			 M1091.717-214.054h5.071v0.623h-5.071V-214.054z"/>
	</g>
	<g>
		<g>
			<g>
				<path d="M1083.633-197.705l-0.818-0.495c0.53-0.648,0.823-1.399,0.847-2.173c0.036-1.13-0.493-2.208-1.49-3.034
					c-1.009-0.837-2.374-1.317-3.843-1.351c-1.466-0.049-2.861,0.38-3.921,1.168c-1.047,0.78-1.644,1.831-1.68,2.961l-1-0.023
					c0.044-1.375,0.763-2.649,2.026-3.587c1.249-0.93,2.876-1.412,4.603-1.379c1.719,0.041,3.321,0.605,4.51,1.592
					c1.201,0.996,1.839,2.303,1.795,3.677C1084.632-199.406,1084.277-198.491,1083.633-197.705z"/>
			</g>
			<g>
				<polygon points="1072.676,-183.806 1071.848,-184.288 1083.016,-198.468 1083.844,-197.986 				"/>
			</g>
		</g>
		<g>
			<rect x="1071.86" y="-184.311" width="12.804" height="0.859"/>
		</g>
	</g>
	<g>
		<g>
			<rect x="1088.187" y="-205.355" width="13.815" height="1"/>
		</g>
		<polygon points="1101.083,-204.808 1090.075,-183.452 1091.228,-183.452 1101.998,-204.345 		"/>
	</g>
</g>
<g>
	<path fill="#FFFFFF" d="M1135.436-207.292c-0.438,0.38-0.713,0.922-0.713,1.527v16.122c0,0.499,0.188,0.957,0.498,1.316
		l11.539-9.572L1135.436-207.292z"/>
	<path fill="#FFFFFF" d="M1168.881-205.646c0-0.585-0.256-1.113-0.664-1.489l-11.121,9.343l11.305,9.495
		c0.299-0.354,0.48-0.806,0.48-1.299V-205.646z"/>
	<path fill="#FFFFFF" d="M1156.455-197.244l-2.211,1.823c-0.686,0.435-1.49,0.689-2.357,0.689c-0.838,0-1.619-0.24-2.289-0.648
		l-2.289-1.885l-11.549,9.515c0.404,0.462,1.018,0.758,1.705,0.758h28.785c0.693,0,1.313-0.301,1.715-0.77L1156.455-197.244z"/>
	<path fill="#FFFFFF" d="M1166.238-208.417h-28.787c-0.576,0-1.098,0.209-1.49,0.549l12.537,10.328l1.02,0.842
		c0.686,0.413,1.486,0.656,2.346,0.656c0.918,0,1.771-0.275,2.486-0.744l0.766-0.631l12.65-10.421
		C1167.369-208.195,1166.83-208.417,1166.238-208.417z"/>
</g>
<text transform="matrix(1 0 0 1 1074.8535 -164.3159)" fill="#FFFFFF" font-family="'AdobeFanHeitiStd-Bold-B5pc-H'" font-size="8">行事曆</text>
<text transform="matrix(1 0 0 1 1143.9453 -164.3159)" fill="#FFFFFF" font-family="'AdobeFanHeitiStd-Bold-B5pc-H'" font-size="8">郵件</text>
<g>
	<path fill="#FFFFFF" d="M1241.066-183.923c0,5.938-4.814,10.752-10.754,10.752h-26.684c-5.938,0-10.752-4.814-10.752-10.752
		v-26.683c0-5.938,4.814-10.753,10.752-10.753h26.684c5.939,0,10.754,4.814,10.754,10.753V-183.923z"/>
	
		<radialGradient id="SVGID_25_" cx="1222.9805" cy="-188.2061" r="22.9708" fx="1221.7904" fy="-189.8643" gradientTransform="matrix(-0.7337 -0.7312 1.0688 -0.9103 2319.4214 534.7163)" gradientUnits="userSpaceOnUse">
		<stop  offset="0.0317" style="stop-color:#47A4DC"/>
		<stop  offset="0.2063" style="stop-color:#60A0D6"/>
		<stop  offset="0.3439" style="stop-color:#7163A1"/>
		<stop  offset="0.5185" style="stop-color:#7E69AD"/>
		<stop  offset="0.6614" style="stop-color:#AC70A6"/>
		<stop  offset="0.9312" style="stop-color:#EA596E"/>
	</radialGradient>
	<path fill="url(#SVGID_25_)" d="M1226.976-212.656l-17.491,2.573c-0.353,0-0.638,0.162-0.638,0.36v3.381v2.26v14.922l0,0
		c0,0.531-0.006,0.656-1.507,0.666c-0.172-0.016-0.347-0.024-0.522-0.024c-2.469,0-4.472,1.487-4.472,3.322
		c0,1.834,2.003,3.321,4.472,3.321c2.467,0,4.466-1.487,4.466-3.321v-18.526l13.894-2.573v14.873
		c-0.065,0.273-0.341,0.349-1.505,0.354c-0.175-0.014-0.349-0.023-0.526-0.023c-2.469,0-4.47,1.488-4.47,3.323
		c0,1.833,2.001,3.321,4.47,3.321c2.467,0,4.468-1.488,4.468-3.321v-18.886v-2.259v-3.382
		C1227.613-212.495,1227.326-212.656,1226.976-212.656z"/>
</g>
<text transform="matrix(1 0 0 1 1209.9121 -164.3159)" fill="#FFFFFF" font-family="'AdobeFanHeitiStd-Bold-B5pc-H'" font-size="8">音樂</text>
<g>
	<circle fill="#A49590" cx="311.912" cy="-81.522" r="42.52"/>
	<path fill="#FFFFFF" d="M316.811-95.529c0.808-0.703,3.004-0.867,7.901-0.904l0.001-9.741
		c-18.035,0.327-19.132,3.126-19.481,19.082h-9.083v9.764h9.642v28.067h10.171v-28.067h7.084l2.558-9.764h-9.642v-3.442
		C316.071-93.104,316.304-95.086,316.811-95.529z"/>
</g>
<g>
	<circle fill="#FFFFFF" cx="309.335" cy="56.743" r="42.52"/>
	<path fill="#A2938F" d="M314.234,42.736c0.808-0.703,3.004-0.867,7.901-0.904l0.001-9.741
		c-18.035,0.327-19.132,3.126-19.481,19.082h-9.082v9.764h9.642v28.067h10.171V60.937h7.084l2.558-9.764h-9.642V47.73
		C313.494,45.162,313.728,43.18,314.234,42.736z"/>
</g>
<g>
	<circle fill="#A49590" cx="47.183" cy="-81.522" r="42.52"/>
	<g id="XMLID_1_">
		<g>
			<path fill="#FFFFFF" d="M41.207-58.201c-3.946,0.142-12.912-0.513-18.206-4.785c2.646,0.186,4.786,0.282,6.272-0.275
				c1.672-0.282,7.011-1.954,9.333-4.184c-0.65-0.044-2.832-0.416-4.645-1.3c-1.813-0.881-3.671-2.367-5.388-6.269
				c1.858,0.234,3.574,0.186,4.786-0.093c-1.583-0.602-8.085-2.88-8.501-10.73c0.973,0.605,2.879,1.672,4.689,1.3
				c-0.602-0.646-7.569-6.546-3.158-14.305c1.349,1.583,9.385,10.961,22.178,11.103c0,0-1.23-7.662,5.387-11.727
				c6.618-4.064,13.146,1.672,13.004,1.973c0.65-0.048,6.387-1.694,6.9-2.578c-0.743,1.857-1.884,3.786-4.6,5.9
				c0.364-0.282,1.665-0.271,2.147-0.375c1.367-0.298,2.649-0.759,3.953-1.271c-0.111,0.152-2.653,3.615-5.335,5.499
				c-0.044,1.605-0.067,12.752-7.36,21.483C55.371-60.104,45.153-58.342,41.207-58.201z"/>
		</g>
		<g>
		</g>
	</g>
</g>
<g>
	<circle fill="#FFFFFF" cx="45.354" cy="45.354" r="42.52"/>
	<g id="XMLID_2_">
		<g>
			<path fill="#A2938F" d="M73.532,31.06c-0.111,0.152-2.653,3.615-5.335,5.499c-0.044,1.605-0.067,12.752-7.36,21.483
				c-7.294,8.731-17.512,10.493-21.458,10.634c-3.946,0.142-12.912-0.513-18.206-4.785c2.646,0.186,4.786,0.282,6.272-0.275
				c1.672-0.282,7.011-1.954,9.333-4.184c-0.65-0.044-2.832-0.416-4.645-1.3c-1.813-0.881-3.671-2.367-5.388-6.269
				c1.858,0.234,3.574,0.186,4.786-0.093c-1.583-0.602-8.085-2.88-8.501-10.73c0.973,0.605,2.879,1.672,4.689,1.3
				c-0.602-0.646-7.569-6.546-3.158-14.305c1.349,1.583,9.385,10.961,22.178,11.103c0,0-1.23-7.662,5.387-11.727
				c6.618-4.064,13.146,1.672,13.004,1.973c0.65-0.048,6.387-1.694,6.9-2.578c-0.743,1.857-1.884,3.786-4.6,5.9
				c0.364-0.282,1.665-0.271,2.147-0.375C70.946,32.033,72.228,31.572,73.532,31.06z"/>
		</g>
		<g>
		</g>
	</g>
</g>
</svg>
