<?xml version="1.0" encoding="utf-8"?>
<!-- Generator: Adobe Illustrator 16.0.0, SVG Export Plug-In . SVG Version: 6.00 Build 0)  -->
<!DOCTYPE svg PUBLIC "-//W3C//DTD SVG 1.1//EN" "http://www.w3.org/Graphics/SVG/1.1/DTD/svg11.dtd">
<svg version="1.1" id="圖層_1" xmlns="http://www.w3.org/2000/svg" xmlns:xlink="http://www.w3.org/1999/xlink" x="0px" y="0px"
	 width="90.709px" height="90.708px" viewBox="0 0 90.709 90.708" enable-background="new 0 0 90.709 90.708" xml:space="preserve">
<linearGradient id="SVGID_1_" gradientUnits="userSpaceOnUse" x1="961.3179" y1="5.5269" x2="1273.1284" y2="5.5269">
	<stop  offset="0.0635" style="stop-color:#B5B5B6"/>
	<stop  offset="0.254" style="stop-color:#F7F8F8"/>
	<stop  offset="0.6508" style="stop-color:#898989"/>
	<stop  offset="0.9206" style="stop-color:#B5B5B6"/>
</linearGradient>
<path fill="url(#SVGID_1_)" d="M1273.128,274.818c0,23.482-19.037,42.52-42.52,42.52h-226.771c-23.483,0-42.52-19.037-42.52-42.52
	v-538.582c0-23.483,19.037-42.52,42.52-42.52h226.771c23.482,0,42.52,19.037,42.52,42.52V274.818z"/>
<path stroke="#000000" stroke-miterlimit="10" d="M1268.876,271.145c0,23.163-18.518,41.941-41.359,41.941H1006.93
	c-22.843,0-41.36-18.778-41.36-41.941v-531.237c0-23.163,18.517-41.939,41.36-41.939h220.587c22.842,0,41.359,18.777,41.359,41.939
	V271.145z"/>
<linearGradient id="SVGID_2_" gradientUnits="userSpaceOnUse" x1="1117.5396" y1="330.813" x2="1116.8677" y2="-255.1409">
	<stop  offset="0.2222" style="stop-color:#CBE4C1"/>
	<stop  offset="0.9312" style="stop-color:#F8C8C9"/>
</linearGradient>
<path fill="url(#SVGID_2_)" stroke="#000000" stroke-miterlimit="10" d="M1263.341,265.348c0,22.595-17.85,40.911-39.865,40.911
	H1010.86c-22.017,0-39.866-18.316-39.866-40.911v-518.18c0-22.594,17.849-40.909,39.866-40.909h212.616
	c22.016,0,39.865,18.315,39.865,40.909V265.348z"/>
<path stroke="#000000" stroke-miterlimit="10" d="M1187.369-281.649c-0.633,3.563-4.02,6.404-7.576,6.404h-124.904
	c-3.556,0-6.942-2.841-7.576-6.404l-2.143-12.075c-0.684-3.854,1.824-7.033,5.613-7.033h133.116c3.791,0,6.297,3.179,5.613,7.033
	L1187.369-281.649z"/>
<path fill="#595757" d="M1131.029-288.001c0,0.869-0.992,1.574-2.215,1.574h-22.946c-1.223,0-2.216-0.705-2.216-1.574l0,0
	c0-0.869,0.993-1.574,2.216-1.574h22.946C1130.037-289.576,1131.029-288.871,1131.029-288.001L1131.029-288.001z"/>
<g>
	<linearGradient id="SVGID_3_" gradientUnits="userSpaceOnUse" x1="1137.064" y1="-288.0015" x2="1141.2534" y2="-288.0015">
		<stop  offset="0.0159" style="stop-color:#433F3E"/>
		<stop  offset="0.3386" style="stop-color:#4D4A49"/>
		<stop  offset="0.5397" style="stop-color:#595757"/>
		<stop  offset="0.9735" style="stop-color:#000000"/>
	</linearGradient>
	<circle fill="url(#SVGID_3_)" cx="1139.159" cy="-288.002" r="2.095"/>
	
		<linearGradient id="SVGID_4_" gradientUnits="userSpaceOnUse" x1="884.8198" y1="-345.3374" x2="888.1567" y2="-345.3374" gradientTransform="matrix(-0.95 -0.3123 0.3123 -0.95 2089.1704 -339.223)">
		<stop  offset="0.0159" style="stop-color:#433F3E"/>
		<stop  offset="0.3386" style="stop-color:#4D4A49"/>
		<stop  offset="0.5397" style="stop-color:#595757"/>
		<stop  offset="0.9735" style="stop-color:#000000"/>
	</linearGradient>
	<circle fill="url(#SVGID_4_)" cx="1139.159" cy="-288.002" r="1.668"/>
	
		<radialGradient id="SVGID_5_" cx="887.1353" cy="-344.8296" r="1.8292" gradientTransform="matrix(-0.95 -0.3123 0.3123 -0.95 2089.1704 -339.223)" gradientUnits="userSpaceOnUse">
		<stop  offset="0.0265" style="stop-color:#A9A9A9"/>
		<stop  offset="0.0899" style="stop-color:#686968"/>
		<stop  offset="0.2222" style="stop-color:#172A4F"/>
		<stop  offset="0.5079" style="stop-color:#1A2D76"/>
		<stop  offset="0.7196" style="stop-color:#1E2C5C"/>
		<stop  offset="0.9735" style="stop-color:#080815"/>
	</radialGradient>
	<circle fill="url(#SVGID_5_)" cx="1139.159" cy="-288.001" r="1.309"/>
</g>
<g>
	<linearGradient id="SVGID_6_" gradientUnits="userSpaceOnUse" x1="960.1821" y1="-204.6885" x2="960.4817" y2="-128.6028">
		<stop  offset="0.0265" style="stop-color:#EFEFEF"/>
		<stop  offset="0.0587" style="stop-color:#F4F4F4"/>
		<stop  offset="0.1005" style="stop-color:#FFFFFF"/>
		<stop  offset="0.3342" style="stop-color:#FFFFFF;stop-opacity:0.1"/>
		<stop  offset="0.7778" style="stop-color:#595757"/>
		<stop  offset="0.9683" style="stop-color:#A48B78"/>
	</linearGradient>
	<path fill="url(#SVGID_6_)" d="M963.818-150.27c0,1.847-1.567,3.343-3.5,3.343l0,0c-1.933,0-3.5-1.497-3.5-3.343v-39.813
		c0-1.847,1.567-3.343,3.5-3.343l0,0c1.933,0,3.5,1.497,3.5,3.343V-150.27z"/>
	<path fill="#B5B5B6" d="M961.318-150.27c0,1.847-1.007,3.343-2.25,3.343l0,0c-1.243,0-2.25-1.497-2.25-3.343v-39.813
		c0-1.847,1.007-3.343,2.25-3.343l0,0c1.243,0,2.25,1.497,2.25,3.343V-150.27z"/>
</g>
<g>
	
		<linearGradient id="SVGID_7_" gradientUnits="userSpaceOnUse" x1="689.2808" y1="-190.6875" x2="689.7038" y2="-83.2519" gradientTransform="matrix(-1 0 0 1 1964.1074 0)">
		<stop  offset="0.0265" style="stop-color:#EFEFEF"/>
		<stop  offset="0.0587" style="stop-color:#F4F4F4"/>
		<stop  offset="0.1005" style="stop-color:#FFFFFF"/>
		<stop  offset="0.3342" style="stop-color:#FFFFFF;stop-opacity:0.1"/>
		<stop  offset="0.7778" style="stop-color:#595757"/>
		<stop  offset="0.9683" style="stop-color:#A48B78"/>
	</linearGradient>
	<path fill="url(#SVGID_7_)" d="M1271.128-111.451c0,2.688,1.566,4.868,3.5,4.868l0,0c1.934,0,3.5-2.179,3.5-4.868v-57.97
		c0-2.688-1.566-4.868-3.5-4.868l0,0c-1.934,0-3.5,2.179-3.5,4.868V-111.451z"/>
	<path fill="#B5B5B6" d="M1273.628-111.451c0,2.688,1.008,4.868,2.25,4.868l0,0c1.242,0,2.25-2.179,2.25-4.868v-57.97
		c0-2.688-1.008-4.868-2.25-4.868l0,0c-1.242,0-2.25,2.179-2.25,4.868V-111.451z"/>
</g>
<g>
	<linearGradient id="SVGID_8_" gradientUnits="userSpaceOnUse" x1="960.1821" y1="-144.3467" x2="960.4567" y2="-74.6021">
		<stop  offset="0.0265" style="stop-color:#EFEFEF"/>
		<stop  offset="0.0587" style="stop-color:#F4F4F4"/>
		<stop  offset="0.1005" style="stop-color:#FFFFFF"/>
		<stop  offset="0.3342" style="stop-color:#FFFFFF;stop-opacity:0.1"/>
		<stop  offset="0.7778" style="stop-color:#595757"/>
		<stop  offset="0.9683" style="stop-color:#A48B78"/>
	</linearGradient>
	<path fill="url(#SVGID_8_)" d="M963.818-89.928c0,1.847-1.567,3.343-3.5,3.343l0,0c-1.933,0-3.5-1.497-3.5-3.343v-39.813
		c0-1.847,1.567-3.343,3.5-3.343l0,0c1.933,0,3.5,1.497,3.5,3.343V-89.928z"/>
	<path fill="#B5B5B6" d="M961.318-89.928c0,1.847-1.007,3.343-2.25,3.343l0,0c-1.243,0-2.25-1.497-2.25-3.343v-39.813
		c0-1.847,1.007-3.343,2.25-3.343l0,0c1.243,0,2.25,1.497,2.25,3.343V-89.928z"/>
</g>
<text transform="matrix(1 0 0 1 1005.0068 -275.8901)"><tspan x="0" y="0" fill="#FFFFFF" font-family="'ArialMT'" font-size="12">9:3</tspan><tspan x="19.382" y="0" fill="#FFFFFF" font-family="'ArialMT'" font-size="12">0</tspan></text>
<path fill="#FFFFFF" d="M1192.423-275.669c0,0.234-0.447,0.424-1,0.424h-0.5c-0.553,0-1-0.19-1-0.424v-1.749
	c0-0.234,0.447-0.424,1-0.424h0.5c0.553,0,1,0.19,1,0.424V-275.669z"/>
<path fill="#FFFFFF" d="M1195.923-275.958c0,0.393-0.447,0.712-1,0.712h-0.5c-0.553,0-1-0.319-1-0.712v-2.937
	c0-0.393,0.447-0.712,1-0.712h0.5c0.553,0,1,0.319,1,0.712V-275.958z"/>
<path fill="#FFFFFF" d="M1199.423-276.257c0,0.559-0.447,1.012-1,1.012h-0.5c-0.553,0-1-0.453-1-1.012v-4.171
	c0-0.559,0.447-1.012,1-1.012h0.5c0.553,0,1,0.453,1,1.012V-276.257z"/>
<path fill="#FFFFFF" d="M1202.923-276.611c0,0.754-0.447,1.365-1,1.365h-0.5c-0.553,0-1-0.611-1-1.365v-5.63
	c0-0.754,0.447-1.365,1-1.365h0.5c0.553,0,1,0.611,1,1.365V-276.611z"/>
<text transform="matrix(1 0 0 1 1204.3315 -275.2456)" fill="#FFFFFF" font-family="'ArialMT'" font-size="12">4</text>
<text transform="matrix(0.95 0 0 1 1210.4058 -275.2456)" fill="#FFFFFF" font-family="'ArialMT'" font-size="12">G</text>
<g>
	<path opacity="0.6" fill="none" stroke="#FFFFFF" stroke-width="0.5" stroke-miterlimit="10" d="M1241.089-275.822
		c0,0.365-0.213,0.662-0.479,0.662H1221.9c-0.264,0-0.477-0.297-0.477-0.662v-7.122c0-0.366,0.213-0.663,0.477-0.663h18.711
		c0.266,0,0.479,0.297,0.479,0.663V-275.822z"/>
	<path fill="#8FC31F" d="M1238.314-276.438c0,0.302-0.176,0.548-0.396,0.548h-15.475c-0.219,0-0.395-0.246-0.395-0.548v-5.891
		c0-0.302,0.176-0.548,0.395-0.548h15.475c0.221,0,0.396,0.246,0.396,0.548V-276.438z"/>
	<path opacity="0.6" fill="#FFFFFF" d="M1241.644-280.974c0.93,0,1.684,0.712,1.684,1.59c0,0.879-0.754,1.591-1.684,1.591"/>
</g>
<linearGradient id="SVGID_9_" gradientUnits="userSpaceOnUse" x1="953.7197" y1="6.3716" x2="1017.9153" y2="6.3716">
	<stop  offset="0" style="stop-color:#FFFFFF"/>
	<stop  offset="0.313" style="stop-color:#FFFFFF;stop-opacity:0.1"/>
</linearGradient>
<path fill="url(#SVGID_9_)" d="M987.002,271.095v-529.449c0-23.084,14.51-41.797,32.41-41.797h-20.896
	c-17.901,0-32.411,18.713-32.411,41.797v529.449c0,23.085,14.51,41.8,32.411,41.8h20.896
	C1001.513,312.895,987.002,294.18,987.002,271.095z"/>
<linearGradient id="SVGID_10_" gradientUnits="userSpaceOnUse" x1="765.4058" y1="6.4116" x2="828.814" y2="6.4116" gradientTransform="matrix(-1 0 0 1 2047.4883 0)">
	<stop  offset="0" style="stop-color:#FFFFFF"/>
	<stop  offset="0.3183" style="stop-color:#FFFFFF;stop-opacity:0.1"/>
</linearGradient>
<path fill="url(#SVGID_10_)" d="M1247.722,270.791v-528.759c0-23.054-14.357-41.743-32.068-41.743h20.676
	c17.711,0,32.066,18.689,32.066,41.743v528.759c0,23.054-14.355,41.745-32.066,41.745h-20.676
	C1233.365,312.536,1247.722,293.844,1247.722,270.791z"/>
<path opacity="0.5" fill="#FFFFFF" d="M1250.89,275.453c0,9.357-8.461,16.941-18.895,16.941h-229.544
	c-10.436,0-18.896-7.584-18.896-16.941v-40.783c0-9.357,8.46-16.941,18.896-16.941h229.544c10.434,0,18.895,7.584,18.895,16.941
	V275.453z"/>
<g>
	<path fill="#00AA3A" d="M1043.227,268.402c0,5.939-4.814,10.754-10.753,10.754h-26.684c-5.938,0-10.752-4.814-10.752-10.754V241.72
		c0-5.939,4.814-10.754,10.752-10.754h26.684c5.939,0,10.753,4.814,10.753,10.754V268.402z"/>
	<path fill="#FFFFFF" d="M1018.986,239.109c-9.709,0-17.581,6.256-17.581,13.973c0,0.146,0.022,0.286,0.027,0.43
		c-0.006,0.153-0.027,0.303-0.027,0.457c0,7.525,7.225,13.625,16.136,13.625c0.533,0,1.058-0.024,1.577-0.067l-1.88,4.791
		c4.288,1.681,12.394-6.073,15.93-10.411c2.688-3.25,3.397-5.606,3.397-8.824C1036.566,245.365,1028.695,239.109,1018.986,239.109z"
		/>
	<g>
		<path fill="#00AA3A" d="M1006.866,257.04v-7.73h1.574v6.417h3.913v1.313H1006.866z"/>
		<path fill="#00AA3A" d="M1013.699,257.04v-7.794h1.574v7.794H1013.699z"/>
		<path fill="#00AA3A" d="M1017.06,257.04v-7.794h1.531l3.19,5.205v-5.205h1.462v7.794h-1.579l-3.142-5.082v5.082H1017.06z"/>
		<path fill="#00AA3A" d="M1025.179,257.04v-7.794h5.779v1.318h-4.206v1.729h3.913v1.313h-3.913v2.121h4.354v1.313H1025.179z"/>
	</g>
</g>
<line fill="#FFFFFF" x1="1093.151" y1="259.686" x2="1091.643" y2="259.686"/>
<linearGradient id="SVGID_11_" gradientUnits="userSpaceOnUse" x1="1084.0518" y1="220.6665" x2="1084.9812" y2="288.0563">
	<stop  offset="0.1376" style="stop-color:#2EA7E0"/>
	<stop  offset="0.709" style="stop-color:#036EB8"/>
</linearGradient>
<path fill="url(#SVGID_11_)" d="M1108.621,268.402c0,5.939-4.815,10.754-10.753,10.754h-26.684c-5.938,0-10.753-4.814-10.753-10.754
	V241.72c0-5.939,4.814-10.754,10.753-10.754h26.684c5.938,0,10.753,4.814,10.753,10.754V268.402z"/>
<path fill="#FFFFFF" d="M1088.497,248.196c0.54-0.471,2.01-0.581,5.287-0.605l0.001-6.519c-12.069,0.219-12.802,2.092-13.036,12.769
	h-6.078v6.533h6.452v18.782h6.806v-18.782h4.74l1.711-6.533h-6.452v-2.303C1088.001,249.818,1088.158,248.492,1088.497,248.196z"/>
<polygon fill="#EFEFEF" points="1222.517,271.269 1222.806,271.182 1223.248,272.549 1222.966,272.642 "/>
<g>
	<path fill="#FFFFFF" d="M1239.408,268.402c0,5.939-4.814,10.754-10.752,10.754h-26.686c-5.938,0-10.752-4.814-10.752-10.754V241.72
		c0-5.939,4.814-10.754,10.752-10.754h26.686c5.938,0,10.752,4.814,10.752,10.754V268.402z"/>
	<linearGradient id="SVGID_12_" gradientUnits="userSpaceOnUse" x1="1187.2231" y1="267.854" x2="1245.2032" y2="241.4499">
		<stop  offset="0.4339" style="stop-color:#036EB8"/>
		<stop  offset="0.8624" style="stop-color:#00A0E9"/>
	</linearGradient>
	<circle fill="url(#SVGID_12_)" cx="1215.313" cy="255.061" r="21.3"/>
	<rect x="1215.314" y="235.292" fill="#EFEFEF" width="0.324" height="3.13"/>
	<rect x="1216.08" y="235.292" fill="#EFEFEF" width="0.324" height="1.565"/>
	
		<rect x="1213.409" y="235.374" transform="matrix(0.9944 -0.1055 0.1055 0.9944 -18.2212 129.3157)" fill="#EFEFEF" width="0.324" height="3.131"/>
	
		<rect x="1214.089" y="235.299" transform="matrix(0.9945 -0.1048 0.1048 0.9945 -18.0591 128.6041)" fill="#EFEFEF" width="0.326" height="1.564"/>
	
		<rect x="1211.524" y="235.655" transform="matrix(0.9783 -0.2071 0.2071 0.9783 -22.8593 256.0443)" fill="#EFEFEF" width="0.325" height="3.13"/>
	
		<rect x="1212.111" y="235.512" transform="matrix(0.9777 -0.2099 0.2099 0.9777 -22.5913 259.7692)" fill="#EFEFEF" width="0.326" height="1.566"/>
	
		<rect x="1209.68" y="236.131" transform="matrix(0.9493 -0.3144 0.3144 0.9493 -13.3793 392.4446)" fill="#EFEFEF" width="0.323" height="3.131"/>
	
		<rect x="1210.166" y="235.933" transform="matrix(0.9513 -0.3081 0.3081 0.9513 -14.0481 384.4678)" fill="#EFEFEF" width="0.326" height="1.565"/>
	
		<rect x="1207.893" y="236.798" transform="matrix(0.9118 -0.4106 0.4106 0.9118 8.6647 517.0681)" fill="#EFEFEF" width="0.323" height="3.13"/>
	
		<rect x="1208.276" y="236.555" transform="matrix(0.916 -0.4011 0.4011 0.916 6.2813 504.6762)" fill="#EFEFEF" width="0.326" height="1.563"/>
	
		<rect x="1206.188" y="237.647" transform="matrix(0.8636 -0.5042 0.5042 0.8636 43.9727 640.936)" fill="#EFEFEF" width="0.323" height="3.132"/>
	
		<rect x="1206.46" y="237.371" transform="matrix(0.869 -0.4948 0.4948 0.869 40.2385 628.2845)" fill="#EFEFEF" width="0.324" height="1.564"/>
	
		<rect x="1204.58" y="238.669" transform="matrix(0.8051 -0.5932 0.5932 0.8051 92.3502 761.4841)" fill="#EFEFEF" width="0.323" height="3.132"/>
	
		<rect x="1204.74" y="238.372" transform="matrix(0.8121 -0.5835 0.5835 0.8121 86.847 748.0113)" fill="#EFEFEF" width="0.325" height="1.563"/>
	
		<rect x="1203.089" y="239.855" transform="matrix(0.7397 -0.673 0.673 0.7397 150.7776 872.607)" fill="#EFEFEF" width="0.322" height="3.131"/>
	
		<rect x="1203.134" y="239.546" transform="matrix(0.7466 -0.6653 0.6653 0.7466 145.0518 861.4545)" fill="#EFEFEF" width="0.324" height="1.564"/>
	
		<rect x="1201.729" y="241.189" transform="matrix(0.6651 -0.7467 0.7467 0.6651 221.2205 978.7969)" fill="#EFEFEF" width="0.323" height="3.132"/>
	
		<rect x="1201.661" y="240.883" transform="matrix(0.6748 -0.738 0.738 0.6748 212.5148 965.5765)" fill="#EFEFEF" width="0.324" height="1.563"/>
	
		<rect x="1200.517" y="242.66" transform="matrix(0.5838 -0.8119 0.8119 0.5838 301.4111 1076.4469)" fill="#EFEFEF" width="0.321" height="3.131"/>
	
		<rect x="1200.333" y="242.365" transform="matrix(0.5928 -0.8054 0.8054 0.5928 293.0333 1065.839)" fill="#EFEFEF" width="0.326" height="1.564"/>
	
		<rect x="1199.465" y="244.249" transform="matrix(0.4955 -0.8686 0.8686 0.4955 391.7153 1166.0354)" fill="#EFEFEF" width="0.319" height="3.131"/>
	
		<rect x="1199.169" y="243.978" transform="matrix(0.5039 -0.8638 0.8638 0.5039 383.604 1157.3901)" fill="#EFEFEF" width="0.326" height="1.565"/>
	
		<rect x="1198.584" y="245.938" transform="matrix(0.4027 -0.9153 0.9153 0.4027 489.4188 1245.0529)" fill="#EFEFEF" width="0.32" height="3.133"/>
	
		<rect x="1198.181" y="245.706" transform="matrix(0.4168 -0.909 0.909 0.4168 474.8607 1233.0759)" fill="#EFEFEF" width="0.323" height="1.564"/>
	
		<rect x="1197.884" y="247.711" transform="matrix(0.3098 -0.9508 0.9508 0.3098 589.831 1311.1271)" fill="#EFEFEF" width="0.321" height="3.131"/>
	
		<rect x="1197.377" y="247.526" transform="matrix(0.318 -0.9481 0.9481 0.318 581.2729 1304.7045)" fill="#EFEFEF" width="0.325" height="1.565"/>
	<polygon fill="#EFEFEF" points="1199.099,251.281 1199.035,251.594 1195.968,250.945 1196.039,250.628 	"/>
	<polygon fill="#EFEFEF" points="1197.732,250.207 1197.66,250.524 1196.13,250.199 1196.197,249.882 	"/>
	
		<rect x="1197.06" y="251.426" transform="matrix(0.1034 -0.9946 0.9946 0.1034 821.7705 1417.6289)" fill="#EFEFEF" width="0.321" height="3.132"/>
	<polygon fill="#EFEFEF" points="1197.32,252.07 1197.283,252.393 1195.728,252.229 1195.759,251.909 	"/>
	<rect x="1195.535" y="254.732" fill="#EFEFEF" width="3.133" height="0.323"/>
	<rect x="1195.539" y="253.967" fill="#EFEFEF" width="1.566" height="0.325"/>
	
		<rect x="1197.024" y="255.233" transform="matrix(-0.1034 -0.9946 0.9946 -0.1034 1065.5731 1474.1207)" fill="#EFEFEF" width="0.321" height="3.131"/>
	
		<rect x="1196.166" y="255.337" transform="matrix(-0.0962 -0.9954 0.9954 -0.0962 1056.5184 1471.5419)" fill="#EFEFEF" width="0.325" height="1.565"/>
	
		<rect x="1197.304" y="257.116" transform="matrix(-0.2072 -0.9783 0.9783 -0.2072 1192.5581 1483.7607)" fill="#EFEFEF" width="0.32" height="3.135"/>
	
		<rect x="1196.381" y="257.315" transform="matrix(-0.1984 -0.9801 0.9801 -0.1984 1181.006 1482.0623)" fill="#EFEFEF" width="0.325" height="1.565"/>
	
		<rect x="1197.779" y="258.962" transform="matrix(-0.3089 -0.9511 0.9511 -0.3089 1320.2587 1480.3546)" fill="#EFEFEF" width="0.322" height="3.134"/>
	
		<rect x="1196.802" y="259.26" transform="matrix(-0.3017 -0.9534 0.9534 -0.3017 1310.173 1479.6852)" fill="#EFEFEF" width="0.324" height="1.567"/>
	
		<rect x="1198.448" y="260.747" transform="matrix(-0.409 -0.9125 0.9125 -0.409 1449.4259 1463.3807)" fill="#EFEFEF" width="0.32" height="3.134"/>
	
		<rect x="1197.424" y="261.151" transform="matrix(-0.3983 -0.9173 0.9173 -0.3983 1434.3042 1464.7565)" fill="#EFEFEF" width="0.324" height="1.565"/>
	
		<rect x="1199.296" y="262.454" transform="matrix(-0.506 -0.8626 0.8626 -0.506 1578.5928 1432.2065)" fill="#EFEFEF" width="0.32" height="3.133"/>
	
		<rect x="1198.238" y="262.964" transform="matrix(-0.4994 -0.8664 0.8664 -0.4994 1568.3435 1433.734)" fill="#EFEFEF" width="0.325" height="1.568"/>
	
		<rect x="1200.32" y="264.061" transform="matrix(-0.5867 -0.8098 0.8098 -0.5867 1689.7188 1393.6154)" fill="#EFEFEF" width="0.32" height="3.134"/>
	
		<rect x="1199.238" y="264.684" transform="matrix(-0.5849 -0.8111 0.8111 -0.5849 1685.6622 1393.5557)" fill="#EFEFEF" width="0.324" height="1.567"/>
	
		<rect x="1201.504" y="265.554" transform="matrix(-0.673 -0.7397 0.7397 -0.673 1812.776 1335.7167)" fill="#EFEFEF" width="0.322" height="3.134"/>
	<polygon fill="#EFEFEF" points="1201.05,266.428 1201.263,266.671 1200.101,267.718 1199.884,267.481 	"/>
	
		<rect x="1202.842" y="266.915" transform="matrix(-0.7457 -0.6663 0.6663 -0.7457 1921.2264 1270.2039)" fill="#EFEFEF" width="0.32" height="3.133"/>
	
		<rect x="1201.75" y="267.765" transform="matrix(-0.7367 -0.6763 0.6763 -0.7367 1905.6919 1279.1926)" fill="#EFEFEF" width="0.323" height="1.565"/>
	
		<rect x="1204.312" y="268.127" transform="matrix(-0.8137 -0.5812 0.5812 -0.8137 2027.8331 1189.2383)" fill="#EFEFEF" width="0.319" height="3.134"/>
	
		<rect x="1203.232" y="269.092" transform="matrix(-0.8036 -0.5952 0.5952 -0.8036 2009.8374 1202.9541)" fill="#EFEFEF" width="0.323" height="1.565"/>
	
		<rect x="1205.9" y="269.18" transform="matrix(-0.8701 -0.4929 0.4929 -0.8701 2122.0242 1100.7424)" fill="#EFEFEF" width="0.321" height="3.133"/>
	<polygon fill="#EFEFEF" points="1205.259,270.278 1205.539,270.444 1204.755,271.798 1204.478,271.639 	"/>
	
		<rect x="1207.591" y="270.061" transform="matrix(-0.9153 -0.4027 0.4027 -0.9153 2203.8298 1006.6593)" fill="#EFEFEF" width="0.32" height="3.133"/>
	<polygon fill="#EFEFEF" points="1206.906,271.244 1207.201,271.381 1206.564,272.81 1206.269,272.68 	"/>
	
		<rect x="1209.364" y="270.76" transform="matrix(-0.9523 -0.3052 0.3052 -0.9523 2278.2129 900.8279)" fill="#EFEFEF" width="0.32" height="3.133"/>
	<polygon fill="#EFEFEF" points="1208.644,272.034 1208.953,272.139 1208.466,273.627 1208.162,273.528 	"/>
	
		<rect x="1211.201" y="271.27" transform="matrix(-0.9788 -0.2049 0.2049 -0.9788 2341.0996 788.1282)" fill="#EFEFEF" width="0.319" height="3.132"/>
	<polygon fill="#EFEFEF" points="1210.455,272.636 1210.771,272.709 1210.445,274.241 1210.13,274.175 	"/>
	
		<rect x="1213.08" y="271.585" transform="matrix(-0.9946 -0.1037 0.1037 -0.9946 2391.6001 670.6797)" fill="#EFEFEF" width="0.32" height="3.133"/>
	<polygon fill="#EFEFEF" points="1212.316,273.046 1212.642,273.087 1212.476,274.643 1212.158,274.611 	"/>
	<rect x="1214.982" y="271.703" fill="#EFEFEF" width="0.32" height="3.132"/>
	<polygon fill="#EFEFEF" points="1214.214,273.261 1214.541,273.267 1214.539,274.833 1214.218,274.833 	"/>
	
		<rect x="1216.888" y="271.619" transform="matrix(-0.9942 0.1074 -0.1074 -0.9942 2456.3955 414.0811)" fill="#EFEFEF" width="0.318" height="3.133"/>
	<polygon fill="#EFEFEF" points="1216.123,273.277 1216.449,273.249 1216.609,274.805 1216.291,274.839 	"/>
	
		<rect x="1218.772" y="271.338" transform="matrix(-0.9782 0.2079 -0.2079 -0.9782 2467.9673 286.4854)" fill="#EFEFEF" width="0.319" height="3.135"/>
	<polygon fill="#EFEFEF" points="1218.021,273.09 1218.345,273.03 1218.666,274.561 1218.353,274.628 	"/>
	
		<rect x="1220.619" y="270.862" transform="matrix(-0.9499 0.3125 -0.3125 -0.9499 2465.5439 149.6572)" fill="#EFEFEF" width="0.319" height="3.134"/>
	
		<rect x="1222.402" y="270.195" transform="matrix(-0.9119 0.4104 -0.4104 -0.9119 2448.9663 17.8924)" fill="#EFEFEF" width="0.321" height="3.135"/>
	<polygon fill="#EFEFEF" points="1221.71,272.133 1222.013,272.005 1222.646,273.435 1222.353,273.567 	"/>
	
		<rect x="1224.107" y="269.345" transform="matrix(-0.8633 0.5046 -0.5046 -0.8633 2417.9346 -112.9968)" fill="#EFEFEF" width="0.321" height="3.135"/>
	<polygon fill="#EFEFEF" points="1223.46,271.371 1223.748,271.212 1224.527,272.568 1224.25,272.73 	"/>
	<polygon fill="#EFEFEF" points="1224.828,268.716 1225.085,268.526 1226.927,271.064 1226.666,271.249 	"/>
	<polygon fill="#EFEFEF" points="1225.121,270.429 1225.39,270.242 1226.306,271.509 1226.048,271.698 	"/>
	
		<rect x="1227.208" y="267.137" transform="matrix(-0.7369 0.676 -0.676 -0.7369 2313.4624 -362.9883)" fill="#EFEFEF" width="0.321" height="3.135"/>
	<polygon fill="#EFEFEF" points="1226.673,269.321 1226.919,269.105 1227.966,270.269 1227.728,270.484 	"/>
	<polygon fill="#EFEFEF" points="1227.458,266.44 1227.673,266.199 1230,268.299 1229.783,268.534 	"/>
	<polygon fill="#EFEFEF" points="1228.103,268.054 1228.324,267.816 1229.486,268.864 1229.271,269.102 	"/>
	<polygon fill="#EFEFEF" points="1228.582,265.107 1228.769,264.846 1231.302,266.692 1231.113,266.947 	"/>
	<polygon fill="#EFEFEF" points="1229.39,266.645 1229.587,266.383 1230.851,267.307 1230.664,267.566 	"/>
	
		<rect x="1230.833" y="262.743" transform="matrix(-0.4988 0.8667 -0.8667 -0.4988 2074.0483 -670.8182)" fill="#EFEFEF" width="0.321" height="3.133"/>
	<polygon fill="#EFEFEF" points="1230.525,265.111 1230.693,264.83 1232.046,265.615 1231.884,265.893 	"/>
	
		<rect x="1231.715" y="261.053" transform="matrix(-0.4005 0.9163 -0.9163 -0.4005 1965.8801 -760.9637)" fill="#EFEFEF" width="0.322" height="3.134"/>
	
		<rect x="1232.114" y="262.853" transform="matrix(-0.4168 0.909 -0.909 -0.4168 1985.4866 -746.6523)" fill="#EFEFEF" width="0.323" height="1.565"/>
	<polygon fill="#EFEFEF" points="1231.037,260.515 1231.134,260.208 1234.113,261.18 1234.013,261.482 	"/>
	<polygon fill="#EFEFEF" points="1232.283,261.727 1232.388,261.418 1233.875,261.905 1233.775,262.208 	"/>
	<polygon fill="#EFEFEF" points="1231.523,258.841 1231.585,258.525 1234.65,259.181 1234.582,259.492 	"/>
	<polygon fill="#EFEFEF" points="1232.886,259.917 1232.958,259.598 1234.49,259.927 1234.419,260.239 	"/>
	<polygon fill="#EFEFEF" points="1231.828,257.125 1231.857,256.804 1234.974,257.137 1234.939,257.453 	"/>
	<polygon fill="#EFEFEF" points="1233.298,258.053 1233.335,257.728 1234.894,257.897 1234.857,258.213 	"/>
	<polygon fill="#EFEFEF" points="1231.955,255.388 1231.949,255.064 1235.083,255.071 1235.082,255.388 	"/>
	<polygon fill="#EFEFEF" points="1233.511,256.156 1233.515,255.829 1235.083,255.834 1235.08,256.153 	"/>
	<polygon fill="#EFEFEF" points="1231.896,253.646 1231.857,253.325 1234.976,253.003 1235.007,253.319 	"/>
	<polygon fill="#EFEFEF" points="1233.525,254.248 1233.496,253.922 1235.054,253.763 1235.085,254.08 	"/>
	<polygon fill="#EFEFEF" points="1231.658,251.919 1231.585,251.605 1234.654,250.959 1234.716,251.27 	"/>
	<polygon fill="#EFEFEF" points="1233.341,252.349 1233.277,252.027 1234.81,251.707 1234.875,252.018 	"/>
	<polygon fill="#EFEFEF" points="1231.24,250.228 1231.134,249.921 1234.119,248.958 1234.214,249.261 	"/>
	<polygon fill="#EFEFEF" points="1232.958,250.479 1232.861,250.166 1234.353,249.686 1234.449,249.99 	"/>
	<polygon fill="#EFEFEF" points="1230.648,248.589 1230.511,248.295 1233.376,247.026 1233.505,247.317 	"/>
	<polygon fill="#EFEFEF" points="1232.382,248.659 1232.253,248.358 1233.687,247.725 1233.814,248.018 	"/>
	<polygon fill="#EFEFEF" points="1229.886,247.022 1229.722,246.744 1232.439,245.181 1232.595,245.458 	"/>
	<polygon fill="#EFEFEF" points="1231.619,246.91 1231.458,246.625 1232.82,245.846 1232.974,246.122 	"/>
	<polygon fill="#EFEFEF" points="1228.966,245.542 1228.773,245.283 1231.312,243.445 1231.496,243.705 	"/>
	<polygon fill="#EFEFEF" points="1230.677,245.25 1230.488,244.983 1231.759,244.066 1231.943,244.325 	"/>
	<polygon fill="#EFEFEF" points="1227.896,244.167 1227.677,243.927 1230.009,241.835 1230.22,242.074 	"/>
	<polygon fill="#EFEFEF" points="1229.566,243.698 1229.351,243.451 1230.519,242.408 1230.73,242.645 	"/>
	<polygon fill="#EFEFEF" points="1226.687,242.91 1226.445,242.696 1228.546,240.372 1228.781,240.586 	"/>
	<polygon fill="#EFEFEF" points="1228.302,242.268 1228.06,242.047 1229.115,240.886 1229.347,241.101 	"/>
	<polygon fill="#EFEFEF" points="1225.355,241.786 1225.091,241.601 1226.939,239.069 1227.195,239.257 	"/>
	<polygon fill="#EFEFEF" points="1226.892,240.982 1226.63,240.787 1227.556,239.522 1227.81,239.71 	"/>
	<polygon fill="#EFEFEF" points="1223.912,240.807 1223.63,240.653 1225.203,237.941 1225.476,238.102 	"/>
	<polygon fill="#EFEFEF" points="1225.357,239.846 1225.074,239.68 1225.865,238.327 1226.138,238.487 	"/>
	<polygon fill="#EFEFEF" points="1222.376,239.987 1222.08,239.861 1223.359,237.001 1223.648,237.131 	"/>
	<polygon fill="#EFEFEF" points="1223.712,238.879 1223.414,238.745 1224.058,237.314 1224.345,237.446 	"/>
	<polygon fill="#EFEFEF" points="1220.761,239.332 1220.453,239.236 1221.427,236.259 1221.726,236.357 	"/>
	<polygon fill="#EFEFEF" points="1221.974,238.088 1221.664,237.986 1222.154,236.496 1222.455,236.599 	"/>
	<polygon fill="#EFEFEF" points="1219.087,238.848 1218.769,238.785 1219.429,235.723 1219.736,235.789 	"/>
	<polygon fill="#EFEFEF" points="1220.164,237.485 1219.843,237.417 1220.177,235.882 1220.486,235.954 	"/>
	<polygon fill="#EFEFEF" points="1217.373,238.542 1217.048,238.513 1217.384,235.398 1217.699,235.43 	"/>
	<polygon fill="#EFEFEF" points="1218.3,237.074 1217.974,237.04 1218.146,235.479 1218.46,235.516 	"/>
	<g>
		<polygon fill="#E60012" points="1216.259,256.317 1214.367,254.123 1230.562,242.629 		"/>
		<polygon fill="#FFFFFF" points="1214.339,254.127 1216.234,256.317 1200.042,267.823 		"/>
	</g>
</g>
<g>
	<path fill="#FFFFFF" d="M1174.015,268.402c0,5.939-4.814,10.754-10.754,10.754h-26.684c-5.938,0-10.752-4.814-10.752-10.754V241.72
		c0-5.939,4.814-10.754,10.752-10.754h26.684c5.939,0,10.754,4.814,10.754,10.754V268.402z"/>
	<path fill="#E60012" d="M1167.832,261.205c0,4.235-2.572,7.668-5.744,7.668h-24.334c-3.174,0-5.746-3.433-5.746-7.668v-11.958
		c0-4.234,2.572-7.669,5.746-7.669h24.334c3.172,0,5.744,3.435,5.744,7.669V261.205z"/>
	<polygon fill="#FFFFFF" points="1155.689,255.005 1146.445,260.342 1146.445,249.667 	"/>
</g>
<g>
	<circle opacity="0.4" fill="#FFFFFF" cx="1103.34" cy="204.383" r="3.344"/>
	<circle fill="#FFFFFF" cx="1117.674" cy="204.383" r="3.344"/>
	<circle opacity="0.4" fill="#FFFFFF" cx="1132.007" cy="204.383" r="3.344"/>
</g>
<g>
	<linearGradient id="SVGID_13_" gradientUnits="userSpaceOnUse" x1="1025.876" y1="-261.1284" x2="1013.1737" y2="-186.3652">
		<stop  offset="0.0317" style="stop-color:#CBE4C1"/>
		<stop  offset="0.5661" style="stop-color:#7DBE27"/>
		<stop  offset="0.9788" style="stop-color:#00913A"/>
	</linearGradient>
	<path fill="url(#SVGID_13_)" d="M1043.227-208.099c0,5.939-4.814,10.754-10.753,10.754h-26.684
		c-5.938,0-10.752-4.814-10.752-10.754v-26.682c0-5.939,4.814-10.754,10.752-10.754h26.684c5.939,0,10.753,4.814,10.753,10.754
		V-208.099z"/>
</g>
<g>
	<linearGradient id="SVGID_14_" gradientUnits="userSpaceOnUse" x1="1088.2446" y1="-262.0449" x2="1083.5264" y2="-210.5092">
		<stop  offset="0.2011" style="stop-color:#3155A5"/>
		<stop  offset="0.9418" style="stop-color:#63C5E3"/>
	</linearGradient>
	<path fill="url(#SVGID_14_)" d="M1108.621-208.099c0,5.939-4.815,10.754-10.753,10.754h-26.684
		c-5.938,0-10.753-4.814-10.753-10.754v-26.682c0-5.939,4.814-10.754,10.753-10.754h26.684c5.938,0,10.753,4.814,10.753,10.754
		V-208.099z"/>
	<g>
		<linearGradient id="SVGID_15_" gradientUnits="userSpaceOnUse" x1="1061.1675" y1="-235.061" x2="1101.001" y2="-212.561">
			<stop  offset="0.1693" style="stop-color:#F8B62D"/>
			<stop  offset="0.2622" style="stop-color:#F9BC28"/>
			<stop  offset="0.4051" style="stop-color:#FCCB11"/>
			<stop  offset="0.5767" style="stop-color:#FFE200"/>
		</linearGradient>
		<circle fill="url(#SVGID_15_)" cx="1076.059" cy="-226.65" r="8.903"/>
		<path opacity="0.5" fill="#FFFFFF" d="M1101.896-215.312c0-4.41-3.916-7.985-8.746-7.985c-0.611,0-1.206,0.058-1.781,0.166
			c-1.607-3.458-4.832-5.819-8.55-5.819c-4.616,0-8.474,3.642-9.417,8.503c-2.339,1.302-3.87,3.464-3.87,5.913
			c0,3.641,3.386,6.65,7.781,7.137v0.07h17.168v-0.103C1098.678-208.017,1101.896-211.317,1101.896-215.312z"/>
	</g>
</g>
<g>
	<path fill="#FFFFFF" d="M1174.015-208.099c0,5.939-4.814,10.754-10.754,10.754h-26.684c-5.938,0-10.752-4.814-10.752-10.754
		v-26.682c0-5.939,4.814-10.754,10.752-10.754h26.684c5.939,0,10.754,4.814,10.754,10.754V-208.099z"/>
	<g>
		<path fill="none" stroke="#000000" stroke-width="5" stroke-miterlimit="10" d="M1137.849-227.275"/>
		<polygon fill="none" points="1140.056,-222.651 1140.056,-222.651 1149.955,-229.175 1149.919,-229.198 		"/>
		<polygon fill="none" points="1140.056,-212.73 1159.783,-212.73 1159.783,-222.651 1149.955,-229.175 1140.056,-222.651 		"/>
		<polygon fill="#E60012" points="1140.056,-222.651 1149.919,-229.198 1149.955,-229.175 1153.72,-231.658 1149.919,-234.179 
			1135.644,-224.705 1135.644,-220.535 1135.644,-219.742 1140.056,-222.651 		"/>
		<polygon fill="#F8B62D" points="1140.056,-212.951 1140.056,-222.651 1135.644,-219.742 1135.644,-208.701 1140.056,-208.701 
			1140.056,-212.73 		"/>
		<rect x="1140.056" y="-212.73" fill="#009944" width="19.727" height="4.029"/>
		<polygon fill="#036EB8" points="1153.72,-231.658 1149.955,-229.175 1159.783,-222.651 1159.783,-212.997 1159.783,-212.73 
			1159.783,-208.701 1164.197,-208.701 1164.197,-224.705 		"/>
	</g>
</g>
<g>
	<path fill="#3E3A39" d="M1239.408-208.099c0,5.939-4.814,10.754-10.752,10.754h-26.686c-5.938,0-10.752-4.814-10.752-10.754
		v-26.682c0-5.939,4.814-10.754,10.752-10.754h26.686c5.938,0,10.752,4.814,10.752,10.754V-208.099z"/>
	<g>
		<path fill="#C9CACA" d="M1235.048-208.171c0,1.341-0.975,2.428-2.178,2.428h-35.115c-1.201,0-2.178-1.087-2.178-2.428v-23.603
			c0-1.34,0.977-2.427,2.178-2.427h35.115c1.203,0,2.178,1.087,2.178,2.427V-208.171z"/>
		<path fill="#0F5493" d="M1233.326-210.753c0,1.133-0.889,2.052-1.988,2.052h-32.049c-1.098,0-1.986-0.918-1.986-2.052v-19.941
			c0-1.133,0.889-2.051,1.986-2.051h32.049c1.1,0,1.988,0.918,1.988,2.051V-210.753z"/>
		<path fill="#F8B62D" d="M1233.326-211.946c0,0.962-0.889,1.742-1.988,1.742h-32.049c-1.098,0-1.986-0.78-1.986-1.742v-16.944
			c0-0.961,0.889-1.742,1.986-1.742h32.049c1.1,0,1.988,0.781,1.988,1.742V-211.946z"/>
		<path fill="#22AC38" d="M1233.326-210.356c0,0.914-0.889,1.655-1.988,1.655h-32.049c-1.098,0-1.986-0.741-1.986-1.655v-16.085
			c0-0.914,0.889-1.655,1.986-1.655h32.049c1.1,0,1.988,0.741,1.988,1.655V-210.356z"/>
		<path fill="#D71E24" d="M1233.326-208.437c0,0.891-0.889,1.614-1.988,1.614h-32.049c-1.098,0-1.986-0.723-1.986-1.614v-15.696
			c0-0.892,0.889-1.614,1.986-1.614h32.049c1.1,0,1.988,0.723,1.988,1.614V-208.437z"/>
		<g>
			<defs>
				<path id="SVGID_16_" d="M1235.048-208.707c0,1.636-0.975,2.964-2.178,2.964h-35.115c-1.201,0-2.178-1.328-2.178-2.964v-28.822
					c0-1.637,0.977-2.964,2.178-2.964h35.115c1.203,0,2.178,1.327,2.178,2.964V-208.707z"/>
			</defs>
			<clipPath id="SVGID_17_">
				<use xlink:href="#SVGID_16_"  overflow="visible"/>
			</clipPath>
			<path clip-path="url(#SVGID_17_)" fill="#B3B3B3" d="M1234.621-222.351h-1.486h-12.105h-0.281c0,0.013-0.004,0.022-0.004,0.033
				c-1.156,0.147-2.068,1.167-2.209,2.461h-0.029c0,2.173-1.621,3.934-3.627,3.934c-2.004,0-3.629-1.761-3.629-3.934h-0.002
				c-0.135-1.26-1.004-2.263-2.117-2.451c-0.002-0.015-0.006-0.029-0.008-0.044h-0.371h-12.105h-1.094
				c-1.34,0-2.424,1.269-2.424,2.834v10.94c0,1.565,1.084,2.833,2.424,2.833h39.068c1.34,0,2.424-1.268,2.424-2.833v-10.94
				C1237.044-221.082,1235.96-222.351,1234.621-222.351z"/>
		</g>
	</g>
</g>
<rect x="1195.578" y="-223.118" fill="#9FA0A0" width="1.725" height="0.768"/>
<rect x="1233.326" y="-223.059" fill="#9FA0A0" width="1.723" height="0.705"/>
<g>
	<path fill="#FFFFFF" d="M1108.725-135.843c0,5.939-4.813,10.753-10.754,10.753h-26.683c-5.938,0-10.752-4.814-10.752-10.753
		v-26.682c0-5.939,4.814-10.754,10.752-10.754h26.683c5.94,0,10.754,4.814,10.754,10.754V-135.843z"/>
	<g opacity="0.9">
		<path opacity="0.8" fill="#F39800" d="M1090.75-156.71c0,3.333-2.74,6.037-6.12,6.037l0,0c-3.379,0-6.119-2.703-6.119-6.037
			v-7.163c0-3.333,2.74-6.036,6.119-6.036l0,0c3.38,0,6.12,2.703,6.12,6.036V-156.71z"/>
		<path opacity="0.8" fill="#E60012" d="M1083.636-158.832c2.357,2.356,2.331,6.205-0.06,8.595l0,0
			c-2.389,2.389-6.238,2.415-8.594,0.059l-5.066-5.065c-2.355-2.357-2.33-6.206,0.059-8.595l0,0c2.39-2.39,6.238-2.417,8.595-0.059
			L1083.636-158.832z"/>
		<path opacity="0.8" fill="#E61673" d="M1077.104-155.303c3.333,0,6.037,2.74,6.037,6.12l0,0c0,3.379-2.704,6.118-6.037,6.118
			h-7.164c-3.333,0-6.036-2.74-6.036-6.118l0,0c0-3.38,2.703-6.12,6.036-6.12H1077.104z"/>
		<path opacity="0.8" fill="#601986" d="M1074.982-148.19c2.356-2.356,6.205-2.331,8.595,0.06l0,0
			c2.389,2.39,2.414,6.239,0.058,8.595l-5.065,5.065c-2.356,2.356-6.206,2.331-8.593-0.058l0,0c-2.39-2.39-2.417-6.238-0.06-8.596
			L1074.982-148.19z"/>
		<path opacity="0.8" fill="#036EB8" d="M1078.511-141.658c-0.001-3.333,2.74-6.037,6.119-6.037l0,0
			c3.379,0,6.118,2.704,6.118,6.037v7.164c0,3.331-2.739,6.035-6.117,6.035l0,0c-3.38,0-6.121-2.703-6.12-6.036V-141.658z"/>
		<path opacity="0.8" fill="#00913A" d="M1085.625-139.536c-2.358-2.356-2.331-6.206,0.058-8.595l0,0
			c2.39-2.389,6.239-2.415,8.595-0.059l5.065,5.066c2.356,2.355,2.332,6.205-0.057,8.593l0,0c-2.391,2.39-6.24,2.417-8.597,0.059
			L1085.625-139.536z"/>
		<path opacity="0.8" fill="#FAEE00" d="M1094.278-150.178c-2.356,2.357-6.205,2.33-8.594-0.059l0,0
			c-2.389-2.39-2.415-6.239-0.059-8.595l5.065-5.065c2.356-2.356,6.205-2.331,8.594,0.058l0,0c2.391,2.39,2.417,6.24,0.058,8.597
			L1094.278-150.178z"/>
		<path opacity="0.8" fill="#8FC31F" d="M1092.155-143.065c-3.333,0.002-6.035-2.74-6.036-6.118l0,0
			c0.001-3.38,2.704-6.119,6.036-6.119h7.165c3.33,0,6.035,2.739,6.035,6.117l0,0c0,3.38-2.704,6.121-6.037,6.12H1092.155z"/>
	</g>
</g>
<g>
	<g>
		<g>
			<defs>
				<path id="SVGID_18_" d="M1043.579-135.842c0,5.938-4.815,10.752-10.752,10.752h-26.685c-5.937,0-10.752-4.814-10.752-10.752
					v-26.677c0-5.938,4.815-10.752,10.752-10.752h26.685c5.937,0,10.752,4.813,10.752,10.752V-135.842z"/>
			</defs>
			<clipPath id="SVGID_19_">
				<use xlink:href="#SVGID_18_"  overflow="visible"/>
			</clipPath>
			<g clip-path="url(#SVGID_19_)">
				<polygon fill="#0093D6" points="1020.988,-146.503 1000.781,-126.301 999.665,-125.085 1042.847,-125.085 1041.701,-126.334 
					1041.431,-126.064 				"/>
				<polygon fill="#999999" points="1044.056,-131.136 1044.429,-169.94 1024.837,-150.352 				"/>
				<polygon fill="#999999" points="1044.031,-128.499 1044.032,-128.665 1043.949,-128.582 				"/>
				<polygon fill="#009F53" points="994.337,-174.436 995.116,-128.333 1041.64,-174.848 				"/>
				<polygon fill="#E6E6E6" points="1044.056,-131.136 1044.032,-128.665 1045.28,-129.912 				"/>
				<polygon fill="#E6E6E6" points="1022.129,-147.644 1041.701,-126.334 1043.949,-128.582 1023.666,-149.181 				"/>
				<polygon fill="#E6E6E6" points="1020.988,-146.503 1041.431,-126.064 1041.701,-126.334 1022.129,-147.644 				"/>
				<polygon fill="#E6E6E6" points="1024.837,-150.352 1023.666,-149.181 1043.949,-128.582 1044.032,-128.665 1044.056,-131.136 
									"/>
				<polygon fill="#FFF100" points="1019.332,-148.16 1023.18,-152.007 1023.746,-151.442 1044.445,-171.67 1044.429,-169.94 
					1051.082,-176.592 1047.233,-180.44 1041.64,-174.848 1043.852,-174.867 995.174,-124.932 995.116,-128.333 991.431,-124.649 
					995.28,-120.8 1000.781,-126.301 1020.126,-147.364 				"/>
				<polygon fill="#FFF100" points="1020.126,-147.364 1000.781,-126.301 1020.988,-146.503 				"/>
				<polygon fill="#FFF100" points="1023.746,-151.442 1024.837,-150.352 1044.429,-169.94 1044.445,-171.67 				"/>
				<polygon fill="#FFF100" points="1043.852,-174.867 1041.64,-174.848 995.116,-128.333 995.174,-124.932 				"/>
				<polygon fill="#FFF100" points="1023.746,-151.442 1023.18,-152.007 1019.332,-148.16 1020.126,-147.364 1021.257,-148.595 
					1022.129,-147.644 1023.666,-149.181 1022.57,-150.293 				"/>
				<polygon fill="#FFF100" points="1020.126,-147.364 1020.988,-146.503 1022.129,-147.644 1021.257,-148.595 				"/>
				<polygon fill="#FFF100" points="1022.57,-150.293 1023.666,-149.181 1024.837,-150.352 1023.746,-151.442 				"/>
			</g>
		</g>
		<path fill="#DC001A" d="M1043.556-160.522c0.355-6.451-3.348-13.009-10.181-12.749c-5.713,0.218-10.618,4.437-10.618,11.354
			c0,0.07,0.018,0.148,0.024,0.222c-0.04,0.327-0.064,0.658-0.064,0.996c0,3.77,3.99,6.812,6.27,8.419
			c0.565,0.661,1.042,1.232,1.352,1.66c2.603,4.95,2.426,8.725,3.207,8.725c1.119,0,0.285-2.937,2.857-8.441
			c0.316-0.53,1.22-2.096,2.419-2.875c1.799-1.815,3.149-2.308,3.928-3.948c0.271-0.389,0.611-1.639,0.663-1.909
			c0.137-0.577,0.103-0.931,0.103-0.938c0.006-0.067,0.007-0.136,0.011-0.205C1043.539-160.313,1043.549-160.416,1043.556-160.522z"
			/>
		<path fill="#D0E39E" d="M1016.375-161.408h-7.1v2.582h4.084c-0.644,2.334-2.784,4.056-5.325,4.056
			c-3.048,0-5.527-2.475-5.527-5.517c0-3.042,2.479-5.516,5.528-5.516h0.001c1.38,0,2.701,0.51,3.721,1.438l1.972-2.158
			c-1.56-1.419-3.581-2.2-5.692-2.2h-0.002c-4.662,0-8.455,3.785-8.455,8.436c0,4.652,3.792,8.437,8.455,8.437
			c4.162,0,7.621-3.02,8.317-6.977h0.024V-161.408z"/>
	</g>
	<circle fill="#930000" cx="1033.511" cy="-162.692" r="3.562"/>
</g>
<radialGradient id="SVGID_20_" cx="1142.02" cy="-123.189" r="67.5348" fx="1141.6962" fy="-123.0972" gradientTransform="matrix(1.0888 0 0 1.0888 -104.1048 20.6524)" gradientUnits="userSpaceOnUse">
	<stop  offset="0.0317" style="stop-color:#FFFFFF"/>
	<stop  offset="0.127" style="stop-color:#FAEE00"/>
	<stop  offset="0.2593" style="stop-color:#EA5514"/>
	<stop  offset="0.328" style="stop-color:#E72012"/>
	<stop  offset="0.4074" style="stop-color:#E60012"/>
	<stop  offset="0.582" style="stop-color:#9F356F"/>
	<stop  offset="0.6825" style="stop-color:#93387A"/>
	<stop  offset="0.8995" style="stop-color:#036EB8"/>
</radialGradient>
<path fill="url(#SVGID_20_)" d="M1174.066-135.843c0,5.939-4.814,10.753-10.752,10.753h-26.684c-5.938,0-10.752-4.814-10.752-10.753
	v-26.682c0-5.939,4.814-10.753,10.752-10.753h26.684c5.938,0,10.752,4.814,10.752,10.753V-135.843z"/>
<path fill="none" stroke="#FFFFFF" stroke-width="3" stroke-miterlimit="10" d="M1164.654-139.222c0,2.776-2.438,5.025-5.445,5.025
	h-18.473c-3.006,0-5.443-2.25-5.443-5.025v-19.926c0-2.776,2.438-5.025,5.443-5.025h18.473c3.008,0,5.445,2.25,5.445,5.025V-139.222
	z"/>
<circle fill="none" stroke="#FFFFFF" stroke-width="3" stroke-miterlimit="10" cx="1149.973" cy="-149.185" r="7.688"/>
<circle fill="#FFFFFF" cx="1158.949" cy="-158.295" r="1.855"/>
<g>
	<circle fill="#A49590" cx="181.076" cy="45.354" r="42.52"/>
	<g>
		<path fill="none" stroke="#FFFFFF" stroke-width="4" stroke-miterlimit="10" d="M203.97,60.892c0,4.329-3.801,7.837-8.492,7.837
			h-28.808c-4.688,0-8.489-3.508-8.489-7.837V29.818c0-4.329,3.801-7.837,8.489-7.837h28.808c4.69,0,8.492,3.508,8.492,7.837V60.892
			z"/>
		<circle fill="none" stroke="#FFFFFF" stroke-width="4" stroke-miterlimit="10" cx="181.076" cy="45.356" r="11.99"/>
		<circle fill="#FFFFFF" cx="195.074" cy="31.148" r="2.894"/>
	</g>
</g>
<g>
	<circle fill="#FFFFFF" cx="181.076" cy="172.231" r="42.52"/>
	<g>
		<path fill="none" stroke="#A2938F" stroke-width="4" stroke-miterlimit="10" d="M203.97,187.769c0,4.329-3.801,7.837-8.492,7.837
			h-28.808c-4.688,0-8.489-3.508-8.489-7.837v-31.074c0-4.329,3.801-7.837,8.489-7.837h28.808c4.69,0,8.492,3.508,8.492,7.837
			V187.769z"/>
		<circle fill="none" stroke="#A2938F" stroke-width="4" stroke-miterlimit="10" cx="181.076" cy="172.233" r="11.99"/>
		<circle fill="#A2938F" cx="195.074" cy="158.025" r="2.894"/>
	</g>
</g>
<g>
	<path fill="#FFFFFF" d="M1239.41-135.843c0,5.939-4.814,10.753-10.754,10.753h-26.684c-5.938,0-10.752-4.814-10.752-10.753v-26.682
		c0-5.939,4.814-10.753,10.752-10.753h26.684c5.939,0,10.754,4.814,10.754,10.753V-135.843z"/>
	<g>
		<circle fill="none" stroke="#0085C9" stroke-miterlimit="10" cx="1200.091" cy="-161.527" r="3.666"/>
		<circle fill="#0085C9" cx="1200.09" cy="-161.527" r="2.124"/>
	</g>
	<g>
		<circle fill="#FFFFFF" stroke="#D70051" stroke-miterlimit="10" cx="1200.091" cy="-149.185" r="3.666"/>
		<circle fill="#E60012" cx="1200.09" cy="-149.185" r="2.124"/>
	</g>
	<g>
		<circle fill="none" stroke="#F8B62D" stroke-miterlimit="10" cx="1200.091" cy="-136.842" r="3.666"/>
		<circle fill="#F8B62D" cx="1200.09" cy="-136.842" r="2.124"/>
	</g>
	
		<line fill="none" stroke="#B5B5B6" stroke-width="0.75" stroke-miterlimit="10" x1="1208.083" y1="-161.527" x2="1233.326" y2="-161.527"/>
	
		<line fill="none" stroke="#B5B5B6" stroke-width="0.75" stroke-miterlimit="10" x1="1208.083" y1="-149.185" x2="1233.326" y2="-149.184"/>
	
		<line fill="none" stroke="#B5B5B6" stroke-width="0.75" stroke-miterlimit="10" x1="1208.083" y1="-136.842" x2="1233.326" y2="-136.841"/>
</g>
<linearGradient id="SVGID_21_" gradientUnits="userSpaceOnUse" x1="1150.4302" y1="-104.8198" x2="1149.3776" y2="-26.4012">
	<stop  offset="0.0053" style="stop-color:#1A479C"/>
	<stop  offset="0.4497" style="stop-color:#2EA7E0"/>
	<stop  offset="0.7037" style="stop-color:#66C5D9"/>
	<stop  offset="0.9841" style="stop-color:#EFEFEF"/>
</linearGradient>
<path fill="url(#SVGID_21_)" d="M1174.068-57.488c0,5.939-4.816,10.754-10.754,10.754h-26.684c-5.938,0-10.752-4.814-10.752-10.754
	v-26.681c0-5.939,4.814-10.754,10.752-10.754h26.684c5.938,0,10.754,4.814,10.754,10.754V-57.488z"/>
<g>
	<g>
		<linearGradient id="SVGID_22_" gradientUnits="userSpaceOnUse" x1="1002.5044" y1="-101.4146" x2="1033.736" y2="-46.0899">
			<stop  offset="0.0794" style="stop-color:#EFEFEF"/>
			<stop  offset="0.328" style="stop-color:#DCDDDD"/>
			<stop  offset="0.6455" style="stop-color:#B5B5B6"/>
			<stop  offset="0.9577" style="stop-color:#9FA0A0"/>
		</linearGradient>
		<path fill="url(#SVGID_22_)" d="M1043.347-58.647c0,5.989-4.855,10.843-10.843,10.843h-26.903
			c-5.987,0-10.841-4.854-10.841-10.843v-26.902c0-5.988,4.854-10.843,10.841-10.843h26.903c5.988,0,10.843,4.855,10.843,10.843
			V-58.647z"/>
		<circle fill="#494545" cx="1019.053" cy="-72.098" r="21.743"/>
		<linearGradient id="SVGID_23_" gradientUnits="userSpaceOnUse" x1="1000.9907" y1="-86.0225" x2="1046.3977" y2="-51.0001">
			<stop  offset="0.0794" style="stop-color:#EFEFEF"/>
			<stop  offset="0.3545" style="stop-color:#DCDDDD"/>
			<stop  offset="0.7249" style="stop-color:#B5B5B6"/>
			<stop  offset="1" style="stop-color:#728E9D"/>
		</linearGradient>
		<path fill="url(#SVGID_23_)" d="M1035.764-72.087c0-0.042-0.002-0.083-0.003-0.124l2.875-0.358l-0.018-0.567l-2.901-0.155
			c-0.031-0.419-0.073-0.835-0.132-1.245l2.793-0.753l-0.096-0.559l-2.891,0.25c-0.087-0.41-0.192-0.814-0.309-1.214l2.662-1.135
			l-0.173-0.54l-2.823,0.648c-0.144-0.393-0.307-0.778-0.479-1.157l2.479-1.495l-0.246-0.512l-2.708,1.037
			c-0.198-0.369-0.412-0.728-0.635-1.079l2.247-1.826l-0.314-0.473l-2.541,1.405c-0.247-0.337-0.506-0.664-0.777-0.981l1.973-2.12
			l-0.378-0.425l-2.321,1.746c-0.291-0.299-0.592-0.588-0.904-0.864l1.658-2.375l-0.433-0.367l-2.057,2.052
			c-0.328-0.256-0.665-0.502-1.014-0.733l1.311-2.58l-0.48-0.305l-1.75,2.318c-0.361-0.208-0.729-0.407-1.106-0.588l0.938-2.733
			l-0.518-0.235l-1.409,2.538c-0.387-0.155-0.778-0.299-1.179-0.426l0.549-2.838l-0.546-0.159l-1.042,2.708
			c-0.404-0.101-0.813-0.184-1.227-0.254l0.149-2.891l-0.564-0.082l-0.655,2.825c-0.412-0.042-0.83-0.064-1.25-0.075l-0.258-2.889
			h-0.567l-0.257,2.894c-0.42,0.015-0.836,0.045-1.247,0.09l-0.656-2.821l-0.562,0.079l0.147,2.899
			c-0.413,0.073-0.822,0.157-1.224,0.26l-1.041-2.697l-0.544,0.155l0.549,2.849c-0.398,0.13-0.791,0.274-1.175,0.433l-1.407-2.529
			l-0.518,0.23l0.94,2.744c-0.375,0.185-0.742,0.383-1.101,0.595l-1.747-2.311l-0.481,0.299l1.313,2.587
			c-0.345,0.234-0.679,0.484-1.005,0.744l-2.053-2.046l-0.435,0.363l1.662,2.38c-0.309,0.28-0.605,0.574-0.892,0.875l-2.32-1.741
			l-0.379,0.421l1.978,2.125c-0.267,0.32-0.521,0.651-0.764,0.99l-2.538-1.401l-0.318,0.469l2.254,1.83
			c-0.221,0.354-0.427,0.716-0.621,1.086l-2.706-1.034l-0.25,0.509l2.485,1.499c-0.168,0.38-0.324,0.766-0.464,1.161l-2.821-0.646
			l-0.176,0.54l2.67,1.138c-0.113,0.399-0.216,0.803-0.3,1.213l-2.882-0.247l-0.1,0.559l2.804,0.754
			c-0.056,0.41-0.098,0.825-0.124,1.244l-2.894,0.157l-0.021,0.567l2.881,0.357c0.001,0.421,0.021,0.836,0.053,1.249l-2.845,0.558
			l0.057,0.564l2.903-0.047c0.059,0.416,0.133,0.825,0.223,1.23l-2.736,0.947l0.135,0.551l2.868-0.45
			c0.116,0.402,0.244,0.799,0.389,1.188l-2.576,1.318l0.211,0.527l2.778-0.846c0.171,0.381,0.352,0.757,0.55,1.123l-2.367,1.664
			l0.284,0.492l2.633-1.224c0.224,0.353,0.457,0.699,0.704,1.034l-2.116,1.979l0.35,0.448l2.438-1.58
			c0.269,0.319,0.549,0.627,0.841,0.924l-1.821,2.257l0.409,0.395l2.194-1.903c0.309,0.278,0.631,0.543,0.961,0.797l-1.489,2.488
			l0.46,0.335l1.906-2.188c0.345,0.231,0.702,0.449,1.065,0.655l-1.128,2.67l0.502,0.267l1.581-2.43
			c0.375,0.182,0.758,0.346,1.147,0.5l-0.745,2.8l0.534,0.195l1.229-2.627c0.395,0.126,0.797,0.238,1.205,0.336l-0.348,2.876
			l0.556,0.118l0.852-2.776c0.408,0.07,0.82,0.13,1.239,0.169l0.055,2.897l0.566,0.039l0.458-2.87
			c0.18,0.005,0.361,0.013,0.542,0.013c0.237,0,0.473-0.008,0.707-0.018l0.459,2.863l0.566-0.038l0.055-2.903
			c0.417-0.043,0.829-0.107,1.237-0.181l0.853,2.771l0.555-0.118l-0.351-2.879c0.407-0.102,0.807-0.22,1.202-0.352l1.229,2.622
			l0.533-0.192l-0.748-2.804c0.388-0.159,0.768-0.33,1.141-0.516l1.581,2.426l0.502-0.265l-1.132-2.674
			c0.361-0.211,0.715-0.432,1.059-0.668l1.905,2.184l0.459-0.333l-1.495-2.493c0.328-0.258,0.65-0.525,0.958-0.807l2.189,1.897
			l0.409-0.393l-1.827-2.261c0.289-0.3,0.57-0.61,0.835-0.931l2.432,1.573l0.35-0.446l-2.123-1.983
			c0.245-0.337,0.479-0.684,0.699-1.041l2.625,1.22l0.285-0.49l-2.376-1.667c0.195-0.368,0.377-0.744,0.545-1.128l2.769,0.842
			l0.215-0.525l-2.583-1.319c0.142-0.391,0.266-0.79,0.377-1.194l2.861,0.448l0.139-0.55l-2.741-0.946
			c0.085-0.406,0.152-0.819,0.207-1.236l2.897,0.047l0.062-0.565l-2.852-0.556C1035.747-71.334,1035.764-71.709,1035.764-72.087z
			 M1012.707-63.739l-0.187,0.326c-0.47,0.798-1.159,1.374-2.007,1.534c-0.837,0.155-1.67-0.12-2.391-0.676
			c-0.357-0.348-0.693-0.712-1.006-1.092c-1.952-2.379-3.024-5.349-3.071-8.386l0.005,0c-0.034-3.035,0.955-6.029,2.839-8.457
			c0.303-0.39,0.627-0.763,0.977-1.12c0.704-0.576,1.53-0.874,2.371-0.741c0.854,0.136,1.557,0.692,2.047,1.477l0.196,0.322
			l4.582,7.541l0.089,0.147c0.127,0.204,0.21,0.419,0.215,0.648l0.001,0.007c0.001,0.005,0.002,0.008,0.002,0.01
			c0.001,0.137-0.023,0.271-0.065,0.401l-0.265,0.462L1012.707-63.739z M1032.647-67.495c-0.123,0.482-0.271,0.957-0.444,1.416
			c-1.082,2.882-3.12,5.292-5.724,6.853l-0.003-0.004c-2.611,1.546-5.698,2.187-8.745,1.768c-0.488-0.068-0.973-0.162-1.458-0.285
			c-0.849-0.323-1.521-0.889-1.826-1.682c-0.309-0.808-0.179-1.696,0.255-2.513l0.182-0.333l4.24-7.738l0.083-0.149
			c0.112-0.21,0.259-0.391,0.453-0.512l0.006-0.004c0.003-0.002,0.006-0.004,0.009-0.006c0.116-0.07,0.245-0.116,0.379-0.143
			l0.533-0.001l8.744-0.045l0.375-0.002c0.926,0.007,1.769,0.316,2.332,0.972C1032.591-69.257,1032.769-68.396,1032.647-67.495z
			 M1032.19-74.535c-0.543,0.673-1.377,1.002-2.302,1.036l-0.376,0.008l-8.823,0.197l-0.169,0.004
			c-0.241,0.007-0.47-0.028-0.67-0.138l-0.008-0.003c-0.004-0.001-0.007-0.001-0.011-0.003c-0.119-0.065-0.221-0.154-0.313-0.257
			l-0.269-0.46l-4.41-7.551l-0.19-0.324c-0.456-0.807-0.61-1.689-0.322-2.504c0.282-0.803,0.939-1.389,1.779-1.733
			c0.48-0.135,0.963-0.245,1.449-0.325c3.037-0.501,6.145,0.055,8.798,1.535l-0.002,0.003c2.645,1.487,4.742,3.839,5.902,6.686
			c0.187,0.458,0.346,0.926,0.482,1.406C1032.882-76.061,1032.728-75.196,1032.19-74.535z"/>
		<circle fill="#E60012" cx="1040.796" cy="-93.841" r="7.822"/>
		<linearGradient id="SVGID_24_" gradientUnits="userSpaceOnUse" x1="1008.7646" y1="-83.5771" x2="1037.8682" y2="-51.1243">
			<stop  offset="0.0794" style="stop-color:#EFEFEF"/>
			<stop  offset="0.3545" style="stop-color:#DCDDDD"/>
			<stop  offset="0.7249" style="stop-color:#B5B5B6"/>
			<stop  offset="1" style="stop-color:#9FA0A0"/>
		</linearGradient>
		<path fill="url(#SVGID_24_)" d="M1029.428-72.091c0-0.026-0.002-0.051-0.002-0.078l1.784-0.221l-0.011-0.353l-1.801-0.096
			c-0.018-0.26-0.044-0.518-0.083-0.773l1.735-0.467l-0.06-0.347l-1.795,0.156c-0.054-0.255-0.119-0.506-0.191-0.754l1.652-0.705
			l-0.107-0.335l-1.753,0.404c-0.089-0.245-0.191-0.483-0.297-0.719l1.538-0.927l-0.153-0.318l-1.682,0.643
			c-0.123-0.229-0.255-0.451-0.393-0.67l1.395-1.134l-0.195-0.292l-1.577,0.872c-0.153-0.209-0.314-0.412-0.483-0.609l1.225-1.317
			l-0.233-0.264l-1.442,1.084c-0.18-0.186-0.367-0.366-0.561-0.538l1.028-1.474l-0.269-0.229l-1.276,1.274
			c-0.205-0.159-0.414-0.312-0.63-0.455l0.813-1.602l-0.299-0.188l-1.086,1.439c-0.223-0.129-0.452-0.252-0.686-0.365l0.583-1.696
			l-0.322-0.146l-0.875,1.576c-0.24-0.097-0.483-0.187-0.731-0.265l0.34-1.762l-0.338-0.1l-0.647,1.681
			c-0.25-0.062-0.505-0.114-0.762-0.156l0.094-1.795l-0.352-0.051l-0.405,1.754c-0.256-0.025-0.515-0.039-0.776-0.046l-0.16-1.793
			h-0.353l-0.159,1.796c-0.261,0.01-0.518,0.029-0.773,0.057l-0.408-1.753l-0.348,0.049l0.09,1.801
			c-0.256,0.046-0.51,0.097-0.759,0.162l-0.646-1.675l-0.339,0.096l0.342,1.77c-0.247,0.081-0.491,0.17-0.729,0.268l-0.874-1.57
			l-0.32,0.143l0.583,1.704c-0.233,0.114-0.46,0.238-0.684,0.37l-1.084-1.435l-0.299,0.187l0.815,1.606
			c-0.214,0.145-0.421,0.3-0.624,0.461l-1.275-1.271l-0.27,0.226l1.032,1.478c-0.191,0.173-0.376,0.355-0.554,0.542l-1.44-1.081
			l-0.236,0.262l1.228,1.32c-0.167,0.199-0.323,0.404-0.474,0.614l-1.577-0.87l-0.197,0.292l1.399,1.136
			c-0.137,0.219-0.265,0.445-0.385,0.674l-1.68-0.642l-0.155,0.317l1.543,0.929c-0.104,0.236-0.201,0.476-0.288,0.722l-1.751-0.401
			l-0.11,0.335l1.658,0.706c-0.071,0.248-0.134,0.499-0.187,0.753l-1.788-0.153l-0.063,0.347l1.741,0.469
			c-0.035,0.255-0.061,0.512-0.077,0.772l-1.796,0.097l-0.014,0.353l1.788,0.222c0.001,0.26,0.014,0.518,0.034,0.775l-1.768,0.346
			l0.036,0.351l1.803-0.03c0.036,0.258,0.083,0.512,0.138,0.764l-1.698,0.588l0.083,0.342l1.781-0.28
			c0.073,0.25,0.152,0.496,0.242,0.738l-1.6,0.818l0.132,0.327l1.724-0.524c0.106,0.237,0.218,0.469,0.341,0.697l-1.469,1.032
			l0.176,0.306l1.635-0.761c0.138,0.22,0.282,0.435,0.437,0.643l-1.313,1.229l0.217,0.278l1.513-0.98
			c0.167,0.198,0.342,0.389,0.522,0.573l-1.13,1.401l0.254,0.245l1.362-1.181c0.193,0.172,0.391,0.337,0.597,0.495l-0.924,1.545
			l0.286,0.208l1.183-1.358c0.214,0.144,0.436,0.278,0.661,0.406l-0.7,1.658l0.312,0.166l0.982-1.508
			c0.232,0.113,0.47,0.215,0.711,0.31l-0.463,1.738l0.332,0.122l0.762-1.632c0.246,0.079,0.495,0.148,0.749,0.209l-0.216,1.787
			l0.345,0.073l0.528-1.724c0.253,0.043,0.51,0.08,0.77,0.105l0.035,1.799l0.352,0.024l0.283-1.782
			c0.113,0.003,0.224,0.009,0.337,0.009c0.148,0,0.293-0.005,0.439-0.011l0.284,1.776l0.352-0.023l0.033-1.802
			c0.26-0.028,0.516-0.067,0.768-0.114l0.529,1.721l0.345-0.073l-0.218-1.787c0.253-0.064,0.5-0.137,0.745-0.22l0.764,1.629
			l0.332-0.12l-0.465-1.741c0.241-0.098,0.477-0.205,0.708-0.32l0.981,1.506l0.312-0.164l-0.703-1.661
			c0.224-0.131,0.443-0.269,0.657-0.414l1.183,1.355l0.286-0.207l-0.928-1.548c0.204-0.16,0.403-0.326,0.595-0.501l1.358,1.177
			l0.254-0.244l-1.135-1.403c0.18-0.187,0.354-0.378,0.52-0.579l1.51,0.978l0.217-0.278l-1.318-1.231
			c0.152-0.209,0.297-0.424,0.433-0.645l1.631,0.757l0.177-0.305l-1.476-1.035c0.121-0.228,0.233-0.462,0.338-0.701l1.718,0.523
			l0.133-0.326l-1.603-0.818c0.087-0.244,0.165-0.491,0.236-0.742l1.774,0.279l0.087-0.342l-1.703-0.588
			c0.053-0.251,0.096-0.507,0.128-0.767l1.799,0.03l0.039-0.351l-1.771-0.346C1029.418-71.624,1029.428-71.856,1029.428-72.091z
			 M1019.053-63.834c-4.564,0-8.264-3.7-8.264-8.264c0-4.564,3.7-8.264,8.264-8.264c4.563,0,8.264,3.7,8.264,8.264
			C1027.317-67.534,1023.617-63.834,1019.053-63.834z"/>
	</g>
	<text transform="matrix(1 0 0 1 1037.5908 -89.9775)" fill="#FFFFFF" font-family="'ArialMT'" font-size="10.978">1</text>
</g>
<path fill="#FFFFFF" d="M1035.675-214.371c-2.454-0.825-2.737-0.979-4.979-2.227c-0.942-0.524-2.172-0.13-2.78,0.939
	c-0.67,1.18-1.003,1.771-1.673,2.952c-6.226-3.927-8.964-6.65-13.037-12.978c1.081-0.772,1.621-1.158,2.701-1.929
	c0.979-0.7,1.284-2.015,0.734-2.977c-1.31-2.288-1.875-3.502-2.796-6.037c-0.387-1.065-1.566-1.645-2.691-1.264
	c-1.257,0.426-2.123,0.719-3.085,1.044c-0.301,0.059-0.584,0.162-0.855,0.289c-1.261,0.594-2.14,1.867-2.14,3.354
	c0,0.486,0.1,0.947,0.269,1.372c0.013,0.036,0.027,0.072,0.041,0.106c0.57,1.482,1.049,2.53,1.899,4.205
	c0.442,0.871,0.673,1.3,1.156,2.143c5.145,8.992,8.973,12.802,17.786,17.705c0.683,0.38,1.027,0.562,1.727,0.912
	c1.263,0.632,2.181,1.058,3.175,1.457c0.099,0.044,0.177,0.08,0.259,0.117c0.272,0.074,0.542,0.154,0.818,0.227
	c0.144,0.038,0.291,0.056,0.438,0.076c0.011,0,0.019-0.006,0.03-0.006c0.034,0,0.058,0.016,0.09,0.019
	c0.08-0.006,0.159-0.011,0.238-0.019c0.002,0,0.003,0,0.005,0c0.022-0.002,0.033-0.007,0.058-0.009
	c0.213-0.018,0.414-0.054,0.605-0.098c1.521-0.238,2.033-1.447,2.396-2.709c0.036-0.124,0.07-0.247,0.092-0.375
	c0.277-1.123,0.515-2.087,0.871-3.53C1037.323-212.818,1036.707-214.024,1035.675-214.371z"/>
<text transform="matrix(1 0 0 1 1011.0039 -186.9395)" fill="#FFFFFF" font-family="'AdobeFanHeitiStd-Bold-B5pc-H'" font-size="8">電話</text>
<text transform="matrix(1 0 0 1 1077.0249 -186.9395)" fill="#FFFFFF" font-family="'AdobeFanHeitiStd-Bold-B5pc-H'" font-size="8">天氣</text>
<text transform="matrix(1 0 0 1 1125.1577 -186.9395)" fill="#FFFFFF" font-family="'AdobeFanHeitiStd-Bold-B5pc-H'" font-size="8">Google Home</text>
<text transform="matrix(1 0 0 1 1208.2534 -186.9395)" fill="#FFFFFF" font-family="'AdobeFanHeitiStd-Bold-B5pc-H'" font-size="8">錢包</text>
<text transform="matrix(1 0 0 1 995.2002 -114.4395)" fill="#FFFFFF" font-family="'AdobeFanHeitiStd-Bold-B5pc-H'" font-size="8">Google Maps</text>
<text transform="matrix(1 0 0 1 1011.0039 -37.4395)" fill="#FFFFFF" font-family="'AdobeFanHeitiStd-Bold-B5pc-H'" font-size="8">設定</text>
<text transform="matrix(1 0 0 1 1077.0249 -114.4395)" fill="#FFFFFF" font-family="'AdobeFanHeitiStd-Bold-B5pc-H'" font-size="8">照片</text>
<text transform="matrix(1 0 0 1 1131.6655 -114.4395)" fill="#FFFFFF" font-family="'AdobeFanHeitiStd-Bold-B5pc-H'" font-size="8">Instagram</text>
<text transform="matrix(1 0 0 1 1200.2534 -114.4395)" fill="#FFFFFF" font-family="'AdobeFanHeitiStd-Bold-B5pc-H'" font-size="8">提醒事項</text>
<g>
	<g>
		<path fill="#FFFFFF" d="M1109.48-58.757c0,5.939-4.816,10.753-10.755,10.753h-26.683c-5.937,0-10.752-4.814-10.752-10.753v-26.682
			c0-5.939,4.815-10.754,10.752-10.754h26.683c5.938,0,10.755,4.814,10.755,10.754V-58.757z"/>
	</g>
	<g>
		<path fill="#D70051" d="M1078.171-84.362v-0.581H1076v-0.567h2.171v-0.609h-1.912c-0.098,0.182-0.294,0.406-0.596,0.651
			l-0.483-0.385c0.476-0.392,0.833-0.861,1.058-1.394l0.539,0.245l-0.161,0.315h1.555v-0.609h-2.255
			c-0.056,0-0.084-0.028-0.084-0.084v-2.423c0-0.056,0.028-0.084,0.084-0.084h5.057c0.056,0,0.084,0.028,0.084,0.084v2.423
			c0,0.056-0.028,0.084-0.084,0.084h-2.206v0.609h2.521v0.567h-2.521v0.609h2.381v0.567h-2.381v0.581h2.822v0.567h-6.332v-0.567
			H1078.171z M1076.4-88.858h4.09v-0.441l-0.028-0.021h-4.041l-0.021,0.021V-88.858z M1080.49-88.319h-4.09v0.427l0.021,0.028h4.041
			c0.021,0,0.028-0.007,0.028-0.028V-88.319z"/>
		<path fill="#D70051" d="M1083.547-84.74c-0.315,0.525-0.666,0.917-1.037,1.184c-0.105-0.196-0.217-0.351-0.329-0.456
			c0.357-0.266,0.651-0.616,0.861-1.043L1083.547-84.74z M1082.727-85.77v-3.124h-0.497v-0.546h0.497V-90h0.567v0.561h1.429V-90
			h0.567v0.561h0.399v0.546h-0.399v3.124h0.477v0.539h-3.558v-0.539H1082.727z M1083.294-88.207h1.429v-0.686h-1.429V-88.207z
			 M1083.294-86.974h1.429v-0.693h-1.429V-86.974z M1083.294-85.77h1.429v-0.666h-1.429V-85.77z M1084.808-83.872
			c-0.133-0.287-0.301-0.595-0.511-0.917l0.483-0.252c0.189,0.301,0.371,0.623,0.519,0.959L1084.808-83.872z M1086.559-85.889
			c-0.084,0.777-0.309,1.534-0.666,2.262l-0.588-0.196c0.448-0.994,0.693-1.891,0.708-2.689v-3.201c0-0.105,0.049-0.161,0.161-0.161
			h2.087c0.112,0,0.175,0.056,0.175,0.168v5.379c0,0.581-0.33,0.686-0.862,0.686c-0.14,0-0.301-0.007-0.476-0.028l-0.042-0.651
			c0.28,0.077,0.49,0.112,0.609,0.112c0.203,0,0.203-0.182,0.203-0.287v-1.394H1086.559z M1086.58-88.123h1.289v-1.142
			c0-0.049-0.028-0.07-0.077-0.07h-1.142c-0.042,0-0.07,0.028-0.07,0.077V-88.123z M1086.58-86.428h1.289v-1.156h-1.289V-86.428z"/>
		<path fill="#D70051" d="M1089.286-84.551h6.303v0.623h-6.303V-84.551z M1089.643-89.727h5.589v0.623h-5.589V-89.727z
			 M1089.888-87.177h5.071v0.623h-5.071V-87.177z"/>
	</g>
	<g>
		<g>
			<g>
				<path d="M1081.805-70.828l-0.818-0.495c0.53-0.648,0.823-1.399,0.847-2.173c0.036-1.13-0.493-2.208-1.49-3.034
					c-1.009-0.837-2.374-1.317-3.843-1.351c-1.466-0.049-2.861,0.38-3.921,1.168c-1.047,0.78-1.644,1.831-1.68,2.961l-1-0.023
					c0.044-1.375,0.763-2.649,2.026-3.587c1.249-0.93,2.876-1.412,4.603-1.379c1.719,0.041,3.321,0.605,4.51,1.592
					c1.201,0.996,1.839,2.303,1.795,3.677C1082.804-72.529,1082.448-71.615,1081.805-70.828z"/>
			</g>
			<g>
				<polygon points="1070.848,-56.93 1070.02,-57.412 1081.188,-71.591 1082.016,-71.109 				"/>
			</g>
		</g>
		<g>
			<rect x="1070.032" y="-57.435" width="12.804" height="0.859"/>
		</g>
	</g>
	<g>
		<g>
			<rect x="1086.358" y="-78.479" width="13.815" height="1"/>
		</g>
		<polygon points="1099.255,-77.931 1088.247,-56.575 1089.399,-56.575 1100.169,-77.468 		"/>
	</g>
</g>
<g>
	<path fill="#FFFFFF" d="M1133.607-80.416c-0.438,0.38-0.713,0.922-0.713,1.527v16.122c0,0.499,0.188,0.957,0.498,1.316
		l11.539-9.572L1133.607-80.416z"/>
	<path fill="#FFFFFF" d="M1167.052-78.769c0-0.585-0.256-1.113-0.664-1.489l-11.121,9.343l11.305,9.495
		c0.299-0.354,0.48-0.806,0.48-1.299V-78.769z"/>
	<path fill="#FFFFFF" d="M1154.626-70.368l-2.211,1.823c-0.686,0.435-1.49,0.689-2.357,0.689c-0.838,0-1.619-0.24-2.289-0.648
		l-2.289-1.885l-11.549,9.515c0.404,0.462,1.018,0.758,1.705,0.758h28.785c0.693,0,1.313-0.301,1.715-0.77L1154.626-70.368z"/>
	<path fill="#FFFFFF" d="M1164.41-81.541h-28.787c-0.576,0-1.098,0.209-1.49,0.549l12.537,10.328l1.02,0.842
		c0.686,0.413,1.486,0.656,2.346,0.656c0.918,0,1.771-0.275,2.486-0.744l0.766-0.631l12.65-10.421
		C1165.541-81.319,1165.001-81.541,1164.41-81.541z"/>
</g>
<text transform="matrix(1 0 0 1 1073.0249 -37.4395)" fill="#FFFFFF" font-family="'AdobeFanHeitiStd-Bold-B5pc-H'" font-size="8">行事曆</text>
<text transform="matrix(1 0 0 1 1142.1167 -37.4395)" fill="#FFFFFF" font-family="'AdobeFanHeitiStd-Bold-B5pc-H'" font-size="8">郵件</text>
<g>
	<path fill="#FFFFFF" d="M1239.238-57.047c0,5.938-4.814,10.752-10.754,10.752H1201.8c-5.938,0-10.752-4.814-10.752-10.752v-26.683
		c0-5.938,4.814-10.753,10.752-10.753h26.684c5.939,0,10.754,4.814,10.754,10.753V-57.047z"/>
	
		<radialGradient id="SVGID_25_" cx="1221.1519" cy="-61.3296" r="22.9708" fx="1219.9618" fy="-62.9879" gradientTransform="matrix(-0.7337 -0.7312 1.0688 -0.9103 2180.6406 775.7463)" gradientUnits="userSpaceOnUse">
		<stop  offset="0.0317" style="stop-color:#47A4DC"/>
		<stop  offset="0.2063" style="stop-color:#60A0D6"/>
		<stop  offset="0.3439" style="stop-color:#7163A1"/>
		<stop  offset="0.5185" style="stop-color:#7E69AD"/>
		<stop  offset="0.6614" style="stop-color:#AC70A6"/>
		<stop  offset="0.9312" style="stop-color:#EA596E"/>
	</radialGradient>
	<path fill="url(#SVGID_25_)" d="M1225.147-85.779l-17.491,2.573c-0.353,0-0.638,0.162-0.638,0.36v3.381v2.26v14.922l0,0
		c0,0.531-0.006,0.656-1.507,0.666c-0.172-0.016-0.347-0.024-0.522-0.024c-2.469,0-4.472,1.487-4.472,3.322
		c0,1.834,2.003,3.321,4.472,3.321c2.467,0,4.466-1.487,4.466-3.321v-18.526l13.894-2.573v14.873
		c-0.065,0.273-0.341,0.349-1.505,0.354c-0.175-0.014-0.349-0.023-0.526-0.023c-2.469,0-4.47,1.488-4.47,3.323
		c0,1.833,2.001,3.321,4.47,3.321c2.467,0,4.468-1.488,4.468-3.321v-18.886v-2.259v-3.382
		C1225.785-85.619,1225.498-85.779,1225.147-85.779z"/>
</g>
<text transform="matrix(1 0 0 1 1208.0835 -37.4395)" fill="#FFFFFF" font-family="'AdobeFanHeitiStd-Bold-B5pc-H'" font-size="8">音樂</text>
<g>
	<circle fill="#A49590" cx="310.083" cy="45.354" r="42.52"/>
	<path fill="#FFFFFF" d="M314.982,31.347c0.808-0.703,3.004-0.867,7.901-0.904l0.001-9.741
		c-18.035,0.327-19.132,3.126-19.481,19.082h-9.083v9.764h9.642v28.067h10.171V49.547h7.084l2.558-9.764h-9.642v-3.442
		C314.242,33.773,314.476,31.791,314.982,31.347z"/>
</g>
<g>
	<circle fill="#FFFFFF" cx="307.506" cy="183.62" r="42.52"/>
	<path fill="#A2938F" d="M312.406,169.613c0.808-0.703,3.004-0.867,7.901-0.904l0.001-9.741
		c-18.035,0.327-19.132,3.126-19.481,19.082h-9.082v9.764h9.642v28.067h10.171v-28.067h7.084l2.558-9.764h-9.642v-3.442
		C311.666,172.039,311.899,170.056,312.406,169.613z"/>
</g>
<g>
	<circle fill="#A49590" cx="45.354" cy="45.354" r="42.52"/>
	<g id="XMLID_1_">
		<g>
			<path fill="#FFFFFF" d="M39.378,68.675c-3.946,0.142-12.912-0.513-18.206-4.785c2.646,0.186,4.786,0.282,6.272-0.275
				c1.672-0.282,7.011-1.954,9.333-4.184c-0.65-0.044-2.832-0.416-4.645-1.3c-1.813-0.881-3.671-2.367-5.388-6.269
				c1.858,0.234,3.574,0.186,4.786-0.093c-1.583-0.602-8.085-2.88-8.501-10.73c0.973,0.605,2.879,1.672,4.689,1.3
				c-0.602-0.646-7.569-6.546-3.158-14.305c1.349,1.583,9.385,10.961,22.178,11.103c0,0-1.23-7.662,5.387-11.727
				c6.618-4.064,13.146,1.672,13.004,1.973c0.65-0.048,6.387-1.694,6.9-2.578c-0.743,1.857-1.884,3.786-4.6,5.9
				c0.364-0.282,1.665-0.271,2.147-0.375c1.367-0.298,2.649-0.759,3.953-1.271c-0.111,0.152-2.653,3.615-5.335,5.499
				c-0.044,1.605-0.067,12.752-7.36,21.483C53.542,66.773,43.324,68.535,39.378,68.675z"/>
		</g>
		<g>
		</g>
	</g>
</g>
<g>
	<circle fill="#FFFFFF" cx="43.526" cy="172.231" r="42.52"/>
	<g id="XMLID_2_">
		<g>
			<path fill="#A2938F" d="M71.703,157.936c-0.111,0.152-2.653,3.615-5.335,5.499c-0.044,1.605-0.067,12.752-7.36,21.483
				c-7.294,8.731-17.512,10.493-21.458,10.634c-3.946,0.142-12.912-0.513-18.206-4.785c2.646,0.186,4.786,0.282,6.272-0.275
				c1.672-0.282,7.011-1.954,9.333-4.184c-0.65-0.044-2.832-0.416-4.645-1.3c-1.813-0.881-3.671-2.367-5.388-6.269
				c1.858,0.234,3.574,0.186,4.786-0.093c-1.583-0.602-8.085-2.88-8.501-10.73c0.973,0.605,2.879,1.672,4.689,1.3
				c-0.602-0.646-7.569-6.546-3.158-14.305c1.349,1.583,9.385,10.961,22.178,11.103c0,0-1.23-7.662,5.387-11.727
				c6.618-4.064,13.146,1.672,13.004,1.973c0.65-0.048,6.387-1.694,6.9-2.578c-0.743,1.857-1.884,3.786-4.6,5.9
				c0.364-0.282,1.665-0.271,2.147-0.375C69.117,158.91,70.399,158.449,71.703,157.936z"/>
		</g>
		<g>
		</g>
	</g>
</g>
</svg>
